<svg width="58" height="58" viewBox="0 0 58 58" fill="none" xmlns="http://www.w3.org/2000/svg">
<g clip-path="url(#clip0_171_2133)">
<path d="M57.9567 24.8482C58.0993 26.6196 57.4613 28.3548 56.207 29.609L47.9517 39.3965C47.7197 39.6164 47.4224 39.7252 47.1252 39.7252C46.8038 39.7252 46.4823 39.5971 46.2455 39.3458C45.7887 38.86 45.8129 38.0939 46.2987 37.6372L54.4259 27.9802C55.25 27.1489 55.6343 26.1073 55.5473 25.0439C55.4603 23.9661 54.9213 23.0164 54.0247 22.3735C52.6158 21.3561 50.5375 21.6123 49.189 22.9584L48.0701 24.3697C47.7511 24.7733 47.2122 24.9279 46.7264 24.7564C46.2431 24.5872 45.9193 24.1304 45.9193 23.6157V9.66911C45.9193 8.33753 44.8342 7.25244 43.5026 7.25244C42.171 7.25244 41.0859 8.33753 41.0859 9.66911V18.1274C41.0859 18.7944 40.5446 19.3358 39.8776 19.3358C39.2106 19.3358 38.6693 18.7944 38.6693 18.1274V4.83336C38.6693 3.50177 37.5842 2.41669 36.2526 2.41669C34.921 2.41669 33.8359 3.50177 33.8359 4.83336V13.2917C33.8359 13.9587 33.2946 14.5 32.6276 14.5C31.9606 14.5 31.4193 13.9587 31.4193 13.2917V7.25003C31.4193 5.91844 30.3342 4.83336 29.0026 4.83336C27.671 4.83336 26.5859 5.91844 26.5859 7.25003V10.875C26.5859 11.542 26.0446 12.0834 25.3776 12.0834C25.3438 12.0834 25.3148 12.0664 25.2833 12.064C25.2471 12.0664 25.4163 12.0834 25.3776 12.0834C24.8798 12.0834 24.2079 11.774 24.0315 11.2786C23.6908 10.3168 22.7724 9.66669 21.7526 9.66669C20.7328 9.66669 19.8144 10.3144 19.4737 11.2786C19.2513 11.9094 18.5578 12.238 17.9318 12.0157C17.3011 11.7934 16.9724 11.1046 17.1948 10.4739C17.8763 8.54536 19.7081 7.25244 21.7526 7.25244C22.6298 7.25244 23.4443 7.53036 24.1693 7.95327V7.25244C24.1693 4.58686 26.337 2.41911 29.0026 2.41911C30.0055 2.41911 30.9359 2.72602 31.7093 3.25044C32.369 1.36544 34.1453 0.00244141 36.2526 0.00244141C38.9182 0.00244141 41.0859 2.17019 41.0859 4.83577V5.50761C41.7988 5.09194 42.6181 4.83577 43.5026 4.83577C46.1682 4.83577 48.3359 7.00352 48.3359 9.66911V20.5538C50.5375 19.0144 53.3892 18.9346 55.4385 20.4112C56.8982 21.4624 57.8141 23.0792 57.9567 24.8482ZM41.0835 26.5834V42.2917C41.0835 51.1004 34.1839 58 25.3752 58H21.03C16.651 58 12.5306 56.3929 9.73209 53.5896L1.72325 44.0293C0.541502 42.8548 -0.0964984 41.1196 0.0460849 39.3482C0.188668 37.5768 1.107 35.9624 2.56425 34.9112C4.63533 33.4153 7.51842 33.5119 9.66925 35.0272V24.1667C9.66925 21.5011 11.837 19.3334 14.5026 19.3334C15.3871 19.3334 16.2063 19.5895 16.9193 20.0052V19.3334C16.9193 16.6678 19.087 14.5 21.7526 14.5C23.8599 14.5 25.6362 15.863 26.2959 17.748C27.0693 17.2236 27.9997 16.9167 29.0026 16.9167C31.6682 16.9167 33.8359 19.0844 33.8359 21.75V22.4219C34.5488 22.0062 35.3681 21.75 36.2526 21.75C38.9182 21.75 41.0835 23.9178 41.0835 26.5834ZM38.6668 26.5834C38.6668 25.2518 37.5818 24.1667 36.2502 24.1667C34.9186 24.1667 33.8335 25.2518 33.8335 26.5834V37.4584C33.8335 38.1254 33.2922 38.6667 32.6252 38.6667C31.9582 38.6667 31.4168 38.1254 31.4168 37.4584V21.75C31.4168 20.4184 30.3318 19.3334 29.0002 19.3334C27.6686 19.3334 26.5835 20.4184 26.5835 21.75V37.4584C26.5835 38.1254 26.0422 38.6667 25.3752 38.6667C24.7082 38.6667 24.1668 38.1254 24.1668 37.4584V19.3334C24.1668 18.0018 23.0818 16.9167 21.7502 16.9167C20.4186 16.9167 19.3335 18.0018 19.3335 19.3334V37.4584C19.3335 38.1254 18.7922 38.6667 18.1252 38.6667C17.4582 38.6667 16.9168 38.1254 16.9168 37.4584V24.1667C16.9168 22.8351 15.8318 21.75 14.5002 21.75C13.1686 21.75 12.0835 22.8351 12.0835 24.1667V38.1133C12.0835 38.6256 11.7597 39.0824 11.2763 39.2539C10.7906 39.4255 10.2541 39.2709 9.93267 38.8697L8.72433 37.3593C7.46525 36.1074 5.3845 35.8609 3.978 36.8735C3.08142 37.5212 2.5425 38.4685 2.4555 39.5439C2.3685 40.6049 2.75275 41.6464 3.50434 42.4004L11.5132 51.9608C13.7921 54.2349 17.289 55.5858 21.03 55.5858H25.3752C32.8282 55.5858 38.6668 49.7471 38.6668 42.2941V26.5858V26.5834Z" fill="#353148"/>
</g>
<defs>
<clipPath id="clip0_171_2133">
<rect width="58" height="58" fill="white"/>
</clipPath>
</defs>
</svg>
