<svg width="56" height="56" viewBox="0 0 56 56" fill="none" xmlns="http://www.w3.org/2000/svg">
<g clip-path="url(#clip0_171_2131)">
<path d="M23.3333 54.8333C23.3333 55.4773 22.8107 56 22.1667 56H1.16667C0.522667 56 0 55.4773 0 54.8333C0 54.1893 0.522667 53.6667 1.16667 53.6667H22.1667C22.8107 53.6667 23.3333 54.1893 23.3333 54.8333ZM1.16667 46.6667H17.5C18.144 46.6667 18.6667 46.144 18.6667 45.5C18.6667 44.856 18.144 44.3333 17.5 44.3333H1.16667C0.522667 44.3333 0 44.856 0 45.5C0 46.144 0.522667 46.6667 1.16667 46.6667ZM1.16667 37.3333H12.8333C13.4773 37.3333 14 36.8107 14 36.1667C14 35.5227 13.4773 35 12.8333 35H1.16667C0.522667 35 0 35.5227 0 36.1667C0 36.8107 0.522667 37.3333 1.16667 37.3333ZM28 0C12.5603 0 0 12.5603 0 28C0 28.4083 0.007 28.8143 0.0256667 29.218C0.0536667 29.862 0.613667 30.3707 1.24133 30.3333C1.88533 30.3053 2.38467 29.7593 2.35667 29.1177C2.34033 28.7467 2.33333 28.3757 2.33333 28.0023C2.33333 13.8483 13.8483 2.33333 28 2.33333C42.1517 2.33333 53.6667 13.8483 53.6667 28C53.6667 41.79 42.8843 53.053 29.1177 53.6433C28.4737 53.6713 27.9743 54.215 28.0023 54.859C28.028 55.4867 28.546 55.9767 29.1667 55.9767C29.183 55.9767 29.2017 55.9767 29.218 55.9767C44.2377 55.335 56.0023 43.0453 56.0023 28.0023C56 12.5603 43.4397 0 28 0ZM29.1667 14C28.5227 14 28 14.5227 28 15.1667V27.9883C28 28.3897 28.2077 28.7653 28.546 28.9777L37.8793 34.8227C38.073 34.944 38.2877 35 38.5 35C38.8873 35 39.2677 34.8063 39.4893 34.454C39.83 33.908 39.6643 33.187 39.1207 32.8463L30.3333 27.3443V15.169C30.3333 14.525 29.8107 14 29.1667 14Z" fill="#353148"/>
</g>
<defs>
<clipPath id="clip0_171_2131">
<rect width="56" height="56" fill="white"/>
</clipPath>
</defs>
</svg>
