<svg width="68" height="68" viewBox="0 0 68 68" fill="none" xmlns="http://www.w3.org/2000/svg">
<g clip-path="url(#clip0_171_2143)">
<path d="M2.83333 7.08333C2.83333 4.73167 4.73167 2.83333 7.08333 2.83333H31.1667V19.8333H48.1667V32.98L51 30.1467V17.8217L33.1783 0H7.08333C3.17333 0 0 3.17333 0 7.08333V62.3333H25.5V59.5H2.83333V7.08333ZM34 4.845L46.155 17H34V4.845ZM65.9317 33.2633C63.2683 30.6 58.5933 30.6 55.9017 33.2633L31.1667 57.9983V68.0283H41.1967L65.9317 43.2933C67.2633 41.9617 68 40.1767 68 38.2783C68 36.38 67.2633 34.595 65.9317 33.2633ZM63.92 41.2817L40.0067 65.195H34V59.1883L57.9133 35.275C59.5283 33.66 62.305 33.66 63.92 35.275C64.7133 36.0683 65.1667 37.145 65.1667 38.2783C65.1667 39.4117 64.7133 40.4883 63.92 41.2817ZM39.6667 36.8617C39.6667 33.745 37.1167 31.195 34 31.195C30.8833 31.195 28.3333 33.745 28.3333 36.8617C28.3333 39.1567 29.9767 42.6133 32.3567 45.4467C30.6 47.0333 28.3333 48.195 25.5 48.195C23.2333 48.195 21.0233 47.09 19.04 45.39C23.035 40.8567 25.5 34.6517 25.5 31.195C25.5 26.52 21.675 22.695 17 22.695C12.325 22.695 8.5 26.52 8.5 31.195C8.5 34.6517 10.965 40.8283 14.96 45.39C12.9767 47.09 10.7667 48.195 8.5 48.195V51.0283C11.645 51.0283 14.535 49.5833 17 47.43C19.465 49.5833 22.355 51.0283 25.5 51.0283C34.85 51.0283 39.6667 41.1117 39.6667 36.8617ZM11.3333 31.195C11.3333 28.0783 13.8833 25.5283 17 25.5283C20.1167 25.5283 22.6667 28.0783 22.6667 31.195C22.6667 34.3117 20.3717 39.4967 17 43.35C13.6283 39.4967 11.3333 34.2833 11.3333 31.195ZM31.1667 36.8617C31.1667 35.3033 32.4417 34.0283 34 34.0283C35.5583 34.0283 36.8333 35.3033 36.8333 36.8617C36.8333 38.1367 36.0117 40.8567 34.255 43.2933C32.3283 40.885 31.1667 38.1933 31.1667 36.8617Z" fill="#353148"/>
</g>
<defs>
<clipPath id="clip0_171_2143">
<rect width="68" height="68" fill="white"/>
</clipPath>
</defs>
</svg>
