<svg width="65" height="65" viewBox="0 0 65 65" fill="none" xmlns="http://www.w3.org/2000/svg">
<g clip-path="url(#clip0_171_2141)">
<path d="M43.3336 29.7914C43.3336 30.5389 42.7269 31.1456 41.9794 31.1456H36.5627V36.5623C36.5627 37.3098 35.9561 37.9164 35.2086 37.9164C34.4611 37.9164 33.8544 37.3098 33.8544 36.5623V31.1456H28.4377C27.6902 31.1456 27.0836 30.5389 27.0836 29.7914C27.0836 29.0439 27.6902 28.4373 28.4377 28.4373H33.8544V23.0206C33.8544 22.2731 34.4611 21.6664 35.2086 21.6664C35.9561 21.6664 36.5627 22.2731 36.5627 23.0206V28.4373H41.9794C42.7269 28.4373 43.3336 29.0439 43.3336 29.7914ZM54.1669 24.5373C54.1669 31.3866 46.9438 38.9104 40.8852 44.0156C39.2413 45.3995 37.2236 46.0929 35.2086 46.0929C33.1936 46.0929 31.1786 45.3995 29.5319 44.0156C23.4733 38.9104 16.2502 31.3866 16.2502 24.5373C16.2502 18.5491 20.8056 13.6768 26.4065 13.6768C30.3688 13.6768 33.7271 15.4264 35.2086 16.3418C36.6927 15.4264 40.0484 13.6768 44.0106 13.6768C49.6088 13.6768 54.1669 18.5491 54.1669 24.5373ZM51.4586 24.5373C51.4586 20.0414 48.1192 16.3852 44.0106 16.3852C39.6502 16.3852 36.0536 19.0258 36.0183 19.0502C35.5363 19.405 34.8836 19.4077 34.4015 19.0502C34.3663 19.0231 30.7371 16.3825 26.4065 16.3825C22.2979 16.3825 18.9586 20.0414 18.9586 24.5345C18.9586 30.65 26.6773 38.0654 31.2788 41.941C33.5565 43.8585 36.8633 43.8585 39.1383 41.941C43.7398 38.0654 51.4586 30.65 51.4586 24.5345V24.5373ZM59.4671 47.3577C57.7717 49.695 56.8752 52.2543 56.8752 54.7595V58.2262C56.8752 62.2129 54.0911 64.997 50.1044 64.997H28.4377C24.7056 64.997 21.6669 61.9583 21.6669 58.2262V56.872H18.9938C13.2738 56.872 8.25793 52.8095 7.07168 47.2141L5.67418 40.622H4.1873C1.11605 40.622 0.00292969 38.2658 0.00292969 36.6814C0.00292969 33.2148 7.70272 16.5639 11.4592 11.8948C18.0377 3.13059 28.89 -1.2867 39.764 0.343716C52.8127 2.30997 63.8113 14.3268 64.7998 27.7006C65.3388 35.0077 63.4971 41.8056 59.4671 47.3577ZM62.0969 27.901C61.1977 15.7352 51.2094 4.80705 39.3604 3.02226C37.9954 2.81642 36.6304 2.71622 35.279 2.71622C26.81 2.71622 18.7636 6.66226 13.6123 13.5414L13.5798 13.582C9.76918 18.2973 2.70855 34.3414 2.70855 36.6841C2.72751 37.2339 2.99835 37.9164 4.1846 37.9164H6.77647C7.41564 37.9164 7.96272 38.3633 8.09543 38.9889L9.72043 46.6535C10.644 51.0058 14.544 54.1637 18.9938 54.1637H23.0211C23.7686 54.1637 24.3752 54.7704 24.3752 55.5179V58.2262C24.3752 60.466 26.1979 62.2887 28.4377 62.2887H50.1044C51.9786 62.2887 54.1669 61.2243 54.1669 58.2262V54.7595C54.1669 51.6775 55.2421 48.5683 57.2761 45.7652C60.9215 40.7385 62.5871 34.5608 62.0942 27.8983L62.0969 27.901Z" fill="#353148"/>
</g>
<defs>
<clipPath id="clip0_171_2141">
<rect width="65" height="65" fill="white"/>
</clipPath>
</defs>
</svg>
