<svg width="67" height="67" viewBox="0 0 67 67" fill="none" xmlns="http://www.w3.org/2000/svg">
<path d="M48.6252 41.857C41.822 41.857 36.2917 47.4933 36.2917 54.4195C36.2917 61.6108 43.6003 66.982 50.1355 66.982H60.956C62.927 66.982 64.775 66.0524 65.9057 64.4974C66.986 63.0122 67.282 61.1697 66.7208 59.4389C64.588 52.8729 59.4039 41.8598 48.6252 41.8598V41.857ZM63.6472 62.8559C63.0414 63.6906 62.0336 64.1903 60.956 64.1903H50.1355C45.024 64.1903 39.0833 59.9218 39.0833 54.4195C39.0833 49.0316 43.3657 44.6486 48.6252 44.6486C57.6395 44.6486 62.1676 54.453 64.066 60.2987C64.3507 61.1697 64.1944 62.1021 63.6472 62.8559ZM66.9972 9.02976C66.9972 6.60939 66.0592 4.33697 64.3507 2.63126H64.3479C60.9337 -0.785736 54.9595 -0.785736 51.5509 2.63126L3.99208 50.1901C1.41817 52.764 0 56.1838 0 59.8241V65.5834C0 66.3539 0.625333 66.9792 1.39583 66.9792H7.15783C10.7982 66.9792 14.218 65.561 16.7919 62.9871L64.3535 15.4311C66.0592 13.7253 67 11.4529 67 9.03256L66.9972 9.02976ZM14.8182 61.0162C12.7719 63.0625 10.05 64.1903 7.15783 64.1903H2.79167V59.8269C2.79167 56.932 3.9195 54.2129 5.96579 52.1666L43.0726 15.057L51.925 23.9093L14.8182 61.0162ZM62.3798 13.4573L53.8987 21.9384L45.0463 13.0861L53.5274 4.60497C55.8808 2.24601 60.018 2.24601 62.3742 4.60497C63.5523 5.78864 64.2055 7.36035 64.2055 9.03256C64.2055 10.7048 63.5579 12.2793 62.3798 13.4573ZM2.25567 15.0291C0.628125 13.1503 -0.147958 10.8164 0.025125 8.40164C0.198208 5.98685 1.29812 3.78701 3.11829 2.20693C4.94683 0.624056 7.2695 -0.149236 9.69825 0.0238472C12.113 0.196931 14.3129 1.29685 15.8902 3.11981L27.5956 17.2373C28.087 17.8319 28.006 18.7113 27.4142 19.2026C26.814 19.6967 25.9374 19.613 25.4488 19.0211L13.7601 4.92601C12.6881 3.68651 11.1695 2.92718 9.49725 2.80714C7.84179 2.68989 6.21425 3.22031 4.95242 4.31464C3.68779 5.41176 2.92846 6.93322 2.80842 8.60264C2.69117 10.2748 3.22438 11.8884 4.31871 13.1475L17.674 27.0165C18.2073 27.572 18.1933 28.4542 17.635 28.9902C17.3642 29.2498 17.0152 29.381 16.6663 29.381C16.3005 29.381 15.9348 29.2386 15.6613 28.9539L2.25567 15.0291Z" fill="#7F2DF1"/>
</svg>
