<svg width="142" height="49" viewBox="0 0 142 49" fill="none" xmlns="http://www.w3.org/2000/svg">
<path d="M33.0025 11.0598C32.0498 11.8113 30.8646 12.208 29.6507 12.1817C30.2197 10.7636 30.4725 9.61422 30.4725 8.73001C30.4725 7.90966 30.1563 7.48429 29.5873 7.51426C29.1448 7.53741 28.7021 8.0655 28.3864 9.15475C27.9771 10.7079 27.6605 12.2839 27.438 13.8745L30.9154 13.7556C31.0401 13.7362 31.1676 13.7455 31.2882 13.783C31.4087 13.8204 31.519 13.8849 31.6107 13.9716C31.6966 14.0491 31.764 14.1448 31.8078 14.2518C31.8516 14.3588 31.8707 14.4743 31.8637 14.5896C31.8752 14.8494 31.7844 15.1034 31.6107 15.2971C31.4311 15.4969 31.183 15.6223 30.9154 15.6485L27.1221 15.9732L26.7425 19.2746C25.9207 26.1334 25.1621 30.9693 24.4666 33.7193C23.9607 35.5758 23.0124 36.9507 21.6847 37.8407C20.3114 38.6821 18.7439 39.156 17.1336 39.2166C16.247 39.2795 15.3561 39.2414 14.4781 39.1031C13.865 39.0102 13.2687 38.8288 12.708 38.5645C12.3284 38.3952 12.3918 38.2656 12.8345 38.2425C14.2253 38.1697 15.4264 36.6553 16.3752 33.7028C17.3239 30.7502 18.3981 26.4655 19.5997 20.7862L20.548 16.5077L19.5997 16.5573C19.1572 16.5805 18.7779 16.4746 18.5882 16.2318C18.4671 16.1515 18.3686 16.0415 18.3022 15.9124C18.2358 15.7833 18.2037 15.6393 18.2089 15.4943C18.2326 15.1218 18.3948 14.7716 18.6639 14.5123C18.9329 14.2531 19.2892 14.1035 19.663 14.093L21.1172 14.0169C21.6862 11.9045 22.192 10.2372 22.6347 9.01503C20.0307 10.0382 17.3711 10.9145 14.6686 11.64C11.7603 12.4864 9.16831 12.9374 6.95527 13.0531C4.42648 13.1856 2.71929 12.833 1.83432 11.9326C0.632147 10.7969 0 9.44143 0 7.92681C0.0208033 6.71326 0.346905 5.52439 0.948324 4.46953C1.54847 3.40757 2.29316 2.43376 3.16115 1.57589C3.98296 0.839666 4.6795 0.424635 5.12095 0.400452C5.43713 0.383917 5.56343 0.565803 5.56343 0.882243C5.56343 2.4599 6.32209 3.55617 7.83962 4.10803C9.35714 4.65989 11.4424 4.86617 14.1617 4.72376C16.6829 4.58196 19.1944 4.30314 21.6852 3.88853C22.3807 3.78911 23.329 3.67626 24.5935 3.54708C25.858 3.4179 26.8695 3.30195 27.6915 3.25896L29.7144 3.09009C31.0423 3.02064 32.1163 3.27983 33.0021 3.86476C33.8872 4.51239 34.3298 5.75142 34.3298 7.58185C34.3298 9.15957 33.8872 10.3187 33.0021 11.0592" fill="#353148"/>
<path d="M39.4504 28.1402C40.3987 28.0906 42.8012 25.2514 42.8012 25.2514L43.5599 27.5466C43.5599 27.5466 40.9046 32.2924 35.3407 32.5834C27.5645 32.9902 36.7317 4.49051 35.2774 2.92568C35.2774 2.92568 42.1055 1.74755 42.1055 5.59754C42.1055 6.98587 36.0992 28.3153 39.45 28.14" fill="#353148"/>
<path d="M57.5326 27.1942C57.5326 27.1942 53.3597 31.514 47.6696 31.8122C34.8353 32.4836 40.8416 14.8146 49.5033 14.3615C54.2449 14.1135 55.5094 16.5086 55.5094 18.6542C55.5094 23.7028 50.0723 25.3127 46.8478 25.9231C47.2905 27.2252 48.0487 28.1321 49.3134 28.066C53.5496 27.8444 56.7737 24.5203 56.7737 24.5203L57.5326 27.1942ZM46.595 23.6644C50.9572 22.4263 52.7276 17.7901 50.5146 17.9058C47.9858 18.0381 46.6581 20.9474 46.595 23.6644Z" fill="#353148"/>
<path d="M72.8944 26.0113C72.8944 26.0113 69.7964 30.6541 64.9914 30.9054C63.664 30.9749 62.1465 29.224 60.6292 26.8423C58.2894 29.0471 56.5828 30.8405 57.0885 31.319C57.0885 31.319 50.766 31.9023 52.157 28.2323C52.5997 26.9467 55.1287 24.6058 57.9105 22.1883C56.2033 18.933 54.686 15.8568 53.6745 14.9633C53.6745 14.9633 57.7208 11.4703 60.4393 14.9249C60.6923 15.2903 61.5141 16.5726 62.4624 18.2269C64.6751 16.2181 66.4454 14.5479 66.4454 13.7906C66.4454 13.7906 70.4284 13.7079 70.4284 16.3589C70.4284 17.4318 67.9627 19.959 65.1811 22.6288C66.4454 24.6452 67.6468 26.2872 68.1524 26.3231C70.1755 26.2173 71.9459 23.6004 71.9459 23.6004L72.8944 26.0113Z" fill="#353148"/>
<path d="M71.1871 13.7327C71.1871 13.7327 77.5727 12.8307 77.5727 15.6073C77.5727 18.5735 74.9806 26.0296 77.3197 25.9073C78.7739 25.8312 80.7337 23.5198 80.7337 23.5198L81.8725 25.5429C81.8725 25.5429 78.6482 30.1923 73.9064 30.4414C66.2564 30.8415 72.7676 15.3548 71.1879 13.7335" fill="#353148"/>
<path d="M76.6255 5.74845C75.298 5.31295 73.7174 6.53159 73.1482 8.45462C72.516 10.381 73.1481 12.2412 74.476 12.6764C75.8039 13.1117 77.3845 11.8931 77.9533 9.97027C78.5855 8.04393 77.9533 6.18373 76.6255 5.74845Z" fill="#353148"/>
<path d="M112.725 23.4868C112.725 23.4868 109.501 28.578 105.202 28.8029C94.4539 29.3651 104.949 16.4468 100.966 16.6552C96.9194 16.8668 94.7066 28.3422 95.4654 29.0598C96.2874 29.7741 88.7638 32.0609 88.7638 27.3279C88.7638 25.8764 92.0514 17.311 89.1433 17.4631C87.2467 17.5623 85.1602 22.8465 85.1602 22.8465C84.3383 26.1711 83.5797 29.0507 83.8957 29.2867C84.5278 29.8847 77.8262 31.4983 77.8262 28.2159C77.8262 26.2596 80.6711 13.5522 79.5334 12.4757C79.5334 12.4757 86.6147 11.5374 86.6147 14.4393C86.6218 14.8201 86.6006 15.2009 86.5514 15.5785C88.0689 13.5429 90.1542 11.8559 93.1267 11.7004C97.2362 11.4855 97.742 14.4252 97.5523 16.5808C99.5121 14.2063 102.484 11.211 105.265 11.0655C112.726 10.675 104.001 24.9525 108.047 24.7406C109.881 24.646 112.409 21.4216 112.409 21.4216L112.725 23.4868Z" fill="#353148"/>
<path d="M141.618 27.4034C141.897 28.2298 142.025 29.0994 141.997 29.9711C141.998 32.05 141.334 34.0749 140.1 35.7501C138.836 37.4571 136.749 38.3866 133.841 38.5387C131.501 38.6611 129.352 38.3941 127.456 37.6738C125.497 36.9778 123.646 36.0126 121.955 34.806C120.438 37.3466 118.541 38.6448 116.202 38.7671C114.115 38.8763 112.599 38.4507 111.523 37.4972C111.009 37.0566 110.6 36.5065 110.326 35.8875C110.053 35.2684 109.922 34.596 109.943 33.9197C109.943 32.4681 110.512 31.1131 111.586 29.9209C112.661 28.6656 114.115 28.0216 115.949 27.9257C117.088 27.8662 118.604 28.1022 120.437 28.5743C120.864 26.8286 121.201 25.0627 121.449 23.2831C120.943 23.9405 120.058 24.6811 118.857 25.5012C117.571 26.3289 116.087 26.7987 114.558 26.8621C113.293 26.9282 112.408 26.5959 111.902 25.802C111.397 25.0081 111.144 23.9484 111.144 22.5601C111.153 21.6702 111.216 20.7817 111.333 19.8996C111.46 18.9463 111.523 18.2487 111.586 17.93C111.852 16.6552 112 15.3589 112.029 14.0571C112.029 13.1105 111.839 12.4263 111.46 12.0673C112.109 11.958 112.763 11.8816 113.419 11.8385C114.374 11.7721 115.333 11.8495 116.264 12.0683C117.023 12.3441 117.403 12.7661 117.403 13.4602C117.403 14.4068 117.213 15.8051 116.897 17.7781C116.637 18.9898 116.489 20.2228 116.455 21.4615C116.455 22.7237 116.834 23.3349 117.594 23.2953C118.163 23.2655 118.794 22.6014 119.364 21.3731C119.933 20.1447 120.375 18.6696 120.818 16.9425C121.155 15.5895 121.346 14.2043 121.387 12.8106C121.387 12.1163 121.261 11.6182 121.071 11.4388L122.462 11.3028C125.56 11.1407 127.077 11.7556 127.077 13.0803C127.077 14.4686 126.887 16.8767 126.445 20.2447C126.045 23.521 125.325 26.7503 124.295 29.8866C127.204 30.8071 129.669 31.2462 131.692 31.1403C134.032 31.018 135.865 30.6065 137.193 29.8429C138.457 29.0825 139.342 28.4685 139.848 27.8738C140.291 27.2827 140.607 26.9505 140.733 26.8817C141.049 26.5496 141.302 26.7257 141.618 27.4034M118.668 32.3276C117.214 31.1414 116.013 30.5732 115.128 30.6195C114.998 30.6152 114.868 30.6388 114.748 30.6888C114.628 30.7387 114.52 30.8137 114.432 30.9088C114.344 30.9761 114.274 31.0648 114.23 31.1666C114.185 31.2683 114.168 31.3797 114.179 31.49C114.179 31.9318 114.432 32.3603 114.938 32.7757C115.444 33.1909 116.139 33.3438 116.961 33.3011C117.301 33.2797 117.632 33.181 117.928 33.0123C118.223 32.8437 118.477 32.6097 118.668 32.3282" fill="#353148"/>
<path d="M107.051 32.9551C107.051 32.9551 58.3526 32.9551 25.4882 39.6437C25.4882 39.6437 23.4143 45.0176 24.9706 48.6016C66.6099 35.8216 107.052 34.9856 107.052 34.9856L107.051 32.9551Z" fill="#353148"/>
</svg>
