<svg width="500" height="500" viewBox="0 0 500 500" fill="none" xmlns="http://www.w3.org/2000/svg">
<path d="M182.446 359.785C121.079 302.263 59.7116 244.741 1.70117 187.407C51.9957 126.796 106.359 61.6569 160.794 2.32422C223.084 58.618 281.015 109.365 345.698 162.892L182.446 359.785Z" fill="white"/>
<path d="M492.105 298.767C485.511 280.28 473.281 264.258 458.591 251.407C453.665 247 448.308 243.128 442.641 239.776C440.849 233.298 439.149 226.792 437.028 220.412C433.812 211.394 430.101 202.516 425.742 193.988C415.304 174.168 401.815 155.909 386.365 139.711C368.971 122.687 347.732 109.859 325.48 100.212C316.659 96.5678 307.919 92.5906 298.659 90.1722C285.409 86.9977 271.999 84.0779 258.345 83.5662C256.412 83.6064 254.392 82.9835 252.513 83.4969C248.464 85.6433 254.91 90.1241 257.22 92.3144C261.849 96.1051 270.27 101.471 276.099 106.018C277.414 106.993 279.397 108.5 281.209 110.006C277.61 110.061 272.803 110.734 269.671 112.873C263.719 117.078 264.608 123.607 268.492 127.543C271.818 131.161 276.145 133.792 280.703 135.569C286.462 137.71 292.58 138.703 298.285 141.019C305.674 143.784 315.662 149.633 321.944 155.241C325.638 158.358 329.551 161.291 332.638 165.043C337.18 170.554 342.247 180.24 346.062 188.106C349.36 195.143 352.04 204.314 353.942 213.182C355.501 220.35 355.679 226.639 355.634 234.925C355.632 235.047 355.627 235.171 355.623 235.295C353.671 235.991 351.76 236.802 349.894 237.705C348.723 238.298 347.588 238.951 346.463 239.623C344.134 240.531 341.839 241.522 339.593 242.582C332.127 246.372 323.559 252.33 316.666 255.152C316.36 255.28 316.052 255.402 315.745 255.528C311.556 256.981 307.183 258.35 302.493 259.881C294.622 262.866 286.792 266.282 279.72 270.89C279.087 271.283 278.455 271.681 277.833 272.096C269.615 277.422 262.314 284.656 257.197 293.124C253.867 297.703 251.007 302.621 249.04 307.931C245.433 318.955 246.389 330.81 245.011 342.206C244.392 347.776 241.952 359.154 239.947 367.018C239.23 369.249 238.967 370.239 238.523 371.608C224.741 371.325 209.088 367.325 197.883 362.409C178.877 354.202 164.955 343.429 151.349 328.251C142.828 318.777 135.793 304.527 128.613 291.803C124.299 284.931 119.603 277.401 112.17 273.615C104.119 269.97 98.3358 275.898 100.852 284.117C101.331 285.62 101.904 286.965 102.462 288.197C100.742 285.835 98.7701 282.727 97.476 280.255C94.9219 275.705 92.5408 270.638 87.9129 267.844C85.5991 266.431 82.3352 266.322 80.5972 268.685C71.8448 280.156 84.2747 306.559 89.8694 319.625C104.179 352.61 125.908 382.064 151.966 406.733C165.763 419.465 180.583 431.254 196.597 441.083C206.428 446.824 216.513 452.15 227.017 456.56C234.609 459.605 242.426 462.058 250.195 464.608C253.56 465.556 256.911 466.673 260.272 467.733C267.802 473.806 275.803 479.262 284.27 483.995C296.714 491.265 310.296 496.642 324.622 498.646C337.759 500.342 351.088 498.907 364.139 497.094C377.301 495.283 390.14 491.678 402.373 486.508C420.382 479.376 437.055 468.778 450.721 455.013C459.707 446.312 466.81 435.898 473.458 425.361C481.518 412.6 488.621 399.109 493.275 384.713C502.025 357.019 502.847 326.018 492.105 298.767Z" fill="#270F03"/>
<path d="M321.884 277.412C318.522 271.119 325.171 261.009 336.736 254.829C348.3 248.65 360.401 248.741 363.763 255.034C367.126 261.326 360.477 271.437 348.912 277.616C337.347 283.796 325.247 283.704 321.884 277.412Z" fill="white"/>
<path d="M281.857 287.047C279.22 293.66 275.002 299.636 269.694 304.331C268.232 299.607 267.94 294.526 268.803 289.595C272.974 288.44 277.232 287.6 281.857 287.047Z" fill="white"/>
<path d="M471.585 310.184C463.796 304.555 455.389 300.36 447.271 297.33C441.217 295.029 435.002 292.797 428.525 292.148C425.155 292.569 427.128 296.198 427.3 298.508C428.316 303.814 429.479 309.81 429.914 313.982C430.796 321.27 431.036 328.654 430.38 335.972C430.279 337.163 430.196 337.565 430.16 337.95C430.138 338.231 429.999 339.234 430.117 338.378C429.876 339.171 430.339 340.088 431.158 340.295C433.194 340.711 433.138 338.386 433.298 336.998C433.592 334.175 433.677 331.335 433.752 328.499C434.053 317.628 432.071 306.89 429.882 296.289C429.804 295.891 429.728 295.492 429.649 295.094C435.197 295.778 446.679 299.982 452.189 302.479C458.047 305.205 463.675 308.448 469.008 312.092C469.676 312.55 470.327 313.29 471.216 313.005C472.49 312.695 472.752 310.815 471.585 310.184Z" fill="white"/>
<path d="M336.416 416.213C337.833 415.239 336.652 412.84 334.996 413.363C322.084 417.355 307.523 420.293 295.507 421.648C293.182 421.924 290.852 422.161 288.517 422.331C287.116 422.341 285.554 422.79 285.152 424.307C284.569 426.777 285.748 429.225 286.576 431.505C288.139 435.609 290.292 439.449 292.817 443.036C296.542 448.545 300.999 453.513 306.12 457.759C307.619 459.029 309.205 460.191 310.807 461.328C311.704 462.205 313.282 462.458 313.985 461.211C315.097 458.997 312.018 458.116 310.755 456.922C309.508 456.069 306.895 453.768 304.835 451.837C298.657 446.039 292.885 437.707 290.042 430.775C289.293 428.788 288.55 427.087 288.476 425.724C290.797 425.485 299.884 424.592 304.875 423.752C315.511 421.976 326.261 419.814 336.416 416.213Z" fill="white"/>
<path d="M344.967 265.533C343.513 263.691 342.028 261.876 340.435 260.152C339.949 259.662 339.127 259.464 338.499 259.786C336.533 260.79 337.593 262.544 338.831 263.654C340.098 265.062 341.345 266.487 342.559 267.94C344.137 269.506 346.526 267.114 344.967 265.533Z" fill="#270F03"/>
<path d="M280.459 373.984C284.942 361.662 283.141 349.696 276.436 347.256C269.732 344.817 260.663 352.829 256.18 365.15C251.697 377.472 253.498 389.438 260.202 391.878C266.907 394.317 275.976 386.306 280.459 373.984Z" fill="white"/>
<path d="M267.941 371.787C265.913 370.609 263.906 369.395 261.975 368.062C261.42 367.65 261.108 366.864 261.338 366.197C262.054 364.109 263.94 364.911 265.214 365.979C266.787 367.034 268.374 368.067 269.984 369.064C271.758 370.405 269.727 373.107 267.941 371.787Z" fill="#270F03"/>
<path d="M100.372 209.433C93.7696 203.985 87.3986 198.263 80.7967 192.816C78.8442 191.582 75.1154 187.196 72.1535 189.829C65.1131 197.508 57.8751 205.207 52.4473 214.149C50.0361 218.045 51.0256 219.022 54.2094 221.189C59.6543 225.217 67.9368 231.453 74.422 236.3C75.4739 236.872 76.4116 238.231 77.6999 238.024C78.8001 237.753 79.0115 236.151 78.0161 235.606C71.2357 230.709 65.3815 225.723 57.3552 220.009C55.8202 218.798 55.2149 218.519 54.2162 217.545C54.5452 216.109 60.1425 208.1 62.9341 205.023C66.0093 201.177 73.0308 193.672 74.4072 192.156C74.5951 192.208 74.8522 192.283 74.9763 192.364C76.2319 193.022 79.2974 195.297 81.3593 197.116C87.1766 202.088 92.9373 207.129 98.7565 212.098C96.0504 216.274 88.6097 223.48 83.8757 228.722C82.1026 230.797 79.8414 232.727 78.9726 234.04C78.3667 235.241 79.6636 236.672 80.9303 236.279C82.2726 235.654 82.7293 234.369 84.3597 232.815C89.5494 227.347 94.9284 222.035 99.651 216.146C101.363 213.909 103.681 211.532 100.372 209.433Z" fill="#270F03"/>
<path d="M141.974 247.19C136.306 242.698 130.766 238.029 124.958 233.719C120.099 230.385 118.999 230.895 115.46 235.349C110.616 241.184 105.693 246.95 100.664 252.627C99.7773 253.577 98.6075 255.182 99.9843 256.233C100.144 256.343 100.526 256.611 100.62 256.668C100.579 256.636 100.534 256.6 100.451 256.532C100.534 256.595 100.583 256.632 100.63 256.668C100.61 256.649 100.542 256.596 100.389 256.481C100.509 256.569 100.589 256.633 100.642 256.677C100.865 256.847 100.745 256.757 100.671 256.702C100.738 256.756 100.804 256.807 100.926 256.901C106.742 261.266 110.983 264.743 117.869 270.311C119.206 271.433 120.574 272.519 121.88 273.677C122.152 273.952 122.533 274.108 122.919 274.108C124.185 274.145 124.882 272.469 123.959 271.599C117.518 266.437 109.424 259.48 103.074 254.689C103.862 253.763 104.985 252.486 105.822 251.546C109.958 246.945 113.813 242.102 117.963 237.513C118.748 236.654 119.498 235.757 120.332 234.944C121.985 235.417 126.122 238.523 127.66 239.769C132.399 243.481 138.744 248.091 141.614 251.001C139.477 254.884 136.636 258.323 133.975 261.851C133.136 262.845 130.196 267.13 128.588 269.511C128.349 269.922 128.282 270.425 128.409 270.883C128.762 272.359 130.939 272.653 131.665 271.309C135.643 265.039 140.588 259.412 144.223 252.926C146.012 250.118 144.039 248.863 141.974 247.19Z" fill="#270F03"/>
<path d="M100.672 256.702C100.675 256.71 100.701 256.729 100.694 256.721C100.614 256.659 100.629 256.669 100.672 256.702Z" fill="#270F03"/>
<path d="M198.691 287.288C191.469 281.152 184.082 275.121 176.559 269.386C175.769 268.989 174.773 269.378 174.334 270.115C173.323 271.928 175.568 272.926 176.683 273.918C178.123 275.06 179.557 276.208 181.002 277.343C185.862 281.179 190.623 285.142 195.393 289.089C195.606 289.269 195.815 289.456 196.019 289.647C192.669 293.36 185.409 304.572 180.152 309.993C179.227 310.791 179.01 311.095 178.611 311.353C175.463 309.258 172.423 306.998 169.277 304.898C163.729 301.012 155.66 295.726 153.3 292.537C155.559 289.701 159.246 284.92 160.251 283.574C164.825 277.428 168.882 272.953 172.451 266.41C172.708 265.115 170.762 264.438 170.138 265.611C164.348 274.378 158.032 281.415 150.28 291.13C148.825 293.197 151.179 295.259 152.6 296.594C154.43 298.255 156.379 299.779 158.355 301.263C163.393 305.054 168.553 308.677 173.74 312.26C175.639 313.337 177.6 315.907 179.958 314.621C182.731 312.965 184.719 310.263 186.718 307.782C190.094 303.38 193.336 298.875 196.691 294.457C197.265 293.563 198.831 292.076 199.859 290.126C200.18 289.01 199.454 288.029 198.691 287.288Z" fill="#270F03"/>
<path d="M201.437 79.4479C200.614 79.6818 200.216 80.5438 199.653 81.1224C197.223 83.9625 194.864 86.8656 192.485 89.7496C182.743 101.513 173.598 113.753 163.884 125.54C148.517 144.221 133.838 163.461 118.071 181.813C114.868 185.608 111.592 189.34 108.397 193.142C107.246 194.724 105.627 196.142 104.932 197.97C104.651 199.49 106.913 200.312 107.668 198.915C115.83 188.953 127.267 176.748 136.138 165.541C157.852 138.675 181.51 109.087 202.09 83.4248C202.966 82.1004 203.291 82.4766 203.533 81.045C203.55 79.989 202.461 79.1489 201.437 79.4479Z" fill="#270F03"/>
<path d="M250.058 120.765C249.306 120.751 248.77 121.299 248.356 121.864C245.39 125.403 242.444 128.959 239.49 132.507C230.799 142.874 222.485 153.545 214.075 164.138C198.01 184.376 181.737 204.447 165.158 224.266C161.19 229.017 157.074 233.651 152.787 238.117C151.484 239.41 153.461 241.542 154.844 240.174C189.091 202.878 219.399 162.11 251.597 123.097C252.118 122.068 251.208 120.72 250.058 120.765Z" fill="#270F03"/>
<path d="M295.052 162.774C284.392 177.159 272.375 191.15 260.414 205.865C247.872 221.401 235.878 237.367 223.902 253.34C218.69 260.261 214.753 265.44 209.289 272.209C208.025 273.771 206.732 275.309 205.429 276.838C205.123 277.144 204.952 277.558 204.952 277.99C204.917 279.374 206.763 280.177 207.732 279.141C223.73 260.257 238.862 238.607 252.61 221.334C267.022 202.618 282.859 185.043 296.957 166.084C297.861 164.674 298.136 165.131 298.388 163.632C298.411 161.87 295.911 161.193 295.052 162.774Z" fill="#270F03"/>
<path d="M79.9541 214.888C74.7344 204.054 70.1815 192.909 64.7182 182.189C63.9787 180.784 63.4052 179.249 62.3642 178.034C61.19 176.482 58.64 177.838 59.2005 179.638C59.2367 179.85 59.2827 180.062 59.3132 180.266C60.1323 182.858 64.7179 191.282 67.1398 196.837C70.1063 203.339 72.8612 209.942 75.9963 216.364C73.6064 215.283 71.3528 214.282 69.7355 213.569C67.5791 212.649 65.4252 211.722 63.2471 210.855C62.7935 210.73 62.2937 210.794 61.8883 211.032C60.7502 211.668 60.7389 213.444 61.8883 214.078C66.859 216.211 71.7054 218.615 76.5428 221.031C77.5439 221.466 78.4917 222.135 79.57 222.337C80.8847 222.57 82.1079 221.384 82.051 220.077C81.7946 218.218 80.6623 216.602 79.9541 214.888Z" fill="#270F03"/>
<path d="M128.467 251.505C126.679 246.863 124.763 242.272 122.759 237.72C120.601 232.628 118.177 227.65 115.581 222.768C114.689 221.213 113.764 219.672 112.712 218.219C112.209 217.653 111.898 216.808 111.119 216.585C109.943 216.225 108.853 217.625 109.511 218.676C113.998 227.732 119.303 242.661 124.156 253.278C121.828 252.666 118.649 251.645 116.463 250.847C116.303 250.779 116.119 250.701 115.954 250.631C115.652 250.481 115.49 250.427 115.551 250.461C115.586 250.481 115.676 250.523 115.907 250.612C114.29 250.073 115.171 249.933 113.527 249.938C111.803 250.05 111.056 252.406 112.294 253.567C113.512 254.557 115.014 254.276 117.443 255.298C119.105 255.766 122.326 257.414 125.407 258.036C127.312 258.639 129.803 257.825 129.795 255.524C129.674 254.111 128.911 252.837 128.467 251.505Z" fill="#270F03"/>
<path d="M261.715 89.2463C237.168 67.8668 213.014 46.0256 189.092 23.9501C181.916 17.4689 174.877 10.834 167.606 4.45942C166.213 3.26952 164.83 2.06582 163.404 0.914919C163.094 0.605019 162.675 0.433019 162.238 0.432319C162.21 0.431419 162.186 0.442819 162.158 0.443719C160.376 -0.981981 158.907 1.37952 157.763 2.58292C154.26 6.39062 150.84 10.2706 147.483 14.2069C128.805 35.4841 109.525 56.2388 91.2172 77.8377C86.7439 83.0474 82.4025 88.3674 77.9855 93.6235C77.3533 94.5392 76.0635 95.2656 75.8616 96.3584C75.8419 97.244 77.0202 97.7602 77.6425 97.0961C86.7487 87.7528 94.8017 77.439 103.599 67.8085C121.626 48.0391 139.851 28.4468 157.53 8.36462C158.931 6.84442 160.305 5.29882 161.712 3.78342C174.566 14.3705 186.048 26.4866 198.428 37.6065C207.595 45.9994 217.096 54.0115 226.346 62.3099C237.11 71.931 247.561 81.901 258.5 91.3259C259.318 91.9232 259.967 92.9479 261.066 92.9514C263.168 92.8413 263.481 90.2352 261.715 89.2463Z" fill="#270F03"/>
<path d="M122.94 303.108C116.089 293.953 108.439 285.794 99.6503 276.974C75.391 253.294 50.9005 229.855 26.1816 206.655C18.8876 199.769 11.3297 193.173 3.74674 186.611C3.72084 186.588 3.69564 186.562 3.67005 186.538C10.7684 178.572 16.7604 169.832 22.676 162.587C37.2136 145.542 51.7069 128.428 66.981 112.033C68.0192 110.667 69.9606 109.661 70.0925 107.827C70.1594 105.773 67.3104 104.694 66.0383 106.353C55.0895 119.111 44.1285 131.859 33.251 144.679C25.8073 153.106 18.1286 161.331 11.5888 170.506C8.87914 173.936 5.40074 178.813 0.867051 183.892C0.20594 184.553 0.17254 185.355 0.48384 186.005C-0.10266 186.672 -0.22636 187.754 0.50874 188.443C20.8459 206.676 40.8232 225.311 60.3856 244.376C78.6746 262.518 96.5649 281.095 115.335 298.737C117.238 300.464 119.661 302.656 121.236 304.1C121.912 304.819 123.249 304.097 122.94 303.108Z" fill="#270F03"/>
<path d="M351.131 155.591C349.495 156.227 348.68 158.115 347.469 159.313C344.692 162.637 341.963 166.003 339.14 169.289C328.296 181.473 317.704 193.873 307.323 206.454C289.83 227.127 271.957 247.482 254.69 268.346C241.625 284.022 229.118 300.154 215.902 315.705C207.764 325.358 199.876 335.219 191.724 344.861C187.653 350.061 183.599 354.221 180.131 360.032C179.796 361.821 182.242 363.09 183.512 361.713C198.246 342.042 215.082 324.197 231.397 304.463C253.599 276.148 277.154 248.946 300.62 221.678C309.736 211.172 318.463 200.337 327.529 189.789C335.073 180.962 342.961 172.435 350.256 163.395C351.317 162.12 352.372 160.839 353.452 159.579C353.9 159.131 354.151 158.525 354.151 157.892C354.17 156.375 352.61 155.156 351.131 155.591Z" fill="#270F03"/>
</svg>
