<?xml version="1.0" encoding="UTF-8"?>
<svg id="Layer_1" xmlns="http://www.w3.org/2000/svg" version="1.1" viewBox="0 0 500 500">
  <!-- Generator: Adobe Illustrator 29.6.0, SVG Export Plug-In . SVG Version: 2.1.1 Build 207)  -->
  <defs>
    <style>
      .st0 {
        fill: #fff;
      }

      .st1 {
        fill: #0f0820;
      }
    </style>
  </defs>
  <path class="st0" d="M182.4,359.8C121.1,302.3,59.7,244.7,1.7,187.4,52,126.8,106.4,61.7,160.8,2.3c62.3,56.3,120.2,107,184.9,160.6l-163.3,196.9Z"/>
  <path class="st1" d="M492.1,298.8c-6.6-18.5-18.8-34.5-33.5-47.4-4.9-4.4-10.3-8.3-16-11.6-1.8-6.5-3.5-13-5.6-19.4-3.2-9-6.9-17.9-11.3-26.4-10.4-19.8-23.9-38.1-39.4-54.3-17.4-17-38.6-29.9-60.9-39.5-8.8-3.6-17.6-7.6-26.8-10-13.2-3.2-26.7-6.1-40.3-6.6-1.9,0-4-.6-5.8,0-4,2.1,2.4,6.6,4.7,8.8,4.6,3.8,13,9.2,18.9,13.7,1.3,1,3.3,2.5,5.1,4-3.6,0-8.4.7-11.5,2.9-6,4.2-5.1,10.7-1.2,14.7,3.3,3.6,7.7,6.2,12.2,8,5.8,2.1,11.9,3.1,17.6,5.4,7.4,2.8,17.4,8.6,23.7,14.2,3.7,3.1,7.6,6.1,10.7,9.8,4.5,5.5,9.6,15.2,13.4,23.1,3.3,7,6,16.2,7.9,25.1,1.6,7.2,1.7,13.5,1.7,21.7,0,.1,0,.2,0,.4-2,.7-3.9,1.5-5.7,2.4-1.2.6-2.3,1.2-3.4,1.9-2.3.9-4.6,1.9-6.9,3-7.5,3.8-16,9.7-22.9,12.6-.3.1-.6.2-.9.4-4.2,1.5-8.6,2.8-13.3,4.4-7.9,3-15.7,6.4-22.8,11-.6.4-1.3.8-1.9,1.2-8.2,5.3-15.5,12.6-20.6,21-3.3,4.6-6.2,9.5-8.2,14.8-3.6,11-2.7,22.9-4,34.3-.6,5.6-3.1,16.9-5.1,24.8-.7,2.2-1,3.2-1.4,4.6-13.8-.3-29.4-4.3-40.6-9.2-19-8.2-32.9-19-46.5-34.2-8.5-9.5-15.6-23.7-22.7-36.4-4.3-6.9-9-14.4-16.4-18.2-8.1-3.6-13.8,2.3-11.3,10.5.5,1.5,1.1,2.8,1.6,4.1-1.7-2.4-3.7-5.5-5-7.9-2.6-4.6-4.9-9.6-9.6-12.4-2.3-1.4-5.6-1.5-7.3.8-8.8,11.5,3.7,37.9,9.3,50.9,14.3,33,36,62.4,62.1,87.1,13.8,12.7,28.6,24.5,44.6,34.4,9.8,5.7,19.9,11.1,30.4,15.5,7.6,3,15.4,5.5,23.2,8,3.4.9,6.7,2.1,10.1,3.1,7.5,6.1,15.5,11.5,24,16.3,12.4,7.3,26,12.6,40.4,14.7,13.1,1.7,26.5.3,39.5-1.6,13.2-1.8,26-5.4,38.2-10.6,18-7.1,34.7-17.7,48.3-31.5,9-8.7,16.1-19.1,22.7-29.7,8.1-12.8,15.2-26.3,19.8-40.6,8.8-27.7,9.6-58.7-1.2-85.9Z"/>
  <path class="st0" d="M321.9,277.4c-3.4-6.3,3.3-16.4,14.9-22.6,11.6-6.2,23.7-6.1,27,.2,3.4,6.3-3.3,16.4-14.9,22.6-11.6,6.2-23.7,6.1-27-.2Z"/>
  <path class="st0" d="M281.9,287c-2.6,6.6-6.9,12.6-12.2,17.3-1.5-4.7-1.8-9.8-.9-14.7,4.2-1.2,8.4-2,13.1-2.5Z"/>
  <path class="st0" d="M471.6,310.2c-7.8-5.6-16.2-9.8-24.3-12.9-6.1-2.3-12.3-4.5-18.7-5.2-3.4.4-1.4,4-1.2,6.4,1,5.3,2.2,11.3,2.6,15.5.9,7.3,1.1,14.7.5,22-.1,1.2-.2,1.6-.2,2,0,.3-.2,1.3,0,.4-.2.8.2,1.7,1,1.9,2,.4,2-1.9,2.1-3.3.3-2.8.4-5.7.5-8.5.3-10.9-1.7-21.6-3.9-32.2,0-.4-.2-.8-.2-1.2,5.5.7,17,4.9,22.5,7.4,5.9,2.7,11.5,6,16.8,9.6.7.5,1.3,1.2,2.2.9,1.3-.3,1.5-2.2.4-2.8Z"/>
  <path class="st0" d="M336.4,416.2c1.4-1,.2-3.4-1.4-2.9-12.9,4-27.5,6.9-39.5,8.3-2.3.3-4.7.5-7,.7-1.4,0-3,.5-3.4,2-.6,2.5.6,4.9,1.4,7.2,1.6,4.1,3.7,7.9,6.2,11.5,3.7,5.5,8.2,10.5,13.3,14.7,1.5,1.3,3.1,2.4,4.7,3.6.9.9,2.5,1.1,3.2-.1,1.1-2.2-2-3.1-3.2-4.3-1.2-.9-3.9-3.2-5.9-5.1-6.2-5.8-11.9-14.1-14.8-21.1-.7-2-1.5-3.7-1.6-5.1,2.3-.2,11.4-1.1,16.4-2,10.6-1.8,21.4-3.9,31.5-7.5Z"/>
  <path class="st1" d="M345,265.5c-1.5-1.8-2.9-3.7-4.5-5.4-.5-.5-1.3-.7-1.9-.4-2,1-.9,2.8.3,3.9,1.3,1.4,2.5,2.8,3.7,4.3,1.6,1.6,4-.8,2.4-2.4Z"/>
  <path class="st0" d="M280.5,374c4.5-12.3,2.7-24.3-4-26.7-6.7-2.4-15.8,5.6-20.3,17.9-4.5,12.3-2.7,24.3,4,26.7,6.7,2.4,15.8-5.6,20.3-17.9Z"/>
  <path class="st1" d="M267.9,371.8c-2-1.2-4-2.4-6-3.7-.6-.4-.9-1.2-.6-1.9.7-2.1,2.6-1.3,3.9-.2,1.6,1.1,3.2,2.1,4.8,3.1,1.8,1.3-.3,4-2,2.7Z"/>
  <path class="st1" d="M100.4,209.4c-6.6-5.4-13-11.2-19.6-16.6-2-1.2-5.7-5.6-8.6-3-7,7.7-14.3,15.4-19.7,24.3-2.4,3.9-1.4,4.9,1.8,7,5.4,4,13.7,10.3,20.2,15.1,1.1.6,2,1.9,3.3,1.7,1.1-.3,1.3-1.9.3-2.4-6.8-4.9-12.6-9.9-20.7-15.6-1.5-1.2-2.1-1.5-3.1-2.5.3-1.4,5.9-9.4,8.7-12.5,3.1-3.8,10.1-11.4,11.5-12.9.2,0,.4.1.6.2,1.3.7,4.3,2.9,6.4,4.8,5.8,5,11.6,10,17.4,15-2.7,4.2-10.1,11.4-14.9,16.6-1.8,2.1-4,4-4.9,5.3-.6,1.2.7,2.6,2,2.2,1.3-.6,1.8-1.9,3.4-3.5,5.2-5.5,10.6-10.8,15.3-16.7,1.7-2.2,4-4.6.7-6.7Z"/>
  <path class="st1" d="M142,247.2c-5.7-4.5-11.2-9.2-17-13.5-4.9-3.3-6-2.8-9.5,1.6-4.8,5.8-9.8,11.6-14.8,17.3-.9.9-2.1,2.6-.7,3.6.2.1.5.4.6.4,0,0,0,0-.2-.1,0,0,.1,0,.2.1,0,0,0,0-.2-.2.1,0,.2.2.3.2.2.2.1,0,0,0,0,0,.1.1.3.2,5.8,4.4,10.1,7.8,16.9,13.4,1.3,1.1,2.7,2.2,4,3.4.3.3.7.4,1,.4,1.3,0,2-1.6,1-2.5-6.4-5.2-14.5-12.1-20.9-16.9.8-.9,1.9-2.2,2.7-3.1,4.1-4.6,8-9.4,12.1-14,.8-.9,1.5-1.8,2.4-2.6,1.7.5,5.8,3.6,7.3,4.8,4.7,3.7,11.1,8.3,14,11.2-2.1,3.9-5,7.3-7.6,10.9-.8,1-3.8,5.3-5.4,7.7-.2.4-.3.9-.2,1.4.4,1.5,2.5,1.8,3.3.4,4-6.3,8.9-11.9,12.6-18.4,1.8-2.8-.2-4.1-2.2-5.7Z"/>
  <path class="st1" d="M100.7,256.7s0,0,0,0c0,0,0,0,0,0Z"/>
  <path class="st1" d="M198.7,287.3c-7.2-6.1-14.6-12.2-22.1-17.9-.8-.4-1.8,0-2.2.7-1,1.8,1.2,2.8,2.3,3.8,1.4,1.1,2.9,2.3,4.3,3.4,4.9,3.8,9.6,7.8,14.4,11.7.2.2.4.4.6.6-3.3,3.7-10.6,14.9-15.9,20.3-.9.8-1.1,1.1-1.5,1.4-3.1-2.1-6.2-4.4-9.3-6.5-5.5-3.9-13.6-9.2-16-12.4,2.3-2.8,5.9-7.6,7-9,4.6-6.1,8.6-10.6,12.2-17.2.3-1.3-1.7-2-2.3-.8-5.8,8.8-12.1,15.8-19.9,25.5-1.5,2.1.9,4.1,2.3,5.5,1.8,1.7,3.8,3.2,5.8,4.7,5,3.8,10.2,7.4,15.4,11,1.9,1.1,3.9,3.6,6.2,2.4,2.8-1.7,4.8-4.4,6.8-6.8,3.4-4.4,6.6-8.9,10-13.3.6-.9,2.1-2.4,3.2-4.3.3-1.1-.4-2.1-1.2-2.8Z"/>
  <path class="st1" d="M201.4,79.4c-.8.2-1.2,1.1-1.8,1.7-2.4,2.8-4.8,5.7-7.2,8.6-9.7,11.8-18.9,24-28.6,35.8-15.4,18.7-30,37.9-45.8,56.3-3.2,3.8-6.5,7.5-9.7,11.3-1.2,1.6-2.8,3-3.5,4.8-.3,1.5,2,2.3,2.7.9,8.2-10,19.6-22.2,28.5-33.4,21.7-26.9,45.4-56.5,66-82.1.9-1.3,1.2-.9,1.4-2.4,0-1.1-1.1-1.9-2.1-1.6Z"/>
  <path class="st1" d="M250.1,120.8c-.8,0-1.3.5-1.7,1.1-3,3.5-5.9,7.1-8.9,10.6-8.7,10.4-17,21-25.4,31.6-16.1,20.2-32.3,40.3-48.9,60.1-4,4.8-8.1,9.4-12.4,13.9-1.3,1.3.7,3.4,2.1,2.1,34.2-37.3,64.6-78.1,96.8-117.1.5-1-.4-2.4-1.5-2.3Z"/>
  <path class="st1" d="M295.1,162.8c-10.7,14.4-22.7,28.4-34.6,43.1-12.5,15.5-24.5,31.5-36.5,47.5-5.2,6.9-9.1,12.1-14.6,18.9-1.3,1.6-2.6,3.1-3.9,4.6-.3.3-.5.7-.5,1.2,0,1.4,1.8,2.2,2.8,1.2,16-18.9,31.1-40.5,44.9-57.8,14.4-18.7,30.2-36.3,44.3-55.2.9-1.4,1.2-1,1.4-2.5,0-1.8-2.5-2.4-3.3-.9Z"/>
  <path class="st1" d="M80,214.9c-5.2-10.8-9.8-22-15.2-32.7-.7-1.4-1.3-2.9-2.4-4.2-1.2-1.6-3.7-.2-3.2,1.6,0,.2,0,.4.1.6.8,2.6,5.4,11,7.8,16.6,3,6.5,5.7,13.1,8.9,19.5-2.4-1.1-4.6-2.1-6.3-2.8-2.2-.9-4.3-1.8-6.5-2.7-.5-.1-1,0-1.4.2-1.1.6-1.1,2.4,0,3,5,2.1,9.8,4.5,14.7,7,1,.4,1.9,1.1,3,1.3,1.3.2,2.5-1,2.5-2.3-.3-1.9-1.4-3.5-2.1-5.2Z"/>
  <path class="st1" d="M128.5,251.5c-1.8-4.6-3.7-9.2-5.7-13.8-2.2-5.1-4.6-10.1-7.2-15-.9-1.6-1.8-3.1-2.9-4.5-.5-.6-.8-1.4-1.6-1.6-1.2-.4-2.3,1-1.6,2.1,4.5,9.1,9.8,24,14.6,34.6-2.3-.6-5.5-1.6-7.7-2.4-.2,0-.3-.1-.5-.2-.3-.1-.5-.2-.4-.2,0,0,.1,0,.4.2-1.6-.5-.7-.7-2.4-.7-1.7.1-2.5,2.5-1.2,3.6,1.2,1,2.7.7,5.1,1.7,1.7.5,4.9,2.1,8,2.7,1.9.6,4.4-.2,4.4-2.5-.1-1.4-.9-2.7-1.3-4Z"/>
  <path class="st1" d="M261.7,89.2c-24.5-21.4-48.7-43.2-72.6-65.3-7.2-6.5-14.2-13.1-21.5-19.5-1.4-1.2-2.8-2.4-4.2-3.5-.3-.3-.7-.5-1.2-.5,0,0,0,0,0,0-1.8-1.4-3.3.9-4.4,2.1-3.5,3.8-6.9,7.7-10.3,11.6-18.7,21.3-38,42-56.3,63.6-4.5,5.2-8.8,10.5-13.2,15.8-.6.9-1.9,1.6-2.1,2.7,0,.9,1.2,1.4,1.8.7,9.1-9.3,17.2-19.7,26-29.3,18-19.8,36.3-39.4,53.9-59.4,1.4-1.5,2.8-3.1,4.2-4.6,12.9,10.6,24.3,22.7,36.7,33.8,9.2,8.4,18.7,16.4,27.9,24.7,10.8,9.6,21.2,19.6,32.2,29,.8.6,1.5,1.6,2.6,1.6,2.1-.1,2.4-2.7.6-3.7Z"/>
  <path class="st1" d="M122.9,303.1c-6.9-9.2-14.5-17.3-23.3-26.1-24.3-23.7-48.7-47.1-73.5-70.3-7.3-6.9-14.9-13.5-22.4-20,0,0,0,0,0,0,7.1-8,13.1-16.7,19-24,14.5-17,29-34.2,44.3-50.6,1-1.4,3-2.4,3.1-4.2,0-2.1-2.8-3.1-4.1-1.5-10.9,12.8-21.9,25.5-32.8,38.3-7.4,8.4-15.1,16.7-21.7,25.8-2.7,3.4-6.2,8.3-10.7,13.4-.7.7-.7,1.5-.4,2.1-.6.7-.7,1.7,0,2.4,20.3,18.2,40.3,36.9,59.9,55.9,18.3,18.1,36.2,36.7,54.9,54.4,1.9,1.7,4.3,3.9,5.9,5.4.7.7,2,0,1.7-1Z"/>
  <path class="st1" d="M351.1,155.6c-1.6.6-2.5,2.5-3.7,3.7-2.8,3.3-5.5,6.7-8.3,10-10.8,12.2-21.4,24.6-31.8,37.2-17.5,20.7-35.4,41-52.6,61.9-13.1,15.7-25.6,31.8-38.8,47.4-8.1,9.7-16,19.5-24.2,29.2-4.1,5.2-8.1,9.4-11.6,15.2-.3,1.8,2.1,3.1,3.4,1.7,14.7-19.7,31.6-37.5,47.9-57.2,22.2-28.3,45.8-55.5,69.2-82.8,9.1-10.5,17.8-21.3,26.9-31.9,7.5-8.8,15.4-17.4,22.7-26.4,1.1-1.3,2.1-2.6,3.2-3.8.4-.4.7-1.1.7-1.7,0-1.5-1.5-2.7-3-2.3Z"/>
</svg>