<svg width="430" height="196" viewBox="0 0 430 196" fill="none" xmlns="http://www.w3.org/2000/svg">
<path id="nariz" d="M231.441 159.206C218.669 156.64 205.404 159.193 192.526 159.925C192.095 159.919 191.753 160.042 191.454 160.214C190.844 160.366 190.262 160.625 189.804 161.06C188.108 162.98 188.883 165.037 191.685 166.922C192.39 167.589 197.341 172.373 199.468 174.587C202.357 177.656 209.019 183.767 210.383 184.654C212.12 185.964 214.022 187.948 217.04 184.863C220.399 181.514 226.428 174.079 230.796 169.014C233.085 166.649 237.514 161.577 231.441 159.206Z" fill="#FFF9EB"/>
<path id="ojo-i" d="M122.765 167.349C161.111 152.625 180.262 109.603 165.538 71.2562C150.814 32.9093 107.792 13.759 69.445 28.4828C31.0981 43.2066 11.9477 86.2289 26.6715 124.576C41.3952 162.923 84.4175 182.073 122.765 167.349Z" fill="#FFF9EB"/>
<path id="pupila-i" d="M95.7146 66.7465C94.0856 62.1782 86.7606 63.6818 86.9387 68.5129C87.2162 83.0318 86.7037 97.5703 86.4133 112.089C86.1726 117.291 86.018 122.496 86.0001 127.703C85.9922 128.91 86.4933 130.094 87.3432 130.945C89.3621 133.058 93.1046 132.548 94.5438 130.017C96.0364 124.399 94.9355 116.691 95.6377 110.611C95.5412 96.0471 97.0881 81.1801 95.7146 66.7465Z" fill="#270F03"/>
<path id="ojo-d" d="M360.498 166.44C398.341 150.466 416.069 106.838 400.095 68.9954C384.121 31.1524 340.493 13.4245 302.65 29.3989C264.807 45.3734 247.079 89.001 263.053 126.844C279.028 164.687 322.655 182.415 360.498 166.44Z" fill="#FFF9EB"/>
<path id="pupila-d" d="M336.715 66.7465C335.085 62.1782 327.761 63.6818 327.939 68.5129C328.216 83.0318 327.703 97.5703 327.413 112.089C327.173 117.291 327.018 122.496 327 127.703C326.992 128.91 327.493 130.094 328.343 130.945C330.362 133.058 334.105 132.548 335.543 130.017C337.036 124.399 335.935 116.691 336.637 110.611C336.541 96.0471 338.088 81.1801 336.715 66.7465Z" fill="#270F03"/>
</svg>
