<svg width="542" height="580" viewBox="0 0 542 580" fill="none" xmlns="http://www.w3.org/2000/svg">
<path d="M439.998 12.7353C443.584 9.64997 458.635 -5.68782 462.66 2.25776C464.14 5.77265 464.556 9.62583 465.117 13.3691C466.219 21.4252 466.376 29.5813 466.377 37.7021C466.328 42.2462 466.392 46.7969 466.148 51.332C466.32 51.5966 466.489 51.8645 466.684 52.0937C471.477 59.8111 475.629 68.0073 478.343 76.6962C481.222 85.8358 483.018 95.3213 484.034 104.843C484.387 110.603 484.982 116.416 484.23 122.168C483.613 128.33 480.737 133.908 478.902 139.746C478.789 140.117 478.682 140.474 478.579 140.826C478.419 143.948 478.508 147.082 478.905 150.184C480.037 158.955 486.125 172.873 489.161 181.047C497.048 201.439 505.918 221.444 513.378 242.002C518.285 255.586 523.042 269.268 525.939 283.443C531.199 304.336 534.142 325.841 534.529 347.385C534.792 360.929 534.896 374.532 532.156 387.866C530.25 398.612 527.763 409.338 523.467 419.376C523.499 419.415 523.53 419.455 523.561 419.494L523.5 419.5C519.828 425.565 512.09 437.803 509.334 440.234C509.316 440.186 509.301 440.136 509.284 440.088C504.158 446.441 498.156 452.099 491.518 456.869C486.218 460.852 480.073 463.55 473.953 466.015C465.85 469.299 457.274 471.005 448.673 472.377C431.13 475.458 410.85 476.189 395.609 478.514C384.525 480.449 373.25 481.863 362.509 485.316C357.263 487.159 357.906 487.03 353.73 488.811C353.592 488.875 353.466 488.933 353.349 488.986C350.039 491.996 347.877 494.796 344.571 498.157C342.547 500.299 339.891 501.637 337.125 502.556C330.158 505.111 322.711 504.773 315.417 505.164C308.583 505.933 304.363 506.463 296.521 506.96C292.033 507.377 287.52 507.15 283.026 507.476C272.996 508.234 264.34 509.791 254.207 510.696C246.564 511.519 233.987 512.433 232.758 502.25C232.667 494.593 238.328 487.992 244.911 484.686C250.949 481.372 257.865 480.44 264.465 478.806C276.99 475.635 288.278 473.429 298.465 466.759C302.887 463.933 308.103 458.564 312.79 453.551C314.805 451.268 316.799 448.963 318.871 446.732C320.268 444.708 321.722 442.724 323.295 440.825C330.24 432.3 338.252 424.762 346.484 417.494C344.908 417.514 343.331 417.531 341.755 417.57C328.868 417.932 316.696 418.214 304.945 420.722C299.298 421.699 295.741 424.693 290.654 428.126C285.948 431.003 280.298 431.432 274.914 431.658C256.848 432.339 238.78 432.228 220.71 431.757C215.549 431.654 210.383 431.558 205.233 431.182C200.679 430.859 196.021 430.14 191.953 427.958C180.588 421.227 194.276 412.85 201.322 410.263C211.346 407.144 221.767 405.446 231.971 403.004C239.694 401.485 247.678 399.7 253.721 396.596C268.282 389.81 273.386 381.209 281.964 368.512C287.671 360.477 294.103 352.97 300.897 345.837C298.946 326.266 299.776 306.118 304.912 287.062C304.393 287.34 303.884 287.636 303.361 287.904C296.868 291.199 290.113 294.004 283.135 296.095C270.982 299.458 243.581 307.646 234.942 295.348C230.673 288.591 246.145 277.809 250.863 273.926C257.813 268.601 263.345 264.774 269.679 259.079C276.815 252.648 283.252 245.453 289.118 237.852C304.226 218.26 321.177 183.25 321.953 155.845C321.472 154.541 320.983 153.241 320.509 151.935C314.882 137.136 311.653 121.473 311.168 105.638C311.27 95.93 312.359 86.2264 314.015 76.6669C315.246 70.6275 317.141 64.704 319.608 59.0566C320.655 56.6403 322.082 54.1334 323.29 51.8066C321.704 44.9616 321.055 38.9916 320.307 33.2685C319.918 29.9092 319.052 25.7099 318.753 21.8066C318.468 18.0773 318.625 14.3193 319.018 10.6035C319.2 6.21185 321.454 2.94081 326.871 4.47261C335.189 7.27077 341.566 13.8199 348.164 19.3417C351.711 22.3688 356.396 26.4953 360.348 30.3134C361.824 30.0903 363.305 29.8946 364.771 29.7197C375.84 28.707 387.008 29.2915 398.054 30.3447C404.206 30.8959 410.328 31.7485 416.361 33.083C417.259 33.2768 418.15 33.5034 419.044 33.7167C425.209 26.0041 432.632 19.2938 439.998 12.7353Z" fill="#270F03"/>
<path d="M458.101 245.596C455.499 253.48 453.064 259.106 449.442 266.456C435.856 293.111 418.57 315.714 395.61 335.101C382.015 346.413 366.34 356.669 349.826 357.24C331.557 357.306 338.928 341.141 348.996 327.093C356.123 316.99 363.389 306.967 369.7 296.319C377.686 282.561 385.561 268.547 390.418 253.329C392.671 246.33 394.32 239.08 395.153 231.786C395.04 230.388 392.836 230.187 392.503 231.605C390.067 248.808 384.122 263.362 375.919 278.076C370.895 287.269 365.555 296.293 359.64 304.944C352.041 317.411 333 337.537 334.181 350.819C334.952 358.575 342.401 361.924 349.458 361.637C367.812 360.765 383.773 349.834 397.485 338.461C420.061 319.546 438.241 295.575 451.632 269.408C454.288 264.153 456.683 258.768 458.811 253.277C459.655 250.727 461.026 248.212 461.402 245.573C461.136 243.697 458.426 243.691 458.101 245.596Z" fill="white"/>
<path d="M434.153 359.309C423.156 362.234 412.881 367.383 402.932 372.815C391.858 379.166 381.866 387.234 372.257 395.594C358.96 407.111 346.136 419.213 334.51 432.431C332.368 434.857 330.27 437.321 328.197 439.806C327.325 440.824 326.084 442.091 327.33 443.373C328.916 444.756 330.115 443.117 331.096 441.928C334.131 438.458 337.178 434.997 340.278 431.584C350.398 420.378 361.277 409.888 372.612 399.918C382.742 390.939 391.457 383.537 402.843 376.46C409.986 372.16 418.429 367.845 425.094 365.094C428.388 363.65 431.902 362.704 435.266 361.543C436.365 360.789 435.46 358.893 434.153 359.309Z" fill="white"/>
<path d="M427.401 123.764C440.417 123.764 450.969 113.212 450.969 100.196C450.969 87.1804 440.417 76.6289 427.401 76.6289C414.385 76.6289 403.834 87.1804 403.834 100.196C403.834 113.212 414.385 123.764 427.401 123.764Z" fill="white"/>
<path d="M425.75 92.4162C425.634 90.8845 423.266 90.7304 422.914 92.2224C420.617 98.3342 419.633 105.019 420.521 111.512C420.62 112.55 421.112 114.365 421.169 114.493C421.303 114.967 421.483 115.465 421.943 115.711C422.715 116.186 423.795 115.737 424.025 114.864C424.176 114.119 423.914 112.229 423.875 110.464C423.637 105.503 423.834 101.197 424.604 97.3211C424.784 95.7232 425.68 93.8407 425.75 92.4162Z" fill="#270F03"/>
<path d="M346.352 122.93C358.759 122.93 368.817 112.872 368.817 100.465C368.817 88.058 358.759 78 346.352 78C333.945 78 323.887 88.058 323.887 100.465C323.887 112.872 333.945 122.93 346.352 122.93Z" fill="white"/>
<path d="M344.774 93.0499C344.663 91.5897 342.406 91.4429 342.07 92.8652C339.88 98.6911 338.943 105.063 339.789 111.252C339.884 112.242 340.353 113.973 340.407 114.095C340.534 114.546 340.706 115.021 341.144 115.256C341.881 115.708 342.91 115.28 343.13 114.448C343.273 113.738 343.023 111.936 342.986 110.254C342.76 105.524 342.947 101.42 343.681 97.7254C343.853 96.2023 344.706 94.4077 344.774 93.0499Z" fill="#270F03"/>
<path d="M388.606 112.765C385.722 112.609 382.838 112.498 379.974 112.397C379.156 112.368 378.649 113.265 379.078 113.962C380.338 116.015 381.725 117.97 383.238 119.729C383.624 120.178 384.326 120.197 384.742 119.774C386.392 118.094 387.928 116.297 389.372 114.397C389.863 113.751 389.416 112.809 388.606 112.765Z" fill="white"/>
<path d="M338.223 29.0659C336.791 26.2028 335.198 23.4082 333.266 20.8504C332.015 19.2012 330.652 17.6228 329.139 16.2087C328.589 15.7645 327.962 14.9881 327.184 15.3737C326.453 15.629 326.261 16.6823 326.82 17.206C330.615 20.9195 332.157 23.3749 334.894 28.4847C336.105 30.6871 336.197 31.506 337.255 33.8591C337.895 34.8079 339.487 34.469 339.756 33.373C339.908 32.0645 338.682 30.3333 338.223 29.0659Z" fill="white"/>
<path d="M451.947 14.3909C446.192 18.356 441.405 23.6278 437.649 29.4995C436.599 31.0938 435.574 32.7082 434.698 34.4062C434.495 34.751 434.442 35.1744 434.547 35.5594C434.782 36.4861 435.928 36.9446 436.745 36.4536C437.677 35.7011 437.985 34.3797 438.702 33.4278C441.851 28.2391 444.315 24.8549 448.511 20.6533C450.467 18.6199 451.797 17.6821 453.579 16.2506C454.461 15.2322 453.083 13.6701 451.947 14.3909Z" fill="white"/>
<path d="M332.797 32.8291C332.049 31.0704 331.097 29.4041 330.068 27.7962C329.457 26.8501 328.785 25.9446 328.086 25.062C328.133 25.1228 328.229 25.2465 328.191 25.197C327.943 24.9072 327.772 24.501 327.37 24.4031C326.654 24.1809 325.992 25.0382 326.392 25.6756C329.028 29.1704 330.345 32.1477 331.5 35.183C331.792 35.6199 332.423 35.709 332.865 35.4554C333.879 34.8355 333.106 33.6478 332.797 32.8291Z" fill="white"/>
<path d="M451.074 26.158C448.438 28.1225 446.278 30.6449 444.442 33.3574C443.738 34.4373 443.087 35.5568 442.54 36.7249C442.399 36.9649 442.362 37.2603 442.435 37.5284C442.599 38.1746 443.398 38.4932 443.967 38.1515C444.813 37.3329 445.034 35.9943 445.736 35.0323C447.312 32.4385 448.558 30.876 450.779 28.6285C451.282 28.0678 452.055 27.7201 452.448 27.0839C452.844 26.2739 451.687 25.499 451.074 26.158Z" fill="white"/>
<path d="M489.383 490.5C536.383 433.988 510.049 409.667 504.883 395.5L516.185 366C526.352 369 552.521 398.98 536.383 472.5C518.383 554.5 376.384 585.5 342.884 578.5C309.384 571.5 320.185 543 347.185 541C399.685 536.5 470.027 513.773 489.383 490.5Z" fill="#270F03"/>
<path d="M2.33789 466.14V289.552C2.33789 280.901 9.35036 273.889 18.0008 273.889H266.129C274.78 273.889 281.792 280.901 281.792 289.552V466.14C281.792 474.79 274.78 481.803 266.129 481.803H18.0008C9.35036 481.803 2.33789 474.79 2.33789 466.14Z" fill="white"/>
<path d="M152.667 381.294C151.153 380.155 148.372 377.816 147.491 375.506C147.002 374.466 146.428 370.462 145.493 368.456C144.478 366.002 142.978 363.613 140.658 362.214C136.285 359.384 130.057 361.196 127.997 366.007C127.055 367.932 127.179 370.121 126.98 372.201C126.823 374.296 126.26 376.648 124.635 378.878C124.122 379.677 123.337 380.542 122.486 381.474C121.108 382.678 119.767 383.939 118.888 385.564C116.265 390.347 117.737 395.368 122.819 397.584C125.358 398.638 128.348 398.845 130.99 398.059C133.742 397.021 136.47 395.021 138.072 395.077C141.408 394.67 144.284 398.138 148.731 398.613C158.452 399.619 160.013 385.602 152.667 381.294Z" fill="#270F03"/>
<path d="M114.144 364.061C113.665 363.404 113.102 362.821 112.495 362.287C109.361 358.873 104.619 357.813 101.541 362.449C100.807 363.484 100.704 364.791 100.765 366.023C100.884 367.809 101.346 369.574 102.209 371.148C105.718 378.414 116.64 378.528 116.773 371.53C116.762 368.852 115.728 366.199 114.144 364.061Z" fill="#270F03"/>
<path d="M127.316 344.847C125.024 342.112 121.197 340.751 118.653 341.812C114.668 343.4 114.223 348.204 115.895 352.255C116.035 352.576 116.174 352.91 116.324 353.239C116.887 354.747 117.762 356.102 118.803 357.222C120.481 358.871 122.76 360.27 125.19 360.082C127.706 359.801 129.897 357.699 130.171 355.164C130.748 351.558 129.55 347.697 127.316 344.847Z" fill="#270F03"/>
<path d="M144.776 337.677C141.61 338.161 140.015 339.715 138.489 342.508C137.73 344.012 137.516 345.684 137.543 347.361C137.158 350.274 137.568 353.472 139.679 355.586C144.66 359.659 150.517 355.546 151.822 350.052C153.541 344.856 150.57 337.209 144.776 337.677Z" fill="#270F03"/>
<path d="M166.002 356.219C165.088 354.958 163.568 354.12 162.025 353.95C160.662 353.847 159.297 354.242 158.083 354.843C157.874 354.949 157.657 355.058 157.469 355.197C157.102 355.425 156.782 355.67 156.475 355.931C155.938 356.457 155.442 357.031 154.996 357.642C153.649 359.148 152.657 361.016 152.246 362.894C151.637 366.237 153.531 370.06 156.853 371.129C159.584 372.024 162.364 370.372 164.136 368.363C165.727 366.496 167.157 364.3 167.372 361.799C167.453 359.888 167.044 357.842 166.002 356.219Z" fill="#270F03"/>
<path d="M11.7197 317.857C10.794 317.857 10.043 317.106 10.043 316.18V289.342C10.043 284.626 13.8801 280.789 18.5959 280.789H47.6711C48.5968 280.789 49.3478 281.54 49.3478 282.466C49.3478 283.391 48.5968 284.142 47.6711 284.142H18.5959C15.7293 284.142 13.3965 286.475 13.3965 289.342V316.18C13.3965 317.106 12.6454 317.857 11.7197 317.857Z" fill="#270F03"/>
<path d="M269.85 317.857C268.924 317.857 268.173 317.106 268.173 316.18V289.342C268.173 286.475 265.84 284.142 262.974 284.142H248.462C247.536 284.142 246.785 283.391 246.785 282.466C246.785 281.54 247.536 280.789 248.462 280.789H262.974C267.69 280.789 271.527 284.626 271.527 289.342V316.18C271.527 317.106 270.776 317.857 269.85 317.857Z" fill="#270F03"/>
<path d="M49.2757 471.56H20.2004C15.4836 471.56 11.6465 467.723 11.6465 463.007V436.169C11.6465 435.243 12.3976 434.492 13.3233 434.492C14.2489 434.492 15 435.243 15 436.169V463.007C15 465.874 17.3328 468.207 20.2004 468.207H49.2757C50.2014 468.207 50.9524 468.958 50.9524 469.884C50.9524 470.809 50.2014 471.56 49.2757 471.56Z" fill="#270F03"/>
<path d="M252.172 470.15H81.3662C80.4405 470.15 79.6895 469.399 79.6895 468.474C79.6895 467.548 80.4405 466.797 81.3662 466.797H252.172C253.098 466.797 253.849 467.548 253.849 468.474C253.849 469.399 253.098 470.15 252.172 470.15Z" fill="#270F03"/>
<path d="M270.56 427.79C300.851 427.293 331.141 426.795 361.432 426.297C360.379 427.957 358.637 429.032 356.955 430.049C332.608 444.777 308.26 459.504 283.913 474.232C281.413 475.744 278.847 477.282 275.979 477.841C272.39 478.541 268.704 477.641 265.159 476.745C263.792 476.4 262.28 475.949 261.579 474.725C261.079 473.852 261.119 472.782 261.179 471.777C262.094 456.44 264.35 441.184 270.56 427.79Z" fill="white"/>
<path d="M350.821 431.612C346.957 434.559 342.105 437.38 336.235 441.137C327.646 446.422 319.179 451.901 310.606 457.213C303.722 461.509 296.86 465.842 289.933 470.07C286.29 472.283 283.204 474.117 279.941 475.584C280.089 475.286 280.242 474.99 280.375 474.689C284.039 466.979 282.944 458.194 283.02 449.913C282.911 444.02 282.61 438.133 282.564 432.239C282.546 431.017 282.506 429.796 282.483 428.575C282.496 427.879 282.042 427.169 281.383 426.94C280.592 426.552 279.587 426.93 279.149 427.672C278.591 429.189 279.107 430.953 278.99 432.554C279.029 437.705 279.282 442.85 279.398 447.999C279.505 452.68 279.575 457.365 279.437 462.046C279.326 466.383 279.046 468.659 277.262 472.946C276.308 475.256 274.806 477.597 271.564 478.199C262.246 480.224 250.459 480.064 239.579 479.85C228.146 479.395 216.705 479.728 205.268 479.602C192.046 479.471 178.831 478.791 165.605 478.96C149.663 479.078 133.729 479.71 117.785 479.709C100.557 479.78 83.3257 479.396 66.1086 480.217C58.2206 480.505 50.3276 480.64 42.4352 480.734C40.8669 480.756 39.2981 480.728 37.7298 480.759C37.373 480.757 37.0294 480.902 36.7773 481.153C35.9587 481.935 36.5538 483.498 37.7298 483.452C54.5236 484.012 71.325 483.21 88.1216 483.197C115.165 483.618 142.198 482.846 169.236 482.519C180.676 482.47 192.105 483.019 203.542 483.16C214.346 483.339 225.152 482.99 235.954 483.321C247.552 483.664 259.287 483.91 270.775 482.054C271.036 481.999 271.298 481.942 271.559 481.883C273.427 481.683 276.652 480.753 279.479 479.648C287.542 476.313 294.713 471.195 302.154 466.703C313.116 459.88 324.046 453.007 334.906 446.022C342.636 441.015 345.945 438.77 352.364 433.155C353.343 432.168 351.859 430.597 350.821 431.612Z" fill="#270F03"/>
<path d="M284.98 398.344C284.913 395.916 284.885 393.486 284.845 391.058C284.693 383.564 284.615 376.069 284.563 368.574C284.811 350.915 283.216 333.305 283.183 315.653C283.154 309.781 283.122 303.909 282.983 298.039C282.983 296.487 280.566 296.43 280.555 298.039C280.155 306.652 279.862 315.275 279.832 323.898C279.895 332.963 280.547 342.011 280.805 351.07C281.097 366.873 280.987 382.683 281.415 398.484C281.516 399.474 281.312 400.539 281.641 401.479C282.11 402.813 284.138 402.938 284.812 401.692C285.313 400.672 284.909 399.443 284.98 398.344Z" fill="#270F03"/>
<path d="M29.5443 481.788C28.9655 480.221 26.8416 481.091 25.5654 480.86C22.2449 480.778 18.915 480.895 15.6027 480.612C13.4875 480.403 11.5805 480.198 9.90966 479.168C7.51926 477.538 6.1771 475.397 5.09369 472.003C4.17541 468.747 3.41422 462.897 3.3266 456.636C3.17376 451.983 3.3389 448.334 2.97987 444.204C3.1081 442.871 1.12918 442.552 1.04373 443.979C0.871345 450.286 0.408584 457.195 1.07604 464.268C1.17748 467.724 2.07804 471.028 2.76034 472.893C3.51335 475.014 4.6936 478.083 7.05547 480.184C8.60648 481.587 10.589 482.413 12.6475 482.714C15.8323 483.276 19.0724 483.357 22.2989 483.355C24.3119 483.364 26.3251 483.403 28.3381 483.372C29.1433 483.389 29.768 482.561 29.5443 481.788Z" fill="#FFE9CF"/>
<path d="M3.54125 393.707C3.18671 376.785 3.46777 359.859 3.48122 342.935C3.45707 333.299 2.90312 323.671 3.05503 314.034C3.10414 306.425 3.5493 298.815 3.31988 291.207C3.32505 289.638 0.808619 289.501 0.796544 291.207C0.657969 300.627 -0.0158162 310.036 0.000283774 319.46C-0.00845623 329.599 0.45143 339.732 0.345169 349.872C0.428429 362.641 0.0739992 375.406 0.0466292 388.173C0.220279 404.43 0.433374 420.688 0.667399 436.944C0.772279 439.117 0.79873 440.234 1.1052 441.822C1.40167 442.657 2.68484 442.752 3.11092 441.957C4.21941 427.306 3.8253 409.577 3.54125 393.707Z" fill="#270F03"/>
<path d="M34.7019 272.075C31.8652 272.025 29.0276 272.003 26.1906 272.013C18.2362 271.917 10.1494 272.172 4.59911 279.183C3.55031 280.427 2.85778 281.916 2.38777 283.466C2.23505 284.174 1.7271 284.965 2.08762 285.668C2.50668 286.434 3.74742 286.275 3.95545 285.424C5.58592 278.489 12.8392 275.545 18.8857 274.683C23.8784 274.123 28.9169 274.258 33.932 274.277C35.0725 274.196 37.4103 274.778 37.1147 272.925C36.8077 271.878 35.5423 272.167 34.7019 272.075Z" fill="#FFE9CF"/>
<path d="M271.078 273.865C268.137 273.838 265.195 273.996 262.253 273.933C249.879 273.723 237.529 272.67 225.152 272.7C209.18 272.967 193.208 272.156 177.236 272.618C156.671 272.488 136.107 272.015 115.547 272.682C96.2901 272.181 77.0343 272.775 57.7744 272.788C52.5128 272.848 47.2496 272.55 41.9903 272.687C41.4641 272.676 40.9855 273.146 41.0003 273.677C40.9979 274.205 41.4573 274.678 41.9903 274.667C65.9019 275.982 89.8604 274.881 113.791 275.398C148.357 276.08 182.935 275.802 217.503 276.36C232.943 275.932 248.36 277.088 263.791 277.331C266.434 277.313 269.079 277.272 271.72 277.179C272.924 277.179 274.546 277.097 274.553 275.505C274.428 273.575 272.481 273.922 271.078 273.865Z" fill="#270F03"/>
<path d="M359.812 425.805C359.652 425.197 359.167 424.675 358.424 424.702C344.624 424.981 330.819 425.254 317.023 425.794C309.134 426.162 301.201 426.031 293.336 426.723C291.449 427.281 291.862 430.069 293.872 430.014C308.683 430.19 323.498 429.918 338.299 429.306C343.48 429.069 350.271 428.709 354.215 428.508C356.009 428.388 356.652 428.441 357.765 428.315C358.689 428.105 359.62 428.407 360.03 426.825C360.104 426.453 360.004 426.101 359.812 425.805Z" fill="#270F03"/>
<path d="M342.483 430.389C340.444 431.465 338.377 432.589 336.291 433.748C331.95 433.726 327.598 433.911 323.242 434.193C323.889 433.786 324.532 433.375 325.156 432.942C325.824 432.165 324.78 430.965 323.906 431.518C322.022 432.497 320.155 433.51 318.296 434.536C314.547 434.816 310.799 435.112 307.056 435.354C308.033 434.777 309.008 434.198 309.966 433.59C310.188 433.46 310.354 433.244 310.423 432.995C310.677 432.173 309.694 431.411 308.961 431.871C306.638 433.126 304.305 434.378 301.973 435.635C301.835 435.641 301.697 435.651 301.559 435.657C297.864 435.81 294.173 436.053 290.478 436.212C292.241 435.292 293.989 434.347 295.644 433.295C296.338 432.492 295.253 431.267 294.36 431.832C291.066 433.321 289.184 434.224 286.133 435.749C285.586 436.067 284.834 436.271 284.661 436.958C284.351 437.954 285.544 438.872 286.428 438.317C286.845 438.096 287.268 437.879 287.688 437.661C291.329 437.695 294.943 437.615 298.557 437.489C295.132 439.36 291.745 441.287 288.41 443.277C288.202 443.28 287.994 443.277 287.786 443.28C287.018 443.35 286.132 443.239 285.444 443.611C284.869 444.006 285.136 444.935 285.773 445.06C285.361 446.07 286.587 447.289 287.632 446.628C288.523 446.145 289.405 445.648 290.289 445.154C293.391 445.227 296.492 445.347 299.595 445.482C295.497 447.956 291.401 450.431 287.274 452.842C286.627 452.882 285.854 452.649 285.337 453.119C284.745 453.675 285.189 454.763 286.007 454.736C286.284 454.748 286.56 454.769 286.837 454.783C287.197 455.115 287.771 455.23 288.208 454.955C288.26 454.928 288.315 454.898 288.368 454.87C291.911 455.099 295.463 455.454 299.01 455.732C296.078 457.468 293.158 459.183 290.275 460.833C289.588 461.123 289.217 461.541 289.077 461.957C287.777 461.985 286.43 461.743 285.16 461.942C284.231 462.273 284.538 463.76 285.518 463.724C287.11 463.787 288.683 464.064 290.267 464.216C290.844 464.231 291.477 464.474 292.027 464.242C292.805 463.972 292.948 462.913 292.423 462.359C296.118 460.347 299.737 458.195 303.341 456.013C305.044 456.096 306.745 456.144 308.443 456.122C309.517 455.738 309.167 454.012 308.027 454.054C307.588 454.031 307.149 453.999 306.71 453.974C310.977 451.389 315.257 448.827 319.67 446.502C319.855 446.399 320.051 446.29 320.238 446.186C320.935 446.191 321.631 446.204 322.328 446.203C323.339 446.201 323.663 445.159 323.309 444.472C328.322 441.663 333.736 438.559 338.188 435.749C338.306 435.748 338.424 435.743 338.542 435.743C339.227 435.839 339.715 435.305 339.763 434.739C340.971 433.953 342.092 433.196 343.079 432.487C343.432 432.223 343.888 432.021 344 431.555C344.26 430.704 343.247 429.91 342.483 430.389ZM295.074 443.301C294.579 443.293 294.083 443.291 293.588 443.285C297.016 441.313 300.414 439.291 303.815 437.273C307.353 437.103 310.89 436.908 314.426 436.701C310.558 438.907 306.733 441.191 302.916 443.487C300.302 443.418 297.688 443.351 295.074 443.301ZM302.421 453.712C298.874 453.474 295.329 453.222 291.78 453.035C295.726 450.858 300.056 448.306 304.375 445.695C307.955 445.856 311.535 446.002 315.116 446.098C310.884 448.636 306.639 451.196 302.421 453.712ZM318.893 443.841C315.191 443.795 311.49 443.717 307.789 443.618C310.644 441.872 313.452 440.136 316.081 438.507C317.223 437.783 318.395 437.094 319.568 436.406C323.901 436.164 328.234 435.955 332.571 435.839C328.076 438.393 323.497 441.094 318.893 443.841Z" fill="#270F03"/>
</svg>
