<?xml version="1.0" encoding="UTF-8"?>
<svg id="Layer_1" xmlns="http://www.w3.org/2000/svg" version="1.1" viewBox="0 0 542 580">
  <!-- Generator: Adobe Illustrator 29.5.1, SVG Export Plug-In . SVG Version: 2.1.0 Build 141)  -->
  <defs>
    <style>
      .st0 {
        fill: #270f03;
      }

      .st1 {
        fill: #fff;
      }

      .st2 {
        fill: none;
        stroke: #fff;
        stroke-linecap: round;
        stroke-linejoin: round;
        stroke-width: 3px;
      }

      .st3 {
        fill: #ffe9cf;
      }
    </style>
  </defs>
  <path class="st0" d="M440,12.74c3.59-3.09,18.64-18.42,22.66-10.48,1.48,3.51,1.9,7.37,2.46,11.11,1.1,8.06,1.26,16.21,1.26,24.33-.05,4.54.01,9.09-.23,13.63.17.26.34.53.54.76,4.79,7.72,8.95,15.91,11.66,24.6,2.88,9.14,4.68,18.63,5.69,28.15.35,5.76.95,11.57.2,17.32-.62,6.16-3.49,11.74-5.33,17.58-.11.37-.22.73-.32,1.08-.16,3.12-.07,6.26.33,9.36,1.13,8.77,7.22,22.69,10.26,30.86,7.89,20.39,16.76,40.4,24.22,60.96,4.91,13.58,9.66,27.27,12.56,41.44,5.26,20.89,8.2,42.4,8.59,63.94.26,13.54.37,27.15-2.37,40.48-1.91,10.75-4.39,21.47-8.69,31.51.03.04.06.08.09.12h-.06c-3.67,6.07-11.41,18.31-14.17,20.74-.02-.05-.03-.1-.05-.15-5.13,6.35-11.13,12.01-17.77,16.78-5.3,3.98-11.45,6.68-17.57,9.15-8.1,3.28-16.68,4.99-25.28,6.36-17.54,3.08-37.82,3.81-53.06,6.14-11.08,1.93-22.36,3.35-33.1,6.8-5.25,1.84-4.6,1.71-8.78,3.49-.14.06-.26.12-.38.17-3.31,3.01-5.47,5.81-8.78,9.17-2.02,2.14-4.68,3.48-7.45,4.4-6.97,2.55-14.41,2.22-21.71,2.61-6.83.77-11.05,1.3-18.9,1.8-4.49.42-9,.19-13.49.52-10.03.76-18.69,2.31-28.82,3.22-7.64.82-20.22,1.74-21.45-8.45-.09-7.66,5.57-14.26,12.15-17.56,6.04-3.31,12.95-4.25,19.55-5.88,12.52-3.17,23.81-5.38,34-12.05,4.42-2.83,9.64-8.2,14.33-13.21,2.01-2.28,4.01-4.59,6.08-6.82,1.4-2.02,2.85-4.01,4.42-5.91,6.94-8.53,14.96-16.06,23.19-23.33-1.58.02-3.15.04-4.73.08-12.89.36-25.06.64-36.81,3.15-5.65.98-9.2,3.97-14.29,7.4-4.71,2.88-10.36,3.31-15.74,3.53-18.07.68-36.13.57-54.2.1-5.16-.1-10.33-.2-15.48-.57-4.55-.32-9.21-1.04-13.28-3.22-11.37-6.73,2.32-15.11,9.37-17.7,10.02-3.12,20.44-4.82,30.65-7.26,7.72-1.52,15.71-3.3,21.75-6.41,14.56-6.79,19.66-15.39,28.24-28.08,5.71-8.04,12.14-15.54,18.93-22.67-1.95-19.57-1.12-39.72,4.01-58.77-.52.28-1.03.57-1.55.84-6.49,3.3-13.25,6.1-20.23,8.19-12.15,3.36-39.55,11.55-48.19-.75-4.27-6.76,11.2-17.54,15.92-21.42,6.95-5.32,12.48-9.15,18.82-14.85,7.14-6.43,13.57-13.63,19.44-21.23,15.11-19.59,32.06-54.6,32.83-82.01-.48-1.3-.97-2.6-1.44-3.91-5.63-14.8-8.86-30.46-9.34-46.3.1-9.71,1.19-19.41,2.85-28.97,1.23-6.04,3.13-11.96,5.59-17.61,1.05-2.42,2.47-4.92,3.68-7.25-1.59-6.84-2.24-12.81-2.98-18.54-.39-3.36-1.26-7.56-1.55-11.46-.29-3.73-.13-7.49.27-11.2.18-4.39,2.44-7.66,7.85-6.13,8.32,2.8,14.7,9.35,21.29,14.87,3.55,3.03,8.23,7.15,12.18,10.97,1.48-.22,2.96-.42,4.42-.59,11.07-1.01,22.24-.43,33.28.62,6.15.55,12.27,1.4,18.31,2.74.9.19,1.79.42,2.68.63,6.17-7.71,13.59-14.42,20.95-20.98Z"/>
  <path class="st1" d="M457.07,233.72c-1.39,8.19-2.95,14.11-5.43,21.92-9.43,28.39-23.13,53.34-42.91,75.95-11.74,13.23-25.7,25.72-41.94,28.76-18.05,2.81-13.19-14.28-5.35-29.68,5.53-11.06,11.21-22.06,15.85-33.53,5.83-14.8,11.51-29.84,14.03-45.61,1.18-7.26,1.72-14.67,1.45-22.01-.32-1.37-2.53-1.23-2.65.22.17,17.37-3.52,32.66-9.42,48.43-3.59,9.84-7.51,19.57-12.06,29.01-5.64,13.47-21.44,36.22-18.28,49.18,1.93,7.55,9.79,9.74,16.73,8.4,18.01-3.62,32.15-16.82,44-30.12,19.48-22.09,33.85-48.52,43.16-76.4,1.84-5.59,3.4-11.28,4.68-17.03.45-2.65,1.43-5.34,1.4-8.01-.54-1.81-3.22-1.41-3.26.52Z"/>
  <path class="st1" d="M434.15,359.31c-11,2.93-21.27,8.07-31.22,13.51-11.07,6.35-21.07,14.42-30.68,22.78-13.3,11.52-26.12,23.62-37.75,36.84-2.14,2.43-4.24,4.89-6.31,7.38-.87,1.02-2.11,2.29-.87,3.57,1.59,1.38,2.79-.26,3.77-1.44,3.04-3.47,6.08-6.93,9.18-10.34,10.12-11.21,21-21.7,32.33-31.67,10.13-8.98,18.85-16.38,30.23-23.46,7.14-4.3,15.59-8.61,22.25-11.37,3.29-1.44,6.81-2.39,10.17-3.55,1.1-.75.19-2.65-1.11-2.23Z"/>
  <path class="st1" d="M346.35,122.93c12.41,0,22.46-10.06,22.46-22.47s-10.06-22.46-22.46-22.46-22.46,10.06-22.46,22.46,10.06,22.47,22.46,22.47Z"/>
  <path class="st0" d="M349.94,89.59c-.11-1.46-2.37-1.61-2.7-.18-2.19,5.83-3.13,12.2-2.28,18.39.1.99.56,2.72.62,2.84.13.45.3.93.74,1.16.74.45,1.77.02,1.99-.81.14-.71-.11-2.51-.14-4.19-.23-4.73-.04-8.83.7-12.53.17-1.52,1.02-3.32,1.09-4.68Z"/>
  <path class="st1" d="M388.61,120.29c-2.88-.16-5.77-.27-8.63-.37-.82-.03-1.33.87-.9,1.56,1.26,2.05,2.65,4.01,4.16,5.77.39.45,1.09.47,1.5.05,1.65-1.68,3.19-3.48,4.63-5.38.49-.65.04-1.59-.77-1.63Z"/>
  <path class="st1" d="M338.22,29.07c-1.43-2.86-3.02-5.66-4.96-8.22-1.25-1.65-2.61-3.23-4.13-4.64-.55-.44-1.18-1.22-1.96-.84-.73.26-.92,1.31-.36,1.83,3.79,3.71,5.34,6.17,8.07,11.28,1.21,2.2,1.3,3.02,2.36,5.37.64.95,2.23.61,2.5-.49.15-1.31-1.07-3.04-1.53-4.31Z"/>
  <path class="st1" d="M451.95,14.39c-5.76,3.97-10.54,9.24-14.3,15.11-1.05,1.59-2.07,3.21-2.95,4.91-.2.34-.26.77-.15,1.15.24.93,1.38,1.39,2.2.89.93-.75,1.24-2.07,1.96-3.03,3.15-5.19,5.61-8.57,9.81-12.77,1.96-2.03,3.29-2.97,5.07-4.4.88-1.02-.5-2.58-1.63-1.86Z"/>
  <path class="st1" d="M332.8,32.83c-.75-1.76-1.7-3.43-2.73-5.03-.61-.95-1.28-1.85-1.98-2.73.05.06.14.18.11.14-.25-.29-.42-.7-.82-.79-.72-.22-1.38.64-.98,1.27,2.64,3.49,3.95,6.47,5.11,9.51.29.44.92.53,1.36.27,1.01-.62.24-1.81-.07-2.63Z"/>
  <path class="st1" d="M451.07,26.16c-2.64,1.96-4.8,4.49-6.63,7.2-.7,1.08-1.35,2.2-1.9,3.37-.14.24-.18.54-.11.8.16.65.96.96,1.53.62.85-.82,1.07-2.16,1.77-3.12,1.58-2.59,2.82-4.16,5.04-6.4.5-.56,1.28-.91,1.67-1.54.4-.81-.76-1.58-1.37-.93Z"/>
  <path class="st0" d="M504.23,449.53c24.9-59.48-3.44-73.11-11.42-83.67l1.9-27.65c9.3-.1,38.95,18.32,44.31,84.14,5.98,73.41-105.16,135.91-135.06,138.64-29.9,2.74-28.16-23.94-6.03-32.56,42.88-17.27,96.04-54.41,106.29-78.91Z"/>
  <path class="st1" d="M2.34,466.14v-176.59c0-8.65,7.01-15.66,15.66-15.66h248.13c8.65,0,15.66,7.01,15.66,15.66v176.59c0,8.65-7.01,15.66-15.66,15.66H18c-8.65,0-15.66-7.01-15.66-15.66Z"/>
  <path class="st0" d="M152.67,381.29c-1.51-1.14-4.3-3.48-5.18-5.79-.49-1.04-1.06-5.04-2-7.05-1.01-2.45-2.51-4.84-4.83-6.24-4.37-2.83-10.6-1.02-12.66,3.79-.94,1.93-.82,4.11-1.02,6.19-.16,2.1-.72,4.45-2.35,6.68-.51.8-1.3,1.66-2.15,2.6-1.38,1.2-2.72,2.46-3.6,4.09-2.62,4.78-1.15,9.8,3.93,12.02,2.54,1.05,5.53,1.26,8.17.47,2.75-1.04,5.48-3.04,7.08-2.98,3.34-.41,6.21,3.06,10.66,3.54,9.72,1.01,11.28-13.01,3.94-17.32Z"/>
  <path class="st0" d="M114.14,364.06c-.48-.66-1.04-1.24-1.65-1.77-3.13-3.41-7.88-4.47-10.95.16-.73,1.04-.84,2.34-.78,3.57.12,1.79.58,3.55,1.44,5.12,3.51,7.27,14.43,7.38,14.56.38-.01-2.68-1.05-5.33-2.63-7.47Z"/>
  <path class="st0" d="M127.32,344.85c-2.29-2.73-6.12-4.1-8.66-3.03-3.99,1.59-4.43,6.39-2.76,10.44.14.32.28.65.43.98.56,1.51,1.44,2.86,2.48,3.98,1.68,1.65,3.96,3.05,6.39,2.86,2.52-.28,4.71-2.38,4.98-4.92.58-3.61-.62-7.47-2.86-10.32Z"/>
  <path class="st0" d="M144.78,337.68c-3.17.48-4.76,2.04-6.29,4.83-.76,1.5-.97,3.18-.95,4.85-.38,2.91.02,6.11,2.14,8.23,4.98,4.07,10.84-.04,12.14-5.53,1.72-5.2-1.25-12.84-7.05-12.38Z"/>
  <path class="st0" d="M166,356.22c-.91-1.26-2.43-2.1-3.98-2.27-1.36-.1-2.73.29-3.94.89-.21.11-.43.22-.61.35-.37.23-.69.47-.99.73-.54.53-1.03,1.1-1.48,1.71-1.35,1.51-2.34,3.37-2.75,5.25-.61,3.34,1.29,7.17,4.61,8.23,2.73.89,5.51-.76,7.28-2.77,1.59-1.87,3.02-4.06,3.24-6.56.08-1.91-.33-3.96-1.37-5.58Z"/>
  <path class="st0" d="M11.72,317.86c-.93,0-1.68-.75-1.68-1.68v-26.84c0-4.72,3.84-8.55,8.55-8.55h29.08c.93,0,1.68.75,1.68,1.68s-.75,1.68-1.68,1.68h-29.08c-2.87,0-5.2,2.33-5.2,5.2v26.84c0,.93-.75,1.68-1.68,1.68Z"/>
  <path class="st0" d="M269.85,317.86c-.93,0-1.68-.75-1.68-1.68v-26.84c0-2.87-2.33-5.2-5.2-5.2h-14.51c-.93,0-1.68-.75-1.68-1.68s.75-1.68,1.68-1.68h14.51c4.72,0,8.55,3.84,8.55,8.55v26.84c0,.93-.75,1.68-1.68,1.68Z"/>
  <path class="st0" d="M49.28,471.56h-29.08c-4.72,0-8.55-3.84-8.55-8.55v-26.84c0-.93.75-1.68,1.68-1.68s1.68.75,1.68,1.68v26.84c0,2.87,2.33,5.2,5.2,5.2h29.08c.93,0,1.68.75,1.68,1.68s-.75,1.68-1.68,1.68Z"/>
  <path class="st0" d="M252.17,470.15H81.37c-.93,0-1.68-.75-1.68-1.68s.75-1.68,1.68-1.68h170.81c.93,0,1.68.75,1.68,1.68s-.75,1.68-1.68,1.68Z"/>
  <path class="st1" d="M270.56,427.79c30.29-.5,60.58-.99,90.87-1.49-1.05,1.66-2.8,2.74-4.48,3.75-24.35,14.73-48.69,29.45-73.04,44.18-2.5,1.51-5.07,3.05-7.93,3.61-3.59.7-7.27-.2-10.82-1.1-1.37-.35-2.88-.8-3.58-2.02-.5-.87-.46-1.94-.4-2.95.92-15.34,3.17-30.59,9.38-43.99Z"/>
  <path class="st0" d="M350.82,431.61c-3.86,2.95-8.72,5.77-14.59,9.52-8.59,5.29-17.06,10.76-25.63,16.08-6.88,4.3-13.75,8.63-20.67,12.86-3.64,2.21-6.73,4.05-9.99,5.51.15-.3.3-.59.43-.9,3.66-7.71,2.57-16.49,2.64-24.78-.11-5.89-.41-11.78-.46-17.67-.02-1.22-.06-2.44-.08-3.66.01-.7-.44-1.41-1.1-1.64-.79-.39-1.8-.01-2.23.73-.56,1.52-.04,3.28-.16,4.88.04,5.15.29,10.3.41,15.45.11,4.68.18,9.37.04,14.05-.11,4.34-.39,6.61-2.18,10.9-.95,2.31-2.46,4.65-5.7,5.25-9.32,2.02-21.1,1.86-31.99,1.65-11.43-.46-22.87-.12-34.31-.25-13.22-.13-26.44-.81-39.66-.64-15.94.12-31.88.75-47.82.75-17.23.07-34.46-.31-51.68.51-7.89.29-15.78.42-23.67.52-1.57.02-3.14,0-4.71.02-.36,0-.7.14-.95.39-.82.78-.22,2.34.95,2.3,16.79.56,33.6-.24,50.39-.26,27.04.42,54.08-.35,81.11-.68,11.44-.05,22.87.5,34.31.64,10.8.18,21.61-.17,32.41.16,11.6.34,23.33.59,34.82-1.27.26-.05.52-.11.78-.17,1.87-.2,5.09-1.13,7.92-2.23,8.06-3.34,15.23-8.45,22.67-12.95,10.96-6.82,21.89-13.7,32.75-20.68,7.73-5.01,11.04-7.25,17.46-12.87.98-.99-.51-2.56-1.54-1.54Z"/>
  <path class="st0" d="M284.98,398.34c-.07-2.43-.1-4.86-.14-7.29-.15-7.49-.23-14.99-.28-22.48.25-17.66-1.35-35.27-1.38-52.92-.03-5.87-.06-11.74-.2-17.61,0-1.55-2.42-1.61-2.43,0-.4,8.61-.69,17.24-.72,25.86.06,9.07.71,18.11.97,27.17.29,15.8.18,31.61.61,47.41.1.99-.1,2.05.23,2.99.47,1.33,2.5,1.46,3.17.21.5-1.02.1-2.25.17-3.35Z"/>
  <path class="st3" d="M29.54,481.79c-.58-1.57-2.7-.7-3.98-.93-3.32-.08-6.65.04-9.96-.25-2.12-.21-4.02-.41-5.69-1.44-2.39-1.63-3.73-3.77-4.82-7.17-.92-3.26-1.68-9.11-1.77-15.37-.15-4.65.01-8.3-.35-12.43.13-1.33-1.85-1.65-1.94-.23-.17,6.31-.64,13.22.03,20.29.1,3.46,1,6.76,1.68,8.62.75,2.12,1.93,5.19,4.3,7.29,1.55,1.4,3.53,2.23,5.59,2.53,3.18.56,6.42.64,9.65.64,2.01,0,4.03.05,6.04.02.81.02,1.43-.81,1.21-1.58Z"/>
  <path class="st0" d="M3.54,393.71c-.35-16.92-.07-33.85-.06-50.77-.02-9.64-.58-19.26-.43-28.9.05-7.61.49-15.22.26-22.83,0-1.57-2.51-1.71-2.52,0C.66,300.63-.02,310.04,0,319.46c0,10.14.45,20.27.34,30.41.08,12.77-.27,25.53-.3,38.3.17,16.26.39,32.51.62,48.77.1,2.17.13,3.29.44,4.88.3.84,1.58.93,2.01.14,1.11-14.65.71-32.38.43-48.25Z"/>
  <path class="st3" d="M34.7,272.08c-2.84-.05-5.67-.07-8.51-.06-7.95-.1-16.04.16-21.59,7.17-1.05,1.24-1.74,2.73-2.21,4.28-.15.71-.66,1.5-.3,2.2.42.77,1.66.61,1.87-.24,1.63-6.93,8.88-9.88,14.93-10.74,4.99-.56,10.03-.43,15.05-.41,1.14-.08,3.48.5,3.18-1.35-.31-1.05-1.57-.76-2.41-.85Z"/>
  <path class="st0" d="M271.08,273.86c-2.94-.03-5.88.13-8.83.07-12.37-.21-24.72-1.26-37.1-1.23-15.97.27-31.94-.54-47.92-.08-20.56-.13-41.13-.6-61.69.06-19.26-.5-38.51.09-57.77.11-5.26.06-10.52-.24-15.78-.1-.53-.01-1,.46-.99.99,0,.53.46,1,.99.99,23.91,1.32,47.87.21,71.8.73,34.57.68,69.14.4,103.71.96,15.44-.43,30.86.73,46.29.97,2.64-.02,5.29-.06,7.93-.15,1.2,0,2.83-.08,2.83-1.67-.12-1.93-2.07-1.58-3.48-1.64Z"/>
  <path class="st0" d="M359.81,425.8c-.16-.61-.65-1.13-1.39-1.1-13.8.28-27.61.55-41.4,1.09-7.89.37-15.82.24-23.69.93-1.89.56-1.47,3.35.54,3.29,14.81.18,29.63-.1,44.43-.71,5.18-.24,11.97-.6,15.92-.8,1.79-.12,2.44-.07,3.55-.19.92-.21,1.85.09,2.26-1.49.07-.37-.03-.72-.22-1.02Z"/>
  <path class="st0" d="M342.48,430.39c-2.04,1.08-4.11,2.2-6.19,3.36-4.34-.02-8.69.16-13.05.45.65-.41,1.29-.82,1.91-1.25.67-.78-.38-1.98-1.25-1.42-1.88.98-3.75,1.99-5.61,3.02-3.75.28-7.5.58-11.24.82.98-.58,1.95-1.16,2.91-1.76.22-.13.39-.35.46-.6.25-.82-.73-1.58-1.46-1.12-2.32,1.26-4.66,2.51-6.99,3.76-.14,0-.28.02-.41.02-3.69.15-7.39.4-11.08.55,1.76-.92,3.51-1.87,5.17-2.92.69-.8-.39-2.03-1.28-1.46-3.29,1.49-5.18,2.39-8.23,3.92-.55.32-1.3.52-1.47,1.21-.31,1,.88,1.91,1.77,1.36.42-.22.84-.44,1.26-.66,3.64.03,7.26-.05,10.87-.17-3.43,1.87-6.81,3.8-10.15,5.79-.21,0-.42,0-.62,0-.77.07-1.65-.04-2.34.33-.58.4-.31,1.32.33,1.45-.41,1.01.81,2.23,1.86,1.57.89-.48,1.77-.98,2.66-1.47,3.1.07,6.2.19,9.31.33-4.1,2.47-8.19,4.95-12.32,7.36-.65.04-1.42-.19-1.94.28-.59.56-.15,1.64.67,1.62.28.01.55.03.83.05.36.33.93.45,1.37.17.05-.03.11-.06.16-.08,3.54.23,7.1.58,10.64.86-2.93,1.74-5.85,3.45-8.74,5.1-.69.29-1.06.71-1.2,1.12-1.3.03-2.65-.21-3.92-.02-.93.33-.62,1.82.36,1.78,1.59.06,3.17.34,4.75.49.58.01,1.21.26,1.76.03.78-.27.92-1.33.4-1.88,3.7-2.01,7.31-4.16,10.92-6.35,1.7.08,3.4.13,5.1.11,1.07-.38.72-2.11-.42-2.07-.44-.02-.88-.05-1.32-.08,4.27-2.58,8.55-5.15,12.96-7.47.18-.1.38-.21.57-.32.7,0,1.39.02,2.09.02,1.01,0,1.33-1.04.98-1.73,5.01-2.81,10.43-5.91,14.88-8.72.12,0,.24,0,.35,0,.68.1,1.17-.44,1.22-1,1.21-.79,2.33-1.54,3.32-2.25.35-.26.81-.47.92-.93.26-.85-.75-1.64-1.52-1.17ZM295.07,443.3c-.49,0-.99-.01-1.49-.02,3.43-1.97,6.83-3.99,10.23-6.01,3.54-.17,7.08-.37,10.61-.57-3.87,2.21-7.69,4.49-11.51,6.79-2.61-.07-5.23-.14-7.84-.19ZM302.42,453.71c-3.55-.24-7.09-.49-10.64-.68,3.95-2.18,8.28-4.73,12.6-7.34,3.58.16,7.16.31,10.74.4-4.23,2.54-8.48,5.1-12.7,7.61ZM318.89,443.84c-3.7-.05-7.4-.12-11.1-.22,2.86-1.75,5.66-3.48,8.29-5.11,1.14-.72,2.31-1.41,3.49-2.1,4.33-.24,8.67-.45,13-.57-4.5,2.55-9.07,5.26-13.68,8Z"/>
  <path class="st2" d="M445.35,86.59s-25.53,1.02-36.77,18.13c22.98-10.98,36.77,6.89,36.77,6.89"/>
</svg>