<?xml version="1.0" encoding="UTF-8"?>
<svg id="Layer_2" data-name="Layer 2" xmlns="http://www.w3.org/2000/svg" viewBox="0 0 1439.1 1430.69">
  <defs>
    <style>
      .cls-1 {
        fill: #270f03;
      }

      .cls-2 {
        fill: #ffe9cf;
      }
    </style>
  </defs>
  <g id="Layer_1-2" data-name="Layer 1">
    <g>
      <polygon class="cls-1" points="14.1 319.18 645.78 31.69 735.58 29.34 1393.75 377.6 1393.75 398.65 701.14 767.34 11.94 344.92 14.1 319.18"/>
      <polygon class="cls-2" points="1353.32 1012.56 673.49 1420.56 701.14 738.12 1412.33 385.42 1433.67 416.73 1353.32 1012.56"/>
      <path class="cls-2" d="M1407.08,391.89l-711.1,348.95,716.35-358.71c-13.83,1.27-11.7-8.17-25.3-5.48.96-1.63-11.68-6.47-10.73-7.72,3.6-5.5,30.81,31.59,34.51,26.14l-709.65,343.06L11.92,325.43C22.89,313.8,683.51,14.13,683.22,14.93c-.58-.88-1.73-1.19-2.68-.75L11.92,325.43c.37.66.73,1.32,1.1,1.98-.05.08-.1.17-.14.25-.86,1.7-1.11,3.43-1.26,5.29-.1,1.2.04,2.35.38,3.43.04.62.09,1.24.15,1.85,0,.25-.14,1.59-.18,2.9-.04,1.26-.04,2.51-.03,3.77.04,3.94-.2,7.91-.28,11.86-.53,26.76-1.09,53.52-1.63,80.28-.59,28.93-.85,57.85-1.58,86.78-.75,29.95-1.57,59.89-2.2,89.84-.62,29.32-1.09,58.66-1.7,87.98-.62,29.78-1.26,59.56-1.86,89.35-.59,29.75-1.39,59.51-1.85,89.27-.23,14.71-.47,29.42-.63,44.13-.08,7.36-.15,14.7-.19,22.05-.02,3.38-.04,6.75.01,10.13.02,1.79,0,3.6.13,5.38.13,1.94.18,3.92,1.05,5.69,1.06,2.15,2.97,3.69,5.39,3.96.24.03.5.04.74.04.69,0,1.38-.11,2.03-.32.73.58,1.55,1,2.41,1.27.49.34.99.67,1.51,1,2.33,1.5,4.65,2.97,6.92,4.54,2.55,1.77,5.06,3.59,7.62,5.36,2.41,1.68,4.89,3.26,7.31,4.94.26.18,1.25.89,2.22,1.59,3.74,2.7,7.46,5.43,11.23,8.08,10.82,7.64,21.75,15.09,32.57,22.73,11.12,7.86,22.25,15.69,33.44,23.46,22.74,15.79,45.19,31.98,67.91,47.79,23.24,16.19,46.58,32.23,69.8,48.46,23.44,16.38,46.88,32.78,70.36,49.11,23.42,16.3,46.83,32.62,70.27,48.91,23.73,16.5,47.46,33.01,71.24,49.45,23.31,16.11,46.52,32.38,69.79,48.55,23.52,16.33,47.17,32.46,70.72,48.72,11.45,7.92,22.97,15.74,34.41,23.67,5.66,3.92,11.3,7.88,16.97,11.78,2.7,1.87,5.41,3.75,8.14,5.58,1.08.73,2.18,1.49,3.33,2.09,1.16,1.03,2.62,1.72,4.16,1.93.34.04.68.07,1.01.07.71,0,1.39-.11,2.06-.3.64-.17,1.27-.41,1.88-.74.09-.05.17-.1.26-.16.66-.31,1.33-.61,1.96-.99.55-.33,1.04-.72,1.48-1.15"/>
      <g>
        <path class="cls-1" d="M925.11,1142.34c-4.49-3.99-9.82-6.98-14.71-10.49-19.09-12.89-38.21-25.77-56.55-39.72-.55-.82-1.21-1.53-2.11-1.99-.46-.23-.95-.34-1.45-.38-1.76-1.01-4.03-.76-5.55.87-.13.36-.26.73-.39,1.09-20.59,15.34-39.39,33.34-59.83,48.99-3.75,4.06-16.65,8.31-11.31,15.21h0s.04.04.06.06c.03,1.87,1.24,3.7,3.32,4.09,10.53-1.45,21.92-1.14,32.13,2.57,4.97,1.77,8.47,6.16,13.25,8.05h0c6.67-.75,13.27-2.26,19.95-3.28-.04.47-.07.92-.1,1.35-1.34,17.78-3.69,35.49-4.06,53.33.08,10.22-.58,25.7,7.02,33.06,1.78,2.02,3.99,3.73,6.74,5.02,7.45,2.89,15.17-1.86,19.42-7.93,7.59-10.04,8.5-22.97,9.9-35.04,0-.58-.09-1.09-.25-1.57-.43-4.06-5.6-7.14-9.84-3.69-3.46,2.68-3.32,7.33-3.46,11.28-.26,3.36-.39,5.8-1.18,9.59-1.4,4.84-6.63,17.56-13.14,14.26-5.32-6.86-5.29-23.74-4.05-40.79.5-5.02.98-9.62,1.15-13.29.99-10.3,2.03-19.66,2.11-25.63.06-.32.09-.64.09-.96,1.28-.03,2.56-.03,3.86.02,5.91.07,11.93.27,17.65,1.88,2.88.36,5.65,2.31,8.61,2.07,8.1-3.16,15.11-8.98,23.46-12.21,3.94-1.72,8.05-2.96,12.24-3.89,2.18-.54,4.85-.68,6.51-2.31,1.4-1.24,1.81-3.07,1.41-4.72.64-1.6.53-3.47-.88-4.95ZM795.1,1150.58c-2.19.01-4.58-.17-7-.27,11.48-8.91,22.88-18.11,33.96-27.56,5.25-4.43,10.57-8.79,15.84-13.19-3.82,10.49-7.72,21-11.67,31.4-2.12,5.75-4.2,11.52-6.35,17.26-7.41-4.61-16.02-7.21-24.77-7.64ZM829.86,1159.98c.54-1.88,1.06-3.71,1.77-5.06,2.9-7.99,5.79-15.96,8.76-23.93,3.14-8.92,6.52-17.76,9.48-26.74,7.83,16.34,15.6,32.69,23.58,48.96.9,1.86,1.75,3.73,2.6,5.61-15.24-3.04-30.99-2.02-46.19,1.15ZM886.19,1157.43c-1.23-2.44-2.53-4.86-3.71-7.32-6.15-13.01-12.74-25.81-19.15-38.69,15.85,11.93,32.65,22.65,48.99,33.91-9.28,2.63-17.87,7.13-26.13,12.1Z"/>
        <path class="cls-1" d="M1009.08,1049.19c.61-1.23.76-2.71.21-4.11-.67-1.69-2.21-2.92-4-3.2-1.34-.21-2.62.13-3.9.96-1.57.49-3.14,1.06-4.64,1.75-.09.05-.24.1-.38.16-5.12,2.01-10.26,3.96-15.4,5.92-4.08,1.56-8.14,3.13-12.26,4.57-1.61.56-3.19,1.17-4.79,1.76-1.93.71-3.88,1.99-4.12,4.24-.13,1.2.15,2.34.77,3.26-.6,1.59-.66,3.61-.63,5.56-.53,5.89-.38,11.82-.57,17.73.38,15.45-3.61,51.45,15.63,56.4-.53,5.2-.11,11.38-.64,14.08-.39,6.9-.63,13.81-1.11,20.71-.14,1.03-.3,2.17-.37,3.3-3.77,2.24-7.15,5.11-9.87,8.45-3.15,4.38-15.85,20.23-4.12,20.93h0c3.86.77,6.86-2.96,10.24-4.3,10.51-5.83,21.4-11,31.55-17.46,8.3-4.92,5.15-11.88-3.77-12.28-4.58-.89-9.3-.67-13.82.44.19-5.51.49-11.01.68-16.52.22-5.93.36-11.84.36-17.76,24.42-6.5,24.62-46.78,26.24-67.72.16-7.12.15-14.25-.08-21.37-.12-1.88-.15-3.91-1.19-5.5ZM976.17,1192.98c-1.49.79-2.99,1.56-4.49,2.34h0c3.9-4.11,9.18-6.69,14.65-7.98-3.37,1.91-6.73,3.84-10.16,5.64ZM979.03,1134.32c-13.44.91-9.34-57.78-9.19-67.94.01-.47-.08-.92-.2-1.35,3.31-1.25,6.6-2.54,9.92-3.75,3.38-1.22,6.76-2.4,10.11-3.68,2.24-.86,4.47-1.72,6.75-2.46.82-.26,2.21-.79,3.62-1.29.33-.1.65-.22.97-.33-1.15,19.12.29,78.41-21.99,80.8Z"/>
        <path class="cls-1" d="M1414.41,379.9l-1.71.84L695.26,0l-288.17,134.49s-.02.01-.03.02L22.89,313.8l-16.01,9.8v185.45c0,1.68.69,3.19,1.8,4.28-.08,3.6-.14,7.19-.23,10.79-.75,29.95-1.57,59.9-2.2,89.84-.62,29.32-1.09,58.66-1.7,87.98-.62,29.78-1.27,59.56-1.86,89.35-.59,29.75-1.39,59.52-1.85,89.27-.23,14.71-.47,29.42-.63,44.13-.08,7.36-.15,14.7-.19,22.05-.02,3.38-.04,6.75,0,10.13.02,1.79,0,3.6.13,5.38.13,1.94.18,3.92,1.05,5.69,1.06,2.15,2.97,3.69,5.39,3.96.24.03.5.04.74.04.69,0,1.38-.11,2.03-.32.73.58,1.55,1,2.41,1.26.49.34.99.67,1.51,1,2.33,1.5,4.65,2.97,6.92,4.54,2.55,1.77,5.06,3.59,7.62,5.36,2.41,1.68,4.89,3.26,7.31,4.94.26.18,1.25.89,2.22,1.59,3.74,2.7,7.46,5.43,11.23,8.09,10.82,7.64,21.76,15.09,32.57,22.73,11.12,7.86,22.25,15.69,33.44,23.46,22.74,15.79,45.19,31.98,67.91,47.79,23.24,16.19,46.58,32.23,69.8,48.46,23.44,16.38,46.88,32.78,70.36,49.11,23.42,16.3,46.83,32.62,70.27,48.91,23.73,16.5,47.46,33.01,71.24,49.44,23.31,16.11,46.52,32.38,69.79,48.55,23.52,16.33,47.17,32.46,70.72,48.72,11.45,7.92,22.97,15.74,34.41,23.67,5.66,3.92,11.3,7.88,16.97,11.78,2.71,1.87,5.41,3.75,8.14,5.57,1.08.73,2.18,1.49,3.33,2.09,1.16,1.03,2.62,1.72,4.16,1.93.34.04.68.07,1.01.07.71,0,1.39-.11,2.06-.3.64-.17,1.27-.41,1.88-.74.09-.05.18-.1.26-.16.66-.31,1.33-.61,1.96-.99.54-.33,1.04-.72,1.48-1.15,1.65-1,3.32-2,4.96-3.01,11.15-6.85,22.46-13.44,33.66-20.19,12.01-7.22,24.01-14.43,36.03-21.64,25.05-15.03,50.1-30.07,75.15-45.1,24.92-14.94,49.83-29.92,74.75-44.86,25.44-15.27,50.9-30.5,76.35-45.75,25.42-15.24,50.84-30.49,76.24-45.77,24.97-15.01,49.95-29.98,74.92-44.99,25.4-15.28,50.8-30.55,76.18-45.85,25.6-15.42,51.17-30.89,76.68-46.45,12.33-7.52,24.67-15.04,36.97-22.6,6.01-3.71,12.04-7.4,18.05-11.14,3.23-2,6.46-4.02,9.68-6.04,1.59-1,3.17-1.99,4.73-3.06,1.03-.7,2.1-1.41,2.98-2.33,1.96-1.68,2.59-4.57,1.24-6.9-.21-.37-.47-.69-.76-.99.01-.05.03-.11.04-.16,1.05-4.33,1.51-8.78,2.1-13.19.66-5.01,1.33-10.01,2-15.02,1.36-10.24,2.73-20.48,4.07-30.72,2.67-20.48,5.3-40.96,8.02-61.43,2.74-20.64,5.34-41.28,8.08-61.92,2.75-20.78,5.32-41.59,8.08-62.37,2.71-20.42,5.46-40.83,8.11-61.27,2.59-19.91,5.23-39.79,7.78-59.7,1.21-9.34,2.45-18.68,3.66-28.02.16-1.23.31-2.45.46-3.67,0-.01,0-.03,0-.04l28.17-197.98.35-2.46-24.68-32.85ZM409.23,146.73l3.26,1.97c1.67-1.34,3.42-2.61,5.35-3.79,1.92-1.18,3.85-2.35,5.79-3.5l-1.31-.79L694.91,13.4l704.52,373.89-312.52,154.09c-5.39,3.87-11.77,5.85-17.25,9.71-1.36.96-2.7,1.09-3.85.7l-364.65,179.8c-3.11-4.15-7.41-6.73-13.73-6.4.55,1.26,1.1,2.52,1.66,3.78-1.96-1.23-3.92-2.45-5.88-3.67-1.1-.27-2.02-.89-2.71-1.69-1.08-.67-2.17-1.35-3.25-2.03-.24-.16-.68-.43-1.12-.7-.61-.38-1.24-.77-2.03-1.26-.11-.06-.21-.13-.31-.18,0-.01-.25-.16-.52-.32-.09-.06-.19-.12-.66-.41-.09-.06-.31-.19-.54-.33-1.49-.92-2.97-1.85-4.46-2.77-1.09-.67-2.95-1.83-4.82-2.98-11.31-7.04-22.85-14.17-34.41-21.29-24.93-15.35-49.88-30.64-74.84-45.95-24.72-15.16-49.43-30.33-74.08-45.58-2.58-1.6-5.21-3.21-7.84-4.84-13.93-8.65-28.71-17.71-43.46-26.79-18.68-11.64-37.46-23.11-56.21-34.63-24.55-15.08-49.1-30.15-73.64-45.24-25.11-15.45-50.2-30.92-75.33-46.36-25-15.34-49.98-30.68-74.92-46.12-1.2-.74-2.55-1.59-3.93-2.43-.13-.09-.31-.2-.5-.31-.09-.06-.19-.12-.27-.17-.44-.27-1.01-.62-1.58-.97-4.17-2.59-9.18-5.68-14.19-8.78-12.06-7.44-24.11-14.88-36.17-22.28-11.45-7.01-22.97-13.94-34.39-21.01-2.12-1.31-4.4-2.72-6.67-4.15-3.3-2.05-6.64-4.14-9.98-6.22-1.92-1.2-4.67-2.94-7.41-4.69-.74-.47-1.51-.93-2.27-1.41l378.54-176.67ZM679.75,1100.19c-1.26,29.12-2.24,58.24-3.66,87.35-.11,2-.21,4.22-.32,6.43-.26,5.17-.56,11.38-.87,17.6-.05,1.06-.16,3.19-.25,5.32-.09,1.94-.19,3.85-.28,5.78-.36,7.07-.72,14.4-1.04,21.73-1.26,28.33-2.29,56.68-3.58,85.02-1.23,27.09-2.21,54.19-3.5,81.28,0,.18-.02.36-.03.54-.36-.26-.73-.52-1.1-.78-22.84-16.03-45.67-32.08-68.5-48.11-23.48-16.5-46.89-33.1-70.44-49.49-23.5-16.36-46.99-32.71-70.44-49.13-23.34-16.34-46.71-32.62-70.08-48.91-23.44-16.32-46.87-32.64-70.31-48.94-23.37-16.25-46.77-32.45-70.13-48.72-23.44-16.33-46.79-32.78-70.28-49.03-11.39-7.88-22.87-15.63-34.3-23.48-11.23-7.72-22.38-15.56-33.59-23.31-11.17-7.73-22.44-15.31-33.57-23.11-5.35-3.76-10.7-7.53-16.08-11.25-5-3.45-10.13-6.73-15.12-10.2-2.68-1.93-5.33-3.88-8.03-5.75-2.55-1.76-5.12-3.49-7.65-5.27-1.83-1.31-3.61-2.7-5.42-4.06-.33-.24-.65-.49-.98-.71-.9-1.24-2.17-2.19-3.77-2.63-.49-.35-.96-.7-1.46-1.01.16-2.93.27-5.87.39-8.81,1.14-29.47,1.84-58.97,2.35-88.46.52-29.84,1.16-59.68,1.73-89.52.56-29.17,1.13-58.33,1.75-87.5.64-29.71,1.31-59.43,1.83-89.15.51-29.79.79-59.58,1.41-89.37.61-28.79,1.39-57.57,1.98-86.36.28-13.68.54-27.36.81-41.04.12-6.13.24-12.27.37-18.4.09-4.58.05-9.18.23-13.77.08-1.98.11-3.99.13-6,2.69,1.6,5.35,3.22,8.02,4.85,8.02,4.89,16.07,9.72,24.06,14.66,13.41,8.36,27.7,17.14,42.01,25.91,24.55,15.05,49.15,30.01,73.69,45.08,24.72,15.19,49.45,30.37,74.18,45.56,24.99,15.37,50.03,30.67,75,46.05,24.89,15.32,49.8,30.62,74.72,45.89,24.59,15.06,49.18,30.13,73.79,45.17,25.33,15.48,50.61,31.01,75.88,46.58,24.94,15.36,49.86,30.74,74.85,46.02,12.39,7.58,24.78,15.14,37.19,22.69,6.26,3.81,12.51,7.63,18.79,11.41,3.2,1.94,6.41,3.87,9.62,5.79,2.04,1.22,4.09,2.47,6.22,3.56,0,.2-.03.4-.04.59h0c-.17,2.35-.31,4.71-.45,7.06-.3,5.11-.56,10.22-.82,15.32-.11,1.97-.24,4.83-.39,7.7-.92,17.73-1.77,36.38-2.65,55.02-1.42,30-2.73,60-4.01,90.01-1.25,29.38-2.56,58.76-3.93,88.14-1.37,29.37-2.67,58.76-3.95,88.14ZM1401.02,595.14c-.2.94-.3,1.92-.46,2.95-.03.17-.06.34-.09.51-.05.25-.08.5-.09.75-.47,3.23-.91,6.46-1.33,9.69l-.35,2.47c-.03.21-.05.43-.06.64-.41,3.16-.81,6.32-1.21,9.48-1.19,9.35-2.45,18.7-3.65,28.06-2.55,19.94-5.16,39.86-7.77,59.79-2.66,20.36-5.15,40.75-7.82,61.1-2.74,20.85-5.5,41.69-8.17,62.55-2.67,20.82-5.46,41.62-8.09,62.45-2.58,20.41-5.36,40.81-7.97,61.22-1.29,10.16-2.6,20.32-3.88,30.48-.63,5.04-1.27,10.08-1.91,15.12-.26,2.05-.49,4.11-.53,6.17-.02.96-.08,1.94,0,2.89-.8.45-1.59.92-2.36,1.36-2.57,1.45-5.12,2.92-7.68,4.39-25.38,14.66-50.62,29.58-75.87,44.48-25.44,15-50.79,30.16-76.16,45.27-25.42,15.14-50.76,30.42-76.22,45.51-25.27,14.98-50.42,30.19-75.64,45.25-25.41,15.18-50.8,30.41-76.19,45.63-25.68,15.38-51.33,30.77-77.01,46.15-24.77,14.84-49.55,29.66-74.32,44.49-24.62,14.75-49.25,29.47-73.87,44.22-11.72,7.02-23.48,13.99-35.19,21.02-4.81,2.88-9.57,5.81-14.38,8.68.13-3.73.31-7.46.48-11.18.56-13.39,1.1-26.77,1.67-40.15,1.21-28.24,2.2-56.48,3.47-84.71,1.31-29,2.26-58.02,3.32-87.03,1.08-29.42,2.49-58.83,3.74-88.25,1.24-29.28,2.34-58.55,3.43-87.83,1.11-29.77,2.33-59.53,3.55-89.31,1.21-29.68,2.46-59.38,3.5-89.07.52-14.68,1.06-29.35,1.59-44.04.27-7.44.54-14.9.76-22.34.11-3.6.21-7.2.29-10.81.18-.02.35-.05.53-.07-.81-3.58-1.67-7.25-2.76-10.69l704.5-347.37,15.72,20.92-25.5,179.15Z"/>
      </g>
      <path class="cls-2" d="M1087.05,580.11c.42.46.41.54-.51-.52.05.05.1.09.15.14.12.13.24.25.37.38Z"/>
    </g>
    <path id="patita" class="cls-1" d="M897.53,682.03s-19.68-63.38-58.79-111.72c-39.11-48.33-123.11-4.12-135.62,11.72-12.51,15.84-56.58,31.76-12.15,81.44s65.57,66.77,65.57,66.77c0,0,27.17,34.79,13.35,73.35-13.82,38.56,17.98,112.54,17.98,112.54,0,0,2.35,1.99,6.26,4.43,15.53-11.22,16.09-46.29,16.09-46.65.01-1.1.9-1.98,2-1.98,0,0,.01,0,.02,0,1.1.01,1.99.92,1.98,2.02-.02,1.55-.55,35.48-16.37,48.78,5,2.7,11.48,5.4,18.53,6.29,12.53-13.29,13.01-43.59,13.02-43.94.01-1.1.9-1.98,2-1.98,0,0,.01,0,.02,0,1.1.01,1.99.92,1.98,2.02-.01,1.39-.45,28.99-12.05,44.21,4.21-.03,8.53-.8,12.79-2.68,0,0,97.03-62.44,63.39-244.63Z"/>
    <g>
      <polygon class="cls-2" points="7 334.58 237 41.85 894.78 449.32 694.05 748.28 7 334.58"/>
      <path class="cls-1" d="M694.04,755.28c-1.23,0-2.48-.33-3.61-1L3.39,340.57c-1.72-1.04-2.91-2.76-3.27-4.73-.36-1.97.14-4.01,1.38-5.59L231.5,37.52c2.2-2.8,6.16-3.5,9.19-1.63l657.78,407.47c1.62,1,2.75,2.62,3.16,4.47.4,1.86.03,3.8-1.03,5.38l-200.74,298.96c-1.35,2-3.56,3.1-5.82,3.1ZM17.4,332.67l674.55,406.18,192.98-287.4L238.64,51.1,17.4,332.67Z"/>
    </g>
    <g>
      <polygon class="cls-2" points="696.43 7 381.62 12.99 1109.45 405.36 1407.94 384.49 696.43 7"/>
      <path class="cls-1" d="M1109.45,412.36c-1.16,0-2.3-.29-3.32-.84L378.3,19.15c-2.8-1.51-4.23-4.72-3.48-7.81.75-3.09,3.49-5.29,6.67-5.35L696.3,0c1.17-.03,2.36.26,3.41.81l711.51,377.49c2.76,1.46,4.22,4.58,3.57,7.64s-3.24,5.31-6.36,5.53l-298.49,20.87c-.16.01-.33.02-.49.02ZM408.42,19.48l702.57,378.75,272.07-19.02L694.76,14.03l-286.34,5.45Z"/>
    </g>
  </g>
</svg>