<?xml version="1.0" encoding="UTF-8"?>
<svg id="Layer_1" xmlns="http://www.w3.org/2000/svg" version="1.1" viewBox="0 0 542 580">
  <!-- Generator: Adobe Illustrator 29.6.0, SVG Export Plug-In . SVG Version: 2.1.1 Build 207)  -->
  <defs>
    <style>
      .st0 {
        fill: #fff;
      }

      .st1 {
        fill: #0f0820;
      }
    </style>
  </defs>
  <path class="st1" d="M440,12.7c3.6-3.1,18.6-18.4,22.7-10.5,1.5,3.5,1.9,7.4,2.5,11.1,1.1,8.1,1.3,16.2,1.3,24.3,0,4.5,0,9.1-.2,13.6.2.3.3.5.5.8,4.8,7.7,9,15.9,11.7,24.6,2.9,9.1,4.7,18.6,5.7,28.2.4,5.8,1,11.6.2,17.3-.6,6.2-3.5,11.7-5.3,17.6-.1.4-.2.7-.3,1.1-.2,3.1,0,6.3.3,9.4,1.1,8.8,7.2,22.7,10.3,30.9,7.9,20.4,16.8,40.4,24.2,61,4.9,13.6,9.7,27.3,12.6,41.4,5.3,20.9,8.2,42.4,8.6,63.9.3,13.5.4,27.1-2.4,40.5-1.9,10.8-4.4,21.5-8.7,31.5,0,0,0,0,0,.1h0c-3.7,6.1-11.4,18.3-14.2,20.7,0,0,0-.1,0-.1-5.1,6.4-11.1,12-17.8,16.8-5.3,4-11.5,6.7-17.6,9.1-8.1,3.3-16.7,5-25.3,6.4-17.5,3.1-37.8,3.8-53.1,6.1-11.1,1.9-22.4,3.4-33.1,6.8-5.2,1.8-4.6,1.7-8.8,3.5-.1,0-.3.1-.4.2-3.3,3-5.5,5.8-8.8,9.2-2,2.1-4.7,3.5-7.5,4.4-7,2.5-14.4,2.2-21.7,2.6-6.8.8-11,1.3-18.9,1.8-4.5.4-9,.2-13.5.5-10,.8-18.7,2.3-28.8,3.2-7.6.8-20.2,1.7-21.4-8.5,0-7.7,5.6-14.3,12.1-17.6,6-3.3,12.9-4.2,19.6-5.9,12.5-3.2,23.8-5.4,34-12,4.4-2.8,9.6-8.2,14.3-13.2,2-2.3,4-4.6,6.1-6.8,1.4-2,2.9-4,4.4-5.9,6.9-8.5,15-16.1,23.2-23.3-1.6,0-3.1,0-4.7,0-12.9.4-25.1.6-36.8,3.1-5.6,1-9.2,4-14.3,7.4-4.7,2.9-10.4,3.3-15.7,3.5-18.1.7-36.1.6-54.2.1-5.2-.1-10.3-.2-15.5-.6-4.6-.3-9.2-1-13.3-3.2-11.4-6.7,2.3-15.1,9.4-17.7,10-3.1,20.4-4.8,30.6-7.3,7.7-1.5,15.7-3.3,21.8-6.4,14.6-6.8,19.7-15.4,28.2-28.1,5.7-8,12.1-15.5,18.9-22.7-2-19.6-1.1-39.7,4-58.8-.5.3-1,.6-1.5.8-6.5,3.3-13.2,6.1-20.2,8.2-12.1,3.4-39.6,11.5-48.2-.8-4.3-6.8,11.2-17.5,15.9-21.4,6.9-5.3,12.5-9.1,18.8-14.9,7.1-6.4,13.6-13.6,19.4-21.2,15.1-19.6,32.1-54.6,32.8-82-.5-1.3-1-2.6-1.4-3.9-5.6-14.8-8.9-30.5-9.3-46.3.1-9.7,1.2-19.4,2.9-29,1.2-6,3.1-12,5.6-17.6,1-2.4,2.5-4.9,3.7-7.2-1.6-6.8-2.2-12.8-3-18.5-.4-3.4-1.3-7.6-1.5-11.5-.3-3.7-.1-7.5.3-11.2.2-4.4,2.4-7.7,7.9-6.1,8.3,2.8,14.7,9.4,21.3,14.9,3.5,3,8.2,7.1,12.2,11,1.5-.2,3-.4,4.4-.6,11.1-1,22.2-.4,33.3.6,6.1.5,12.3,1.4,18.3,2.7.9.2,1.8.4,2.7.6,6.2-7.7,13.6-14.4,21-21h0Z"/>
  <path class="st0" d="M462.3,253.6c-3.6,7.5-6.7,12.8-11.2,19.6-16.8,24.7-36.8,45-62,61.3-14.9,9.5-31.8,17.7-48.2,16.2-18.1-2.2-8.8-17.3,3-30,8.3-9.1,16.8-18.1,24.4-27.9,9.7-12.6,19.2-25.5,26-40,3.1-6.7,5.7-13.6,7.4-20.8,0-1.4-2.1-1.9-2.6-.5-4.6,16.8-12.3,30.5-22.3,44-6.1,8.5-12.6,16.8-19.5,24.6-9.1,11.4-30.5,29-31,42.3-.2,7.8,6.8,12,13.8,12.7,18.3,1.5,35.5-7.4,50.6-16.9,24.8-15.9,45.8-37.4,62.4-61.7,3.3-4.9,6.4-9.9,9.1-15.1,1.2-2.4,2.8-4.8,3.5-7.3,0-1.9-2.7-2.2-3.3-.4h0Z"/>
  <path class="st0" d="M434.1,359.3c-11,2.9-21.3,8.1-31.2,13.5-11.1,6.4-21.1,14.4-30.7,22.8-13.3,11.5-26.1,23.6-37.8,36.8-2.1,2.4-4.2,4.9-6.3,7.4-.9,1-2.1,2.3-.9,3.6,1.6,1.4,2.8-.3,3.8-1.4,3-3.5,6.1-6.9,9.2-10.3,10.1-11.2,21-21.7,32.3-31.7,10.1-9,18.9-16.4,30.2-23.5,7.1-4.3,15.6-8.6,22.2-11.4,3.3-1.4,6.8-2.4,10.2-3.5,1.1-.8.2-2.6-1.1-2.2h0Z"/>
  <path class="st0" d="M427.4,123.8c13,0,23.6-10.6,23.6-23.6s-10.5-23.6-23.6-23.6-23.6,10.6-23.6,23.6,10.5,23.6,23.6,23.6Z"/>
  <path class="st1" d="M433,89.1c-.1-1.5-2.5-1.7-2.8-.2-2.3,6.1-3.3,12.8-2.4,19.3.1,1,.6,2.8.6,3,.1.5.3,1,.8,1.2.8.5,1.9,0,2.1-.8.1-.7-.1-2.6-.1-4.4-.2-5,0-9.3.7-13.1.2-1.6,1.1-3.5,1.1-4.9h0Z"/>
  <path class="st0" d="M346.4,122.9c12.4,0,22.5-10.1,22.5-22.5s-10.1-22.5-22.5-22.5-22.5,10.1-22.5,22.5,10.1,22.5,22.5,22.5Z"/>
  <path class="st1" d="M349.9,89.6c-.1-1.5-2.4-1.6-2.7-.2-2.2,5.8-3.1,12.2-2.3,18.4.1,1,.6,2.7.6,2.8.1.4.3.9.7,1.2.7.4,1.8,0,2-.8.1-.7-.1-2.5-.1-4.2-.2-4.7,0-8.8.7-12.5.2-1.5,1-3.3,1.1-4.7h0Z"/>
  <path class="st0" d="M388.6,120.3c-2.9-.2-5.8-.3-8.6-.4-.8,0-1.3.9-.9,1.6,1.3,2.1,2.6,4,4.2,5.8.4.4,1.1.5,1.5,0,1.6-1.7,3.2-3.5,4.6-5.4.5-.7,0-1.6-.8-1.6h0Z"/>
  <path class="st0" d="M338.2,29.1c-1.4-2.9-3-5.7-5-8.2-1.2-1.6-2.6-3.2-4.1-4.6-.5-.4-1.2-1.2-2-.8-.7.3-.9,1.3-.4,1.8,3.8,3.7,5.3,6.2,8.1,11.3,1.2,2.2,1.3,3,2.4,5.4.6,1,2.2.6,2.5-.5.1-1.3-1.1-3-1.5-4.3h0Z"/>
  <path class="st0" d="M452,14.4c-5.8,4-10.5,9.2-14.3,15.1-1,1.6-2.1,3.2-3,4.9-.2.3-.3.8-.1,1.2.2.9,1.4,1.4,2.2.9.9-.8,1.2-2.1,2-3,3.1-5.2,5.6-8.6,9.8-12.8,2-2,3.3-3,5.1-4.4.9-1-.5-2.6-1.6-1.9h0Z"/>
  <path class="st0" d="M332.8,32.8c-.8-1.8-1.7-3.4-2.7-5-.6-1-1.3-1.9-2-2.7,0,0,.1.2.1.1-.2-.3-.4-.7-.8-.8-.7-.2-1.4.6-1,1.3,2.6,3.5,4,6.5,5.1,9.5.3.4.9.5,1.4.3,1-.6.2-1.8,0-2.6h0Z"/>
  <path class="st0" d="M451.1,26.2c-2.6,2-4.8,4.5-6.6,7.2-.7,1.1-1.4,2.2-1.9,3.4-.1.2-.2.5-.1.8.2.7,1,1,1.5.6.9-.8,1.1-2.2,1.8-3.1,1.6-2.6,2.8-4.2,5-6.4.5-.6,1.3-.9,1.7-1.5.4-.8-.8-1.6-1.4-.9h0Z"/>
  <path class="st1" d="M491.2,464.5c38.2-62.8,8.6-83,1.4-96.2l6.9-30.8c10.5,1.5,40.8,27.3,35.6,102.4-5.8,83.8-141.8,135.2-175.9,133.2s-27.6-31.8-1.2-37.7c51.3-12.1,117.5-44.9,133.3-70.8h0Z"/>
  <path class="st0" d="M2.3,466.1v-176.6c0-8.6,7-15.7,15.7-15.7h248.1c8.6,0,15.7,7,15.7,15.7v176.6c0,8.6-7,15.7-15.7,15.7H18c-8.6,0-15.7-7-15.7-15.7Z"/>
  <path class="st1" d="M152.7,381.3c-1.5-1.1-4.3-3.5-5.2-5.8-.5-1-1.1-5-2-7-1-2.5-2.5-4.8-4.8-6.2-4.4-2.8-10.6-1-12.7,3.8-.9,1.9-.8,4.1-1,6.2-.2,2.1-.7,4.5-2.3,6.7-.5.8-1.3,1.7-2.2,2.6-1.4,1.2-2.7,2.5-3.6,4.1-2.6,4.8-1.2,9.8,3.9,12,2.5,1,5.5,1.3,8.2.5,2.8-1,5.5-3,7.1-3,3.3-.4,6.2,3.1,10.7,3.5,9.7,1,11.3-13,3.9-17.3h0Z"/>
  <path class="st1" d="M114.1,364.1c-.5-.7-1-1.2-1.7-1.8-3.1-3.4-7.9-4.5-10.9.2-.7,1-.8,2.3-.8,3.6.1,1.8.6,3.5,1.4,5.1,3.5,7.3,14.4,7.4,14.6.4,0-2.7-1.1-5.3-2.6-7.5h0Z"/>
  <path class="st1" d="M127.3,344.9c-2.3-2.7-6.1-4.1-8.7-3-4,1.6-4.4,6.4-2.8,10.4.1.3.3.6.4,1,.6,1.5,1.4,2.9,2.5,4,1.7,1.6,4,3,6.4,2.9,2.5-.3,4.7-2.4,5-4.9.6-3.6-.6-7.5-2.9-10.3h0Z"/>
  <path class="st1" d="M144.8,337.7c-3.2.5-4.8,2-6.3,4.8-.8,1.5-1,3.2-.9,4.9-.4,2.9,0,6.1,2.1,8.2,5,4.1,10.8,0,12.1-5.5,1.7-5.2-1.2-12.8-7.1-12.4h0Z"/>
  <path class="st1" d="M166,356.2c-.9-1.3-2.4-2.1-4-2.3-1.4-.1-2.7.3-3.9.9-.2.1-.4.2-.6.4-.4.2-.7.5-1,.7-.5.5-1,1.1-1.5,1.7-1.4,1.5-2.3,3.4-2.8,5.2-.6,3.3,1.3,7.2,4.6,8.2,2.7.9,5.5-.8,7.3-2.8,1.6-1.9,3-4.1,3.2-6.6,0-1.9-.3-4-1.4-5.6h0Z"/>
  <path class="st1" d="M11.7,317.9c-.9,0-1.7-.8-1.7-1.7v-26.8c0-4.7,3.8-8.5,8.6-8.5h29.1c.9,0,1.7.8,1.7,1.7s-.8,1.7-1.7,1.7h-29.1c-2.9,0-5.2,2.3-5.2,5.2v26.8c0,.9-.8,1.7-1.7,1.7h0Z"/>
  <path class="st1" d="M269.9,317.9c-.9,0-1.7-.8-1.7-1.7v-26.8c0-2.9-2.3-5.2-5.2-5.2h-14.5c-.9,0-1.7-.8-1.7-1.7s.8-1.7,1.7-1.7h14.5c4.7,0,8.5,3.8,8.5,8.5v26.8c0,.9-.8,1.7-1.7,1.7h0Z"/>
  <path class="st1" d="M49.3,471.6h-29.1c-4.7,0-8.6-3.8-8.6-8.5v-26.8c0-.9.8-1.7,1.7-1.7s1.7.8,1.7,1.7v26.8c0,2.9,2.3,5.2,5.2,5.2h29.1c.9,0,1.7.8,1.7,1.7s-.8,1.7-1.7,1.7h0Z"/>
  <path class="st1" d="M252.2,470.1H81.4c-.9,0-1.7-.8-1.7-1.7s.8-1.7,1.7-1.7h170.8c.9,0,1.7.8,1.7,1.7s-.8,1.7-1.7,1.7h0Z"/>
  <path class="st0" d="M270.6,427.8c30.3-.5,60.6-1,90.9-1.5-1,1.7-2.8,2.7-4.5,3.8-24.4,14.7-48.7,29.5-73,44.2-2.5,1.5-5.1,3-7.9,3.6-3.6.7-7.3-.2-10.8-1.1-1.4-.4-2.9-.8-3.6-2-.5-.9-.5-1.9-.4-3,.9-15.3,3.2-30.6,9.4-44h0Z"/>
  <path class="st1" d="M350.8,431.6c-3.9,3-8.7,5.8-14.6,9.5-8.6,5.3-17.1,10.8-25.6,16.1-6.9,4.3-13.8,8.6-20.7,12.9-3.6,2.2-6.7,4-10,5.5.1-.3.3-.6.4-.9,3.7-7.7,2.6-16.5,2.6-24.8-.1-5.9-.4-11.8-.5-17.7,0-1.2,0-2.4,0-3.7,0-.7-.4-1.4-1.1-1.6-.8-.4-1.8,0-2.2.7-.6,1.5,0,3.3-.2,4.9,0,5.1.3,10.3.4,15.5.1,4.7.2,9.4,0,14-.1,4.3-.4,6.6-2.2,10.9-1,2.3-2.5,4.6-5.7,5.2-9.3,2-21.1,1.9-32,1.6-11.4-.5-22.9-.1-34.3-.2-13.2-.1-26.4-.8-39.7-.6-15.9.1-31.9.8-47.8.8-17.2,0-34.5-.3-51.7.5-7.9.3-15.8.4-23.7.5-1.6,0-3.1,0-4.7,0-.4,0-.7.1-1,.4-.8.8-.2,2.3,1,2.3,16.8.6,33.6-.2,50.4-.3,27,.4,54.1-.4,81.1-.7,11.4,0,22.9.5,34.3.6,10.8.2,21.6-.2,32.4.2,11.6.3,23.3.6,34.8-1.3.3,0,.5-.1.8-.2,1.9-.2,5.1-1.1,7.9-2.2,8.1-3.3,15.2-8.5,22.7-13,11-6.8,21.9-13.7,32.8-20.7,7.7-5,11-7.2,17.5-12.9,1-1-.5-2.6-1.5-1.5h0Z"/>
  <path class="st1" d="M285,398.3c0-2.4-.1-4.9-.1-7.3-.1-7.5-.2-15-.3-22.5.2-17.7-1.4-35.3-1.4-52.9,0-5.9,0-11.7-.2-17.6,0-1.5-2.4-1.6-2.4,0-.4,8.6-.7,17.2-.7,25.9,0,9.1.7,18.1,1,27.2.3,15.8.2,31.6.6,47.4.1,1-.1,2,.2,3,.5,1.3,2.5,1.5,3.2.2.5-1,.1-2.2.2-3.4h0Z"/>
  <path class="st1" d="M3.5,393.7c-.3-16.9,0-33.9,0-50.8,0-9.6-.6-19.3-.4-28.9,0-7.6.5-15.2.3-22.8,0-1.6-2.5-1.7-2.5,0-.1,9.4-.8,18.8-.8,28.2,0,10.1.4,20.3.3,30.4,0,12.8-.3,25.5-.3,38.3.2,16.3.4,32.5.6,48.8.1,2.2.1,3.3.4,4.9.3.8,1.6.9,2,.1,1.1-14.6.7-32.4.4-48.2Z"/>
  <path class="st1" d="M271.1,273.9c-2.9,0-5.9.1-8.8,0-12.4-.2-24.7-1.3-37.1-1.2-16,.3-31.9-.5-47.9,0-20.6-.1-41.1-.6-61.7,0-19.3-.5-38.5,0-57.8.1-5.3,0-10.5-.2-15.8-.1-.5,0-1,.5-1,1,0,.5.5,1,1,1,23.9,1.3,47.9.2,71.8.7,34.6.7,69.1.4,103.7,1,15.4-.4,30.9.7,46.3,1,2.6,0,5.3,0,7.9-.1,1.2,0,2.8,0,2.8-1.7-.1-1.9-2.1-1.6-3.5-1.6h0Z"/>
  <path class="st1" d="M359.8,425.8c-.2-.6-.6-1.1-1.4-1.1-13.8.3-27.6.5-41.4,1.1-7.9.4-15.8.2-23.7.9-1.9.6-1.5,3.4.5,3.3,14.8.2,29.6-.1,44.4-.7,5.2-.2,12-.6,15.9-.8,1.8-.1,2.4,0,3.5-.2.9-.2,1.9,0,2.3-1.5,0-.4,0-.7-.2-1h0Z"/>
  <path class="st1" d="M342.5,430.4c-2,1.1-4.1,2.2-6.2,3.4-4.3,0-8.7.2-13,.5.6-.4,1.3-.8,1.9-1.2.7-.8-.4-2-1.2-1.4-1.9,1-3.8,2-5.6,3-3.8.3-7.5.6-11.2.8,1-.6,2-1.2,2.9-1.8.2-.1.4-.4.5-.6.2-.8-.7-1.6-1.5-1.1-2.3,1.3-4.7,2.5-7,3.8-.1,0-.3,0-.4,0-3.7.1-7.4.4-11.1.5,1.8-.9,3.5-1.9,5.2-2.9.7-.8-.4-2-1.3-1.5-3.3,1.5-5.2,2.4-8.2,3.9-.5.3-1.3.5-1.5,1.2-.3,1,.9,1.9,1.8,1.4.4-.2.8-.4,1.3-.7,3.6,0,7.3,0,10.9-.2-3.4,1.9-6.8,3.8-10.1,5.8h-.6c-.8,0-1.6,0-2.3.3-.6.4-.3,1.3.3,1.5-.4,1,.8,2.2,1.9,1.6.9-.5,1.8-1,2.7-1.5,3.1,0,6.2.2,9.3.3-4.1,2.5-8.2,5-12.3,7.4-.6,0-1.4-.2-1.9.3-.6.6-.1,1.6.7,1.6.3,0,.5,0,.8,0,.4.3.9.5,1.4.2,0,0,.1,0,.2,0,3.5.2,7.1.6,10.6.9-2.9,1.7-5.9,3.5-8.7,5.1-.7.3-1.1.7-1.2,1.1-1.3,0-2.6-.2-3.9,0-.9.3-.6,1.8.4,1.8,1.6,0,3.2.3,4.8.5.6,0,1.2.3,1.8,0,.8-.3.9-1.3.4-1.9,3.7-2,7.3-4.2,10.9-6.4,1.7,0,3.4.1,5.1.1,1.1-.4.7-2.1-.4-2.1-.4,0-.9,0-1.3,0,4.3-2.6,8.5-5.1,13-7.5.2-.1.4-.2.6-.3.7,0,1.4,0,2.1,0,1,0,1.3-1,1-1.7,5-2.8,10.4-5.9,14.9-8.7h.4c.7.1,1.2-.4,1.2-1,1.2-.8,2.3-1.5,3.3-2.2.4-.3.8-.5.9-.9.3-.9-.8-1.6-1.5-1.2h0ZM295.1,443.3c-.5,0-1,0-1.5,0,3.4-2,6.8-4,10.2-6,3.5-.2,7.1-.4,10.6-.6-3.9,2.2-7.7,4.5-11.5,6.8-2.6,0-5.2-.1-7.8-.2ZM302.4,453.7c-3.5-.2-7.1-.5-10.6-.7,4-2.2,8.3-4.7,12.6-7.3,3.6.2,7.2.3,10.7.4-4.2,2.5-8.5,5.1-12.7,7.6h0ZM318.9,443.8c-3.7,0-7.4-.1-11.1-.2,2.9-1.8,5.7-3.5,8.3-5.1,1.1-.7,2.3-1.4,3.5-2.1,4.3-.2,8.7-.5,13-.6-4.5,2.5-9.1,5.3-13.7,8Z"/>
</svg>