<?xml version="1.0" encoding="UTF-8"?>
<svg id="Layer_2" data-name="Layer 2" xmlns="http://www.w3.org/2000/svg" viewBox="0 0 1434.98 1429.24">
  <defs>
    <style>
      .cls-1 {
        fill: #270f03;
      }

      .cls-2 {
        fill: #ffe9cf;
      }
    </style>
  </defs>
  <g id="Layer_1-2" data-name="Layer 1">
    <g>
      <polygon id="cuadrado" class="cls-2" points="1387.55 968.62 735.07 1419.06 719.23 736.25 1406.53 339.01 1429.82 368.89 1387.55 968.62"/>
      <path class="cls-2" d="M714.25,739.28l692.07-403.57c-13.72,2.15-12.19-7.41-25.6-3.86.86-1.69-12.07-5.71-11.2-7.02,3.25-5.72-39.52-10.67-36.18-16.34L666.68,7.41l-10.64,5.81c-.24.82-.48,1.63-.71,2.45-.37-.49-.76-.96-1.13-1.44L5.14,368.26c.41.64.81,1.27,1.23,1.91-.04.08-.09.17-.12.26-.75,1.75-.89,3.5-.93,5.36-.02,1.2.19,2.35.6,3.4.08.62.17,1.23.26,1.84,0,.25-.04,1.59,0,2.9.04,1.26.12,2.51.21,3.77.29,3.93.3,7.91.47,11.85,1.17,26.74,2.32,53.48,3.48,80.22,1.25,28.9,2.84,57.79,3.95,86.7,1.16,29.93,2.25,59.87,3.52,89.8,1.24,29.3,2.65,58.61,3.9,87.91,1.27,29.76,2.53,59.52,3.83,89.28,1.3,29.73,2.4,59.48,3.84,89.2.7,14.7,1.41,29.39,2.18,44.08.39,7.35.79,14.68,1.22,22.01.2,3.37.39,6.74.65,10.11.13,1.78.23,3.59.47,5.36.25,1.92.42,3.9,1.41,5.61,1.2,2.08,3.2,3.49,5.63,3.61.24.01.5,0,.74,0,.69-.04,1.37-.19,2.01-.45.77.54,1.61.9,2.49,1.11.51.31,1.03.61,1.57.9,2.42,1.35,4.83,2.67,7.19,4.09,2.66,1.6,5.28,3.26,7.94,4.86,2.52,1.53,5.09,2.94,7.61,4.47.27.17,1.3.8,2.31,1.44,3.9,2.46,7.79,4.94,11.72,7.35,11.28,6.93,22.67,13.68,33.95,20.61,11.6,7.14,23.21,14.25,34.87,21.28,23.7,14.31,47.14,29.04,70.82,43.37,24.23,14.68,48.54,29.2,72.74,43.92,24.43,14.86,48.87,29.73,73.35,44.54,24.41,14.77,48.81,29.58,73.24,44.34,24.73,14.96,49.47,29.92,74.24,44.81,24.29,14.6,48.48,29.35,72.74,44.01,24.51,14.8,49.14,29.39,73.68,44.12,11.93,7.18,23.93,14.25,35.85,21.43,5.9,3.55,11.78,7.15,17.68,10.68,2.82,1.69,5.64,3.39,8.48,5.05,1.12.66,2.27,1.35,3.45,1.88,1.22.96,2.72,1.55,4.28,1.66.34.02.68.02,1.01,0,.71-.05,1.38-.2,2.04-.43.63-.21,1.25-.49,1.83-.86.08-.05.17-.11.25-.17.64-.35,1.29-.7,1.89-1.11.52-.36.99-.78,1.4-1.24"/>
      <g>
        <path class="cls-1" d="M968.47,1125.4c-4.74-3.7-10.25-6.34-15.35-9.53-19.87-11.65-39.77-23.29-58.96-36.04-.6-.78-1.31-1.45-2.24-1.85-.47-.2-.97-.28-1.47-.29-1.82-.9-4.07-.5-5.49,1.22-.11.37-.22.75-.32,1.12-19.58,16.62-37.19,35.78-56.59,52.7-3.49,4.29-16.09,9.35-10.32,15.9h0s.04.04.07.06c.15,1.87,1.47,3.61,3.58,3.87,10.42-2.12,21.8-2.54,32.22.52,5.07,1.45,8.84,5.61,13.74,7.19h0c6.61-1.17,13.1-3.1,19.71-4.54,0,.47,0,.93-.02,1.36-.2,17.83-1.42,35.65-.66,53.48.73,10.2,1.06,25.68,9.11,32.54,1.91,1.9,4.22,3.47,7.05,4.58,7.62,2.41,15.02-2.83,18.87-9.15,6.93-10.5,7.02-23.47,7.65-35.59-.03-.58-.16-1.09-.35-1.55-.69-4.02-6.05-6.77-10.06-3.06-3.28,2.9-2.85,7.53-2.73,11.48-.05,3.37-.02,5.81-.57,9.65-1.09,4.92-5.5,17.95-12.2,15.07-5.75-6.51-6.79-23.36-6.64-40.45.18-5.04.37-9.66.3-13.34.34-10.34.78-19.75.47-25.71.03-.33.04-.65.03-.96,1.27-.11,2.56-.2,3.85-.22,5.9-.31,11.92-.49,17.73.75,2.9.18,5.78,1.94,8.72,1.52,7.89-3.67,14.51-9.93,22.63-13.67,3.82-1.97,7.85-3.47,11.97-4.66,2.14-.68,4.79-.99,6.35-2.72,1.31-1.32,1.61-3.18,1.11-4.8.54-1.63.3-3.5-1.2-4.89ZM839.25,1141.89c-2.18.15-4.58.13-7.01.18,10.89-9.62,21.68-19.53,32.13-29.67,4.96-4.75,9.99-9.44,14.97-14.17-3.15,10.71-6.36,21.45-9.65,32.08-1.75,5.87-3.45,11.77-5.24,17.63-7.69-4.13-16.44-6.17-25.21-6.05ZM874.54,1149.07c.42-1.91.82-3.77,1.45-5.16,2.38-8.16,4.76-16.3,7.22-24.43,2.56-9.1,5.38-18.14,7.76-27.29,8.85,15.81,17.65,31.63,26.65,47.36,1.02,1.8,1.98,3.61,2.95,5.44-15.4-2.06-31.06-.05-46.02,4.09ZM930.59,1142.94c-1.38-2.36-2.83-4.69-4.16-7.07-6.97-12.59-14.36-24.95-21.57-37.4,16.58,10.9,34.03,20.52,51.05,30.72-9.09,3.22-17.38,8.26-25.31,13.74Z"/>
        <path class="cls-1" d="M1046.34,1027.09c.54-1.27.58-2.75-.06-4.12-.78-1.65-2.39-2.77-4.19-2.94-1.35-.13-2.6.3-3.83,1.2-1.53.59-3.07,1.26-4.52,2.04-.09.05-.23.12-.37.19-4.98,2.34-9.99,4.6-14.99,6.88-3.97,1.81-7.93,3.65-11.94,5.34-1.57.66-3.11,1.37-4.67,2.06-1.88.83-3.75,2.24-3.84,4.5-.05,1.2.3,2.32.98,3.21-.5,1.63-.43,3.65-.28,5.59-.15,5.92.37,11.82.56,17.73,1.36,15.4-.33,51.57,19.19,55.29-.2,5.22.61,11.37.25,14.09.05,6.91.25,13.83.21,20.73-.08,1.04-.16,2.18-.16,3.31-3.62,2.48-6.81,5.55-9.32,9.06-2.87,4.57-14.53,21.19-2.78,21.15h0c3.9.52,6.65-3.39,9.94-4.94,10.12-6.49,20.66-12.34,30.38-19.43,7.97-5.43,4.39-12.18-4.55-12.01-4.63-.6-9.32-.08-13.77,1.32-.16-5.51-.21-11.02-.37-16.53-.16-5.93-.39-11.84-.77-17.75,23.95-8.04,21.59-48.26,21.88-69.25-.29-7.12-.75-14.23-1.44-21.32-.24-1.86-.4-3.89-1.54-5.42ZM1022.65,1172.69c-1.44.88-2.89,1.75-4.33,2.62h0c3.63-4.35,8.73-7.26,14.11-8.89-3.25,2.12-6.47,4.26-9.78,6.28ZM1021.77,1113.96c-13.35,1.77-13-57.07-13.5-67.22-.02-.47-.13-.91-.29-1.33,3.22-1.46,6.43-2.96,9.66-4.38,3.29-1.43,6.6-2.83,9.85-4.31,2.18-1,4.35-2,6.58-2.89.8-.32,2.16-.93,3.53-1.51.32-.12.63-.26.95-.39.07,19.15,5.28,78.23-16.8,82.03Z"/>
        <path class="cls-1" d="M1408.26,333.37l-1.65.95L666.38,0l-279.03,152.56s-.02.01-.03.02L15.35,355.95l-15.35,10.8,11.8,185.07c.11,1.67.89,3.14,2.07,4.16.15,3.59.31,7.19.45,10.78,1.16,29.93,2.25,59.87,3.52,89.8,1.24,29.31,2.65,58.61,3.9,87.91,1.27,29.76,2.53,59.52,3.83,89.28,1.3,29.73,2.4,59.48,3.84,89.2.7,14.7,1.41,29.39,2.18,44.08.39,7.35.79,14.68,1.22,22.01.2,3.37.39,6.74.65,10.11.13,1.78.23,3.59.47,5.36.25,1.92.42,3.9,1.41,5.61,1.2,2.08,3.2,3.49,5.63,3.61.24.01.5,0,.74,0,.69-.04,1.37-.19,2.01-.45.77.54,1.61.9,2.49,1.11.51.31,1.03.61,1.57.9,2.42,1.35,4.83,2.67,7.19,4.09,2.66,1.6,5.28,3.26,7.94,4.87,2.51,1.53,5.09,2.94,7.61,4.47.27.17,1.3.8,2.31,1.44,3.9,2.46,7.79,4.94,11.72,7.35,11.28,6.93,22.67,13.68,33.96,20.61,11.6,7.14,23.2,14.25,34.86,21.28,23.7,14.31,47.14,29.04,70.82,43.37,24.23,14.68,48.54,29.2,72.74,43.92,24.43,14.86,48.87,29.73,73.35,44.54,24.41,14.77,48.81,29.58,73.24,44.34,24.73,14.96,49.47,29.92,74.24,44.81,24.29,14.6,48.48,29.35,72.74,44.01,24.51,14.8,49.14,29.39,73.68,44.12,11.93,7.18,23.93,14.25,35.85,21.43,5.9,3.55,11.77,7.15,17.68,10.68,2.82,1.69,5.64,3.39,8.48,5.05,1.12.66,2.27,1.35,3.45,1.88,1.22.96,2.72,1.55,4.28,1.66.34.02.68.02,1.01,0,.71-.05,1.38-.2,2.04-.43.63-.21,1.25-.49,1.83-.86.08-.05.17-.11.25-.17.64-.35,1.29-.7,1.89-1.11.52-.36.99-.78,1.4-1.24,1.59-1.11,3.18-2.21,4.76-3.32,10.69-7.55,21.55-14.84,32.31-22.29,11.52-7.97,23.05-15.93,34.58-23.89,24.05-16.6,48.08-33.2,72.13-49.79,23.92-16.5,47.83-33.03,71.74-49.53,24.42-16.85,48.85-33.68,73.28-50.51,24.4-16.82,48.79-33.67,73.17-50.53,23.96-16.57,47.94-33.09,71.9-49.67,24.38-16.86,48.75-33.72,73.11-50.6,24.57-17.02,49.1-34.08,73.57-51.23,11.82-8.29,23.66-16.58,35.46-24.91,5.76-4.08,11.55-8.16,17.3-12.27,3.1-2.21,6.19-4.42,9.28-6.65,1.52-1.1,3.04-2.19,4.52-3.35.98-.76,2.01-1.54,2.82-2.51,1.85-1.8,2.29-4.73.79-6.96-.23-.35-.52-.66-.82-.94,0-.05.02-.11.03-.16.77-4.39.95-8.85,1.26-13.3.34-5.04.69-10.08,1.04-15.12.71-10.3,1.42-20.61,2.1-30.91,1.36-20.61,2.68-41.22,4.09-61.82,1.42-20.77,2.7-41.54,4.13-62.31,1.43-20.92,2.66-41.85,4.09-62.75,1.41-20.55,2.85-41.1,4.2-61.66,1.32-20.03,2.69-40.05,3.97-60.07.61-9.4,1.26-18.8,1.87-28.2.08-1.23.15-2.46.23-3.69,0-.01,0-.03,0-.04l15.52-199.37.19-2.48-26.72-31.21ZM1393.78,341.69l-302.99,174.2L402.95,157.71,666.89,13.4l726.89,328.29ZM704.73,724.21c.63,1.22,1.26,2.45,1.89,3.67-2.03-1.1-4.07-2.19-6.1-3.28-1.11-.2-2.07-.76-2.81-1.52-1.12-.6-2.25-1.21-3.37-1.82-.25-.14-.71-.38-1.16-.63-.64-.34-1.28-.69-2.11-1.13-.11-.05-.22-.11-.32-.16,0,0-.26-.14-.54-.29-.09-.05-.19-.1-.69-.37-.09-.05-.32-.17-.56-.3-1.54-.83-3.08-1.66-4.62-2.48-1.13-.6-3.06-1.64-5-2.66-11.73-6.31-23.71-12.68-35.7-19.05-25.85-13.74-51.73-27.4-77.61-41.1-25.64-13.55-51.26-27.12-76.83-40.78-2.67-1.43-5.41-2.87-8.13-4.33-14.45-7.75-29.78-15.84-45.08-23.97-19.38-10.42-38.85-20.68-58.3-30.98-25.46-13.49-50.92-26.97-76.37-40.46-26.04-13.82-52.07-27.66-78.12-41.47-25.92-13.72-51.83-27.43-77.7-41.26-1.24-.66-2.65-1.42-4.08-2.18-.13-.08-.32-.18-.51-.28-.09-.05-.19-.1-.28-.16-.45-.24-1.05-.56-1.64-.87-4.33-2.32-9.53-5.09-14.72-7.85-12.5-6.66-25.01-13.31-37.52-19.93-11.87-6.27-23.81-12.45-35.66-18.77-2.2-1.18-4.56-2.44-6.92-3.71-3.42-1.84-6.89-3.71-10.36-5.57-1.99-1.07-4.85-2.63-7.7-4.21-.77-.42-1.57-.84-2.36-1.26l366.52-200.4,688.17,358.34-359.6,206.74c-3.37-3.94-7.83-6.25-14.11-5.52ZM720.93,1098.95c.59,29.14,1.47,58.27,1.91,87.41.02,2.01.05,4.23.09,6.44.07,5.17.16,11.4.26,17.62.02,1.06.05,3.19.09,5.33.04,1.94.06,3.86.09,5.79.09,7.08.2,14.42.34,21.75.55,28.35,1.33,56.71,1.84,85.07.5,27.11,1.24,54.22,1.68,81.34,0,.18,0,.36,0,.54-.38-.24-.76-.47-1.15-.71-23.82-14.55-47.62-29.11-71.43-43.66-24.48-14.97-48.9-30.05-73.45-44.91-24.49-14.83-48.98-29.65-73.43-44.55-24.33-14.82-48.69-29.58-73.05-44.35-24.43-14.79-48.85-29.59-73.29-44.37-24.36-14.73-48.74-29.41-73.09-44.15-24.43-14.8-48.78-29.73-73.25-44.46-11.87-7.14-23.82-14.14-35.72-21.25-11.7-6.99-23.32-14.1-35-21.13-11.64-7-23.37-13.86-34.97-20.92-5.58-3.41-11.16-6.83-16.77-10.2-5.21-3.13-10.54-6.07-15.74-9.21-2.79-1.75-5.57-3.53-8.38-5.23-2.66-1.59-5.33-3.16-7.97-4.78-1.91-1.19-3.77-2.47-5.67-3.7-.35-.22-.68-.44-1.03-.65-.97-1.18-2.3-2.05-3.92-2.38-.51-.32-1.01-.64-1.52-.92-.03-2.93-.1-5.87-.17-8.81-.74-29.48-1.92-58.97-3.28-88.43-1.38-29.81-2.64-59.63-3.97-89.45-1.29-29.15-2.59-58.28-3.82-87.43-1.25-29.69-2.47-59.39-3.85-89.09-1.39-29.76-3.01-59.51-4.28-89.27-1.22-28.77-2.28-57.54-3.52-86.31-.59-13.67-1.2-27.34-1.81-41.01-.27-6.12-.54-12.26-.8-18.38-.2-4.58-.54-9.17-.64-13.75-.05-1.98-.15-3.99-.26-6,2.78,1.42,5.55,2.87,8.31,4.33,8.31,4.37,16.66,8.68,24.95,13.1,13.91,7.49,28.73,15.35,43.58,23.18,25.46,13.46,50.96,26.82,76.41,40.3,25.64,13.58,51.29,27.16,76.93,40.75,25.91,13.75,51.88,27.42,77.78,41.18,25.81,13.71,51.64,27.39,77.49,41.05,25.5,13.47,51,26.94,76.51,40.39,26.26,13.84,52.48,27.72,78.69,41.65,25.86,13.74,51.72,27.5,77.63,41.16,12.84,6.78,25.69,13.53,38.55,20.28,6.49,3.41,12.97,6.82,19.48,10.19,3.32,1.73,6.65,3.46,9.97,5.17,2.12,1.08,4.24,2.21,6.43,3.16,0,.2,0,.4,0,.59h0c-.02,2.36-.01,4.72,0,7.08.02,5.12.09,10.23.16,15.34.02,1.97.06,4.83.1,7.71.21,17.75.55,36.42.86,55.08.49,30.03,1.09,60.05,1.73,90.08.62,29.4,1.19,58.8,1.69,88.21.5,29.4,1.08,58.81,1.67,88.21ZM1408.59,549.02c-.14.95-.17,1.93-.27,2.97-.02.17-.04.34-.06.51-.03.25-.05.51-.04.75-.26,3.25-.5,6.5-.72,9.76l-.19,2.49c-.02.22-.02.43-.01.64-.21,3.18-.4,6.36-.6,9.53-.59,9.41-1.26,18.82-1.86,28.23-1.28,20.06-2.61,40.11-3.95,60.16-1.35,20.49-2.54,40.99-3.92,61.48-1.41,20.98-2.83,41.96-4.18,62.94-1.34,20.95-2.8,41.89-4.1,62.84-1.27,20.54-2.75,41.06-4.06,61.6-.64,10.22-1.3,20.44-1.93,30.67-.31,5.07-.63,10.14-.94,15.21-.13,2.07-.22,4.13-.13,6.19.04.95.05,1.94.18,2.89-.77.5-1.52,1.02-2.27,1.51-2.47,1.61-4.92,3.24-7.38,4.87-24.4,16.25-48.64,32.74-72.89,49.22-24.44,16.59-48.77,33.33-73.13,50.03-24.41,16.73-48.72,33.59-73.17,50.27-24.26,16.56-48.39,33.34-72.6,49.97-24.4,16.76-48.76,33.59-73.13,50.39-24.64,16.99-49.27,33.98-73.92,50.95-23.78,16.38-47.56,32.75-71.34,49.13-23.63,16.29-47.28,32.55-70.9,48.83-11.25,7.76-22.54,15.46-33.78,23.21-4.61,3.18-9.18,6.41-13.8,9.58-.11-3.73-.16-7.47-.24-11.19-.29-13.4-.61-26.78-.89-40.18-.59-28.25-1.4-56.5-1.93-84.76-.53-29.03-1.44-58.04-2.23-87.06-.79-29.43-1.26-58.87-1.89-88.31-.63-29.3-1.4-58.58-2.16-87.87-.79-29.78-1.46-59.56-2.14-89.35-.69-29.7-1.32-59.41-2.17-89.12-.42-14.68-.81-29.36-1.22-44.05-.2-7.45-.41-14.9-.66-22.34-.12-3.6-.24-7.2-.4-10.81.17-.04.35-.07.53-.11-1.04-3.53-2.13-7.13-3.44-10.5l680.96-391.5,17.02,19.88-14.04,180.41Z"/>
      </g>
    </g>
  </g>
</svg>