<?xml version="1.0" encoding="UTF-8"?>
<svg id="Layer_2" data-name="Layer 2" xmlns="http://www.w3.org/2000/svg" viewBox="0 0 1884.59 2086.55">
  <defs>
    <style>
      .cls-1 {
        fill: #270f03;
      }

      .cls-2 {
        fill: #ffe9cf;
      }

      .cls-3 {
        fill: none;
        stroke: #270f03;
        stroke-linecap: round;
        stroke-miterlimit: 10;
        stroke-width: 12px;
      }
    </style>
  </defs>
  <g id="Layer_1-2" data-name="Layer 1">
    <g>
      <g>
        <path class="cls-2" d="M1880.37,1089.35h0c-.61-.31-1.24-.53-1.88-.66-3.35-1.99-7.8-2.68-11.31-4.09-18.86-5.63-38.18-9.57-57.52-13.19-54.01-9.75-108.99-16.12-163.95-14.33-32.82,1.41-66,2.71-98.3,9.1.96-1.63,1.9-3.22,2.84-4.48,9.19-14.04,18.72-27.88,28.36-41.6,50.84-71.53,104.39-142.86,172.73-198.7.42-.36.84-.71,1.26-1.07.83.28,1.68.42,2.53.42,2.25,0,4.46-.97,5.95-2.96,2.44-3.26,1.79-8.11-1.52-10.55-.1-.09-.17-.17-.23-.23-.61-.59-1.37-1.22-2.24-1.82-4.02-2.61-8.18-4.99-12.35-7.33-5.64-3.17-11.33-6.25-17.04-9.29-12.61-6.74-25.33-13.29-38.01-19.89-26.78-13.93-53.67-27.64-80.5-41.45-27.69-14.24-55.4-28.44-83.06-42.73-27.36-14.16-54.77-28.24-82.08-42.5-27.77-14.5-55.48-29.13-82.95-44.18-27.55-15.1-54.88-30.62-82.13-46.26-27.09-15.56-54.21-31.07-81.36-46.54-27.23-15.53-54.49-30.99-82.06-45.93-13.64-7.4-27.34-14.7-40.91-22.23-6.66-3.71-13.31-7.43-19.92-11.25-3.08-1.78-6.15-3.58-9.25-5.33-1.45-.83-2.9-1.65-4.4-2.38-2.28-2.16-6.15-2.27-8.62-.27-57.18,51.86-102.67,115.97-140.49,183.04-12.42,22.79-24.78,45.87-33.38,70.41-1.77-2.63-3.23-5.5-5.36-7.83-29.92-32.75-50.71-81.04-88.17-117.03-1.33-1.18-3.86-6.67-5.31-7.68-1.82-2.61-5.39-10.24-7.28-12.8-21.08-28.78-42.45-51.98-60.26-82.96-18.46,9.88-48.47,25.41-67.15,35.04-25.59,13.19-51.73,25.31-76.67,39.71-4.27,2.46-8.21-2-7.35-5.67-1.13.51-2.27,1.01-3.4,1.52-9.14,4.09-18.25,8.19-27.35,12.36-.43.19-1.25.56-2.09.95-.15.07-.61.28-1.08.49-.22.11-.53.25-.86.39-1.27.59-2.73,1.26-4.18,1.93-.9.41-2.64,1.21-4.36,2-4.67,2.12-10.17,4.65-15.65,7.18-6.77,3.07-14.36,6.62-21.97,10.12-24.52,11.27-49.04,22.55-73.4,34.17-24.1,11.51-48.3,22.82-72.59,33.93-.31.15-.46.21-.6.28-.95.43-2.18.98-3.41,1.56-5.3,2.41-10.61,4.86-15.91,7.3-10.85,4.94-21.74,9.76-32.58,14.73-1.17.53-3.14,1.42-5.11,2.32-.28.14-1.36.62-2.45,1.13-.53.24-1.89.86-3.22,1.47-.36.17-.55.25-.75.34-.58.26-1.41.64-2.24,1.02-.49.22-1.02.46-1.56.71l-1.43.66c-10.61,4.81-21.5,9.75-32.36,14.7-.77.36-1.55.71-2.32,1.06-.76.36-1.53.71-2.3,1.06-.46.2-.91.42-1.36.61-9.27,4.24-19.35,8.92-29.45,13.54-5.45,2.45-10.93,4.82-16.36,7.32l-.84.36c-1.92.53-3.45,1.84-4.37,3.48-11.63-5.62-23.25-11.23-34.86-16.87-13.07-6.36-26.08-12.82-39.11-19.21-12.75-6.25-25.52-12.45-38.26-18.71-8.8-4.33-17.56-8.78-26.43-12.94-.44-.34-.87-.61-1.32-.85-.02-.04-.33-.18-.64-.32-2.72-1.4-5.92-1.06-8.29.59-.96.13-1.91.44-2.76.92-2.65,1.5-4.15,4.54-3.75,7.55.2,1.56.9,2.98,1.93,4.1.32.54.65,1.08,1.01,1.6.52.81,1.01,1.65,1.48,2.5,11.96,21.77,23.51,43.75,35.15,65.68,13.03,24.53,26.08,49.04,39.06,73.59,12.81,24.25,25.76,48.41,38.63,72.64,12.88,24.26,25.72,48.54,38.68,72.75,6.46,12.06,12.87,24.15,19.36,36.19,3.3,6.12,6.61,12.24,9.97,18.32,1.01,1.83,2.01,3.66,3.05,5.48-.05.08-.1.17-.14.25-.86,1.7-1.11,3.43-1.26,5.29-.1,1.2.04,2.35.38,3.43.04.62.09,1.24.15,1.85,0,.25-.14,1.59-.18,2.9-.04,1.26-.04,2.51-.03,3.77.04,3.94-.2,7.91-.28,11.86-.53,26.76-1.09,53.52-1.63,80.28-.59,28.93-.85,57.85-1.58,86.78-.75,29.95-1.57,59.89-2.2,89.84-.62,29.32-1.09,58.66-1.7,87.98-.62,29.78-1.26,59.56-1.86,89.35-.59,29.75-1.39,59.51-1.85,89.27-.23,14.71-.47,29.42-.63,44.13-.08,7.36-.15,14.7-.19,22.05-.02,3.38-.04,6.75.01,10.13.02,1.79,0,3.6.13,5.38.13,1.94.18,3.92,1.05,5.69,1.06,2.15,2.97,3.69,5.39,3.96.24.03.5.04.74.04.69,0,1.38-.11,2.03-.32.73.58,1.55,1,2.41,1.27.49.34.99.67,1.51,1,2.33,1.5,4.65,2.97,6.92,4.54,2.55,1.77,5.06,3.59,7.62,5.36,2.41,1.68,4.89,3.26,7.31,4.94.26.18,1.25.89,2.22,1.59,3.74,2.7,7.46,5.43,11.23,8.08,10.82,7.64,21.75,15.09,32.57,22.73,11.12,7.86,22.25,15.69,33.44,23.46,22.74,15.79,45.19,31.98,67.91,47.79,23.24,16.19,46.58,32.23,69.8,48.46,23.44,16.38,46.88,32.78,70.36,49.11,23.42,16.3,46.83,32.62,70.27,48.91,23.73,16.5,47.46,33.01,71.24,49.45,23.31,16.11,46.52,32.38,69.79,48.55,23.52,16.33,47.17,32.46,70.72,48.72,11.45,7.92,22.97,15.74,34.41,23.67,5.66,3.92,11.3,7.88,16.97,11.78,2.7,1.87,5.41,3.75,8.14,5.58,1.08.73,2.18,1.49,3.33,2.09,1.16,1.03,2.62,1.72,4.16,1.93.34.04.68.07,1.01.07.71,0,1.39-.11,2.06-.3.64-.17,1.27-.41,1.88-.74.09-.05.17-.1.26-.16.66-.31,1.33-.61,1.96-.99.55-.33,1.04-.72,1.48-1.15,1.65-1,3.32-2,4.96-3.01,11.15-6.85,22.46-13.44,33.66-20.19,12.01-7.22,24.01-14.43,36.03-21.64,25.05-15.03,50.1-30.07,75.15-45.1,24.92-14.94,49.83-29.92,74.75-44.86,25.44-15.27,50.9-30.5,76.35-45.75,25.42-15.24,50.84-30.49,76.24-45.77,24.97-15.01,49.95-29.98,74.92-44.99,25.4-15.28,50.8-30.55,76.18-45.85,25.6-15.42,51.17-30.89,76.68-46.45,12.33-7.52,24.66-15.04,36.97-22.6,6.01-3.71,12.04-7.4,18.05-11.14,3.23-2,6.46-4.02,9.68-6.04,1.59-1,3.17-1.99,4.73-3.06,1.03-.7,2.1-1.41,2.98-2.33,1.97-1.68,2.59-4.57,1.24-6.9-.17-.29-.36-.57-.58-.82.94-4.12,1.4-8.34,1.96-12.53.66-5.01,1.33-10.01,2-15.02,1.36-10.24,2.73-20.48,4.07-30.72,2.67-20.48,5.3-40.96,8.02-61.43,2.74-20.64,5.34-41.28,8.09-61.92,2.75-20.78,5.32-41.59,8.08-62.37,2.71-20.42,5.46-40.83,8.11-61.27,2.59-19.91,5.23-39.79,7.78-59.7,1.21-9.34,2.45-18.68,3.66-28.02.54-4.16,1.04-8.33,1.57-12.48.18-1.45.39-2.9.55-4.35.04-.21.06-.46.09-.71.05-.36.09-.72.14-1.08,18.08-9.43,36.17-18.87,54.25-28.29,28.94-15.1,57.9-30.18,86.87-45.23,27.92-14.51,55.89-28.92,83.77-43.51,12.89-6.74,25.81-13.43,38.71-20.13,6.37-3.32,12.73-6.65,19.1-9.95,1.8-.93,3.66-1.74,5.46-2.67.97-.5,1.93-1.05,2.89-1.57,1.03-.28,2.01-.81,2.87-1.59,1.57-1.42,2.65-3.2,2.82-5.35.02-.19.02-.4.02-.59,0-2.9-1.64-5.6-4.21-6.93Z"/>
        <path class="cls-1" d="M1884.58,1096.28c0-2.9-1.64-5.6-4.21-6.93-.61-.31-1.24-.54-1.89-.66-3.34-1.99-7.79-2.68-11.3-4.09-18.86-5.63-38.18-9.57-57.52-13.19-54.01-9.75-108.99-16.12-163.95-14.33-32.82,1.41-65.99,2.7-98.3,9.1.96-1.63,1.9-3.22,2.84-4.48,9.19-14.04,18.72-27.87,28.36-41.6,50.84-71.53,104.39-142.86,172.73-198.71.42-.36.84-.71,1.26-1.07.83.28,1.68.42,2.53.42,2.25,0,4.47-.97,5.95-2.96,2.44-3.26,1.79-8.11-1.55-10.57-.07-.07-.14-.15-.2-.21-.61-.59-1.37-1.22-2.24-1.82-4.02-2.61-8.18-4.99-12.35-7.33-5.64-3.17-11.33-6.25-17.04-9.29-12.61-6.74-25.33-13.29-38.01-19.89-26.78-13.93-53.67-27.64-80.5-41.45-27.69-14.24-55.4-28.44-83.06-42.73-27.36-14.16-54.77-28.24-82.08-42.5-27.77-14.5-55.48-29.13-82.95-44.18-27.55-15.1-54.87-30.62-82.13-46.26-27.09-15.56-54.21-31.07-81.36-46.54-27.23-15.53-54.49-30.99-82.06-45.93-13.64-7.4-27.34-14.7-40.91-22.23-6.66-3.71-13.31-7.43-19.92-11.25-3.08-1.78-6.15-3.58-9.25-5.33-1.45-.83-2.9-1.64-4.45-2.39-2.23-2.14-6.1-2.25-8.57-.25-57.18,51.86-102.67,115.97-140.49,183.04-12.41,22.79-24.78,45.87-33.38,70.41-.32-.48-.66-.96-.98-1.44-1.54,5.6-3.43,11.11-5.94,16.43.19.31.39.62.59.93-.34.17-.69.35-1.03.53-.11.06-.22.11-.32.17-.56,1.12-1.15,2.24-1.77,3.34-1.72,3.04-120.35,57.43-124.42,60.31.04.29-56.89,30.04-80.9,42.42-23.48,12.1-47.03,24.08-70.49,36.22-10.91,5.64-21.88,11.17-32.76,16.86-5.25,2.75-10.53,5.48-15.81,8.16-2.34,1.19-4.72,2.32-7.01,3.58-1.37.75-2.7,1.6-4.1,2.27-.95.32-1.87.7-2.75,1.21-.47.27-.92.57-1.39.85-11.81-5.79-23.61-11.57-35.43-17.36-26.33-12.88-52.64-25.78-78.99-38.6-26.51-12.9-53.06-25.72-79.6-38.6-26.29-12.76-52.6-25.49-78.84-38.34-22.03-10.79-44.08-21.49-66.14-32.2.35-.17.7-.33,1.04-.5,3.41-1.65,6.86-3.25,10.28-4.86,7.66-3.62,15.37-7.1,23.06-10.66,23.55-10.92,47.1-21.87,70.57-32.96,23.64-11.15,47.32-22.22,71.09-33.08,1.86-.86,4.49-2.04,7.1-3.25.83-.36,2.4-1.09,4.11-1.87.14-.06.28-.13.42-.19.9-.39,2.09-.94,3.3-1.5.48-.21,1.71-.78,3.02-1.37.21-.1.43-.19.64-.3,21.01-9.51,42.39-18.99,63.66-28.76,1.34-.6,3.17-1.44,5-2.3,2.84-1.28,5.72-2.61,8.59-3.94,4.69-2.13,9.46-4.33,14.21-6.54,13.94-6.36,27.84-12.8,41.72-19.25,12.05-5.6,24.11-11.21,36.13-16.87,6.36-3.02,12.72-6.01,19.06-9.07,2.82-1.36,5.68-2.67,8.45-4.13-2.92-3.21-5.66-6.57-8.02-10.26-.58.26-1.15.52-1.73.77-4.86,2.12-9.71,4.3-14.56,6.46-9.14,4.09-18.25,8.19-27.35,12.36-.43.19-1.26.56-2.09.95-.15.07-.61.28-1.08.49-.22.11-.54.25-.86.39-1.27.59-2.73,1.26-4.18,1.93-.9.41-2.64,1.21-4.36,2-4.67,2.12-10.17,4.65-15.65,7.18-6.77,3.07-14.36,6.62-21.97,10.12-24.52,11.27-49.04,22.55-73.4,34.17-24.1,11.51-48.3,22.82-72.75,34-.16.07-.3.14-.45.2-.95.43-2.18.98-3.41,1.56-5.3,2.41-10.61,4.86-15.91,7.3-10.85,4.94-21.75,9.76-32.58,14.73-1.17.53-3.14,1.42-5.11,2.32-.28.14-1.36.62-2.45,1.13-.54.24-1.89.86-3.39,1.55-.19.09-.39.18-.58.26-.58.26-1.41.64-2.24,1.02-.49.22-1.02.46-1.56.71l-1.43.66c-10.61,4.81-21.5,9.75-32.36,14.7-.77.36-1.55.71-2.32,1.06-.76.36-1.53.71-2.3,1.06-.46.2-.9.42-1.36.61-9.27,4.24-19.35,8.92-29.45,13.54-5.45,2.45-10.93,4.82-16.36,7.32l-.84.36c-1.92.54-3.45,1.84-4.37,3.48-11.63-5.62-23.25-11.23-34.86-16.87-13.07-6.36-26.08-12.82-39.11-19.21-12.76-6.25-25.52-12.45-38.26-18.71-8.81-4.33-17.56-8.78-26.48-12.97-.39-.31-.82-.58-1.27-.82-.02-.04-.33-.19-.64-.32-2.72-1.4-5.93-1.06-8.3.59-.95.13-1.9.44-2.75.92-2.65,1.5-4.14,4.54-3.75,7.55.2,1.56.9,2.98,1.93,4.1.32.54.65,1.08,1.01,1.6.52.81,1.01,1.65,1.48,2.5,11.96,21.76,23.51,43.75,35.15,65.68,13.03,24.53,26.08,49.04,39.06,73.59,12.81,24.25,25.76,48.41,38.63,72.64,12.88,24.26,25.72,48.54,38.68,72.75,6.46,12.06,12.87,24.15,19.36,36.19,3.3,6.12,6.61,12.24,9.97,18.32,1.01,1.83,2.01,3.66,3.04,5.48-.05.08-.1.17-.14.25-.86,1.7-1.11,3.43-1.27,5.29-.1,1.2.04,2.35.38,3.43.04.62.09,1.24.15,1.85,0,.25-.14,1.59-.18,2.9-.04,1.26-.04,2.51-.03,3.78.04,3.94-.2,7.91-.28,11.86-.54,26.76-1.09,53.52-1.63,80.28-.59,28.93-.85,57.85-1.58,86.78-.75,29.95-1.57,59.9-2.2,89.84-.62,29.32-1.09,58.66-1.7,87.98-.62,29.78-1.26,59.56-1.86,89.35-.59,29.75-1.39,59.52-1.85,89.27-.23,14.71-.47,29.42-.63,44.13-.08,7.36-.15,14.7-.18,22.05-.02,3.38-.04,6.75,0,10.13.02,1.79,0,3.6.13,5.38.13,1.94.18,3.92,1.05,5.69,1.06,2.15,2.97,3.69,5.39,3.96.24.03.5.04.74.04.69,0,1.38-.11,2.03-.32.73.58,1.55,1,2.41,1.26.49.34.99.67,1.51,1,2.33,1.5,4.65,2.97,6.92,4.54,2.55,1.77,5.06,3.59,7.62,5.36,2.41,1.68,4.89,3.26,7.31,4.94.26.18,1.25.89,2.22,1.59,3.74,2.7,7.46,5.43,11.23,8.09,10.82,7.64,21.76,15.09,32.57,22.73,11.12,7.86,22.25,15.69,33.44,23.46,22.74,15.79,45.19,31.98,67.91,47.79,23.24,16.19,46.58,32.23,69.8,48.46,23.44,16.38,46.88,32.78,70.36,49.11,23.42,16.3,46.83,32.62,70.27,48.91,23.73,16.5,47.46,33.01,71.24,49.44,23.31,16.11,46.52,32.38,69.79,48.55,23.52,16.33,47.17,32.46,70.72,48.72,11.45,7.92,22.97,15.74,34.41,23.67,5.66,3.92,11.3,7.88,16.97,11.78,2.7,1.87,5.41,3.75,8.14,5.57,1.08.73,2.18,1.49,3.33,2.09,1.16,1.03,2.62,1.72,4.16,1.93.34.04.68.07,1.01.07.71,0,1.39-.11,2.06-.3.64-.17,1.27-.41,1.88-.74.09-.05.18-.1.26-.16.66-.31,1.33-.61,1.96-.99.54-.33,1.04-.72,1.48-1.15,1.65-1,3.32-2,4.96-3.01,11.15-6.85,22.46-13.44,33.66-20.19,12.01-7.22,24.01-14.43,36.03-21.64,25.05-15.03,50.1-30.07,75.15-45.1,24.92-14.94,49.83-29.92,74.75-44.86,25.44-15.27,50.89-30.5,76.35-45.75,25.42-15.24,50.84-30.49,76.24-45.77,24.97-15.01,49.95-29.98,74.92-44.99,25.4-15.28,50.8-30.55,76.18-45.85,25.6-15.42,51.17-30.89,76.68-46.45,12.33-7.52,24.66-15.04,36.97-22.6,6.01-3.71,12.04-7.4,18.05-11.14,3.23-2,6.46-4.02,9.68-6.04,1.59-1,3.17-1.99,4.73-3.06,1.03-.7,2.1-1.41,2.98-2.33,1.97-1.68,2.59-4.57,1.24-6.9-1.36-2.37-4.44-3.39-6.91-2.27-2.38.73-4.6,2.17-6.75,3.39-2.57,1.45-5.12,2.92-7.68,4.39-25.38,14.66-50.62,29.58-75.87,44.48-25.44,15-50.79,30.16-76.16,45.27-25.42,15.14-50.76,30.42-76.22,45.51-25.27,14.98-50.42,30.19-75.64,45.25-25.41,15.18-50.8,30.41-76.19,45.63-25.68,15.38-51.33,30.77-77.01,46.15-24.77,14.84-49.55,29.66-74.32,44.49-24.62,14.75-49.25,29.47-73.87,44.22-11.72,7.02-23.48,13.99-35.19,21.02-4.81,2.88-9.57,5.81-14.38,8.68.13-3.73.31-7.46.48-11.18.56-13.39,1.1-26.77,1.67-40.15,1.21-28.24,2.2-56.48,3.47-84.71,1.31-29,2.26-58.02,3.32-87.03,1.08-29.42,2.49-58.83,3.74-88.25,1.24-29.28,2.34-58.55,3.43-87.83,1.11-29.77,2.34-59.53,3.55-89.31,1.21-29.68,2.46-59.38,3.5-89.07.52-14.68,1.06-29.35,1.59-44.04.27-7.44.54-14.9.76-22.34.11-3.6.21-7.2.29-10.81,1.34-.18,2.69-.37,4.04-.35,10.64-.43,21.37.17,31.98.94,46.97,5.21,92.9,19.78,135.35,40.36,18.33,9.38,36.5,19.58,52.14,33.1,4.2,3.37,7.19,8.08,11.76,10.95,2.12,1.32,4.47,1.32,6.47.48,1.37-.04,2.7-.44,4-1.04,6.48-3,12.79-6.41,19.15-9.67,6.83-3.52,13.66-7.06,20.48-10.6,14.21-7.38,28.42-14.81,42.61-22.24,28.48-14.93,56.98-29.82,85.52-44.63,29.05-15.07,58.06-30.23,87.07-45.38,28.79-15.03,57.58-30.06,86.41-45.04,28.64-14.88,57.33-29.69,85.95-44.62,28.41-14.83,56.83-29.65,85.25-44.45,28.95-15.1,57.9-30.18,86.87-45.23,27.92-14.51,55.89-28.92,83.77-43.51,12.89-6.74,25.81-13.43,38.71-20.13,6.37-3.32,12.73-6.65,19.1-9.95,1.8-.93,3.66-1.74,5.46-2.67.97-.5,1.93-1.05,2.89-1.57,1.03-.28,2.01-.81,2.87-1.59,1.57-1.42,2.65-3.2,2.82-5.35.02-.19.02-.4.02-.59h0ZM187.27,952.85c-6.48-12.23-12.96-24.47-19.43-36.71-12.83-24.28-25.78-48.48-38.71-72.71-12.86-24.1-25.61-48.26-38.5-72.34-13.13-24.51-26.21-49.05-39.27-73.59-6.29-11.83-12.61-23.65-18.9-35.48-2.93-5.52-5.84-11.04-8.73-16.58-.45-.85-.9-1.69-1.33-2.53,6.19,2.97,12.37,5.96,18.55,8.95,12.63,6.1,25.23,12.28,37.86,18.39,13.12,6.34,26.26,12.62,39.34,19.04,25.68,12.62,51.36,25.19,77.08,37.72,26.31,12.83,52.61,25.68,78.93,38.49,26.58,12.95,53.12,25.98,79.66,39.02,26.06,12.8,52.16,25.5,78.28,38.18,26.75,12.98,53.51,25.93,80.25,38.92,26.51,12.88,53,25.81,79.52,38.66,13.04,6.31,26.06,12.67,39.12,18.92,13.12,6.29,26.16,12.73,39.34,18.89.47.22,1.84.87,3.21,1.52l1.16.54c2.4,1.12,4.8,2.25,7.21,3.35.14,1.13.53,2.23,1.19,3.48,6.5,14.07,12.54,28.37,18.7,42.6,11.18,25.86,22.38,51.71,33.55,77.57,11.48,26.59,23.16,53.1,34.71,79.66,11.69,26.88,23.33,53.79,34.99,80.7,11.41,26.35,22.79,52.71,34.17,79.07,5.8,13.41,11.59,26.82,17.42,40.22,2.6,6.01,5.21,12.02,7.85,18.01-3.94-2.48-7.89-4.93-11.84-7.38-.24-.16-.68-.43-1.12-.7-.61-.38-1.24-.77-2.03-1.26-.11-.06-.21-.13-.31-.18,0-.01-.25-.16-.52-.32-.09-.06-.18-.12-.66-.41-.09-.06-.31-.19-.54-.33-1.49-.92-2.97-1.85-4.46-2.77-1.09-.67-2.95-1.83-4.82-2.98-11.31-7.04-22.85-14.17-34.41-21.29-24.93-15.35-49.88-30.64-74.84-45.95-24.72-15.16-49.43-30.33-74.08-45.58-2.58-1.6-5.21-3.21-7.84-4.84-13.93-8.65-28.71-17.71-43.46-26.8-18.68-11.64-37.46-23.11-56.21-34.63-24.55-15.08-49.1-30.15-73.64-45.24-25.11-15.45-50.2-30.92-75.33-46.36-25-15.34-49.98-30.68-74.92-46.12-1.2-.74-2.55-1.59-3.93-2.43-.13-.09-.31-.2-.5-.31-.09-.06-.18-.12-.27-.18-.44-.27-1.01-.62-1.58-.97-4.17-2.59-9.18-5.68-14.2-8.78-12.05-7.44-24.11-14.88-36.17-22.28-11.45-7.01-22.97-13.94-34.39-21.01-2.12-1.31-4.4-2.72-6.67-4.14-3.3-2.05-6.64-4.14-9.98-6.22-1.92-1.2-4.67-2.94-7.41-4.69-1.33-.85-2.77-1.65-4.07-2.59-1.28-1.37-3.2-2.15-5.09-2.24-.83-1.64-1.66-3.28-2.5-4.91-3.09-6.04-6.23-12.07-9.41-18.08ZM871.31,1404.66c-.18,2.35-.31,4.71-.45,7.06-.3,5.11-.56,10.22-.82,15.32-.11,1.97-.24,4.83-.39,7.7-.91,17.73-1.77,36.38-2.65,55.02-1.42,30-2.73,60-4.01,90.01-1.25,29.38-2.56,58.76-3.93,88.14-1.37,29.37-2.67,58.76-3.95,88.14-1.26,29.12-2.24,58.24-3.66,87.35-.11,2-.21,4.22-.32,6.43-.26,5.17-.56,11.38-.87,17.6-.05,1.06-.16,3.19-.25,5.32-.09,1.94-.19,3.85-.28,5.78-.36,7.07-.72,14.4-1.04,21.73-1.26,28.33-2.29,56.68-3.58,85.02-1.23,27.09-2.21,54.19-3.5,81.28,0,.18-.02.36-.03.54-.36-.26-.73-.52-1.1-.78-22.84-16.03-45.67-32.08-68.51-48.11-23.48-16.5-46.89-33.1-70.44-49.49-23.5-16.36-46.99-32.71-70.44-49.13-23.34-16.34-46.71-32.62-70.08-48.91-23.44-16.32-46.87-32.64-70.31-48.94-23.37-16.25-46.77-32.45-70.13-48.72-23.44-16.33-46.79-32.78-70.28-49.03-11.39-7.88-22.87-15.63-34.3-23.48-11.23-7.72-22.38-15.56-33.59-23.31-11.17-7.73-22.44-15.31-33.57-23.11-5.35-3.76-10.7-7.53-16.08-11.25-5-3.45-10.13-6.73-15.12-10.2-2.68-1.93-5.33-3.88-8.03-5.75-2.55-1.76-5.12-3.49-7.65-5.27-1.83-1.31-3.61-2.7-5.42-4.06-.33-.24-.65-.49-.98-.71-.9-1.24-2.17-2.19-3.77-2.63-.49-.35-.96-.7-1.46-1.01.16-2.93.27-5.87.39-8.81,1.14-29.47,1.84-58.97,2.35-88.46.52-29.84,1.16-59.68,1.73-89.52.56-29.17,1.13-58.33,1.75-87.5.64-29.71,1.31-59.43,1.83-89.15.51-29.79.79-59.58,1.41-89.37.61-28.79,1.39-57.57,1.98-86.36.28-13.68.54-27.36.81-41.04.12-6.13.24-12.27.37-18.4.09-4.58.05-9.18.23-13.77.08-1.98.11-3.99.13-6,2.69,1.6,5.35,3.22,8.02,4.85,8.02,4.89,16.07,9.72,24.06,14.66,13.41,8.36,27.7,17.14,42.01,25.91,24.55,15.05,49.15,30.01,73.69,45.08,24.72,15.19,49.45,30.37,74.18,45.56,24.99,15.37,50.03,30.67,75,46.05,24.89,15.32,49.8,30.62,74.72,45.89,24.59,15.06,49.18,30.13,73.79,45.17,25.33,15.48,50.61,31.01,75.88,46.58,24.94,15.36,49.86,30.74,74.85,46.02,12.39,7.58,24.78,15.14,37.19,22.69,6.26,3.81,12.51,7.63,18.79,11.41,3.2,1.94,6.41,3.87,9.62,5.79,2.04,1.22,4.09,2.47,6.22,3.56,0,.2-.03.4-.04.59h0ZM883.08,693.07c-4.18-2.32-8.33-4.7-12.63-6.76.42-1.37.75-2.76,1.07-4.06.97-3.08,1.97-6.17,3.05-9.22,6.31-17.12,14.58-33.52,23.07-49.67,36.8-70.29,83.93-136.1,140.06-192.39.6.41,1.22.82,1.83,1.22,2.79,1.83,5.63,3.58,8.51,5.28,6.33,3.74,12.72,7.38,19.1,11.02,12.08,6.9,24.21,13.71,36.38,20.44,27.46,15.2,54.86,30.47,82.08,46.12,27.07,15.56,54,31.35,81.04,46.94,27.05,15.61,54.21,31.02,81.57,46.06,27.58,15.15,55.31,30.02,83.17,44.64,27.4,14.37,54.91,28.51,82.37,42.77,27.86,14.47,55.78,28.8,83.65,43.23,26.96,13.94,53.96,27.81,80.98,41.63,12.96,6.64,25.84,13.42,38.68,20.27,5.81,3.09,11.59,6.24,17.35,9.43,2,1.11,4.02,2.22,6.01,3.36h0c-21.07,15.75-39.59,34.78-57.79,53.72-37.94,40.22-72.31,83.74-104.71,128.52-12.77,17.99-25.5,36.04-37.63,54.47-1.42,2.85-4.52,6.56-6.89,10.34-7.63-4.35-15.79-8.93-23.91-13.56-.01,0-.31-.19-.62-.36-7.08-4.06-14.46-8.31-21.86-12.51-24.98-14.17-50.03-28.19-74.99-42.35-25.41-14.41-50.85-28.8-76.25-43.21-17.28-9.92-34.86-19.79-52.37-29.77-12.44-7.1-25.15-14.24-37.85-21.4-25.12-14.18-50.25-28.33-75.36-42.52-25.59-14.46-51.15-28.97-76.73-43.45-25.92-14.67-51.83-29.34-77.75-44.01-25.1-14.21-50.22-28.39-75.43-42.41-12.76-7.1-25.5-14.21-38.27-21.29-6.3-3.49-12.6-7.02-18.9-10.51ZM1850.55,1101.43h0c-5.35,2.78-10.68,5.59-16.03,8.4-11.8,6.19-23.64,12.3-35.45,18.46-27.78,14.49-55.51,29.06-83.27,43.56-29.13,15.22-58.24,30.44-87.41,45.58-28.41,14.74-56.79,29.53-85.16,44.34-28.58,14.92-57.12,29.92-85.71,44.84-28.93,15.1-57.88,30.15-86.84,45.2-28.71,14.93-57.4,29.92-86.1,44.88-28.82,15.01-57.66,30.01-86.5,44.98-14.1,7.31-28.19,14.66-42.26,22.02-6.67,3.48-13.33,7-19.98,10.53-3.18,1.69-6.35,3.38-9.52,5.11-.94-1.03-1.96-2.01-2.97-2.99-18.25-17.9-41-30.19-63.66-41.59-45.51-21.98-96.54-36.96-147.25-40.39-.88.02-1.96,0-3.19-.03,7.28-3.58,14.55-7.21,21.82-10.8,25.6-12.64,51.25-25.16,76.82-37.84,25.87-12.82,51.78-25.57,77.71-38.29,26.2-12.86,52.36-25.82,78.55-38.75,25.73-12.71,51.39-25.58,77.11-38.32,26.39-13.07,52.82-26.02,79.22-39.06,25.77-12.73,51.52-25.55,77.36-38.16,26.21-12.78,52.48-25.43,78.65-38.31,12.8-6.3,25.51-12.8,38.25-19.25,6.15-3.12,12.3-6.26,18.44-9.4,2.49-1.27,4.98-2.57,7.44-3.9.55.13,1.1.19,1.65.19s1.07-.06,1.59-.16c.42,0,.84-.06,1.28-.14,12.81-3.17,25.96-4.97,39.05-6.37,30.6-3.2,62.3-4.95,93.18-4.44,32.97,1.04,66.95,4.31,99.72,9.09,27.51,4.41,55.22,8.96,82.17,16.51-2.9,1.52-5.81,3.01-8.71,4.51Z"/>
        <path class="cls-2" d="M968.45,1119.86c-2.3-.43-4.34-1.77-5.75-3.61-2.27-2.16-4.06-4.74-5.85-7.3-2.58-2.99-5.84-6.45-5.25-10.71,1.38-7.64,10.79-7.31,16.78-7.09,5.8.47,12.6.58,17.04,4.84,5.29,5.72-.22,13.12-4.55,17.53-3.14,3.41-7.42,7.2-12.42,6.34ZM975.9,1103.27c.27-.39.39-.58.51-.77-.24-.07-.48-.13-.73-.2.06.24.12.49.16.74-.04-.24-.09-.48-.13-.72.07.32.13.63.18.94h0Z"/>
        <path class="cls-1" d="M1026.88,1917.06c-20.83-9.75-11.29-43.11-10.93-61.38,0,.1-.01.21-.02.31.52-5.65.73-11.43,1.46-16.87.11-3.93,4.54-6.77,7.44-3.32,1.97,3.3.62,7.66.66,11.32.09,14.61-8.29,52.38,4.39,61.01,4.23,1.54,7.72-2.86,9.93-5.89,5.72-8.38,6.68-19.05,7.44-28.84.8-5.42,9.03-4.77,8.94.71-1.41,12.06-2.32,24.99-9.9,35.04-4.24,6.06-11.96,10.82-19.42,7.93Z"/>
        <path class="cls-1" d="M1057.13,1824.61c-2.28-.76-3.21-3.07-4-5.13-1.43-3.14-2.8-6.29-4.31-9.4-8.73-17.82-17.22-35.72-25.8-53.61-1.07-2.21-2.39-4.6-1.63-7.12.7-2.34,3.6-3.4,5.72-2.34s2.9,3.36,3.81,5.31c8.69,18.35,18.25,36.29,26.93,54.65,1.81,3.78,3.93,7.44,5.58,11.3,1.46,3.74-2.56,7.76-6.3,6.33Z"/>
        <path class="cls-1" d="M997.01,1825.04c-2.52-.87-4.1-3.83-3.11-6.39,2.65-6.91,5.14-13.88,7.7-20.83,6.34-16.67,12.54-33.62,18.51-50.31,1.99-2.14,5.28-1.93,7.01.43,1.67,2.27.5,5.47-.17,7.89-3.31,10.81-7.43,21.37-11.18,32.04-2.97,7.96-5.86,15.93-8.76,23.93-2.49,4.65-2.49,15.14-9.99,13.25h0Z"/>
        <path class="cls-1" d="M1094.54,1806.97c-24.53-17.37-50.58-32.88-73.23-52.75-1.88-2.11-1.63-5.68,1.08-6.98,2.47-1.21,4.67.21,6.65,1.62,18.4,14,37.59,26.92,56.74,39.86,4.89,3.51,10.22,6.49,14.71,10.49,3.64,3.84-1.28,10.29-5.94,7.76h0Z"/>
        <path class="cls-1" d="M948.56,1812.8c-5.34-6.9,7.56-11.15,11.31-15.21,21.25-16.28,40.72-35.09,62.29-50.82,2.44-.86,5.07.36,5.97,2.77,1.21,3.18-1.58,5.43-3.66,7.29-8.83,7.81-18.05,15.17-27.06,22.77-11.81,10.08-23.97,19.88-36.22,29.33-3.63,2.54-8.29,8.46-12.64,3.87h0Z"/>
        <path class="cls-1" d="M997.32,1827.58c-4.79-1.89-8.28-6.28-13.25-8.05-10.21-3.72-21.6-4.02-32.13-2.57-3.4-.64-4.48-5.11-1.9-7.35,5.65-3.82,13.92-2.13,20.42-2.17,10.53.52,20.85,4.16,29.12,10.68,18.8-4.6,38.67-6.2,57.53-1.1,10.83-6.75,22.13-13.15,34.72-15.86,2.04-.47,4.33-1.27,6.35-.5,3.46,1.1,4.48,5.81,1.75,8.22-1.66,1.62-4.33,1.76-6.51,2.31-4.19.93-8.3,2.17-12.24,3.89-8.35,3.22-15.35,9.05-23.46,12.21-2.96.24-5.73-1.71-8.61-2.07-5.72-1.61-11.74-1.81-17.65-1.88-11.74-.5-22.83,2.98-34.16,4.25h0Z"/>
        <path class="cls-1" d="M1030.44,1916.19c-18.41-.91-17.21-23.67-17.32-37.21.37-17.84,2.72-35.55,4.06-53.33.18-2.16.21-4.9,1.66-6.66,4.08-4.44,9.6-.02,8.7,5.27-.22,18.01-9.25,66.76.8,79.71,6.5,3.3,11.73-9.42,13.14-14.26.79-3.79.92-6.22,1.18-9.59.14-3.95,0-8.6,3.46-11.28,5.87-4.77,13.53,2.96,7.92,8.48-.04.63-.07,1.26-.13,1.88.02-.26.03-.4.04-.54-.05,14.93-6.15,35.83-23.51,37.52h0Z"/>
        <path class="cls-1" d="M1153.15,1846.47c-6-.33-5.13-6.34-4.54-10.63.48-6.89.72-13.8,1.11-20.71,1-5.07-1.36-22.54,5.57-22.44,3.75.07,4.46,4.26,4.19,7.25.02,6.16-.13,12.3-.36,18.46-.27,7.67-.76,15.33-.84,23-.03,2.78-2.35,5.09-5.14,5.07h0Z"/>
        <path class="cls-1" d="M1134.25,1868.51c-11.73-.7.97-16.55,4.12-20.93,7.92-9.74,21.41-15.54,33.9-13.1,8.93.4,12.08,7.36,3.77,12.28-10.15,6.46-21.04,11.62-31.55,17.46-3.38,1.34-6.38,5.07-10.24,4.3h0ZM1147.05,1852.18c1.5-.78,3-1.55,4.49-2.34,3.43-1.8,6.79-3.73,10.16-5.64-5.47,1.29-10.75,3.87-14.65,7.98h0Z"/>
        <path class="cls-1" d="M1152.94,1801.53c-22.18-2.3-17.81-40.77-18.21-56.88.19-5.91.05-11.84.57-17.73-.05-4.03.21-8.39,5.06-8.57,2.62,0,4.89,2.24,4.84,4.88-.15,10.16-4.25,68.86,9.19,67.94,22.74-2.44,20.77-64.13,22.06-81.93-.15-3.97,4.46-6.95,7.53-3.81,1.5,1.66,1.52,3.99,1.65,6.11.23,7.11.24,14.25.08,21.37-1.75,22.66-1.84,67.99-32.78,68.61h0Z"/>
        <path class="cls-1" d="M1137.82,1722.96c-1.91-.9-2.87-2.8-2.65-4.86.23-2.25,2.19-3.53,4.12-4.24,1.6-.59,3.18-1.2,4.79-1.76,4.12-1.44,8.18-3.02,12.26-4.57,5.14-1.96,10.28-3.9,15.4-5.92.15-.06.29-.12.38-.16,1.49-.69,3.07-1.26,4.64-1.75,1.29-.82,2.56-1.17,3.9-.96,1.79.28,3.33,1.51,4,3.2,1.24,3.17-1.02,6.67-4.31,6.99-.47.2-.95.38-1.42.55-1.17.43-2.32.87-3.51,1.23-1.41.49-2.8,1.02-3.62,1.29-2.29.74-4.51,1.61-6.75,2.46-3.35,1.27-6.73,2.46-10.11,3.68-3.58,1.3-7.12,2.7-10.69,4.05-.97.36-1.96.75-2.96,1.02-.46.12-.94.19-1.43.19-.7,0-1.41-.14-2.04-.43h0Z"/>
        <path class="cls-1" d="M1527.38,1673.34c-.37-.05-.71-.15-1.03-.3-.69-.25-1.34-.65-1.89-1.21-1.81-1.73-1.51-4.15-1.46-6.4.04-2.06.26-4.12.53-6.17.63-5.04,1.27-10.08,1.91-15.12,1.28-10.17,2.59-20.32,3.88-30.48,2.61-20.41,5.39-40.81,7.97-61.22,2.64-20.83,5.43-41.63,8.09-62.45,2.68-20.86,5.43-41.7,8.17-62.55,2.68-20.35,5.17-40.74,7.82-61.1,2.62-19.93,5.22-39.85,7.77-59.79,1.2-9.36,2.46-18.71,3.65-28.06.94-7.43,1.87-14.87,2.95-22.28.01-.25.04-.5.09-.75.03-.17.06-.34.09-.51.18-1.16.28-2.26.53-3.3.78-3.1,4.24-4.89,7.25-4.05,2.56.72,4.24,3.14,4.26,5.66-.01.98-.16,1.98-.29,2.96-.02.25-.05.5-.09.71-.17,1.45-.38,2.9-.55,4.35-.53,4.15-1.03,8.32-1.57,12.48-1.21,9.34-2.45,18.68-3.66,28.02-2.55,19.91-5.2,39.79-7.78,59.7-2.66,20.43-5.4,40.84-8.11,61.27-2.75,20.77-5.32,41.58-8.08,62.37-2.74,20.64-5.34,41.28-8.09,61.92-2.71,20.47-5.35,40.95-8.02,61.43-1.33,10.24-2.7,20.48-4.07,30.72-.67,5.01-1.34,10.01-2,15.02-.59,4.42-1.05,8.86-2.1,13.19-.5,2.06-.9,4.14-2.99,5.27-.6.32-1.24.52-1.89.6-.26.06-.52.09-.79.09-.17,0-.35-.01-.52-.04h0Z"/>
        <circle class="cls-2" cx="834.62" cy="1046.76" r="92.69"/>
        <circle class="cls-2" cx="1106.68" cy="1046.76" r="92.69"/>
        <path class="cls-1" d="M768.03,1212.1c-20.5-49.27-42.75-97.78-64.47-146.52-12.85-29.37-23.31-53.93-34.4-84.75-1.44-2.97-1.4-7.06-4.29-9.03-3.35-2.09-7.93,1.35-6.74,5.18,27.5,78.58,66.06,152.65,98.22,229.33,2.49,4.84,2.58,8.43,5.4,10.62,3.12,1.94,7.39-1.26,6.28-4.83h0Z"/>
        <path class="cls-1" d="M643.63,960.69c-51.01-25.75-103.13-49.21-155.04-73.06-13.64-5.93-27.09-12.57-40.57-18.67-4.54-.88-6.91,5.9-2.8,8.1,62.76,30.36,126.11,59.54,188.94,89.77,2.72,1,5.29,3.46,8.32,2.69,3.99-.98,4.81-6.84,1.15-8.83Z"/>
        <path class="cls-1" d="M1130.57,1460.19c-.4-1.63-1.84-2.57-2.98-3.68-3.36-3.11-6.74-6.2-10.14-9.27-25.57-24.76-56.77-42.55-90.68-53.16-15.86-5.34-32.16-9.35-48.83-11.12-6.85-.5-14.03-2.05-20.8-1.05-4.46,1.62-3.03,8.79,1.74,8.63,46.24,1.35,98.1,21.54,132.94,47.52,8.37,6.57,16.42,13.51,24.41,20.53,2.26,2,4.52,4,6.77,6.01.85.84,2.01,1.33,3.2,1.33,2.9.06,5.17-2.94,4.36-5.73h0Z"/>
        <polyline class="cls-3" points="861.25 685.39 694.29 443.82 541.95 519.47"/>
      </g>
      <path id="colita" class="cls-1" d="M730.63,739.74s52.57-151.15-59.97-275.43c-112.54-124.27-102.38-281.96-8.77-398.72,93.6-116.76,192.42-56.19,172.25,16.34-20.17,72.54-98.51,142.77-87.77,234.22s130.49,201.37,77.24,392.74c-21.21,102.32-55.34,104.28-79.02,102.57-23.68-1.71-21.59-39.89-13.97-71.72Z"/>
      <circle id="ojo-izquierda" class="cls-1" cx="833.54" cy="1049.55" r="78.4"/>
      <circle id="ojo-derecha" class="cls-1" cx="1105.6" cy="1049.55" r="78.4"/>
    </g>
  </g>
</svg>