<svg width="403" height="244" viewBox="0 0 403 244" fill="none" xmlns="http://www.w3.org/2000/svg">
<path d="M403 175.632C403 138.409 372.829 108.238 335.606 108.238C324.497 108.238 314.027 110.948 304.782 115.699C306.688 108.306 307.696 100.559 307.696 92.5811C307.696 41.4436 266.252 0 215.115 0C170.458 0 133.194 31.6137 124.467 73.6837C113.466 68.7823 101.308 66.0321 88.4966 66.0321C39.6193 66.0321 0 105.651 0 154.529C0 203.406 39.6193 243.025 88.4966 243.025H338.452V242.957C374.354 241.473 403 211.902 403 175.632Z" fill="#FCFEFE"/>
</svg>
