<?xml version="1.0" encoding="UTF-8"?>
<svg id="Layer_1" xmlns="http://www.w3.org/2000/svg" version="1.1" viewBox="0 0 2000 2000">
  <!-- Generator: Adobe Illustrator 29.6.0, SVG Export Plug-In . SVG Version: 2.1.1 Build 207)  -->
  <defs>
    <style>
      .st0 {
        fill: #fff;
      }
    </style>
  </defs>
  <g id="Layer_11" data-name="Layer_1">
    <path d="M862.43,309.15c27.17,8.24,52.42,21.9,77.9,34.27,24.28,12.28,48.21,25.36,70.97,40.29,5.76,3.8,11.44,7.68,16.9,11.87,1.25,1.06,2.83,2.22,4.42,3.47,35.93-16.05,74.6-25.51,112.95-33.99.73-.15,1.55-.34,2.42-.5.22-36.86.47-73.72.78-110.55.34-42.53.65-85.07.99-127.6.17-21.19.34-42.36.58-63.53.13-10.4.24-20.8.43-31.2.09-6.08.21-12.17.39-18.26.07-2.18.17-4.34.3-6.52.04-.67.11-1.32.24-1.98C1151.98,2.18,1154.29,0,1157.1,0c2.87-.02,5.33,2.33,5.44,5.2.13.91.19,1.81.26,2.76.13,2.4.17,4.83.22,7.25.11,5.48.15,10.98.19,16.46.06,10.4.06,20.8.09,31.2.04,20.59,0,41.2-.04,61.8-.09,41.82-.19,83.62-.28,125.44-.17,84.35-.56,168.71-1.06,253.06-.11,16.36-.19,32.74-.26,49.09-.13,22.81-.22,45.64-.3,68.47-.17,46.03-.32,92.06-.5,138.11v1.92c-.07,15.56-.13,31.14-.19,46.7-.3,68.77-.71,137.53-1.04,206.28-.43,86.55-.8,173.11-1.23,259.64-.43,84.68-.86,169.38-1.27,254.05-.37,82.48-.65,164.97-1.08,247.45-.19,40.25-.39,80.47-.6,120.71-.13,19.75-.32,39.51-.39,59.28-.02,8.26-.02,16.53-.06,24.82-.02,2.29-.02,4.57,0,6.88.28.97.41,2.01.37,3.04-.02.76.07,1.81-.09,2.91-.22,1.42-.69,2.76-1.49,3.91-.26.39-.56.78-.89,1.12-.15.15-.32.3-.47.43-.11.09-.19.17-.3.26-1.47,1.1-3.32,1.73-5.16,1.73-1.68,0-3.37-.52-4.7-1.64-1.73-1.47-3.06-3.45-3.24-5.78-.09-1.08-.09-2.16-.11-3.24-.02-.58.09-1.7.41-2.76.04-2.29.07-4.58.09-6.86.04-8.27.11-16.53.17-24.82.13-19.16.13-38.3.22-57.47.15-40.57.39-81.14.58-121.71.3-57.51.65-115,.99-172.51-.88-2.18-1.34-4.75-1.68-6.91-2.68-12.08-5.83-24.06-9.08-35.97-14.83-54.42-30.92-109.21-48.19-163.01-25.29-85.63-70.95-163.1-100.78-246.89-16.03-44-18.08-91.17-9.24-136.94,5.01-37.66,9.19-75.96,8.35-114.09-3.41-3.39-6.86-6.75-10.34-10.1-38.46-41.73-73.5-88.99-88.15-144.62-6.52-24.9-4.49-50.99-1.77-76.3,4.4-36.88,10.96-73.61,20.72-109.47-.35-.91-.69-1.81-1.01-2.74-10.06-26.33-20.29-52.42-29.56-79.07-10.16-29.05-19.87-59.37-27.17-89.53-5.16-21.95-19.08-81.87,18.97-78.42h0Z"/>
    <path class="st0" d="M881.6,360.92c23.83,16.05,47.2,32.77,69.26,51.22,6.76,5.55,13.57,11.05,20.12,16.84,2.53,2.59,5.93,4.68,7.7,7.86,1.58,3.1-1.18,7.09-4.6,6.98-2.88.01-4.5-2.56-6.49-4.25-20.5-18-40.48-34.09-59.93-48.69-10.45-8-21.75-15.03-32.05-23.14-3.19-3.8,1.74-9.43,5.99-6.82Z"/>
    <path class="st0" d="M1084.89,587.02c25.31,0,48.49,9.08,66.46,24.19.32,17.44.58,34.87.78,52.31.54,28.1,1.68,56.24.95,84.35-.28,7.19-.73,14.37-1.27,21.54-18.04,15.34-41.39,24.58-66.92,24.58-57.14,0-103.47-46.33-103.47-103.47s46.33-103.49,103.47-103.49h0Z"/>
    <path d="M1066.59,651.17c.5-5.57,8.88-6.11,10.24-.7,5.78,20.07,11.28,40.21,16.69,60.38.64,3.34,2.45,6.65,2.28,10.05-.22,3.65-4.84,5.78-7.87,3.87-3.17-2-2.97-6.28-4.17-9.48-1.54-5.63-3.05-11.26-4.55-16.9-2.89-10.99-5.99-21.92-9.07-32.85-.95-3.42-1.89-6.85-2.87-10.26-.34-1.34-1.03-2.71-.68-4.11h0Z"/>
  </g>
</svg>