<?xml version="1.0" encoding="UTF-8"?>
<svg id="Layer_1" xmlns="http://www.w3.org/2000/svg" version="1.1" viewBox="0 0 600 390">
  <!-- Generator: Adobe Illustrator 29.6.0, SVG Export Plug-In . SVG Version: 2.1.1 Build 207)  -->
  <defs>
    <style>
      .st0 {
        fill: #fff;
      }

      .st1 {
        fill: #ff2a0c;
      }

      .st2 {
        fill: #0f0820;
      }
    </style>
  </defs>
  <path class="st0" d="M49.2,224.5c2.6,7.2,0,16-6,20.8-4.1,3.2-9.4,4.6-13.7,7.5-9.6,6.6-12.1,19.5-13.2,31-1.7,17.6-1.9,35.4-.7,53,.3,3.8.6,7.7,2.5,11.1,4.1,7.3,13.8,9.2,22.2,10,28.5,2.9,56.2,5,84.7,2.4,14.6-1.3,29.3-3.4,42.8-9.2,4.2-1.8,8.5-4.1,11-8,2.6-4.1,3.8-11.3,3.7-16.1-.1-13.9-1.1-27.8-2.8-41.6-1.6-12.2-4.5-25.7-14.8-32.8-5.1-3.5-11.7-5.4-14.9-10.6-3.4-5.7-1.3-13.3-4.3-19.3l-96.6,1.8Z"/>
  <path class="st2" d="M48.6,234.5s0,0,0,0c0,.1-.2.4,0,0Z"/>
  <path class="st2" d="M183.6,313c0,.3.2.4,0,0-.1-.5-.2-.9-.3-1.4-.2-.6-.3-1.4-.9-1.8-.9-.6-2.1.4-1.8,1.4.7,2.8.5,2.7.5,5.8.4,5.4.1,13.5-2.3,19.9-2.1,7.1-9.2,11.5-17.2,13.7-6.8,2.1-13.7,3.6-20.7,4.9-15.3,2.8-33.8,3.7-51.8,3.6-9.5,0-19.1.4-28.5-.4-7.8-.7-16.3-2.4-25.1-4.2-5.9-1.4-9.7-2.6-14.4-6.2-2.2-1.6-4.7-4.3-5.2-8.1-1-4.2-.5-10.3-.4-15.8.2-6,0-12,0-18,.2-12.2-.8-23,3.8-33.9,1.8-5,5.3-11.8,8.9-15.5,2.2-2.4,4.3-3.4,7.6-5.4,5.4-2.8,10.6-6.3,13.7-11.6.8-1.2,1.4-2.5,2-3.8.3-.6.5-1.4.1-2.1-.7-1.2-2.7-1-3.1.3,0-.1,0-.2,0,.2-1.5,3.9-5.1,8.1-7.2,9.5-3.6,2.8-7.9,4.6-11.7,7.2-8.2,5.7-12.1,15.5-15.2,24.6-3,10.6-2.2,21.8-2.3,32.8,0,6.3.1,12.5-.2,18.8-.1,5.2-.4,10.6,1.2,15.6,1.1,3.5,3.6,6.3,6.6,8.3,6,4.7,13.7,6.2,21.1,7.7,6.9,1.3,13.8,2.5,20.7,3.1,9.6.7,19.3.4,29,.3,19.8,0,39.9-.8,59.3-5.2,9.6-2.2,20-4.4,27.4-11.4,5.9-5.5,7.7-15.8,7.7-24.6-.1-2.8-.3-5.6-1.1-8.2Z"/>
  <path class="st2" d="M184.9,304.9c-.1-1.6-.2-3.2-.3-4.8-1.5-17.1-3.6-36.9-18.4-48-6-4.5-13.7-8.8-15.3-13.8-.7-1.5-1.9-6.2-1.9-8.4,0-.8-.5-3.7-.5-3.1-.1-.6,0-1.3-.5-1.7-.7-.8-2.2-.2-2.2.9.1,1.5,0,3,0,4.5-1.1,0-2.3-.1-3.4-.1-20.5.2-41,.9-61.6,1-7.8,0-15.5-.5-23.3-.6-1.7,0-3.4-.3-5.1,0,.1,0,.3,0,.4,0-1.3,0-3.1,0-3.6,1.4-.2,1.6-.3,1.8-.3,2.8,0,0,0,0,0,.1,0,.3,0,.6-.2.9-.1,1-.7,1.9-.7,2.9,0,0,0,0,0,.1-.2,0-.3,0-.5,0-.3,0-.7.1-.9.4-.8.8-.2,2.2.9,2.2,19.1.3,38.3.5,57.4.1,13.9-.4,27.9-1.9,41.8-1.3.3,0,.7,0,1.1,0,.5,1,1,2,1.6,2.8,3.8,4.7,9.2,7.7,14,11.3,1.5,1.1,3,2.4,4.4,3.8,0,.2-.2.4-.2.5-2.9,6.5-22,7.3-30.9,8.2-2.1.2-4.1.5-6.2.5-.8,0-.9,1.3,0,1.3,8,0,16.1-.1,24.1-1.4,5.3-.9,12.3-1.9,15.1-7,2.5,3,4.5,6.4,5.7,10,4.3,12.9,5.1,25.2,6.2,36.1,0,1.3,1.7,2.1,2.6,1.1.7-.7.3-1.8.3-2.7Z"/>
  <path class="st2" d="M60.9,270.8c-1-.4-.6,0-1.6,0-8.2,1-17.2.2-23.9-2.8-2.1-.8-4.3-2.3-5.6-3.3-.4-.3-.8-.8-1.3-.9-.7,0-1,.9-.6,1.3,8.6,7.6,21.8,8.7,32.8,7.9.9-.3,1-1.7.1-2.2Z"/>
  <path class="st2" d="M127.3,263.1c-.1-1.1-.1-2.7-1.3-3.2-.2,0-.3-.1-.6,0,0,0,0,0,0,0-.2,0-.5,0-1,0-2.3,0-4.6.2-7,.3-.6,0-1.3,0-2,0,0-.4-.2-.8-.3-1.2.1-1.5,0-3.3-2.1-3.6-6.3-.6-12.6-.2-19-.3-3.3,0-6.6.2-9.8.9-1.3.3-2.7.9-3.6,1.9-.8.9-.9,2.2-1.1,3.4,0,0,0,.1,0,.2-.2,0-.4,0-.6,0-2,.3-4.7,0-6.2,1.7-.4.6-.3,1.4-.3,2.2.1.9.5,2.4,1.7,2.3,1.6-.3,3.7-.1,5.6-.3.3.9.6,1.7,1.1,2.5,1.3,2,2.8,2.7,4.4,2.7,7.7.1,15.4-.2,22.9-1.4,2.2-.5,4.6-.9,6.4-2.4.5-.5.8-1.1.9-1.8,2.2-.3,3.6-.4,5.9-.7,1.6-.2,3.2-.4,4.8-.9.5-.2.9-.4,1.2-.9.3-.5,0-1.1,0-1.7ZM74.3,266.5c-.3-.3-.4-1.9-.3-2.2,0,0,.2,0,.3-.2,0,0,0,0,.1,0,.4-.2,2.5-.6,3.7-.8.4,0,.7,0,1.2-.1,0,.8,0,1.4,0,1.5,0,.5,0,1,0,1.5-1.8.2-4,.5-5.1.3ZM116.2,265c-.2,0-.3,0-.4,0,0-.2,0-.3,0-.5,0-.9,0-1.7-.2-2.6,2.4-.3,7.2-.6,9.4-.6,0,0,0,0,.1,0,0,0,0,0,0,0,.2.6.3,1.1.3,1.2.1.7.1.7.2,1.5-1.8.7-6.3,1.1-9.5,1Z"/>
  <path class="st2" d="M98.7,309.3s0,0,0,0c0,0,0,0,0,0Z"/>
  <path class="st2" d="M108.8,273.5c-.1,0-.3,0-.4,0-5.6.1-11.2.7-16.7,1.2-1.2.1-2.4.2-3.6.2-.2,0-.4,0-.5.2,0,0-.1,0-.2,0-1,.6-.1,2,0,2.9.3.9.6,1.9.9,3.4,1.3,4.5,2.2,9,3,13.6.8,4.2,1.5,8.4,2.7,12.6.2.6.6,1.6,1.7,2.1.8.4,1.7.6,2.6.7,1,.3,1.2.2,2.8.2.3,0,.4,0,.4,0,.3,0,.5,0,.8,0,1.2-.1,2.4-.5,3.4-1.3.4-.3.7-.6.9-1.1,0,0,0,0,0-.1,0,0,0,0,0,0,1.2-4.9,1.6-13.7,2.2-19.6.5-5,.8-9.5,1.2-14,0-.7-.7-1-1.2-.9ZM106.2,299.9c-.3,3-.6,6.5-1.1,7.2-.4.3,0,.4-1.2,1.1-.4.3-1.4.5-2.4.8-1.2.2-2.1.2-2.8.3,0,0-.3,0-.4,0-.3,0-1.1-.2-1.3-.3-.7-.4-1.1-.7-1.4-.9-.5-.8-1.3-4.4-1.9-6.7-1.5-6.9-2.6-14.5-3.8-20.2-.3-1.3-.5-2.3-.8-3.8,0,.5,0-.5-.2-.9,2,0,4.1-.3,6.1-.5,4.3-.3,8.7-.7,13-1-.2,8.2-.9,17.5-2,24.8Z"/>
  <path class="st2" d="M164.8,335.9c-.8-2.5-4.3-.2-6,0-3.4.9-6.9,1.8-10.4,2.6-20.7,4.9-37.7,7.2-58.9,7.5-12.4.2-27-.2-38-1.8-6.6-1.1-13.3-2.1-19.7-4.2-3.3-1.1-5.4-1.9-8.3-3.1-1.2-.2-1.9,1.6-.8,2.2,7.8,4.1,16.5,6.1,25.2,7.4,9.4,1.4,19,2.1,28.5,2.3,24.4.7,48.9-1.5,72.6-7.4,3.8-.9,7.6-1.9,11.4-2.8,1.6-.5,4.7-.3,4.3-2.7Z"/>
  <path class="st1" d="M85.3,184.4s.1,0,0,0c0,0,0,0,0,0Z"/>
  <path class="st0" d="M175.2,64.8c9.8,0,17.7-7.9,17.7-17.7v-26.2c0-9.8-7.9-17.7-17.7-17.7H19.7C9.9,3.2,2,11.1,2,20.9v26.2c0,9.8,7.9,17.7,17.7,17.7h4.5v6.2h-4.5c-9.8,0-17.7,7.9-17.7,17.7v42.4c0,9.8,7.9,17.7,17.7,17.7h4.5v6.2h-4.5c-9.8,0-17.7,7.9-17.7,17.7v42.4c0,9.8,7.9,17.7,17.7,17.7h155.5c9.8,0,17.7-7.9,17.7-17.7v-42.4c0-9.8-7.9-17.7-17.7-17.7h-4.5v-6.2h4.5c9.8,0,17.7-7.9,17.7-17.7v-42.4c0-9.8-7.9-17.7-17.7-17.7h-4.5v-6.2h4.5Z"/>
  <path class="st2" d="M91,120.3c2.4-10-3.8-20.1-13.9-22.4-10-2.4-20.1,3.8-22.4,13.9-2.4,10,3.8,20.1,13.9,22.4,10,2.4,20.1-3.8,22.4-13.9Z"/>
  <path class="st2" d="M136.6,105.3c4.4-4.1,4.5-11,.4-15.4-4.1-4.4-11-4.5-15.4-.4-4.4,4.1-4.5,11-.4,15.4,4.1,4.4,11,4.5,15.4.4Z"/>
  <path class="st2" d="M45.3,232c-5,.1-11.9-.4-15.9,0-.7.2-.9,1.2-.3,1.7.4.4,1,.3,1.5.3,4.8.2,9.6-.3,14.4-.2,1.5.3,1.9-1.7.4-1.9Z"/>
  <path class="st2" d="M24.2,231.8c-2.8.2-5.4,0-8.5-.9-.1,0-2.4-1.1-3.2-1.6-3.8-2.2-5.7-4.4-7.7-8.7-3.3-8.8-1.7-22.8-2.2-34.2-.3-1-1.8-1-2.3-.2-.3.7,0,1.5-.2,2.2,0,5,0,10,0,15,0,5.8-.1,13.3,1.9,17.5.3,1.2,3.2,5.8,5.8,7.9,2.3,1.9,3.3,2.3,5.7,3.3,2,.6,5.7,1.1,8.6,1,.9,0,1.9,0,2.7-.3.6-.4.1-1.4-.6-1.2Z"/>
  <path class="st2" d="M24.7,148.5c-1.1-1.5-3.2-1.2-4.8-1.2-2.1,0-3.2,0-4.8-.5-.6,0-.6-.5-1.6-.4-.6.2-.9.9-.6,1.5.4.6,1.2.7,1.9,1,2.6.8,6.3.2,8.1.7,0,0,0,0,0,0,0,0,.1,0,.1,0,.1.1.2.2.3.3,0,.1.2.3.2.4.4,1.1.2,2.5,0,3,0,0,0,0-.1.1,0,0,0,0,0,0-3.3.7-7.7.4-11.4,2.2-4.8,2.1-8.4,6.5-9.7,11.6-1,4.7-1.1,9.7-1,14.5.4,1,2,.7,1.9-.4.2-5.9,0-12.4,2.1-16.6,2.3-4.3,5.5-6.9,10.1-8.1,2.7-.7,5.1-.6,8.4-1.2.4-.1.9-.4,1.2-.7.6-.6.8-1.6.9-2.4.2-1.4,0-2.8-1-3.9Z"/>
  <path class="st2" d="M23.7,66.6s0,0,0,0c0,0,0,0,0,0h0Z"/>
  <path class="st2" d="M25.6,66.1c0-.3-.1-.7-.3-1-.7-1.2-2-1.5-3.8-1.4,0-.1-1.3,0-1.7-.1-2.3-.2-3.8,0-5.7-.5-.7-.2-1.5-.5-1.9-.7-.3-.2-1,0-.8.6.2.5.8.6,1.3.8,1.4.7,3.8,1.2,5.6,1.6.6,0,3.3.4,3.1.2.5.2,1.1.2,1.7.4,0,0,.2,0,.3.1,0,0,0,0,0,0,0,0,0-.1,0,0,0,0,0,0,0,0,0,.1,0,.1,0,.1,0,0,0,.2.1.2,0,0,0,0,0,0,0,0,0,0,0,.2,0,0,0,0,0-.1,0,0,0,.2,0,.3,0,0,0,0,0,0,0,.1,0,.6,0,.8,0,0,0,0,0,0-.1.3-.2.6-.3.9-.4.7-.1.3-.4.7,0,0,0,0,0,0-2.1.2-7.3.6-11.3,2.4-4.3,2.1-8,5.4-9.2,9.1-1.5,5.2-1.6,9.6-2,16.2C.3,103.2,0,109.3,0,115.3c.3,6,.3,12.1.7,18.2.3,4.2,2.5,7.9,5.4,10.9,1,1.2,2.2,2,3.5,2.9.2.1.5.2.8,0,.7-.2,1-1.1.4-1.6-3.2-3.5-5.5-5.8-7.1-11-.7-2.7-.5-4-.8-7.5-.3-4.2-.3-8.4-.2-12.7,0-6,.2-12.1.5-18.1.2-5.1.2-9,1.5-13.4,2.2-5.7,10.4-10.7,18.1-11.2,2.9-.2,2.5-3.1,2.6-4.3,0-.7,0-.5.1-1.4,0,0,0,0,0,0Z"/>
  <path class="st2" d="M23.5,66.3c-.1,0-.1,0,0,0,0,0,0,0,0,0Z"/>
  <path class="st2" d="M13.9,3.5c-.8-.5-1.6,0-2.3.3-2.1.9-3,1.7-4.1,2.6C.4,11.8-.1,21.2.2,29.4c0,4.4.3,8.8.5,13.2.1,3.1.2,6.2.8,9.3.6,2.7,1,3.9,2.6,6.1.3.5,1.4,1.7,2.5,2.7.5.4.8,1.2,1.6,1.2.8,0,1.3-1.1.7-1.6-1.4-1.6-2.2-2.4-3.4-4.7-1.6-3.5-2.2-8.5-2.5-13.2-.4-9.8-1.3-18.5,1.3-26.7,1-3,3.9-6.2,6.9-8,1.5-1.1,2.6-1.1,3.3-2,.4-.7.2-1.7-.5-2.1Z"/>
  <path class="st2" d="M191.1,11c-1.6-2.2-2.9-3.8-4.1-4.6-4.4-3.3-10.1-4.1-15.5-4.5-5.3-.5-10.5-.8-15.8-1.1-12-.5-24-.9-36-.7-17.2.4-34.4,0-51.6.3-11.6,0-23.2.5-34.8.8-4.6.2-9.2,0-13.7.5-1.4.5-1,2.8.6,2.8,12.7-.2,25.3-1,38-1,18.9-.2,37.8.3,56.8.1,6,0,12-.3,18-.3,7.9.2,15.9.7,23.8,1,10.5.6,21.7.5,28.6,4.5,2,1.2,2.7,2.2,4.2,4,.2.3.5.6.7.9,0,0,0,0,0,0,.2.4.6.6,1.1.5,1.8-.4.5-2.2-.2-3.1Z"/>
  <path class="st2" d="M194,18.5c0-1.1-1.6-1.1-1.7,0,.1,9,.6,19.5-.2,27.2-.9,5.9-3.8,13.3-8,15.8-1.7,1.2-4.4,1.9-7.4,2-1.6,0-3.3-.3-4.8.3-1.7.6-2.2,1.3-2.6,1.5-1,.9-1.8,2.1-1.9,3.5,0,1.3.7,2.6,1.9,3.2,1.2.8,2.9.3,3-1.3,0-.5-.2-.9-.5-1.2-.1-.2-.5-.4-.8-.5,0,0-.1,0-.2-.1,0,0,0,0,0,0,0-.5.1-1.3,1-2,.9-.6.8-.6,2-.8,1.3,0,2.6,0,4,0,4.7-.3,8.3-2.2,11-4.6,2.8-2.6,4.2-6.3,5.3-9.9,1-4.4,1.1-5.2,1.1-9.9.1-7.9,0-17.4-1-23.1Z"/>
  <path class="st2" d="M194.1,85.7c-1.1-5.5-3.2-9.1-7.6-12.1-2-1.3-4.3-2.2-6.7-2.7-1-.1-2.1-.6-3-.2-.9.5-.7,2,.3,2.2,6.4.9,10,3.9,12.1,7.8,1.3,2.1,1.9,5.3,2.1,7.2.4,2-.4,4.5,1.7,4.6,1.6-.3,1.3-1.1,1.4-2.1,0-1.6-.1-3.2-.4-4.7Z"/>
  <path class="st2" d="M183.1,145.1c.2,0,.2,0-.1,0,0,0,0,0,.1,0Z"/>
  <path class="st2" d="M194.4,97.1c0-.2,0-.4-.2-.6-.5-.5-1.5-.1-1.5.6-.6,8.3-1,16.6-1.1,24.9-.2,6.1,0,11.2-2.2,16.4-.3,1.1-2.7,5.2-6.3,6.6,0,0,0,0,0,0,0,0,0,0,0,0-.1,0-.9.3-1.2.3-2.6.6-4.2.6-7.3,1.1-1.8.4-2.5.6-4.3,1.8-1.8,1.5-1.8,2-2,2.5-.1.3-.3.6-.3.9,0,0,0-.1,0-.2-.7,1.7.8,3.7,2.5,4.1.7.3,1.4.4,2.2.5.5,0,1.1.2,1.6,0,1.3-.4,1.4-2.4.2-3-1.4-.5-2.4-.3-3.2-.8,0,0,0,0,0,0,0,0,0,0,0-.1,0,0,0,0,0-.1,0,0,0-.1,0-.2,0,0,0-.1,0-.2,0-.1,0-.2.1-.3.5-.9.3-.7,1.4-1.6.8-.6,2-.7,5.1-.9,5.7-.4,10.3-2.3,13.6-7.2,2.9-5.6,2.6-15.7,3.2-23.9,0-5.7.1-11.4,0-17,0-1.2,0-2.4,0-3.7Z"/>
  <path class="st2" d="M194.4,192.7c-.1-9.6,1.1-19.8-2.6-28.9-1.1-2.6-3-4.8-5.3-6.4-1.2-.8-2.4-1.4-3.7-2-.8-.3-1.6-.9-2.4-.9-1.1,0-1.2,1.7-.1,2,10.3,4.1,11.1,15.1,11.1,27.6,0,10.6.6,23.5-.7,32.5-.2,2.9-2.3,8.6-4.6,10.8-1.2,1.2-1.6,1.6-2.4,2.2-.8.6-2.1,1.1-1.8,2.3,1,3.8,5.7-1.1,7-2.6,1.6-1.8,2.8-3.9,3.6-6.1,1.5-3.7,1.7-7.7,1.9-11.7.3-6.3.2-12.6,0-18.9Z"/>
  <path class="st2" d="M176,231.4c-7.3.7-17.4.7-22.6.3-1.6,0-1.6,2.4,0,2.4,5.9,0,11.9-.3,17.8-.5,1.6,0,3.2-.1,4.8-.3.3,0,.5-.1.7-.3.6-.6.1-1.6-.7-1.6Z"/>
  <path class="st2" d="M165.1,144.6c-2-.5-3.9-.3-6.5-.4-12,0-23.9.5-35.9.5-19.5-.3-39-.2-58.5,0-9.1-.1-18.1-.2-27.2,0-1.7,0-3.3,0-5,.1-.3,0-.5,0-.7.2-.6.5-.2,1.6.6,1.6,19.7-.3,39.4.2,59.1-.2,18.9,0,37.7.5,56.6.3,5.7-.2,13.6,0,17.4-.3.8-.2.9-1.4.2-1.9Z"/>
  <path class="st2" d="M167.2,160.6c-.8-.1-2.1-.4-3.2-.6-6.5-1.3-15.5-1.4-23.2-1.6-17-.4-34.1-.5-51.1-.7-17.3-.3-34.5-.6-51.8-.7-4.3,0-8.6-.2-12.8,0-.9.3-.8,1.9.3,1.9,37.5,1.1,75,.8,112.5,1.8,8.4,0,16.8,1,25.2,1.4,1.4,0,2.9,0,4.3.2.6,0,1.5.2,1.6-.6,0-.9-1.1-.7-1.7-.9Z"/>
  <path class="st2" d="M155.6,70c-31.6,1.2-63.2.8-94.7,1.5-8.2,0-16.4,0-24.6,0-2.4,0-4.8,0-7.2,0-.3,0-.6.1-.8.3-.7.7-.2,2.1.8,2,18.6,0,37.1-.6,55.7-.7,22.7,0,45.4.2,68.1,0,1.2-.2,2.9.3,3.9-.5.9-.9.2-2.7-1.1-2.6Z"/>
  <path class="st2" d="M160.9,61.9c-.3-1-1.3-1.2-2.2-1.1-1.5,0-3,0-4.5,0-6.3,0-12.6.1-18.9,0-17.8-.2-35.6-.9-53.4-.6-13.6.2-27.2,0-40.8.3-3,.2-6.1.1-9.1.4-.7.3-.5,1.5.3,1.4,28.2.4,56.5-.3,84.7.3,11.3.3,22.7.5,34,.7,2.5,0,5.1.2,7.6.2,1.2.2,2.5-.4,2.2-1.8Z"/>
  <path class="st2" d="M171.2,12.8c-11.1-.6-22.3.2-33.5.2-27.7,0-55.4-.6-83.1-.4-9.1,0-18.2,0-27.3.5-.7.1-1.6,0-2.3.3-.3.3-.1,1,.4,1,20.3.7,40.6.7,61,.7,25,.4,50,.6,75,0,3.4-.2,6.9.3,10.3.1,1.2-.4.8-2.4-.5-2.3Z"/>
  <path class="st2" d="M183.1,35.8c-.3-5.6-.7-14.5-1.1-18.4-.2-1.7-1.8-5.7-4.1-4.8-1.3.5-1.4,2.3-.3,3,0,0,0,.1.1.2.9,1.4.5,1,1.1,2.5.9,3.3,1.9,14.6,1.3,22.6,0,0,0,.1,0,.2-.2,1.3-.4,2.6-.9,3.8,0,.2-.2.4-.3.6-.7,1.1-.4.6-.9,1.3,0,0,0,0-.1.1-.1.1-.3.2-.4.3-.3.1-.6.2-.9.2-.9-.2-1.8-.5-2.6-.8-.1,0-.3,0-.4-.1,0,0,0,0,0,0,0,0,0,0,0,0-.2,0-.2-.1-.1,0-3.8-1.6-7.1-4.1-10.8-5.9-6.6-3-14-5-21.2-3.9-10.5,1.8-18.6,7.1-28.3,9.9-7.3,2-14.9,2.1-22,.8-5.1-.9-10.1-2.6-15.2-3.4-5.8-1-13.5-1.2-19.8.8-5.5,1.8-8.2,3.5-13.1,5.1-4.4,1.2-7.6,1.4-12.3,1.5-.2,0-.4,0-.6,0-.5-.2-1.2,0-2,0-3.5,0-6.6-.3-10-1.1-1.4-.3-2.7-.8-4-1.2-.5-.4-.9-1-1.2-1.7-.9-2.5-.6-8.7-.8-12.9,0-3.7,0-7.4.5-9.7.5-2.8.9-4.4,2.3-6.6.5-.7.8-1.1,1.8-1.6,0,0,0,0,0,0,.6-.3,1.3-.4,2-.6.2,0,.4,0,.2,0,.7-.1,1.5,0,2.1-.4.7-.6.2-1.8-.7-1.8-2.2.4-4.8.3-6.4,2.1-2.4,2.6-3.1,6.4-3.4,9.8-.3,3.7-.5,7.4-.6,11.1,0,2.1.2,6.3.3,7.4.1,1.4.2,2.9.8,4.2.1.3.3.5.4.8-.1.4,0,1,.6,1.1.2,0,.3.1.5.2,2,1.9,5.2,2.5,7.9,2.8,1,.2,4.9.4,6.9.3.7,0,1.6,0,2.4,0,4.7,0,9.4-.1,13.9-1.3,5.1-1.5,8.5-3.5,13.1-5.1,4.7-1.5,8.3-1.9,13-2,6.6,0,13.1,2.6,20.1,4,7.1,1.4,14.3,1.4,21.4.1,8.4-1.6,14.6-5.4,22.3-7.9,6.6-1.8,11.2-2.3,17.1-1.3,4.9,1,9.2,2.1,12.8,4.2,3.8,2.2,7.4,4.3,10.8,5.6,1.5.4,4.3,1.9,4.8-.2,4.2-2.5,3.7-9.1,3.7-13.5Z"/>
  <path class="st2" d="M173.7,46.3c0,0-.1,0-.1,0,0,0,0,0,.1,0h0Z"/>
  <path class="st0" d="M63.7,105.8c-2.1,2.3-3.4,5.3-4,8.3-.1,1.4-1,3.6.7,4.3,1,.5,2.4-.4,2.4-1.6,0-.2,0-.8.1-1.2.6-3.5,1.8-5.8,3.3-7.5,1.6-1.6-.8-4-2.4-2.4Z"/>
  <path class="st2" d="M126.2,210.8c6.3-5.8,6.7-15.7.9-22-5.8-6.3-15.7-6.7-22-.9-6.3,5.8-6.7,15.7-.9,22,5.8,6.3,15.7,6.7,22,.9Z"/>
  <path class="st0" d="M108,190.9c-1.8,1.9-2.8,4.4-3.4,7,0,1.2-.8,3,.6,3.6.9.4,2-.3,2-1.3,0-.2,0-.7,0-1,.5-3,1.5-4.8,2.7-6.2,1.3-1.3-.7-3.3-2-2Z"/>
  <path class="st0" d="M126.7,90c-1.8,1-3,2.7-3.7,4.6-.3,1.2-1.3,3,0,3.9.6.6,1.7.4,2.2-.1.5-.5.5-1.3.8-2,.5-1.3.2-.9,1-2.3.2-.2.4-.5.6-.7.1-.2.4-.1,1.2-.9,1.2-1.4-.7-3.5-2.2-2.5Z"/>
  <path class="st2" d="M184.3,174.3c-.8-4.8-2.2-8.4-7.2-10.2-.5-.2-1.1-.6-1.7-.3-.6.3-.5,1.4.2,1.5,2.6.9,4.4,2,5.6,4.8,1.6,3.6,1.6,9.1,1.5,14,.1,4.7.1,11.7.5,14.6.2.6,1.1.8,1.6.3.5-.7.2-.4.3-1.2,1-7.3.7-15.9-.9-23.7Z"/>
  <path class="st2" d="M185.4,106.3c0-3,0-5.9,0-8.9-.3-5.2-.2-10.8-3-15.4-.9-1.5-2.1-3-3.8-3.7-.9-.4-1.9-.7-2.9-.9-.4,0-.8-.2-1.2,0-.8.4-.6,1.6.2,1.8,1.9.4,2.8.5,4.1,1.5.5.4,2,2.2,2.6,3.9,0,.2.4,1,.7,1.9.2.5.6,3,.5,2.6.7,5.4.7,10.8.6,16.2,0,1.5,0,3.1,0,4.6,0,.3.1.5.3.7.4.5,1.3.4,1.6-.2.3-1.3,0-2.8.2-4.1Z"/>
  <path class="st2" d="M16.7,135.6c-1-1.2-1.4-.9-2-1.6-1.1-1.1-1.1-1.4-1.7-3.1-1.3-4.5-1-10.3-1.3-16.1.3-2.1-2.7-2.6-2.8-.4.2,6.8-1.6,16.6,3.4,22,.9.8,2,2,3.4,1.7,1-.3,1.6-1.6,1-2.5Z"/>
  <path class="st2" d="M21.4,222.2c-.6-.5-1.4-.6-2.1-.9h-.2c0,0-.8-.4-1-.6-.2,0-.8-.5-1.1-.6-4.5-3.6-4.7-11-5.5-17.2,0,0,0-.1,0-.2,0-.6,0-1.2-.4-1.6-.6-.7-1.8-.2-1.8.7,0,5.3-.4,8.8.9,13.5.7,2.3,1.7,4.6,3.4,6.3,1.2,1.3,2.8,2.2,4.5,2.8.9.3,2,1,3,.4.9-.5,1.1-1.9.3-2.7Z"/>
  <path class="st2" d="M68.8,213.5c0-2.2,1.8-3.9,3.9-3.9s3.9,1.8,3.9,3.9-1.8,3.9-3.9,3.9-3.9-1.8-3.9-3.9Z"/>
  <path class="st2" d="M34.3,181.3c3.6,0,6.6-2.9,6.6-6.6s-2.9-6.6-6.6-6.6-6.6,2.9-6.6,6.6,2.9,6.6,6.6,6.6Z"/>
  <path class="st2" d="M85.9,86.5c0-3.6,2.9-6.6,6.6-6.6s6.6,2.9,6.6,6.6-2.9,6.6-6.6,6.6-6.6-2.9-6.6-6.6Z"/>
  <path class="st2" d="M34.3,107.6c0-2.4,1.9-4.3,4.3-4.3s4.3,1.9,4.3,4.3-1.9,4.3-4.3,4.3-4.3-1.9-4.3-4.3Z"/>
  <path class="st2" d="M106.1,130c0-2.4,1.9-4.3,4.3-4.3s4.3,1.9,4.3,4.3-1.9,4.3-4.3,4.3-4.3-1.9-4.3-4.3Z"/>
  <path class="st2" d="M60.3,222.8c0-1.5,1.2-2.7,2.7-2.7s2.7,1.2,2.7,2.7-1.2,2.7-2.7,2.7-2.7-1.2-2.7-2.7Z"/>
  <path class="st2" d="M21.5,76.6c-2.3.9-4.5,2.2-6.1,4.2-2.4,2.8-3.8,6.5-4.2,10.1-.2,1.8-.4,3.5-.5,5.3,0,.6,0,1.3.5,1.8.7.8,2.1.6,2.7-.3.5-1.5.3-3.3.6-4.9.2-4.5,2.3-9.2,5.1-11.7.5-.5,1-.9,2.3-1.6.5-.3,1.2-.4,1.5-.9,1-1.1-.5-2.8-1.8-2Z"/>
  <path class="st2" d="M223.1,295.7c16.2,30.6,49.8,48.3,83.3,56.8,33.6,8.4,68.6,9.4,102.6,16.1,18.8,9.9,39.9,18.8,61.9,17.4,10.9-.7,21.4-4,32.3-4.5,10.3-.5,20.7,1.6,30.1,6,4.1,1.9,9.6,4.1,12.7.8,2.8-3,1-7.9-1.6-11.1-8.7-10.8-23.4-14.4-37-17.4-13.6-3-28.3-6.8-36.6-18,14.6,5.6,29.5,11,44.4,16.3,8.7,3.1,17.4,6.2,26.4,8.2,9.7,2.1,19.8,2.9,29.1,6.4,6.8,2.5,13.1,6.4,20.2,8,3.6.8,8.5.2,9.2-3.4.3-1.4-.3-2.8-.9-4.1-5.6-12.1-17.5-20-29.4-26-11.9-6-24.6-10.9-34.6-19.7-15-13.2-21.7-33.3-32.2-50.3-10-16.3-23.9-30.2-40.2-40.3,12.9-11.6,21.9-29.9,20.9-48-1.1-21.3-14.7-40.2-16.7-61.5-.8-8.1.2-16.3,2.8-24,1.7-4.9,4-9.7,4.1-14.9,0-5.2-3.1-10.9-8.3-11.4-3.4-.3-6.6,1.6-9.2,3.9-10,8.6-15.2,21.7-16.1,34.9-.9,13.1,2.2,26.2,6.8,38.5,3.3,9,7.4,17.7,9.8,27s2.7,19.5-1.2,28.2c-6,13.2-22.5,20.5-36.3,16.2-3.6-3.2-9.8-4.4-15.8-4.6-6-.2-12,.6-18,.5-13.1,0-26.2-3.9-37.3-10.9-6.5-4.1-12.2-9.3-18.7-13.3-7.7-4.9-16.4-8.1-24.9-11.3-1.2-9.1,2.5-17.4,3.6-26,.9-6.6.2-13.5-1.9-19.8,2.8-9.7,3.9-19.7,3.1-29.5-.2-2.8-1.1-6.2-3.8-6.9-1.5-.4-3.1.2-4.6.9-6.5,3-12.6,6.5-18.5,10.6-14.1-6.6-29.4-9.6-44.6-9.3-5.2-6.2-11.6-11.4-18.8-15-1.5-.8-3.3-1.4-4.8-.8-1.8.7-2.5,2.9-2.8,4.8-1.5,9.2,1.1,18.7-.7,27.9-7.2,14.8-13.2,31.3-10.7,47.7,1.6,10.6,6.8,21.7,2.3,34.4-14.1,30.2-24,62.4-29.4,95.3-1.8,11-2.9,23.2,3.1,32.6,5.6,8.7,16,13,25.7,16.6,13.7,5.2,27.4,10.4,41.7,13.7,2.8.7,5.8,1.2,8.6.4,2.8-.8,5.2-3.5,4.8-6.4-.2-1.6-1.3-2.9-2.3-4-7.2-8-17.7-12.3-25.6-19.6-13.9-13-17.7-35.6-8.7-52.3-.8,4-.1,8.2,3.1,14.2Z"/>
  <path class="st0" d="M223.4,106.6c-.8-2.4-2.1-4.6-3.8-6.4-1.3-1.2-2.3-2.2-3.8-2.8-.9-.2-1.4,1.2-.6,1.7,2.5,1.6,4.9,4.8,5.8,7.3.3.5.2,1.2.8,1.6.8.5,1.8-.4,1.5-1.3Z"/>
  <path class="st0" d="M219.5,108.4c-.5-1.5-1.3-2.9-2.2-4.1-.5-.6-.9-1.5-1.8-1.2-.7.2-1,1-.7,1.6,1.3,1.7,1.6,2.3,2.1,4.1.2.7.2,1.5.9,1.9,1.6.7,2.4-.9,1.7-2.3Z"/>
  <path class="st0" d="M299.7,109.8c-4,2.3-10.4,7.4-10.6,9.3,0,.8.8,1.4,1.5,1.2.6-.3.5-.3,1.2-1.1,1.2-1.5,2.6-2.7,4.1-3.9.4-.4,2.6-1.8,3.9-2.7.6-.4,1.4-.7,1.6-1.4.3-1-.9-2-1.8-1.4Z"/>
  <path class="st0" d="M300.7,115.9c-2.8,1.3-4.9,3.4-6.7,5.9-.5.7-1,1.5-1.4,2.3-.4.6-.5,1.5,0,2.1.7,1,2.3.8,2.8-.2.4-1,1-1.9,1.5-2.8,1.6-2.4,2.5-3.5,5.1-5,1.6-.9.2-3.3-1.4-2.4Z"/>
  <path class="st0" d="M254.4,155.2c0-.1-.1-.3-.3-.5-.1-.2-.3-.4-.5-.5,0,0-.1,0-.2,0-2.3-1.7-8.2-3.2-8.9-.4,0,.5,0,.9.2,1.4.2.6.2.5.6,1.4,1.1,1.6,1.7,2.8,3.3,3.3,1.5.2,1.7-.4,2.8-.9,1-.5,1.8-1.2,2.3-1.9.4-.5.7-1.1.5-1.7Z"/>
  <path class="st0" d="M290,151.1c1.2-7.3-3.8-14.2-11.1-15.3-7.3-1.2-14.2,3.8-15.3,11.1-1.2,7.3,3.8,14.2,11.1,15.3,7.3,1.2,14.2-3.8,15.3-11.1Z"/>
  <path class="st2" d="M272.1,144.6c-.8-.8-2.3-.4-2.6.7-.5,1.4-.9,3.1-1,4.6,0,0,0,0,0,.1,0,.6,0,0,0-.1,0,.3,0,.7,0,1,.3,1.3,2.2,1.7,3,.6.6-1,.3-1.3.5-1.7,0,0,0-.1,0-.2,0-.4.2-1.3.3-1.5.1-1.1.7-2.6-.1-3.5Z"/>
  <path class="st0" d="M230.6,153.7c7.4,0,13.4-6,13.4-13.4s-6-13.4-13.4-13.4-13.4,6-13.4,13.4,6,13.4,13.4,13.4Z"/>
  <path class="st2" d="M225.9,135.9c-.8-.8-2.3-.4-2.6.7-.5,1.4-.9,3.1-1,4.6,0,0,0,0,0,.1,0,.6,0,0,0-.1,0,.3,0,.7,0,1,.3,1.3,2.2,1.7,3,.6.6-1,.3-1.3.5-1.7,0,0,0-.1,0-.2,0-.4.2-1.3.3-1.5.1-1.1.7-2.6-.1-3.5Z"/>
  <path class="st0" d="M419.2,226.7s-.1-.1,0,0Z"/>
  <path class="st0" d="M421.3,227.2c-.5-.8-.9-1.4-1.7-1.7-.3,0-.6.3-.6.6,0,.2.4.7.1.4.1.1.1.2.1.2,0,0,0,0,0,0,.2.3.4.6.6.9,0,.1.2.3.2.3.5,1.1.7,2.4.3,3.7-3.9,11.6-30,13.7-42.1,13.7-11.8-.2-24.6-1.8-34.5-3.4-2.5-.4-4.7-.8-7.3-1.2-.3,0-.5,0-.6.3,0,.3,0,.5.3.6,9,2.6,18.4,3.7,27.7,4.5,12.2,1.3,24.7,1.3,36.7-1.5,7.8-2,18-4.1,21.2-12.6.5-1.7.3-3.5-.6-5Z"/>
</svg>