<svg width="600" height="390" viewBox="0 0 600 390" fill="none" xmlns="http://www.w3.org/2000/svg">
<path d="M49.1801 224.481C51.8206 231.713 49.2742 240.478 43.1516 245.233C39.0429 248.424 33.7573 249.796 29.4719 252.752C19.8429 259.395 17.342 272.217 16.2491 283.755C14.5814 301.365 14.3534 319.106 15.5679 336.752C15.8294 340.552 16.1974 344.482 18.0817 347.807C22.2144 355.101 31.845 356.961 40.2738 357.807C68.7492 360.668 96.496 362.816 124.996 360.209C139.588 358.874 154.318 356.768 167.773 351.044C172.005 349.243 176.273 346.927 178.734 343.085C181.361 338.984 182.512 331.825 182.471 326.974C182.354 313.072 181.417 299.175 179.666 285.38C178.113 273.141 175.129 259.683 164.916 252.564C159.857 249.037 153.181 247.196 150.038 241.932C146.625 236.217 148.751 228.587 145.737 222.658L49.1801 224.481Z" fill="white"/>
<path d="M48.5826 234.486C48.5897 234.456 48.6078 234.435 48.6162 234.406C48.546 234.551 48.4394 234.779 48.5826 234.486Z" fill="#270F03"/>
<path d="M183.602 313.039C183.669 313.335 183.795 313.405 183.669 313.056C183.56 312.587 183.456 312.116 183.339 311.649C183.119 311.02 183.007 310.216 182.404 309.837C181.486 309.28 180.34 310.198 180.628 311.202C181.303 313.993 181.135 313.888 181.168 316.966C181.521 322.38 181.287 330.439 178.9 336.916C176.78 344.028 169.702 348.39 161.735 350.635C154.971 352.75 148.036 354.256 141.074 355.557C125.767 358.324 107.26 359.283 89.2264 359.158C79.7101 359.238 70.1761 359.577 60.6796 358.773C52.8376 358.041 44.3448 356.408 35.5464 354.557C29.6431 353.174 25.8934 351.954 21.1385 348.32C18.9455 346.755 16.4284 343.975 15.8942 340.253C14.9086 336.07 15.3455 329.978 15.4924 324.429C15.6823 318.426 15.4999 312.42 15.5656 306.415C15.7285 294.221 14.8019 283.416 19.3346 272.501C21.1368 267.534 24.6634 260.74 28.2541 257.015C30.4883 254.661 32.556 253.569 35.8995 251.574C41.2809 248.762 46.4653 245.255 49.6232 239.927C50.3855 238.716 51.0489 237.443 51.6064 236.125C51.9342 235.486 52.1529 234.727 51.7354 234.073C51.0563 232.826 49.0185 233.031 48.6143 234.406C48.6739 234.283 48.7076 234.219 48.5356 234.594C46.9858 238.496 43.4614 242.645 41.354 244.137C37.7265 246.949 33.4253 248.706 29.6899 251.357C21.5255 257.06 17.5859 266.874 14.4485 275.975C11.4372 286.611 12.2695 297.82 12.1084 308.749C12.0777 315.021 12.2362 321.294 11.9276 327.562C11.8033 332.779 11.517 338.139 13.0942 343.184C14.1623 346.676 16.7084 349.443 19.6578 351.494C25.6871 356.234 33.3811 357.718 40.7317 359.151C47.5981 360.429 54.4886 361.701 61.459 362.245C71.1008 362.93 80.7725 362.675 90.4276 362.507C110.276 362.452 130.283 361.697 149.709 357.306C159.308 355.075 169.67 352.866 177.062 345.902C182.978 340.425 184.753 330.126 184.717 321.26C184.609 318.504 184.427 315.677 183.602 313.039Z" fill="#270F03"/>
<path d="M184.868 304.872C184.751 303.27 184.682 301.665 184.524 300.064C183.013 282.994 180.939 263.127 166.136 252.098C160.114 247.559 152.476 243.319 150.882 238.348C150.144 236.885 149.006 232.125 148.948 229.986C148.863 229.148 148.424 226.25 148.489 226.86C148.372 226.278 148.475 225.597 148.011 225.153C147.273 224.366 145.81 224.951 145.85 226.048C145.977 227.557 145.928 229.075 145.946 230.59C144.805 230.502 143.661 230.447 142.517 230.445C121.991 230.638 101.471 231.346 80.9447 231.401C73.1846 231.353 65.4336 230.928 57.6751 230.801C55.9641 230.819 54.2317 230.539 52.5322 230.728C52.679 230.708 52.8256 230.689 52.9724 230.669C51.6775 230.718 49.8321 230.621 49.3507 232.117C49.1234 233.726 49.0747 233.874 49.0448 234.882C49.0315 234.835 49.0183 234.843 49.0128 235.016C48.9662 235.342 48.9178 235.633 48.8584 235.921C48.718 236.901 48.1717 237.839 48.1908 238.829C48.1954 238.879 48.2192 238.915 48.2293 238.962C48.0644 238.955 47.8994 238.952 47.7346 238.944C47.39 238.943 47.0626 239.083 46.8194 239.324C46.0215 240.083 46.6086 241.57 47.7346 241.533C66.8591 241.874 86.0036 242.052 105.129 241.639C119.066 241.261 132.994 239.747 146.944 240.33C147.292 240.365 147.687 240.42 148.063 240.429C148.523 241.453 149.058 242.426 149.667 243.222C153.443 247.927 158.875 250.895 163.631 254.486C165.17 255.587 166.644 256.852 168.02 258.242C167.933 258.448 167.866 258.637 167.841 258.723C164.935 265.248 145.835 266.032 136.952 266.95C134.893 267.15 132.842 267.441 130.77 267.477C129.934 267.462 129.908 268.806 130.77 268.793C138.795 268.795 146.888 268.657 154.831 267.387C160.133 266.458 167.148 265.469 169.966 260.371C172.463 263.348 174.482 266.765 175.693 270.383C180.001 283.321 180.747 295.56 181.914 306.525C181.861 307.834 183.63 308.581 184.53 307.609C185.261 306.869 184.875 305.793 184.868 304.872Z" fill="#270F03"/>
<path d="M60.8526 270.768C59.8326 270.409 60.2536 270.696 59.2296 270.718C51.032 271.673 42.0692 270.907 35.3642 267.895C33.3139 267.058 31.0302 265.6 29.7988 264.572C29.3689 264.284 29.0458 263.727 28.4922 263.702C27.8226 263.68 27.4439 264.576 27.9386 265.038C36.5335 272.665 49.7164 273.74 60.7075 272.928C61.623 272.608 61.6954 271.228 60.8526 270.768Z" fill="#270F03"/>
<path d="M127.336 263.099C127.214 262.007 127.192 260.398 125.99 259.946C125.774 259.934 125.65 259.818 125.367 259.948C125.356 259.949 125.327 259.959 125.283 259.976C125.059 259.977 124.741 259.946 124.252 259.917C121.931 259.897 119.615 260.081 117.298 260.183C116.679 260.277 115.983 260.2 115.34 260.269C115.258 259.864 115.17 259.459 115.076 259.057C115.207 257.508 115.066 255.711 112.995 255.479C106.706 254.918 100.348 255.306 94.035 255.215C90.761 255.231 87.4639 255.427 84.2558 256.11C82.9336 256.43 81.5719 256.974 80.6619 258.022C79.8821 258.968 79.7639 260.265 79.5595 261.434C79.5489 261.508 79.5409 261.56 79.5331 261.614C79.326 261.642 79.1191 261.674 78.9207 261.674C76.9038 261.957 74.1764 261.753 72.7358 263.417C72.3563 264.051 72.4035 264.866 72.482 265.577C72.5988 266.516 72.9838 267.971 74.1663 267.899C75.7289 267.646 77.8259 267.788 79.7815 267.621C80.0411 268.501 80.3963 269.353 80.8439 270.15C82.1178 272.148 83.6669 272.824 85.204 272.832C92.8571 272.969 100.576 272.672 108.144 271.457C110.336 270.979 112.781 270.588 114.502 269.043C114.985 268.544 115.255 267.91 115.417 267.246C117.608 266.927 118.996 266.842 121.338 266.531C122.93 266.295 124.549 266.131 126.093 265.657C126.555 265.497 127.038 265.26 127.273 264.807C127.526 264.276 127.36 263.663 127.336 263.099ZM74.3054 266.5C74.0228 266.178 73.8984 264.591 74.0532 264.299C74.1083 264.272 74.2353 264.203 74.3464 264.148C74.3794 264.135 74.4292 264.116 74.4537 264.107C74.9001 263.867 76.9578 263.486 78.1629 263.289C78.5344 263.198 78.8367 263.216 79.3534 263.179C79.3309 263.942 79.2604 264.598 79.3757 264.682C79.2945 265.165 79.3865 265.683 79.4515 266.171C77.6522 266.333 75.4246 266.621 74.3054 266.5ZM116.151 265.007C115.991 265.017 115.872 265.01 115.766 264.997C115.778 264.842 115.785 264.685 115.788 264.528C115.81 263.655 115.741 262.786 115.623 261.922C117.999 261.589 122.834 261.367 125.027 261.285C125.068 261.29 125.109 261.296 125.149 261.302C125.165 261.313 125.177 261.322 125.205 261.339C125.437 261.982 125.47 262.444 125.488 262.512C125.628 263.256 125.636 263.257 125.672 263.984C123.922 264.681 119.332 265.134 116.151 265.007Z" fill="#270F03"/>
<path d="M98.6902 309.285C98.6699 309.289 98.6449 309.29 98.6249 309.294C98.5727 309.304 98.6362 309.293 98.6902 309.285Z" fill="#270F03"/>
<path d="M108.807 273.527C108.673 273.485 108.528 273.466 108.364 273.507C102.765 273.633 97.1932 274.206 91.6222 274.735C90.4335 274.835 89.245 274.946 88.0521 274.978C87.8489 274.977 87.6542 275.061 87.5061 275.198C87.4513 275.218 87.4016 275.223 87.3435 275.252C86.3727 275.901 87.1947 277.215 87.3005 278.12C87.5824 279.041 87.8732 280.042 88.2415 281.471C89.5142 285.93 90.4043 290.485 91.247 295.041C92.0861 299.235 92.7246 303.486 93.8988 307.602C94.0922 308.207 94.4861 309.202 95.6332 309.703C96.4558 310.076 97.3462 310.329 98.2476 310.429C99.2709 310.747 99.4584 310.619 101.053 310.643C101.317 310.63 101.501 310.633 101.472 310.604C101.726 310.63 101.999 310.573 102.248 310.556C103.455 310.444 104.657 310.033 105.602 309.258C105.96 308.97 106.306 308.619 106.507 308.199C106.503 308.237 106.517 308.218 106.564 308.084C106.579 308.036 106.58 308.03 106.583 308.008C107.817 303.113 108.145 294.282 108.811 288.365C109.278 283.402 109.658 278.852 110.015 274.392C110.01 273.665 109.343 273.377 108.807 273.527ZM106.162 299.915C105.865 302.871 105.525 306.441 105.021 307.123C104.663 307.411 104.978 307.57 103.838 308.194C103.486 308.457 102.447 308.666 101.466 308.946C100.277 309.164 99.3811 309.167 98.7059 309.282C98.688 309.313 98.4257 309.32 98.3373 309.322C97.9983 309.326 97.2265 309.135 97.0295 309.07C96.2837 308.697 95.889 308.389 95.6498 308.139C95.1953 307.345 94.3281 303.734 93.7282 301.474C92.1801 294.564 91.1022 286.975 89.8965 281.279C89.6245 279.978 89.3735 279.01 89.1365 277.467C89.2233 277.986 89.0476 277.006 88.9483 276.612C90.9454 276.514 93.0143 276.329 95.0952 276.124C99.4403 275.788 103.784 275.404 108.118 275.154C107.878 283.336 107.208 292.623 106.162 299.915Z" fill="#270F03"/>
<path d="M164.824 335.907C164.039 333.439 160.554 335.75 158.842 335.976C155.412 336.923 151.953 337.754 148.483 338.538C127.831 343.396 110.786 345.72 89.6254 346.074C77.2067 346.272 62.6743 345.864 51.6745 344.235C45.0485 343.163 38.3715 342.102 31.9707 340.032C28.6299 338.968 26.5416 338.094 23.7056 336.892C22.4976 336.652 21.8255 338.488 22.9492 339.081C30.7752 343.139 39.4453 345.166 48.1086 346.493C57.5394 347.936 67.0759 348.603 76.6097 348.821C101.006 349.563 125.466 347.344 149.163 341.399C152.971 340.514 156.747 339.498 160.554 338.608C162.158 338.063 165.271 338.325 164.824 335.907Z" fill="#270F03"/>
<path d="M85.3398 184.353C85.3675 184.344 85.4409 184.308 85.4376 184.303C85.4031 184.316 85.3702 184.332 85.3398 184.353Z" fill="#FF2A0C"/>
<path d="M175.242 64.805C185.013 64.805 192.935 56.8839 192.935 47.1127V20.8821C192.935 11.1109 185.013 3.18945 175.242 3.18945H19.7197C9.94852 3.18945 2.02734 11.1109 2.02734 20.8821V47.1127C2.02734 56.8839 9.94852 64.805 19.7197 64.805H24.2493V70.9902H19.7197C9.94852 70.9902 2.02734 78.9113 2.02734 88.6825V131.075C2.02734 140.846 9.94852 148.767 19.7197 148.767H24.2493V154.952H19.7197C9.94852 154.952 2.02734 162.873 2.02734 172.645V215.036C2.02734 224.808 9.94852 232.729 19.7197 232.729H175.242C185.013 232.729 192.935 224.808 192.935 215.036V172.645C192.935 162.873 185.013 154.952 175.242 154.952H170.713V148.767H175.242C185.013 148.767 192.935 140.846 192.935 131.075V88.6825C192.935 78.9113 185.013 70.9902 175.242 70.9902H170.713V64.805H175.242Z" fill="white"/>
<path d="M91.0496 120.339C93.417 110.311 87.2066 100.262 77.1782 97.8946C67.1499 95.5272 57.1012 101.738 54.7338 111.766C52.3664 121.794 58.5768 131.843 68.6052 134.21C78.6336 136.578 88.6823 130.367 91.0496 120.339Z" fill="#270F03"/>
<path d="M136.641 105.282C140.997 101.156 141.184 94.2795 137.058 89.9229C132.932 85.5664 126.055 85.3795 121.699 89.5056C117.342 93.6317 117.155 100.508 121.281 104.865C125.408 109.221 132.284 109.408 136.641 105.282Z" fill="#270F03"/>
<path d="M45.297 232.039C40.2557 232.166 33.3987 231.678 29.4108 232.13C28.7319 232.361 28.5606 233.34 29.0748 233.823C29.464 234.218 30.0352 234.12 30.5397 234.165C35.3212 234.336 40.1058 233.877 44.8913 233.926C46.3477 234.211 46.8201 232.211 45.297 232.039Z" fill="#270F03"/>
<path d="M24.1732 231.846C21.3681 232.075 18.7505 231.846 15.6517 230.976C15.5231 230.979 13.2908 229.913 12.4698 229.426C8.6561 227.218 6.73587 225.036 4.78215 220.682C1.50617 211.912 3.07564 197.862 2.55316 186.516C2.22124 185.563 0.772128 185.479 0.29345 186.365C-0.0535889 187.048 0.20657 187.871 0.14201 188.611C0.15365 193.618 0.108531 198.626 0.0878906 203.633C0.17441 209.434 -0.0240691 216.9 1.9564 221.139C2.25928 222.291 5.13879 226.978 7.74566 229.064C10.0761 231.002 11.022 231.391 13.4746 232.334C15.4873 232.934 19.1573 233.423 22.1233 233.357C22.9935 233.289 23.9792 233.424 24.7784 233.061C25.3814 232.637 24.8799 231.63 24.1732 231.846Z" fill="#270F03"/>
<path d="M24.6768 148.483C23.5383 147.019 21.5183 147.291 19.8719 147.272C17.7799 147.262 16.627 147.249 15.0293 146.777C14.4448 146.695 14.4093 146.249 13.4058 146.33C12.7792 146.489 12.4716 147.262 12.8022 147.814C13.2157 148.391 14.029 148.524 14.6589 148.776C17.2391 149.609 20.9882 149.025 22.7195 149.454C22.7331 149.46 22.7477 149.466 22.7611 149.473C22.8149 149.508 22.865 149.54 22.9071 149.566C23.0297 149.671 23.1463 149.784 23.2458 149.911C23.3301 150.045 23.4144 150.204 23.4624 150.295C23.8785 151.43 23.6397 152.763 23.3688 153.321C23.3193 153.379 23.2788 153.417 23.2375 153.454C23.2101 153.472 23.1824 153.488 23.1542 153.505C19.874 154.23 15.4787 153.938 11.7076 155.741C6.92464 157.835 3.28373 162.273 2.04282 167.331C1.02354 172.051 0.93126 177.02 1.0167 181.808C1.38174 182.806 2.98505 182.49 2.95013 181.419C3.12305 175.547 2.99885 169.065 5.06633 164.789C7.39888 160.451 10.5621 157.877 15.1891 156.672C17.9234 155.984 20.3318 156.107 23.5459 155.507C23.9952 155.378 24.408 155.143 24.7405 154.814C25.3835 154.169 25.5729 153.241 25.6515 152.364C25.8053 151.008 25.6088 149.538 24.6768 148.483Z" fill="#270F03"/>
<path d="M23.6797 66.6465C23.6847 66.6579 23.6898 66.6692 23.7003 66.6916C23.693 66.6742 23.6871 66.6605 23.6819 66.6492L23.6797 66.6465Z" fill="#270F03"/>
<path d="M25.6276 66.0569C25.6404 65.722 25.5162 65.3758 25.3577 65.0793C24.6527 63.8816 23.3729 63.5564 21.5878 63.706C21.5972 63.6053 20.2449 63.6518 19.878 63.5676C17.6263 63.3872 16.0413 63.5652 14.1628 63.0855C13.4634 62.9201 12.6692 62.5918 12.2928 62.4268C11.9702 62.2271 11.3212 62.4803 11.471 63.0623C11.6662 63.5491 12.3089 63.6401 12.7301 63.8783C14.1623 64.6197 16.4865 65.097 18.333 65.434C18.9217 65.4534 21.6173 65.8068 21.4732 65.6785C22.0196 65.8662 22.6193 65.9185 23.1672 66.1163C23.2363 66.1472 23.3357 66.1897 23.4286 66.2295C23.3791 66.1846 23.3728 66.1696 23.4264 66.2226C23.3744 66.1415 23.3713 66.0969 23.4505 66.2388C23.4762 66.2761 23.4848 66.2853 23.4965 66.2981C23.528 66.4113 23.5435 66.4327 23.5423 66.4142C23.5802 66.4956 23.6264 66.5728 23.6785 66.6455C23.6644 66.6139 23.6674 66.6186 23.6808 66.6483C23.7005 66.6897 23.7214 66.7369 23.7589 66.8161C23.7329 66.7624 23.7138 66.7222 23.6995 66.6916C23.7341 66.7736 23.7853 66.9071 23.7991 67.0064C23.8048 67.0275 23.8092 67.0492 23.8144 67.0707C23.8009 67.2196 23.7937 67.7002 23.7691 67.828C23.7665 67.8563 23.7626 67.8845 23.7596 67.9128C23.6524 68.1977 23.57 68.4928 23.4499 68.7735C23.0741 69.5135 23.3128 69.0586 23.008 69.4854C22.9831 69.5002 22.9601 69.5179 22.9343 69.5315C20.8609 69.7715 15.6478 70.1712 11.6709 71.9537C7.39446 74.058 3.64484 77.3701 2.50496 81.0529C1.0172 86.2434 0.897085 90.649 0.546087 97.203C0.318927 103.23 -0.0277514 109.255 0.00176846 115.288C0.330087 121.333 0.330807 127.396 0.695846 133.439C1.04036 137.589 3.22724 141.385 6.11587 144.307C7.10406 145.482 8.34534 146.355 9.58506 147.24C9.80933 147.378 10.0874 147.404 10.3382 147.338C11.0385 147.161 11.2967 146.203 10.7696 145.705C7.5459 142.171 5.27923 139.923 3.66932 134.731C3.00572 132.033 3.17084 130.779 2.91572 127.199C2.60072 122.982 2.6138 118.765 2.72456 114.542C2.74136 108.5 2.88536 102.46 3.24944 96.428C3.4418 91.3299 3.48284 87.3865 4.76023 82.9868C6.94806 77.3365 15.1394 72.2839 22.8892 71.8207C25.8157 71.6704 25.426 68.7274 25.5242 67.5405C25.5559 66.8174 25.5954 67.0687 25.6358 66.0966C25.6474 66.0243 25.6415 66.0233 25.6276 66.0569Z" fill="#270F03"/>
<path d="M23.4672 66.2656C23.349 66.1901 23.3457 66.2149 23.45 66.2551C23.4698 66.2693 23.4698 66.2705 23.4672 66.2656Z" fill="#270F03"/>
<path d="M13.8542 3.4877C13.0785 3.02246 12.2642 3.47894 11.525 3.79382C9.45701 4.70965 8.51369 5.49458 7.40262 6.37693C0.42872 11.7665 -0.118598 21.2448 0.228441 29.3719C0.177321 33.7832 0.54812 38.1826 0.763279 42.5856C0.907159 45.6955 0.968599 48.8215 1.526 51.8935C2.13619 54.6387 2.54923 55.7846 4.13539 57.9838C4.41067 58.4576 5.52378 59.7091 6.6207 60.6496C7.11198 61.0699 7.46922 61.8164 8.17925 61.84C9.00089 61.8595 9.45593 60.7781 8.85497 60.2087C7.47066 58.5947 6.65106 57.7804 5.43282 55.5141C3.79219 52.0227 3.20995 47.0359 2.97715 42.3212C2.61055 32.4978 1.64708 23.7974 4.22839 15.6254C5.24322 12.5869 8.13329 9.45804 11.1508 7.60753C12.6444 6.54913 13.7416 6.49117 14.4041 5.58518C14.832 4.88726 14.5679 3.88874 13.8542 3.4877Z" fill="#270F03"/>
<path d="M191.136 11.014C189.579 8.78138 188.2 7.24851 186.997 6.37131C182.553 3.08729 176.893 2.29996 171.528 1.83533C166.263 1.29893 160.982 0.987293 155.695 0.769014C143.698 0.301612 131.694 -0.174781 119.686 0.0634106C102.495 0.449688 85.2995 0.131571 68.1074 0.31529C56.5073 0.278696 44.9255 0.774416 33.3348 1.15985C28.7675 1.37741 24.1244 1.24325 19.598 1.69397C18.1984 2.21009 18.5949 4.52776 20.1571 4.47171C32.8376 4.25764 45.5016 3.43384 58.1867 3.43432C77.1053 3.28168 96.0208 3.71536 114.938 3.53464C120.937 3.47824 126.935 3.19972 132.934 3.21485C140.871 3.41969 148.8 3.87664 156.733 4.19308C167.254 4.79847 178.386 4.68676 185.309 8.72594C187.303 9.90422 188.043 10.9584 189.479 12.7026C189.723 12.988 189.951 13.2874 190.193 13.5739C190.204 13.5907 190.215 13.6067 190.243 13.6464C190.459 14.005 190.89 14.2462 191.309 14.1574C193.1 13.7142 191.773 11.9604 191.136 11.014Z" fill="#270F03"/>
<path d="M194.014 18.5313C194.007 17.4803 192.367 17.4211 192.353 18.5313C192.481 27.4976 192.922 38.0264 192.113 45.7365C191.219 51.6019 188.277 59.0398 184.088 61.567C182.367 62.8135 179.668 63.491 176.735 63.5341C175.117 63.5802 173.456 63.2693 171.886 63.7884C170.175 64.4083 169.656 65.0498 169.289 65.3306C168.282 66.209 167.495 67.4326 167.391 68.7866C167.306 70.1271 168.113 71.3685 169.273 71.9959C170.493 72.8042 172.167 72.3128 172.223 70.7162C172.236 70.2583 172.025 69.8588 171.729 69.5246C171.612 69.3537 171.188 69.1632 170.953 69.0739C170.892 69.0418 170.831 69.009 170.773 68.9727C170.75 68.9521 170.731 68.9286 170.71 68.9068C170.706 68.4536 170.85 67.6488 171.718 66.9168C172.652 66.2929 172.511 66.3425 173.691 66.0947C175.007 65.9974 176.329 66.1821 177.646 66.0611C182.353 65.7356 185.902 63.8767 188.624 61.4348C191.392 58.8179 192.777 55.1188 193.921 51.5671C194.872 47.2025 195.009 46.3377 195.015 41.6391C195.144 33.7194 194.978 24.2747 194.014 18.5313Z" fill="#270F03"/>
<path d="M194.136 85.7121C193.003 80.2535 190.921 76.641 186.559 73.591C184.552 72.2709 182.249 71.4238 179.906 70.9283C178.934 70.8278 177.848 70.2932 176.912 70.6939C176.004 71.1893 176.191 72.663 177.201 72.9086C183.601 73.8107 187.236 76.7704 189.324 80.7514C190.633 82.8961 191.176 86.0299 191.411 87.9194C191.767 89.877 191.01 92.4037 193.076 92.5694C194.693 92.2754 194.425 91.4215 194.519 90.4489C194.575 88.8637 194.409 87.2724 194.136 85.7121Z" fill="#270F03"/>
<path d="M183.096 145.092C183.255 145.023 183.312 144.995 182.988 145.136C183.029 145.121 183.062 145.105 183.096 145.092Z" fill="#270F03"/>
<path d="M194.439 97.112C194.441 96.8846 194.347 96.6698 194.19 96.5094C193.686 95.9862 192.713 96.3689 192.735 97.112C192.175 105.416 191.779 113.733 191.601 122.054C191.354 128.155 191.553 133.22 189.371 138.471C189.025 139.573 186.648 143.72 183.095 145.094C183.067 145.106 183.037 145.119 183.004 145.132C182.979 145.141 182.965 145.149 182.95 145.154C182.834 145.185 182.032 145.465 181.796 145.498C179.148 146.122 177.612 146.056 174.502 146.587C172.705 147.021 171.977 147.161 170.196 148.374C168.444 149.839 168.401 150.37 168.167 150.837C168.044 151.13 167.901 151.417 167.838 151.73C167.864 151.68 167.896 151.624 167.93 151.567C167.226 153.221 168.75 155.243 170.409 155.717C171.103 156.005 171.854 156.109 172.593 156.214C173.105 156.265 173.666 156.456 174.144 156.186C175.427 155.738 175.513 153.823 174.346 153.181C172.921 152.693 171.989 152.904 171.163 152.367C171.144 152.347 171.129 152.331 171.115 152.316C171.088 152.272 171.058 152.23 171.035 152.184C171.026 152.141 171.018 152.104 171.012 152.079C171.008 152.027 171.003 151.976 170.996 151.925C170.995 151.868 170.995 151.814 170.996 151.765C171.026 151.649 171.064 151.535 171.106 151.423C171.616 150.532 171.451 150.707 172.464 149.813C173.28 149.237 174.44 149.156 177.583 148.939C183.309 148.537 187.897 146.658 191.166 141.744C194.095 136.159 193.76 126.029 194.317 117.801C194.4 112.124 194.418 106.448 194.409 100.771C194.425 99.5513 194.381 98.3307 194.439 97.112Z" fill="#270F03"/>
<path d="M194.358 192.729C194.223 183.121 195.457 172.978 191.732 163.875C190.648 161.262 188.726 159.042 186.393 157.461C185.225 156.692 183.978 156.059 182.723 155.449C181.945 155.122 181.146 154.576 180.29 154.582C179.206 154.681 179.096 156.329 180.153 156.591C190.43 160.648 191.208 171.735 191.29 184.194C191.258 194.843 191.914 207.667 190.61 216.727C190.435 219.647 188.335 225.346 186.021 227.505C184.831 228.723 184.438 229.154 183.666 229.667C182.84 230.232 181.561 230.747 181.818 231.972C182.865 235.745 187.565 230.842 188.844 229.402C190.415 227.601 191.594 225.505 192.428 223.27C193.909 219.567 194.173 215.53 194.287 211.584C194.58 205.301 194.472 199.015 194.358 192.729Z" fill="#270F03"/>
<path d="M176.043 231.405C168.694 232.148 158.618 232.151 153.418 231.667C151.829 231.676 151.852 234.1 153.448 234.081C159.391 234.077 165.345 233.816 171.287 233.569C172.874 233.51 174.46 233.426 176.043 233.305C176.294 233.307 176.538 233.203 176.715 233.027C177.309 232.469 176.864 231.378 176.043 231.405Z" fill="#270F03"/>
<path d="M165.084 144.633C163.055 144.111 161.215 144.367 158.591 144.254C146.624 144.303 134.659 144.774 122.69 144.778C103.193 144.465 83.6951 144.575 64.1972 144.716C55.1221 144.616 46.0488 144.47 36.975 144.746C35.3045 144.771 33.6336 144.801 31.9643 144.873C31.7135 144.861 31.4696 144.951 31.2845 145.119C30.6854 145.647 31.0512 146.751 31.8792 146.76C51.563 146.473 71.2493 146.912 90.9358 146.565C109.793 146.578 128.647 147.096 147.505 146.841C153.22 146.657 161.118 146.893 164.873 146.508C165.668 146.266 165.811 145.065 165.084 144.633Z" fill="#270F03"/>
<path d="M167.16 160.634C166.354 160.509 165.071 160.244 163.973 160.04C157.425 158.694 148.445 158.604 140.798 158.394C123.761 158.035 106.722 157.902 89.684 157.65C72.4138 157.328 55.1426 157.059 37.8697 156.933C33.6008 156.911 29.2897 156.704 25.0404 156.932C24.0984 157.233 24.2858 158.789 25.3303 158.797C62.8214 159.945 100.343 159.646 137.839 160.603C146.254 160.664 154.625 161.638 163.019 161.969C164.452 162.028 165.889 162.026 167.318 162.132C167.918 162.194 168.812 162.351 168.876 161.522C168.858 160.621 167.795 160.778 167.16 160.634Z" fill="#270F03"/>
<path d="M155.563 69.9979C123.994 71.1591 92.4006 70.8203 60.8191 71.512C52.6154 71.6011 44.4102 71.5597 36.206 71.5732C33.8107 71.562 31.4152 71.5651 29.0199 71.5585C28.7031 71.5571 28.4023 71.6856 28.1786 71.9068C27.451 72.6055 27.9804 73.9719 29.0199 73.9382C47.5974 73.926 66.1694 73.3134 84.7461 73.2208C107.434 73.1657 130.122 73.4153 152.81 73.1271C154.02 72.9736 155.73 73.4037 156.664 72.5958C157.612 71.6948 156.897 69.9326 155.563 69.9979Z" fill="#270F03"/>
<path d="M160.875 61.9163C160.603 60.9392 159.606 60.7427 158.717 60.8416C157.231 60.8535 155.744 60.8689 154.258 60.8791C147.946 60.9173 141.635 60.9792 135.322 60.964C117.529 60.8034 99.7411 60.1008 81.945 60.322C68.3615 60.4853 54.7745 60.3635 41.1925 60.6445C38.1666 60.8034 35.0998 60.7622 32.0973 61.087C31.3866 61.3511 31.5791 62.5385 32.3838 62.5097C60.6312 62.9342 88.882 62.2105 117.127 62.7767C128.453 63.101 139.782 63.3136 151.111 63.5125C153.643 63.5789 156.174 63.6682 158.706 63.7553C159.861 63.9774 161.222 63.3397 160.875 61.9163Z" fill="#270F03"/>
<path d="M171.223 12.8454C160.074 12.2802 148.909 13.0243 137.754 12.9959C110.061 12.9621 82.3716 12.3913 54.6771 12.5577C45.5721 12.6187 36.4585 12.5984 27.3636 13.0567C26.6146 13.1883 25.7453 13.0139 25.079 13.3786C24.7474 13.7067 24.979 14.3474 25.4738 14.3315C45.7752 14.9888 66.1061 15.0159 86.4267 15.0092C111.419 15.3688 136.409 15.6477 161.4 15.0543C164.823 14.9012 168.309 15.3275 171.692 15.1749C172.869 14.7424 172.531 12.7982 171.223 12.8454Z" fill="#270F03"/>
<path d="M183.067 35.8248C182.745 30.2247 182.36 21.3231 181.953 17.4006C181.719 15.6611 180.143 11.6922 177.899 12.5972C176.645 13.0528 176.537 14.8678 177.626 15.5765C177.679 15.6288 177.726 15.6859 177.775 15.7424C178.639 17.1168 178.294 16.7421 178.915 18.2521C179.841 21.5539 180.852 32.8942 180.239 40.8043C180.228 40.8885 180.223 40.9367 180.219 40.9698C180.044 42.262 179.823 43.5589 179.341 44.7746C179.257 44.9601 179.137 45.2213 179.071 45.3384C178.418 46.3914 178.698 45.9641 178.153 46.6044C178.109 46.6504 178.063 46.6939 178.016 46.7366C177.876 46.8383 177.73 46.9302 177.577 47.0092C177.287 47.1146 176.989 47.1892 176.687 47.2506C175.792 47.0146 174.912 46.724 174.039 46.4176C173.919 46.3886 173.78 46.3372 173.668 46.292C173.692 46.3028 173.706 46.3093 173.735 46.3229C173.711 46.3124 173.687 46.3002 173.662 46.2895C173.511 46.2284 173.426 46.185 173.524 46.2271C169.746 44.6085 166.435 42.114 162.763 40.2887C156.184 37.3142 148.784 35.3181 141.536 36.347C131.037 38.1491 122.901 43.4023 113.244 46.2067C105.943 48.1886 98.2947 48.3413 91.2882 47.0204C86.1683 46.1093 81.2135 44.4282 76.0706 43.6296C70.318 42.6277 62.6202 42.4375 56.2219 44.4652C50.6903 46.2871 48.0569 47.9617 43.1317 49.5654C38.7675 50.7904 35.5635 50.9711 30.8272 51.0853C30.6344 51.0887 30.452 51.0889 30.2622 51.0914C29.7605 50.8791 29.0502 50.997 28.3108 51.0984C24.8108 51.0746 21.7363 50.8256 18.3585 50.0438C16.9972 49.7142 15.6623 49.2863 14.3381 48.8298C13.8509 48.3913 13.4389 47.8604 13.1172 47.1719C12.2289 44.7038 12.4717 38.5116 12.3229 34.2765C12.2647 30.5921 12.3997 26.9217 12.8226 24.5464C13.2747 21.708 13.7531 20.1477 15.1485 17.9352C15.6573 17.2248 15.9411 16.8475 16.9825 16.2941C17.0098 16.2828 17.0203 16.2784 17.0378 16.2711C17.677 16.0073 18.351 15.8477 19.0284 15.716C19.2013 15.7046 19.3885 15.647 19.2259 15.6711C19.9358 15.551 20.7686 15.7222 21.3336 15.2327C21.9986 14.6174 21.4975 13.3896 20.5846 13.4246C18.3954 13.8187 15.7964 13.7294 14.2131 15.5353C11.7801 18.1771 11.1187 21.8999 10.8282 25.3632C10.5192 29.0445 10.3493 32.7387 10.2381 36.4313C10.205 38.5698 10.3969 42.7696 10.5392 43.8687C10.6409 45.2873 10.7715 46.7413 11.3455 48.0589C11.4649 48.3394 11.6069 48.5968 11.7585 48.8443C11.6328 49.2737 11.8229 49.7998 12.3212 49.9166C12.4746 49.9795 12.6221 50.0286 12.7743 50.0892C14.7812 51.9819 17.9486 52.5575 20.6248 52.9353C21.6315 53.1306 25.5263 53.3197 27.497 53.2793C28.1475 53.2028 29.1101 53.3685 29.8566 53.2349C34.5403 53.3232 39.2626 53.1324 43.7837 51.9303C48.9013 50.4108 52.2351 48.3862 56.9198 46.8664C61.6463 45.3835 65.2011 44.9584 69.8873 44.8864C76.5268 44.9016 83.0255 47.4755 90.0207 48.889C97.0786 50.2806 104.367 50.324 111.439 49.01C119.856 47.3923 126.001 43.5613 133.773 41.0995C140.417 39.2568 144.963 38.779 150.912 39.8152C155.781 40.7754 160.108 41.9415 163.743 43.9732C167.546 46.2154 171.191 48.2658 174.542 49.5677C176.04 50.0153 178.807 51.4436 179.348 49.3736C183.511 46.9066 183.046 40.26 183.067 35.8248Z" fill="#270F03"/>
<path d="M173.664 46.2891C173.598 46.2585 173.55 46.2371 173.521 46.2246C173.568 46.2445 173.612 46.2673 173.659 46.2866L173.664 46.2891Z" fill="#270F03"/>
<path d="M63.7445 105.843C61.6237 108.157 60.341 111.138 59.711 114.189C59.5955 115.578 58.721 117.76 60.4277 118.467C61.4776 118.991 62.8242 118.073 62.785 116.912C62.7891 116.704 62.8563 116.081 62.8941 115.736C63.4755 112.188 64.6529 109.957 66.1509 108.25C67.7048 106.646 65.3536 104.296 63.7445 105.843Z" fill="white"/>
<path d="M126.171 210.834C132.499 205.008 132.906 195.155 127.081 188.827C121.255 182.498 111.402 182.091 105.074 187.916C98.7454 193.742 98.3379 203.595 104.164 209.923C109.989 216.252 119.842 216.659 126.171 210.834Z" fill="#270F03"/>
<path d="M107.987 190.854C106.217 192.785 105.146 195.273 104.62 197.82C104.524 198.98 103.794 200.801 105.218 201.392C106.095 201.829 107.219 201.062 107.186 200.094C107.19 199.92 107.246 199.4 107.277 199.111C107.762 196.15 108.745 194.287 109.996 192.862C111.293 191.523 109.33 189.562 107.987 190.854Z" fill="white"/>
<path d="M126.698 90.0257C124.943 91.0254 123.685 92.6856 123.037 94.5845C122.696 95.8017 121.746 97.5502 123.035 98.4981C123.667 99.0497 124.688 98.9419 125.269 98.365C125.8 97.8501 125.786 97.0587 126.019 96.3975C126.479 95.0688 126.223 95.4606 127.061 94.1238C127.256 93.8891 127.464 93.6657 127.694 93.4644C127.827 93.2494 128.123 93.3324 128.893 92.5263C130.083 91.1528 128.223 89.0596 126.698 90.0257Z" fill="white"/>
<path d="M184.288 174.27C183.508 169.436 182.043 165.863 177.121 164.113C176.59 163.957 176.003 163.525 175.459 163.832C174.829 164.178 174.959 165.197 175.66 165.37C178.266 166.232 180.1 167.414 181.282 170.165C182.914 173.811 182.872 179.235 182.788 184.181C182.892 188.889 182.905 195.902 183.287 198.793C183.5 199.415 184.401 199.577 184.845 199.102C185.322 198.394 185.028 198.702 185.184 197.926C186.228 190.655 185.895 182.033 184.288 174.27Z" fill="#270F03"/>
<path d="M185.44 106.274C185.449 103.304 185.504 100.334 185.435 97.3649C185.146 92.1458 185.229 86.5517 182.474 81.9225C181.531 80.392 180.329 78.9204 178.643 78.1892C177.728 77.7653 176.748 77.5083 175.763 77.31C175.358 77.2335 174.92 77.0869 174.543 77.3275C173.785 77.7406 173.943 78.969 174.784 79.1738C176.716 79.5798 177.541 79.7085 178.932 80.7068C179.432 81.0813 180.936 82.9344 181.582 84.6122C181.68 84.7945 182.021 85.6383 182.263 86.5024C182.464 87.0398 182.869 89.5361 182.786 89.0731C183.515 94.4493 183.48 99.8832 183.425 105.297C183.416 106.833 183.407 108.369 183.398 109.905C183.397 110.174 183.507 110.431 183.694 110.62C184.139 111.083 184.964 110.975 185.281 110.415C185.624 109.1 185.337 107.637 185.44 106.274Z" fill="#270F03"/>
<path d="M16.6866 135.585C15.6516 134.413 15.2933 134.684 14.7348 133.984C13.6806 132.86 13.5853 132.568 12.9996 130.926C11.7442 126.469 11.9617 120.582 11.7366 114.822C12.0719 112.704 9.07756 112.2 8.8942 114.375C9.06088 121.201 7.31585 130.969 12.3173 136.358C13.2495 137.139 14.3479 138.362 15.6762 138.069C16.725 137.804 17.2401 136.508 16.6866 135.585Z" fill="#270F03"/>
<path d="M21.3624 222.211C20.8001 221.673 19.9588 221.635 19.2775 221.306L19.0799 221.223C19.081 221.219 18.2925 220.871 18.0556 220.751C17.832 220.692 17.2133 220.287 16.9533 220.12C12.4736 216.525 12.2147 209.104 11.4516 202.892C11.4467 202.831 11.4404 202.771 11.4342 202.721C11.3751 202.159 11.4906 201.512 11.064 201.082C10.4429 200.419 9.22529 200.916 9.25589 201.83C9.28277 207.105 8.83889 210.601 10.1923 215.281C10.8544 217.6 11.8869 219.878 13.5898 221.62C14.8102 222.934 16.3908 223.783 18.0432 224.43C18.9755 224.769 20.0539 225.448 21.0191 224.874C21.9645 224.349 22.1335 222.963 21.3624 222.211Z" fill="#270F03"/>
<path d="M68.8359 213.496C68.8359 211.321 70.5999 209.557 72.7759 209.557C74.9518 209.557 76.7158 211.321 76.7158 213.496C76.7158 215.672 74.9518 217.436 72.7759 217.436C70.5999 217.436 68.8359 215.672 68.8359 213.496Z" fill="#270F03"/>
<path d="M34.2846 181.274C37.9109 181.274 40.8505 178.335 40.8505 174.708C40.8505 171.082 37.9109 168.143 34.2846 168.143C30.6584 168.143 27.7188 171.082 27.7188 174.708C27.7188 178.335 30.6584 181.274 34.2846 181.274Z" fill="#270F03"/>
<path d="M85.9043 86.5288C85.9043 82.9025 88.8439 79.9629 92.4702 79.9629C96.0965 79.9629 99.0362 82.9025 99.0362 86.5288C99.0362 90.1551 96.0965 93.0947 92.4702 93.0947C88.8439 93.0947 85.9043 90.1551 85.9043 86.5288Z" fill="#270F03"/>
<path d="M34.2832 107.562C34.2832 105.166 36.2262 103.223 38.6231 103.223C41.0199 103.223 42.9629 105.166 42.9629 107.562C42.9629 109.959 41.0199 111.902 38.6231 111.902C36.2262 111.902 34.2832 109.959 34.2832 107.562Z" fill="#270F03"/>
<path d="M106.078 130.047C106.078 127.65 108.021 125.707 110.418 125.707C112.815 125.707 114.758 127.65 114.758 130.047C114.758 132.444 112.815 134.387 110.418 134.387C108.021 134.387 106.078 132.444 106.078 130.047Z" fill="#270F03"/>
<path d="M60.334 222.84C60.334 221.356 61.5372 220.152 63.0216 220.152C64.5059 220.152 65.7091 221.356 65.7091 222.84C65.7091 224.324 64.5059 225.527 63.0216 225.527C61.5372 225.527 60.334 224.324 60.334 222.84Z" fill="#270F03"/>
<path d="M21.532 76.6265C19.2083 77.5587 16.9881 78.8351 15.3877 80.8009C13.0199 83.6424 11.6352 87.286 11.2013 90.9411C10.979 92.6959 10.8042 94.4573 10.6779 96.2216C10.5861 96.8641 10.625 97.5681 11.1299 98.0379C11.8773 98.8196 13.2609 98.6307 13.7938 97.6944C14.3129 96.1494 14.0776 94.397 14.362 92.7833C14.5966 88.2953 16.6483 83.6184 19.4626 81.0925C19.9278 80.6397 20.5056 80.2205 21.8027 79.5342C22.287 79.221 22.9528 79.1263 23.2986 78.6388C24.2537 77.5357 22.7605 75.8472 21.532 76.6265Z" fill="#270F03"/>
<path d="M223.065 295.748C239.315 326.321 272.819 344.071 306.396 352.516C339.974 360.962 374.995 361.885 408.949 368.661C427.705 378.546 448.895 387.474 470.879 386.017C481.738 385.297 492.325 382.042 503.197 381.541C513.514 381.065 523.938 383.129 533.296 387.5C537.413 389.423 542.859 391.583 545.948 388.251C548.716 385.265 546.922 380.359 544.37 377.186C535.65 366.344 520.933 362.815 507.346 359.819C493.759 356.823 479.041 352.981 470.713 341.835C485.266 347.443 500.193 352.797 515.12 358.152C523.796 361.264 532.5 364.384 541.502 366.365C551.205 368.499 561.256 369.312 570.58 372.746C577.388 375.254 583.712 379.129 590.779 380.771C594.332 381.597 599.251 380.979 599.931 377.396C600.194 376.011 599.67 374.606 599.08 373.326C593.498 361.225 581.629 353.329 569.728 347.334C557.827 341.339 545.091 336.447 535.093 327.638C520.064 314.397 513.38 294.352 502.885 277.292C492.844 260.972 478.941 247.045 462.637 236.978C475.529 225.359 484.515 207.039 483.568 188.93C482.455 167.647 468.866 148.684 466.845 127.467C466.076 119.394 467.036 111.16 469.642 103.48C471.302 98.5875 473.649 93.7727 473.711 88.607C473.774 83.4415 470.563 77.7119 465.423 77.1948C462.022 76.8527 458.828 78.838 456.238 81.069C446.285 89.6404 441.046 102.815 440.169 115.92C439.293 129.026 442.418 142.116 446.98 154.434C450.308 163.418 454.419 172.151 456.742 181.446C459.065 190.741 459.471 200.899 455.492 209.615C449.478 222.789 433.024 230.155 419.192 225.865C415.594 222.688 409.408 221.452 403.404 221.257C397.399 221.062 391.4 221.81 385.393 221.786C372.251 221.733 359.147 217.89 348.058 210.838C341.599 206.73 335.845 201.586 329.359 197.522C321.617 192.671 312.986 189.452 304.424 186.265C303.225 177.172 306.878 168.822 308.001 160.23C308.869 153.593 308.2 146.761 306.063 140.419C308.824 130.731 309.931 120.748 309.137 110.914C308.912 108.117 308.048 104.74 305.334 104.024C303.791 103.617 302.186 104.269 300.737 104.936C294.284 107.906 288.095 111.446 282.263 115.501C268.141 108.898 252.893 105.896 237.702 106.2C232.529 100.008 226.106 94.7861 218.87 91.1926C217.357 90.441 215.589 89.7512 214.025 90.3918C212.227 91.1284 211.515 93.2748 211.198 95.192C209.677 104.383 212.341 113.926 210.516 123.062C203.353 137.908 197.289 154.371 199.833 170.778C201.482 181.411 206.648 192.456 202.124 205.19C188.073 235.433 178.153 267.593 172.727 300.497C170.908 311.525 169.809 323.684 175.835 333.097C181.437 341.846 191.812 346.047 201.527 349.729C215.21 354.915 228.941 360.116 243.187 363.458C246.014 364.121 249 364.706 251.786 363.891C254.573 363.076 257.031 360.394 256.585 357.525C256.343 355.965 255.322 354.647 254.26 353.479C247.013 345.512 236.541 341.222 228.658 333.883C214.739 320.923 210.996 298.311 219.996 281.557C219.171 285.523 219.878 289.752 223.065 295.748Z" fill="#270F03"/>
<path d="M223.391 106.64C222.641 104.246 221.313 102.046 219.618 100.202C218.313 99.0216 217.312 97.999 215.852 97.3541C214.918 97.1728 214.446 98.5605 215.28 99.0088C217.807 100.571 220.181 103.845 221.12 106.338C221.372 106.864 221.362 107.585 221.914 107.905C222.714 108.406 223.759 107.511 223.391 106.64Z" fill="white"/>
<path d="M219.484 108.444C218.962 106.965 218.206 105.578 217.256 104.332C216.786 103.753 216.332 102.842 215.441 103.097C214.768 103.265 214.421 104.114 214.786 104.706C216.085 106.395 216.339 107.034 216.869 108.8C217.082 109.464 217.071 110.324 217.756 110.7C219.36 111.406 220.153 109.818 219.484 108.444Z" fill="white"/>
<path d="M299.663 109.77C295.615 112.077 289.258 117.17 289.082 119.08C289.064 119.854 289.865 120.452 290.605 120.24C291.237 119.983 291.111 119.961 291.844 119.157C293.024 117.679 294.448 116.427 295.93 115.261C296.376 114.881 298.486 113.434 299.855 112.609C300.428 112.176 301.283 111.934 301.497 111.18C301.818 110.148 300.581 109.193 299.663 109.77Z" fill="white"/>
<path d="M300.682 115.877C297.931 117.165 295.741 119.299 294.014 121.768C293.481 122.504 293.026 123.294 292.621 124.107C292.224 124.744 292.099 125.64 292.639 126.235C293.292 127.201 294.897 127.076 295.447 126.063C295.884 125.079 296.422 124.144 296.988 123.23C298.585 120.862 299.45 119.754 302.086 118.279C303.649 117.358 302.256 114.972 300.682 115.877Z" fill="white"/>
<path d="M254.45 155.226C254.415 155.076 254.318 154.92 254.193 154.761C254.073 154.569 253.908 154.39 253.685 154.232C253.637 154.201 253.582 154.175 253.532 154.146C251.222 152.453 245.35 150.945 244.681 153.711C244.586 154.176 244.665 154.659 244.848 155.094C245.094 155.674 245.029 155.579 245.461 156.456C246.525 158.099 247.198 159.282 248.78 159.787C250.254 159.974 250.466 159.391 251.604 158.913C252.61 158.387 253.423 157.692 253.914 156.975C254.347 156.492 254.619 155.89 254.45 155.226Z" fill="white"/>
<path d="M289.967 151.102C291.147 143.805 286.188 136.933 278.891 135.753C271.594 134.573 264.723 139.532 263.543 146.829C262.363 154.126 267.321 160.998 274.618 162.177C281.915 163.357 288.787 158.399 289.967 151.102Z" fill="white"/>
<path d="M272.113 144.627C271.316 143.798 269.803 144.19 269.523 145.311C269.046 146.687 268.611 148.408 268.523 149.955C268.516 149.997 268.509 150.045 268.503 150.086C268.433 150.638 268.503 150.11 268.522 149.958C268.503 150.292 268.495 150.621 268.512 150.934C268.835 152.254 270.74 152.649 271.517 151.518C272.148 150.475 271.825 150.235 271.97 149.856C271.971 149.796 271.974 149.736 271.977 149.676C272.047 149.256 272.188 148.393 272.246 148.143C272.349 147.009 272.991 145.583 272.113 144.627Z" fill="#270F03"/>
<path d="M230.563 153.662C237.955 153.662 243.947 147.67 243.947 140.278C243.947 132.887 237.955 126.895 230.563 126.895C223.172 126.895 217.18 132.887 217.18 140.278C217.18 147.67 223.172 153.662 230.563 153.662Z" fill="white"/>
<path d="M225.922 135.94C225.125 135.111 223.611 135.503 223.331 136.624C222.854 138 222.42 139.72 222.331 141.268C222.325 141.31 222.318 141.357 222.312 141.398C222.242 141.95 222.311 141.423 222.331 141.271C222.312 141.605 222.303 141.934 222.32 142.246C222.644 143.566 224.549 143.962 225.326 142.83C225.957 141.787 225.633 141.548 225.779 141.168C225.78 141.109 225.782 141.049 225.785 140.988C225.855 140.568 225.997 139.706 226.054 139.456C226.158 138.321 226.799 136.896 225.922 135.94Z" fill="#270F03"/>
<path d="M419.231 226.73C419.223 226.722 419.124 226.586 419.231 226.73Z" fill="white"/>
<path d="M421.293 227.24C420.777 226.47 420.359 225.806 419.568 225.58C419.244 225.573 418.958 225.862 418.963 226.185C418.913 226.365 419.323 226.855 419.112 226.557C419.215 226.702 419.236 226.734 419.231 226.73C419.245 226.748 419.255 226.762 419.276 226.79C419.493 227.101 419.711 227.41 419.92 227.726C419.981 227.826 420.102 228.048 420.118 228.06C420.579 229.148 420.839 230.425 420.432 231.733C416.549 243.315 390.42 245.438 378.332 245.432C366.506 245.182 353.7 243.626 343.852 242.081C341.306 241.683 339.149 241.315 336.572 240.834C336.321 240.758 336.031 240.921 335.968 241.176C335.898 241.429 336.055 241.715 336.311 241.78C345.322 244.381 354.682 245.464 364.003 246.28C376.238 247.596 388.685 247.576 400.725 244.797C408.542 242.791 418.687 240.65 421.891 232.236C422.414 230.583 422.224 228.713 421.293 227.24Z" fill="white"/>
</svg>
