<?xml version="1.0" encoding="UTF-8"?>
<svg id="Layer_2" data-name="Layer 2" xmlns="http://www.w3.org/2000/svg" viewBox="0 0 43 48.11">
  <g id="Layer_2-2" data-name="Layer 2">
    <g>
      <path d="M42.27,3.85c-.39-.39-16.68,6.26-16.68-.74s-15.97,0-15.97,0c-.59,0-1.36.35-1.75.74-.39.39-.86,1.03-.86,1.62v15.65c0,.59.47,1.05.86,1.44.39.39,1.16.55,1.75.55,0,0,15.97-8,15.97,0s16.3-.17,16.68-.55.73-.85.73-1.44V5.47c0-.59-.34-1.24-.73-1.62Z"/>
      <path d="M3.3.11h-1.16C.96.11,0,1.07,0,2.25v43.72c0,1.18.96,2.14,2.14,2.14h1.16c1.18,0,1.7-.96,1.7-2.14V2.25C5,1.07,4.48.11,3.3.11Z"/>
    </g>
  </g>
</svg>