<?xml version="1.0" encoding="UTF-8"?>
<svg id="Layer_1" xmlns="http://www.w3.org/2000/svg" version="1.1" xmlns:xlink="http://www.w3.org/1999/xlink" viewBox="0 0 604 604">
  <!-- Generator: Adobe Illustrator 29.6.0, SVG Export Plug-In . SVG Version: 2.1.1 Build 207)  -->
  <defs>
    <style>
      .st0 {
        fill: #fff;
      }

      .st1 {
        fill: none;
      }

      .st2 {
        fill: #0f0820;
      }

      .st3 {
        clip-path: url(#clippath);
      }
    </style>
    <clipPath id="clippath">
      <rect class="st1" width="604" height="604"/>
    </clipPath>
  </defs>
  <g class="st3">
    <path class="st2" d="M443.4,473.3c-3.3,15.9-8.7,31.8-17.6,45.5-3.4,5-7.1,9.8-11.5,13.9-3.4,3.2-7,6.3-11,8.7-1,.6-2.7,1.8-3.7,1.5-.7.4-1.4.8-2.1,1.2-12.5,7.1-26.4,11-40.4,13.8-15.1,3.1-30.5,4.9-45.9,5.8,0,2.8,0,5.7-.4,8.5-1.4,8.5-3.2,21.4-10.2,27.7-.8.8-1.8,1.5-2.8,2-.2.1-.5.2-.7.4-3.7,1.8-8,2.2-11.8.5-.4-.2-.8-.3-1.2-.5-1-.5-1.9-1.1-2.8-1.7-5.9-4.3-9.5-11.6-12.4-18.1-1.2-2.7-4.2-10.9-4.9-15.8,0-.4-.1-.8-.2-1.3-1.7,0-3.5,0-5.2,0-10.9.3-21.9.1-32.8,0-.7,3.4-1.4,6.9-2.2,10.3-1.6,7.2-5.8,17.8-12.4,23.1-.9.7-1.8,1.3-2.8,1.8-2.7,1.4-5.7,1.9-9,1.1-1.6-.5-3.2-1.2-4.6-2.1-1-.6-1.9-1.4-2.8-2.2-8.5-7.9-12.8-23.9-14.3-35.7-3.1-.1-6.3-.3-9.4-.4-21.6-.9-43.6-2.1-63.8-10.5-10.6-3.7-20.3-9.4-28.9-16.6-9.4-7.1-17.3-16.3-21.3-27.4-4.4-10-5.6-20.8-6.5-31.6-1.3-13.3-1.4-26.8,1.1-40,3.5-19,19-62.3,23.9-72.7,9.1-19.3,21-37.1,32.7-54.8,9.7-16.3,21.8-57.2,26.4-73.4,7.5-26.3,8.9-36.3,8.9-61s0-.1,0-.2c-4.4-4.4-9.3-9.2-12.2-14.8-4.5-9.4-5.1-20.3-4.4-30.6.9-10.7,4.3-20.9,7.4-31.1,1.8-5.3,2.9-8.1,5.4-13.3,1.8-3.6,3.9-7.3,5.5-10.7,0-.2,0-.4-.1-.5-1-4.9-1.6-9.8-2-14.8-.8-10.1-.8-20.2-.5-30.3.5-9.9-.7-30.7,13.9-25.7,5.3,2.1,9.9,5.7,14.3,9.1,5.1,4.1,10.1,8.4,14.4,13.4,3.7,4.3,6.8,8.2,10,12.3,2.8-1.1,5.7-2,8.7-2.7,8.7-1.9,17.7-2.3,26.6-2.3,19.1-.5,37.3,1.2,55.3,7.6.7-.8,1.5-1.7,2.2-2.5,5.1-5.6,10.6-10.8,16.5-15.6,4.6-4,9.2-8,14.3-11.5,4-3,8.6-5.4,13.2-7.3,2.8-1.1,5.8-2.3,8.9-1.8,6.1,1.6,6.1,10.3,6.3,15.5.5,8-.9,15.9-2.3,23.7-2.2,11.9-4.3,23.9-7.5,35.6.2.6.5,1.1.8,1.6.2.4.4.9.7,1.4.8.8,1.2,1.9,1.7,2.9,2.1,4.2,4.4,8.3,6.6,12.5,11.7,23,15.2,43.6,6.3,61.8-7.8,15.8-22,21.7-22.9,37-.2,3.7-.2,7.5,0,11.7.2,3.1.6,6.4,1.2,9.8.7,2.5,1.4,5.1,2.2,7.5,4.1,13,11.4,24.6,18.7,37.3,13.4,23.4,29.1,41,45,62.5,12.1,16.2,22.6,33.5,31.7,51.5,4.6,9.2,7.5,19.1,10.3,29,7.4,23.2,10.8,47.9,6.6,72.1Z"/>
    <path class="st0" d="M244.1,140.2c-5.5-1.1-11.1,0-16.6.3-.2,0-.3,0-.5.1-.3,0-.5.2-.7.4-.7.8-.4,1.7.8,2.5.3.3,2.4,2.3,3.3,3.3,1.2,1.3,4.1,3.9,4.7,4.3.7.6,1.6,1.4,2.8,0,1.4-1.4,4-4.6,5.9-6.8,1-1,2.9-3.2.3-4.2Z"/>
    <path class="st0" d="M271.5,376.9c-7.7-28.1-12.8-56.8-20.4-85-2.1-7.1-3.4-14.5-5.5-21.5,0-.1-.2-.2-.2-.3-.2-.7-.9-1.2-1.6-.9-3.4.6-13.3,1-15.9,1.1-.9.1-6.7,34.8-11,51.9-2.5,9.9-4.5,19.8-7.1,29.7-2.2,8.9-5.5,19.3-6.3,26.8,0,.7.3,1.2.8,1.5,0,0,0,0,0,0,2.6,3,5.4,5.8,8.3,8.5,4.9,5.5,11.1,12.1,15,16.1,2.3,2.4,4.5,4.9,6.7,7.4.2.2,1,1,1.3,1.1.9.6,1.7-.4,2.3-1,8.3-7.7,16.4-15.7,24.6-23.6,2.5-2.5,5-5,7.4-7.6.6-.8,1.7-1.6,1.7-2.7,0-.2,0-.3,0-.5.1-.4.2-.8,0-1.2Z"/>
    <path class="st0" d="M197.7,143.7c16.4-6.3,24.6-24.7,18.3-41-6.3-16.4-24.7-24.6-41-18.3-16.4,6.3-24.6,24.7-18.3,41,6.3,16.4,24.7,24.6,41,18.3Z"/>
    <path class="st0" d="M299.2,143.3c16.2-6.8,23.7-25.5,16.9-41.6-6.8-16.2-25.5-23.7-41.6-16.9-16.2,6.8-23.7,25.5-16.9,41.6,6.8,16.2,25.5,23.7,41.6,16.9Z"/>
    <path class="st0" d="M175.6,39.5c-3.6-7.5-7.7-12.3-12.6-18.5-2.5-2.9-5.3-5.6-8.1-8.2-1-.7-1.8-2.1-3.1-2.2-1.3,0-2,1.7-1.1,2.6,6.1,5.4,10.5,10.5,14.8,16.7,2.2,2.6,5.1,7.2,7.5,11.3,1,1.8,3.7.2,2.6-1.6Z"/>
    <path class="st0" d="M329,11.2c-8.6,5.4-16.3,12.1-22.8,20-2.8,3.5-3.9,5-6.3,8.3-.5.7-1.1,1.5-.8,2.4.3,1.2,1.8,1.8,2.9,1.2,1.3-1.1,2-2.7,3.1-4,2.2-3.1,11.5-13.2,17-18.4,3.3-3.1,5.4-4.1,9-7.1,1.2-1.3-.7-3.4-2.1-2.4Z"/>
    <path class="st2" d="M187.7,105.1c-.7-2-3.8-1.3-3.7.8.1,6.2,0,12.4-.2,18.6-.1,2.2-.2,4.4-.2,6.7,0,.5.2,1,.6,1.4.9.9,2.5.7,3.1-.4.6-2.4.2-5.7.5-8.3,0-6.2.6-12.6,0-18.7Z"/>
    <path class="st2" d="M292.1,105.1c-.7-2-3.8-1.3-3.7.8.1,6.2-.1,12.4-.2,18.6-.1,2.2-.2,4.4-.2,6.7,0,.5.2,1,.6,1.4.9.9,2.5.7,3.1-.4.6-2.4.2-5.7.5-8.3,0-6.2.6-12.6,0-18.7Z"/>
    <path class="st0" d="M247.4,235.7c-9.2-2.4-19.4-1.4-28.2,2.1,2.1,8.7,4.2,17.5,7.8,25.6,5.5.7,11.5.7,16.4-1.3,2.3-8.4,3.6-17.4,4-26.4Z"/>
    <path class="st2" d="M414.5,519.2c29.1-.5,57.5-15.4,74.4-39.1,18.7-26.2,22.6-60.2,20.5-92.2-2.1-32.1-9.5-63.6-11.1-95.7-1-20.9.8-43,12.8-60.2,4.4-6.2,10.2-11.8,17.5-14,7.3-2.2,16.1-.6,20.8,5.4,3.8,4.8,4.5,11.3,4.7,17.4.6,22.1-3.3,44.1-3.7,66.2-.9,50.4,16,102.4,0,150.1-11.8,35-40.8,62.9-74.7,77.5-33.9,14.6-72.4,16.9-108.8,11,13-11.7,27.3-26.1,47.7-26.4Z"/>
    <path class="st0" d="M167.6,42.3c-.6-.9-1.3-1.9-1.9-2.8-2.4-3.5-5-6.9-7.8-10-2.3-2.6-4.9-5-7.4-7.3-.5-.5-1.4.3-.8.8,5.8,5.3,10.5,11,14.7,17.3.8,1.2,1.6,2.4,2.3,3.7.3.6,1.4.5,1.5-.2.1-.6-.3-1-.6-1.5Z"/>
    <path class="st0" d="M327.7,27.7c-5.2,3.7-9.7,8.2-13.9,12.9-1.7,1.9-3.4,3.8-5,5.9-.4.7-1.3,1.3-1.3,2.1.1.6,1,.7,1.2.2,4.3-5.7,9.8-11.8,15.4-17,1.4-1.3,2.6-2.2,4.1-3.3.4-.4-.1-1-.6-.7Z"/>
    <path class="st0" d="M211.1,599c-.9.7-1.8,1.3-2.8,1.8.4-5.6.5-11.3.5-17.2,0-1.6,2.5-1.6,2.5,0,0,5.1,0,10.2-.2,15.4Z"/>
    <path class="st0" d="M194.7,599.7c-1-.6-1.9-1.4-2.8-2.2-.2-4.6-.2-9.3-.1-13.9,0-1.6,2.5-1.6,2.5,0,0,5.6.1,10.9.4,16.1Z"/>
    <path class="st0" d="M300.6,600.1c-.8.8-1.8,1.5-2.8,2,.3-5.1.4-10.4.4-15.9,0-1.6,2.5-1.6,2.5,0,0,4.6,0,9.2-.1,13.9Z"/>
    <path class="st0" d="M284.1,602.4c-1-.5-1.9-1.1-2.8-1.7-.2-4.8-.2-9.7-.1-14.5,0-1.6,2.5-1.6,2.5,0,0,5.6.1,11,.4,16.2Z"/>
  </g>
</svg>