<svg width="604" height="604" viewBox="0 0 604 604" fill="none" xmlns="http://www.w3.org/2000/svg">
<g clip-path="url(#clip0_250_456)">
<path d="M443.447 473.293C440.157 489.234 434.752 505.072 425.86 518.794C422.453 523.768 418.758 528.612 414.345 532.738C410.911 535.963 407.347 539.044 403.299 541.473C402.307 542.086 400.636 543.287 399.565 542.974C398.873 543.366 398.194 543.783 397.502 544.162C385.007 551.278 371.129 555.156 357.132 557.976C342.013 561.07 326.646 562.833 311.226 563.799C311.278 566.645 311.2 569.504 310.795 572.338C309.359 580.811 307.583 593.75 300.625 600.069C299.776 600.853 298.862 601.532 297.844 602.067C297.622 602.197 297.387 602.315 297.152 602.432C293.483 604.221 289.109 604.587 285.31 602.968C284.905 602.798 284.513 602.628 284.135 602.432C283.142 601.949 282.215 601.375 281.34 600.735C275.4 596.466 271.809 589.141 268.924 582.613C267.697 579.884 264.746 571.685 264.054 566.841C263.976 566.423 263.923 565.992 263.858 565.574C262.135 565.601 260.398 565.627 258.662 565.614C247.72 565.914 236.766 565.731 225.825 565.574C225.159 569.021 224.428 572.468 223.579 575.889C221.96 583.122 217.808 593.698 211.137 598.972C210.249 599.69 209.309 600.304 208.317 600.787C205.653 602.145 202.637 602.641 199.295 601.858C197.663 601.401 196.122 600.683 194.699 599.743C193.707 599.103 192.766 598.359 191.879 597.523C183.34 589.585 179.084 573.643 177.543 561.775C174.396 561.658 171.25 561.475 168.116 561.423C146.534 560.522 124.495 559.36 104.297 550.964C93.6954 547.296 84.0077 541.538 75.4166 534.344C66.0291 527.254 58.1431 518.063 54.1218 506.9C49.748 496.911 48.4945 486.062 47.6067 475.316C46.288 461.986 46.2489 448.499 48.7166 435.299C52.2547 416.25 67.7394 372.981 72.6095 362.615C81.6706 343.317 93.591 325.548 105.289 307.791C114.964 291.51 127.076 250.569 131.663 234.407C139.138 208.071 140.554 198.111 140.554 173.416C140.554 173.35 140.567 173.285 140.567 173.22C136.194 168.807 131.298 163.976 128.386 158.427C123.842 149.014 123.333 138.138 123.999 127.862C124.874 117.182 128.308 106.92 131.428 96.7361C133.256 91.4744 134.34 88.6805 136.846 83.4318C138.661 79.8806 140.711 76.1724 142.395 72.7127C142.356 72.5298 142.317 72.3601 142.252 72.2034C141.22 67.3333 140.672 62.372 140.241 57.4238C139.471 47.3442 139.458 37.2256 139.784 27.12C140.332 17.2234 139.04 -3.62748 153.728 1.37304C159.029 3.46203 163.586 7.02636 168.038 10.4994C173.182 14.5991 178.183 18.9337 182.452 23.9473C186.121 28.2167 189.241 32.1205 192.479 36.2333C195.326 35.1758 198.224 34.2096 201.201 33.5699C209.949 31.7028 218.918 31.3111 227.836 31.285C246.937 30.7888 265.098 32.5253 283.09 38.9099C283.821 38.0612 284.552 37.1994 285.31 36.3769C290.375 30.7366 295.95 25.6054 301.773 20.7485C306.421 16.7794 311.017 12.7189 316.031 9.2068C320.078 6.17786 324.609 3.85379 329.27 1.93452C332.064 0.824607 335.08 -0.389554 338.135 0.119497C344.259 1.71237 344.193 10.4472 344.468 15.5783C344.99 23.5557 343.554 31.4547 342.209 39.2754C340.015 51.1829 337.874 63.1293 334.701 74.8276C334.95 75.4152 335.224 75.9376 335.485 76.4597C335.707 76.9037 335.929 77.3606 336.138 77.8176C336.908 78.6141 337.3 79.7367 337.848 80.6901C339.937 84.9072 342.274 88.9937 344.402 93.1979C356.062 116.203 359.652 136.819 350.656 154.98C342.836 170.778 328.696 176.706 327.769 191.982C327.547 195.703 327.547 199.528 327.782 203.68C327.99 206.735 328.408 210.065 329.009 213.512C329.662 216.045 330.406 218.63 331.163 220.993C335.237 233.997 342.561 245.578 349.834 258.256C363.269 281.626 378.975 299.239 394.839 320.756C406.89 336.959 417.465 354.232 426.552 372.263C431.187 381.468 434.008 391.377 436.854 401.235C444.257 424.397 447.651 449.178 443.447 473.293Z" fill="#270F03"/>
<path d="M244.096 140.195C238.641 139.099 232.974 140.19 227.473 140.502C227.289 140.5 227.143 140.552 227.016 140.626C226.755 140.691 226.506 140.801 226.311 140.987C225.586 141.807 225.917 142.686 227.114 143.491C227.415 143.776 229.53 145.82 230.439 146.766C231.673 148.077 234.519 150.687 235.101 151.066C235.843 151.625 236.656 152.473 237.945 151.155C239.379 149.724 241.955 146.548 243.821 144.385C244.798 143.375 246.69 141.208 244.096 140.195Z" fill="white"/>
<path d="M271.477 376.852C263.754 348.76 258.685 320.026 251.117 291.894C249.039 284.806 247.692 277.413 245.625 270.384C245.552 270.278 245.472 270.185 245.386 270.103C245.209 269.445 244.497 268.948 243.79 269.167C240.376 269.717 230.536 270.143 227.855 270.242C226.991 270.348 221.142 305.09 216.807 322.174C214.296 332.033 212.269 342.008 209.674 351.845C207.447 360.76 204.127 371.191 203.387 378.675C203.393 379.369 203.709 379.866 204.149 380.172C204.171 380.195 204.181 380.222 204.204 380.244C206.775 383.271 209.584 386.06 212.477 388.766C217.389 394.229 223.532 400.845 227.442 404.837C229.721 407.252 231.9 409.761 234.138 412.215C234.349 412.427 235.146 413.176 235.439 413.342C236.381 413.897 237.129 412.97 237.736 412.357C246.039 404.621 254.103 396.623 262.311 388.781C264.779 386.25 267.351 383.817 269.756 381.227C270.384 380.377 271.473 379.672 271.5 378.534C271.505 378.357 271.477 378.191 271.432 378.034C271.569 377.673 271.606 377.271 271.477 376.852Z" fill="white"/>
<path d="M197.673 143.674C214.053 137.385 222.233 119.007 215.944 102.627C209.655 86.2471 191.277 78.0669 174.897 84.3562C158.517 90.6456 150.337 109.023 156.626 125.403C162.916 141.783 181.293 149.963 197.673 143.674Z" fill="white"/>
<path d="M299.222 143.286C315.387 136.462 322.959 117.826 316.136 101.661C309.312 85.4963 290.676 77.9237 274.511 84.7473C258.346 91.5709 250.774 110.207 257.597 126.372C264.421 142.537 283.057 150.109 299.222 143.286Z" fill="white"/>
<path d="M175.606 39.4582C171.984 31.9707 167.895 27.1922 163.04 20.9401C160.509 18.027 157.773 15.2984 154.93 12.6908C153.923 11.9741 153.151 10.619 151.864 10.4724C150.573 10.4316 149.853 12.1515 150.8 13.04C156.913 18.4698 161.331 23.5198 165.569 29.7054C167.79 32.3319 170.673 36.9549 173.042 41.0103C174.045 42.7892 176.71 41.1958 175.606 39.4582Z" fill="white"/>
<path d="M328.959 11.1924C320.365 16.6241 312.672 23.3305 306.159 31.1477C303.381 34.6252 302.211 36.1424 299.875 39.4218C299.346 40.1315 298.738 40.9334 299.039 41.867C299.351 43.0987 300.874 43.7079 301.96 43.0555C303.227 41.9645 303.988 40.3438 305.101 39.0856C307.341 35.9652 316.569 25.8737 322.123 20.7299C325.379 17.6599 327.532 16.6052 331.108 13.6399C332.265 12.301 330.456 10.2428 328.959 11.1924Z" fill="white"/>
<path d="M187.679 105.109C186.983 103.157 183.854 103.8 183.93 105.863C184.049 112.065 183.83 118.275 183.706 124.477C183.603 126.699 183.537 128.923 183.529 131.147C183.526 131.663 183.74 132.168 184.103 132.532C184.965 133.434 186.564 133.216 187.179 132.135C187.816 129.736 187.346 126.443 187.646 123.846C187.605 117.625 188.266 111.274 187.679 105.109Z" fill="#270F03"/>
<path d="M292.077 105.109C291.381 103.157 288.253 103.8 288.329 105.863C288.447 112.065 288.228 118.275 288.104 124.477C288.001 126.699 287.935 128.923 287.928 131.147C287.924 131.663 288.138 132.168 288.501 132.532C289.364 133.434 290.963 133.216 291.577 132.135C292.215 129.736 291.745 126.443 292.044 123.846C292.003 117.625 292.664 111.274 292.077 105.109Z" fill="#270F03"/>
<path d="M247.445 235.74C238.234 233.302 228.056 234.324 219.293 237.868C221.358 246.547 223.522 255.356 227.111 263.468C232.626 264.167 238.61 264.134 243.475 262.19C245.739 253.796 247.093 244.831 247.445 235.74Z" fill="white"/>
<path d="M414.479 519.164C443.539 518.686 472.007 503.729 488.886 480.068C507.544 453.913 511.476 419.902 509.414 387.84C507.352 355.778 499.942 324.215 498.359 292.126C497.329 271.262 499.179 249.085 511.137 231.957C515.494 225.716 521.359 220.187 528.632 217.94C535.904 215.692 544.693 217.37 549.441 223.32C553.262 228.109 553.93 234.632 554.099 240.757C554.71 262.871 550.815 284.872 550.404 306.991C549.469 357.371 566.393 409.371 550.335 457.133C538.557 492.163 509.575 520.003 475.637 534.633C441.698 549.262 403.285 551.506 366.805 545.592C379.843 533.913 394.093 519.498 414.479 519.164Z" fill="#270F03"/>
<path d="M167.649 42.2966C167.029 41.3471 166.386 40.412 165.73 39.4868C163.32 35.9989 160.739 32.6274 157.935 29.4466C155.635 26.8268 153.063 24.4697 150.498 22.1146C149.979 21.5795 149.132 22.4069 149.675 22.9376C155.517 28.2844 160.181 33.9044 164.359 40.2674C165.147 41.4874 165.935 42.7085 166.689 43.9484C167.031 44.5836 168.064 44.4514 168.233 43.7467C168.375 43.1855 167.904 42.7497 167.649 42.2966Z" fill="white"/>
<path d="M327.667 27.6588C322.491 31.3507 317.976 35.8735 313.744 40.5981C312.055 42.5247 310.335 44.4316 308.777 46.4675C308.38 47.1665 307.451 47.7667 307.504 48.6139C307.643 49.1733 308.462 49.2866 308.741 48.7755C313.018 43.0483 318.589 37.0167 324.18 31.7415C325.603 30.4556 326.777 29.5758 328.242 28.4041C328.627 28.0369 328.131 27.3718 327.667 27.6588Z" fill="white"/>
<path d="M211.137 598.972C210.249 599.69 209.309 600.304 208.316 600.787C208.669 595.212 208.773 589.532 208.799 583.605C208.813 581.96 211.306 581.986 211.306 583.605C211.359 588.736 211.345 593.854 211.137 598.972Z" fill="white"/>
<path d="M194.7 599.742C193.707 599.103 192.767 598.359 191.879 597.523C191.723 592.888 191.723 588.24 191.762 583.605C191.775 581.986 194.269 581.96 194.282 583.605C194.308 589.167 194.399 594.507 194.7 599.742Z" fill="white"/>
<path d="M300.627 600.07C299.778 600.853 298.864 601.532 297.846 602.067C298.133 596.923 298.211 591.675 298.237 586.217C298.25 584.572 300.744 584.598 300.744 586.217C300.796 590.839 300.783 595.461 300.627 600.07Z" fill="white"/>
<path d="M284.134 602.433C283.142 601.95 282.215 601.376 281.34 600.736C281.157 595.905 281.157 591.061 281.197 586.217C281.21 584.598 283.704 584.572 283.717 586.217C283.743 591.805 283.834 597.171 284.134 602.433Z" fill="white"/>
</g>
<defs>
<clipPath id="clip0_250_456">
<rect width="604" height="604" fill="white"/>
</clipPath>
</defs>
</svg>
