<svg width="1214" height="1214" viewBox="0 0 1214 1214" fill="none" xmlns="http://www.w3.org/2000/svg">
<rect width="1214" height="1214" rx="79" fill="#270F03"/>
<path d="M688.861 627.668C688.861 627.668 642.769 700.443 581.318 703.657C427.683 711.693 577.701 527.035 520.764 530.013C462.925 533.039 431.294 697.071 442.142 707.329C453.892 717.54 346.346 750.228 346.346 682.574C346.346 661.825 393.341 539.388 351.771 541.562C324.66 542.981 294.834 618.515 294.834 618.515C283.087 666.038 272.243 707.199 276.759 710.573C285.795 719.121 190 742.186 190 695.266C190 667.302 230.667 485.658 214.403 470.271C214.403 470.271 315.627 456.857 315.627 498.338C315.728 503.782 315.425 509.225 314.721 514.623C336.413 485.525 366.221 461.41 408.711 459.189C467.453 456.116 474.684 498.138 471.973 528.95C499.987 495.009 542.462 452.192 582.227 450.112C688.867 444.531 564.152 648.618 621.991 645.59C648.2 644.236 684.341 598.147 684.341 598.147L688.861 627.668Z" fill="#FFE9CF"/>
<path d="M1101.84 683.65C1105.83 695.463 1107.66 707.894 1107.26 720.354C1107.28 750.071 1097.78 779.015 1080.15 802.961C1062.07 827.361 1032.25 840.648 990.679 842.823C957.233 844.572 926.514 840.755 899.4 830.458C871.41 820.511 844.947 806.713 820.777 789.465C799.085 825.781 771.974 844.338 738.537 846.087C708.712 847.647 687.038 841.564 671.662 827.935C664.309 821.636 658.462 813.774 654.552 804.924C650.641 796.075 648.766 786.464 649.064 776.796C649.064 756.047 657.197 736.677 672.561 719.636C687.922 701.693 708.709 692.487 734.92 691.116C751.199 690.265 772.876 693.639 799.082 700.387C805.172 675.434 809.999 650.191 813.543 624.753C806.313 634.151 793.66 644.737 776.487 656.46C758.103 668.29 736.888 675.006 715.034 675.912C696.958 676.858 684.309 672.107 677.078 660.759C669.847 649.411 666.233 634.263 666.233 614.418C666.365 601.698 667.27 588.998 668.944 576.388C670.753 562.762 671.659 552.79 672.558 548.235C676.354 530.012 678.471 511.481 678.883 492.874C678.883 479.342 676.172 469.563 670.75 464.431C680.027 462.868 689.377 461.777 698.764 461.16C712.408 460.21 726.118 461.318 739.431 464.445C750.276 468.387 755.71 474.42 755.71 484.341C755.71 497.872 752.996 517.86 748.476 546.063C744.757 563.383 742.64 581.008 742.151 598.715C742.151 616.757 747.577 625.494 758.43 624.927C766.563 624.501 775.596 615.009 783.736 597.45C791.875 579.892 798.191 558.806 804.519 534.118C809.345 514.779 812.073 494.977 812.655 475.055C812.655 465.131 810.847 458.011 808.136 455.446L828.016 453.502C872.3 451.186 893.989 459.975 893.989 478.911C893.989 498.756 891.278 533.179 884.953 581.322C879.238 628.153 868.947 674.314 854.225 719.145C895.798 732.305 931.046 738.58 959.962 737.067C993.408 735.318 1019.61 729.436 1038.59 718.522C1056.66 707.652 1069.32 698.875 1076.54 690.375C1082.87 681.925 1087.39 677.177 1089.2 676.193C1093.71 671.445 1097.33 673.962 1101.85 683.65M773.794 754.038C753.01 737.082 735.838 728.96 723.182 729.622C721.324 729.561 719.475 729.899 717.76 730.612C716.044 731.326 714.502 732.399 713.237 733.758C711.974 734.719 710.978 735.988 710.346 737.442C709.713 738.897 709.464 740.489 709.623 742.066C709.623 748.381 713.238 754.506 720.468 760.443C727.702 766.379 737.634 768.565 749.388 767.953C754.248 767.649 758.975 766.237 763.204 763.826C767.434 761.416 771.054 758.07 773.788 754.047" fill="#FFE9CF"/>
</svg>
