<svg width="249" height="85" viewBox="0 0 249 85" fill="none" xmlns="http://www.w3.org/2000/svg">
<path id="logo-letra-f" d="M57.8362 18.6821C56.1667 19.9992 54.0896 20.6944 51.9622 20.6482C52.9593 18.163 53.4024 16.1488 53.4024 14.5992C53.4024 13.1615 52.8483 12.4161 51.8511 12.4686C51.0757 12.5092 50.2999 13.4347 49.7465 15.3435C49.0294 18.0654 48.4744 20.8274 48.0846 23.6148L54.1785 23.4065C54.3971 23.3724 54.6206 23.3887 54.8319 23.4544C55.0431 23.52 55.2365 23.6331 55.397 23.785C55.5477 23.9207 55.6657 24.0886 55.7425 24.2761C55.8193 24.4635 55.8527 24.6659 55.8405 24.8681C55.8607 25.3233 55.7015 25.7684 55.397 26.1079C55.0823 26.4581 54.6475 26.6778 54.1785 26.7237L47.5309 27.2927L46.8657 33.0784C45.4255 45.0983 44.096 53.5731 42.8771 58.3924C41.9906 61.6458 40.3287 64.0553 38.002 65.615C35.5952 67.0896 32.8483 67.9201 30.0263 68.0263C28.4725 68.1366 26.9112 68.0698 25.3726 67.8274C24.2981 67.6647 23.2531 67.3467 22.2704 66.8835C21.6053 66.5868 21.7163 66.3597 22.4921 66.3191C24.9295 66.1916 27.0345 63.5377 28.6971 58.3634C30.3598 53.1891 32.2423 45.6804 34.348 35.7273L36.0099 28.2294L34.348 28.3164C33.5726 28.3569 32.9078 28.1715 32.5754 27.7459C32.3632 27.6051 32.1906 27.4125 32.0742 27.1862C31.9579 26.9599 31.9015 26.7077 31.9106 26.4535C31.9522 25.8007 32.2366 25.1869 32.708 24.7325C33.1795 24.2782 33.804 24.0161 34.459 23.9976L37.0074 23.8643C38.0046 20.1625 38.8911 17.2406 39.6669 15.0987C35.1033 16.8917 30.4425 18.4275 25.7064 19.6988C20.6096 21.1821 16.0673 21.9725 12.189 22.1753C7.75731 22.4075 4.7655 21.7896 3.21461 20.2117C1.10782 18.2214 0 15.8459 0 13.1916C0.0364573 11.0649 0.607945 8.98142 1.66192 7.1328C2.71365 5.27173 4.01871 3.56514 5.53985 2.06175C6.98006 0.771532 8.20073 0.0441987 8.97436 0.00181927C9.52845 -0.0271581 9.7498 0.291593 9.7498 0.846148C9.7498 3.61096 11.0793 5.53216 13.7388 6.49928C16.3982 7.4664 20.0526 7.82789 24.8181 7.57832C29.2364 7.32983 33.6378 6.8412 38.0028 6.1146C39.2216 5.94038 40.8835 5.74261 43.0996 5.51622C45.3156 5.28983 47.0882 5.08663 48.5287 5.01129L52.0739 4.71536C54.401 4.59365 56.2831 5.04787 57.8355 6.07295C59.3866 7.2079 60.1622 9.37927 60.1622 12.5871C60.1622 15.352 59.3866 17.3833 57.8355 18.681" fill="#270F03"/>
<path id="logo-letra-l" d="M69.1344 48.6145C70.7963 48.5276 75.0066 43.5518 75.0066 43.5518L76.3362 47.5742C76.3362 47.5742 71.6828 55.8911 61.9323 56.4011C48.3045 57.1139 64.37 7.16885 61.8212 4.4265C61.8212 4.4265 73.7874 2.36186 73.7874 9.10889C73.7874 11.5419 63.2614 48.9213 69.1337 48.6141" fill="#270F03"/>
<path id="logo-letra-e" d="M100.827 46.9596C100.827 46.9596 93.5143 54.5299 83.5424 55.0526C61.0506 56.2291 71.5766 25.2646 86.7559 24.4706C95.0655 24.0359 97.2815 28.2333 97.2815 31.9935C97.2815 40.841 87.7531 43.6623 82.1022 44.7319C82.878 47.0139 84.2068 48.6033 86.4232 48.4874C93.847 48.0991 99.4972 42.2736 99.4972 42.2736L100.827 46.9596ZM81.6591 40.7736C89.304 38.604 92.4065 30.4791 88.5282 30.6819C84.0965 30.9137 81.7698 36.0123 81.6591 40.7736Z" fill="#270F03"/>
<path id="logo-letra-x" d="M127.747 44.8852C127.747 44.8852 122.318 53.0217 113.897 53.4621C111.571 53.5838 108.911 50.5155 106.252 46.3417C102.152 50.2054 99.1613 53.3484 100.047 54.1869C100.047 54.1869 88.9674 55.2091 91.4051 48.7776C92.1809 46.5246 96.6129 42.4221 101.488 38.1856C98.4962 32.4807 95.8371 27.0898 94.0645 25.5239C94.0645 25.5239 101.156 19.4025 105.92 25.4566C106.363 26.097 107.803 28.3442 109.465 31.2433C113.343 27.723 116.445 24.7959 116.445 23.4687C116.445 23.4687 123.425 23.3238 123.425 27.9696C123.425 29.8499 119.104 34.2787 114.23 38.9575C116.445 42.4913 118.551 45.3687 119.437 45.4318C122.982 45.2463 126.085 40.6603 126.085 40.6603L127.747 44.8852Z" fill="#270F03"/>
<path id="logo-letra-i" d="M124.755 23.3682C124.755 23.3682 135.946 21.7875 135.946 26.6535C135.946 31.8517 131.403 44.9183 135.502 44.7039C138.051 44.5706 141.485 40.5199 141.485 40.5199L143.481 44.0653C143.481 44.0653 137.83 52.2134 129.52 52.6499C116.114 53.3511 127.525 26.2109 124.756 23.3697" fill="#270F03"/>
<path id="logo-letra-ipoint" d="M134.286 9.37152C131.96 8.60833 129.19 10.744 128.192 14.114C127.084 17.4899 128.192 20.7499 130.519 21.5127C132.846 22.2755 135.616 20.1399 136.613 16.7702C137.721 13.3943 136.613 10.1344 134.286 9.37152Z" fill="#270F03"/>
<path id="logo-letra-m" d="M197.549 40.4578C197.549 40.4578 191.898 49.3799 184.364 49.774C165.528 50.7592 183.921 28.1203 176.94 28.4854C169.849 28.8563 165.971 48.9666 167.301 50.2242C168.742 51.476 155.557 55.4836 155.557 47.1892C155.557 44.6453 161.318 29.6347 156.222 29.9013C152.898 30.0751 149.241 39.3356 149.241 39.3356C147.801 45.1619 146.472 50.2083 147.025 50.6219C148.133 51.6698 136.389 54.4977 136.389 48.7453C136.389 45.3169 141.374 23.0474 139.38 21.161C139.38 21.161 151.79 19.5165 151.79 24.602C151.803 25.2694 151.766 25.9367 151.679 26.5986C154.339 23.0311 157.993 20.0747 163.203 19.8023C170.404 19.4256 171.291 24.5774 170.958 28.355C174.393 24.1938 179.6 18.9446 184.475 18.6896C197.549 18.0053 182.259 43.0262 189.351 42.655C192.564 42.4891 196.995 36.8385 196.995 36.8385L197.549 40.4578Z" fill="#270F03"/>
<path id="logo-letra-y" d="M248.18 47.3211C248.669 48.7694 248.894 50.2934 248.844 51.821C248.847 55.4643 247.682 59.0129 245.521 61.9486C243.304 64.94 239.648 66.569 234.552 66.8356C230.451 67.05 226.685 66.582 223.361 65.3197C219.929 64.1001 216.685 62.4086 213.722 60.2939C211.062 64.7463 207.738 67.0214 203.639 67.2358C199.983 67.4271 197.325 66.6813 195.44 65.0104C194.539 64.2382 193.822 63.2742 193.343 62.1893C192.863 61.1043 192.633 59.926 192.67 58.7408C192.67 56.1969 193.667 53.8222 195.551 51.7329C197.434 49.5332 199.982 48.4045 203.196 48.2365C205.191 48.1321 207.849 48.5458 211.062 49.3731C211.809 46.3139 212.4 43.219 212.835 40.1003C211.948 41.2525 210.397 42.5504 208.292 43.9876C206.038 45.438 203.437 46.2613 200.758 46.3725C198.542 46.4884 196.991 45.9059 196.104 44.5147C195.218 43.1234 194.775 41.2663 194.775 38.8333C194.791 37.2738 194.902 35.7168 195.107 34.1708C195.329 32.5003 195.44 31.2778 195.55 30.7192C196.016 28.4852 196.275 26.2133 196.326 23.932C196.326 22.2731 195.993 21.0741 195.328 20.4449C196.466 20.2534 197.612 20.1195 198.763 20.044C200.436 19.9275 202.117 20.0633 203.749 20.4468C205.078 20.93 205.744 21.6696 205.744 22.8859C205.744 24.5449 205.412 26.9953 204.858 30.453C204.402 32.5765 204.142 34.7372 204.082 36.9081C204.082 39.12 204.747 40.1912 206.078 40.1217C207.075 40.0695 208.183 38.9057 209.18 36.7531C210.178 34.6004 210.953 32.0153 211.728 28.9886C212.32 26.6176 212.655 24.1899 212.726 21.7475C212.726 20.5308 212.504 19.6578 212.172 19.3434L214.609 19.1051C220.038 18.8211 222.697 19.8987 222.697 22.2202C222.697 24.6532 222.365 28.8734 221.59 34.7757C220.889 40.5173 219.627 46.1766 217.822 51.6728C222.919 53.2861 227.241 54.0555 230.786 53.87C234.886 53.6556 238.099 52.9344 240.425 51.5964C242.641 50.2638 244.193 49.1876 245.079 48.1455C245.854 47.1096 246.408 46.5275 246.63 46.4069C247.184 45.8248 247.627 46.1334 248.181 47.3211M207.962 55.9506C205.414 53.8718 203.308 52.8761 201.757 52.9572C201.529 52.9498 201.302 52.9912 201.092 53.0786C200.882 53.1661 200.692 53.2976 200.537 53.4643C200.383 53.5822 200.26 53.7377 200.183 53.916C200.105 54.0943 200.075 54.2895 200.094 54.4829C200.094 55.2571 200.538 56.0081 201.424 56.7359C202.311 57.4636 203.528 57.7316 204.969 57.6566C205.565 57.6193 206.145 57.4462 206.663 57.1507C207.182 56.8551 207.626 56.445 207.961 55.9517" fill="#270F03"/>
<path id="logo-letra-subrayado" d="M187.604 57.0508C187.604 57.0508 102.262 57.0508 44.6679 68.7725C44.6679 68.7725 41.0334 78.1902 43.7607 84.471C116.733 62.0744 187.606 60.6092 187.606 60.6092L187.604 57.0508Z" fill="#270F03"/>
</svg>
