<?xml version="1.0" encoding="UTF-8"?>
<svg id="Layer_1" xmlns="http://www.w3.org/2000/svg" version="1.1" viewBox="0 0 1214 1214">
  <!-- Generator: Adobe Illustrator 29.6.0, SVG Export Plug-In . SVG Version: 2.1.1 Build 207)  -->
  <defs>
    <style>
      .st0 {
        fill: #fffdf0;
      }

      .st1 {
        fill: #ff2072;
      }
    </style>
  </defs>
  <rect class="st1" width="1214" height="1214" rx="79" ry="79"/>
  <g>
    <path class="st0" d="M688.9,627.7s-46.1,72.8-107.5,76c-153.6,8-3.6-176.6-60.6-173.6-57.8,3-89.5,167.1-78.6,177.3,11.8,10.2-95.8,42.9-95.8-24.8s47-143.2,5.4-141c-27.1,1.4-56.9,77-56.9,77-11.7,47.5-22.6,88.7-18.1,92.1,9,8.5-86.8,31.6-86.8-15.3s40.7-209.6,24.4-225c0,0,101.2-13.4,101.2,28.1.1,5.4-.2,10.9-.9,16.3,21.7-29.1,51.5-53.2,94-55.4,58.7-3.1,66,38.9,63.3,69.8,28-33.9,70.5-76.8,110.3-78.8,106.6-5.6-18.1,198.5,39.8,195.5,26.2-1.4,62.3-47.4,62.3-47.4l4.5,29.5Z"/>
    <path class="st0" d="M1101.8,683.7c4,11.8,5.8,24.2,5.4,36.7,0,29.7-9.5,58.7-27.1,82.6-18.1,24.4-47.9,37.7-89.5,39.9-33.4,1.7-64.2-2.1-91.3-12.4-28-9.9-54.5-23.7-78.6-41-21.7,36.3-48.8,54.9-82.2,56.6-29.8,1.6-51.5-4.5-66.9-18.2-7.4-6.3-13.2-14.2-17.1-23-3.9-8.8-5.8-18.5-5.5-28.1,0-20.7,8.1-40.1,23.5-57.2,15.4-17.9,36.1-27.1,62.4-28.5,16.3-.9,38,2.5,64.2,9.3,6.1-25,10.9-50.2,14.5-75.6-7.2,9.4-19.9,20-37.1,31.7-18.4,11.8-39.6,18.5-61.5,19.5-18.1.9-30.7-3.8-38-15.2-7.2-11.3-10.8-26.5-10.8-46.3.1-12.7,1-25.4,2.7-38,1.8-13.6,2.7-23.6,3.6-28.2,3.8-18.2,5.9-36.8,6.3-55.4,0-13.5-2.7-23.3-8.1-28.4,9.3-1.6,18.6-2.7,28-3.3,13.6-1,27.4.2,40.7,3.3,10.8,3.9,16.3,10,16.3,19.9s-2.7,33.5-7.2,61.7c-3.7,17.3-5.8,34.9-6.3,52.7,0,18,5.4,26.8,16.3,26.2,8.1-.4,17.2-9.9,25.3-27.5,8.1-17.6,14.5-38.6,20.8-63.3,4.8-19.3,7.6-39.1,8.1-59.1,0-9.9-1.8-17-4.5-19.6l19.9-1.9c44.3-2.3,66,6.5,66,25.4s-2.7,54.3-9,102.4c-5.7,46.8-16,93-30.7,137.8,41.6,13.2,76.8,19.4,105.7,17.9,33.4-1.7,59.6-7.6,78.6-18.5,18.1-10.9,30.7-19.6,38-28.1,6.3-8.5,10.8-13.2,12.7-14.2,4.5-4.7,8.1-2.2,12.7,7.5M773.8,754c-20.8-17-38-25.1-50.6-24.4-1.9,0-3.7.3-5.4,1-1.7.7-3.3,1.8-4.5,3.1-1.3,1-2.3,2.2-2.9,3.7-.6,1.5-.9,3-.7,4.6,0,6.3,3.6,12.4,10.8,18.4,7.2,5.9,17.2,8.1,28.9,7.5,4.9-.3,9.6-1.7,13.8-4.1,4.2-2.4,7.9-5.8,10.6-9.8"/>
  </g>
</svg>