<svg width="800" height="800" viewBox="0 0 800 800" fill="none" xmlns="http://www.w3.org/2000/svg">
<g clip-path="url(#clip0_250_650)">
<path d="M711.073 217.607C678.56 195.276 625.891 176.228 586.571 179.347C486.191 187.309 331.937 313.331 278.634 270.792C272.017 265.511 244.744 245.346 238.534 239.592C218.741 221.254 189.462 218.727 162.526 217.154C148.003 193.323 132.853 173.687 115.797 155.873C95.8227 174.833 107.847 211.703 90.0416 232.713C83.9077 239.951 75.0579 244.182 67.1432 249.414C47.1434 262.634 32.2912 283.438 26.2827 306.647C24.1978 314.701 22.7568 323.697 16.4363 329.107C12.6989 332.305 7.63727 333.827 4.35359 337.49C0.0150323 342.33 -0.0977677 349.51 0.0283124 356.008C0.736792 392.51 4.58607 435 35.1773 454.927C55.2264 467.986 81.4213 467.133 104.056 476.739C115.755 477.586 126.999 483.494 134.335 492.645C106.727 509.849 67.5282 506.011 45.2462 529.712C39.9619 535.333 35.9627 543.738 39.4528 550.618C42.0291 555.697 47.8067 558.182 53.2328 559.912C83.1322 569.442 115.275 567.942 146.616 566.346C177.619 564.766 208.622 563.187 239.626 561.607C256.798 560.733 274.378 559.767 290.212 553.066C306.722 546.079 320.503 532.856 325.031 516.288C385.097 516.957 426.01 514.97 483.014 496.028C503.243 489.306 520.414 494.888 520.414 494.888C520.414 494.888 504.486 515.559 513.043 525.624C518.399 531.924 528.158 531.19 536.327 529.909C574.484 523.929 614.123 519.429 652.281 513.449C699.255 506.087 748.568 495.267 780.593 460.121C818.24 418.806 795.441 275.556 711.073 217.607Z" fill="#270F03"/>
<path d="M786.273 443.734C802.43 466.069 803.646 497.046 793.469 522.664C783.291 548.283 763.009 568.897 739.939 583.987C714.722 600.481 685.439 609.438 655.785 614.789C607.68 623.469 532.951 604.815 436.65 639.295C429.456 641.871 422.028 644.697 414.416 644.026C406.804 643.355 398.983 637.948 398.419 630.327C397.997 624.617 401.609 619.414 405.552 615.261C425.192 594.579 455.166 587.817 483.495 584.511C558.238 575.791 636.771 583.58 706.135 554.404C730.223 544.272 788.021 506.926 752.262 457.497C768.124 453.96 774.228 449.535 786.273 443.734Z" fill="#270F03"/>
<path d="M172.651 296.021C171.985 294.377 171.317 292.735 170.645 291.093C168.103 284.868 165.517 278.661 162.759 272.528C155.584 256.518 147.398 240.721 136.048 227.237C134.008 225.104 132.109 222.368 129.226 221.384C127.579 220.932 125.757 221.852 125.314 223.539C124.972 224.948 125.367 226.368 125.466 227.782C125.818 231.471 125.938 235.178 125.968 238.882C126.032 250.014 125.273 261.134 124.306 272.219C123.265 282.72 122.355 290.034 120.375 300.947C119.462 304.456 124.698 305.962 125.753 302.429C128.378 288.14 129.982 273.672 130.884 259.176C131.434 249.529 131.918 239.815 131.224 230.165C136.584 236.338 144.603 248.112 149.027 256.961C154.095 266.343 159.871 279.491 162.974 287C164.639 291.025 166.286 295.058 167.917 299.098C168.463 301.413 171.88 301.87 173.014 299.764C173.768 298.51 173.193 297.226 172.651 296.021Z" fill="white"/>
<path d="M60.6224 322.882C56.4908 317.188 49.829 316.653 46.2687 323.253C44.8928 325.566 44.0789 328.161 43.5482 330.788C39.5399 345.038 41.3245 368.891 44.9301 379.051C46.1887 382.517 48.0172 386.027 51.2394 388.026C53.744 389.388 57.0277 389.534 59.4698 387.958C61.6778 386.55 63.1588 384.302 64.2103 381.948C65.9823 378.082 66.942 373.896 67.502 369.695C69.2885 354.769 69.052 335.84 60.6224 322.882ZM52.5418 330.241C52.6632 330.203 52.7884 330.168 52.906 330.14C54.1002 330.124 56.0978 332.844 57.338 335.856C60.1632 344.099 61.1244 351.597 60.4996 359.259C59.9583 364.531 58.8066 369.416 57.5047 372.739C56.2749 375.533 55.0127 376.706 54.4188 377.032C54.362 377.017 54.3069 376.996 54.2506 376.979C54.162 376.932 54.0626 376.874 53.961 376.813C52.0103 375.07 51.486 373.599 50.4556 371.556C48.7344 367.566 47.0431 358.72 46.9314 352.721C46.8844 352.022 46.8573 351.292 46.8428 350.551C46.8522 349.786 46.8413 349.021 46.8674 348.256C47.1791 345.755 47.5048 344.14 47.6975 342.725C48.093 341.742 48.6781 336.991 49.8741 334C50.201 332.991 51.6506 330.518 52.5418 330.241Z" fill="white"/>
</g>
<defs>
<clipPath id="clip0_250_650">
<rect width="800" height="800" fill="white"/>
</clipPath>
</defs>
</svg>
