<svg width="800" height="800" viewBox="0 0 800 800" fill="none" xmlns="http://www.w3.org/2000/svg">
<g clip-path="url(#clip0_250_552)">
<path d="M799.266 228.293C799.069 226.601 798.306 225.063 797.25 223.726C797.115 223.555 796.988 223.377 796.868 223.191C796.66 222.871 784.552 212.551 777.744 192.881C774.789 184.342 772.055 173.295 769.832 166.872C769.832 166.872 754.303 126.494 677.11 126.494C615.422 131.953 596.829 198.771 595.001 203.134C594.107 205.268 592.397 206.936 590.731 208.541C586.18 212.925 581.63 217.309 577.079 221.694C567.591 229.339 556.912 240.449 520.226 253.553C476.588 269.141 433.127 287.017 387.048 291.919C346.138 296.272 304.291 291.125 264.023 299.557C220.584 308.653 180.73 333.937 153.994 369.362C149.591 368.311 145.294 367.136 141.079 365.865C104.892 353.594 75.2195 329.509 65.9903 292.335C59.6292 266.715 67.2286 238.806 82.8769 217.545C98.5252 196.284 121.522 181.235 146.112 171.632C156.365 167.628 167.053 164.45 176.428 158.681C185.802 152.912 193.945 143.929 195.5 133.032C197.054 122.135 189.994 109.778 179.09 108.275C118.044 104.205 59.7692 140.603 27.0771 191.501C11.1211 216.342 0.329853 245.097 0.00729336 274.62C-0.384547 310.497 15.0401 345.749 39.6087 371.897C58.0135 391.485 77.811 405.735 102.825 415.63C104.575 416.351 106.366 417.002 108.166 417.631C114.992 420.092 122.187 422.266 129.855 424.144C129.857 424.109 129.861 424.072 129.863 424.037C149.682 428.958 170.171 431.841 190.425 434.636C185.879 465.348 183.029 488.471 181.295 511.677C182.51 533.921 184.182 556.891 193.451 577.358C200.017 591.858 210.363 605.068 212.642 620.822C214.925 636.612 208.697 652.362 208.192 668.308C207.977 675.076 209.551 682.398 212.646 688.573C217.694 702.895 226.832 716.763 243.777 715.487C261.243 714.945 262.605 701.687 261.494 692.32C260.55 686.511 259.489 681.739 258.845 676.442C261.527 666.149 262.125 655.289 265.832 645.307C270.341 633.163 279.117 623.18 287.447 613.26C310.573 585.721 331.615 556.434 350.335 525.73C378.834 529.468 401.808 530.246 424.042 525.844C446.276 521.442 467.834 511.569 483.67 495.352C477.393 517.876 468.287 541.239 468.686 565.573C469.085 589.907 481.384 615.727 504.041 624.61C508.147 626.22 512.693 627.241 516.963 626.138C521.233 625.035 525.055 621.317 525.096 616.906C525.117 614.649 524.196 612.506 523.379 610.402C512.68 582.834 519.071 549.412 539.186 527.736C555.492 510.166 582.53 490.315 597.7 459.304C609.959 497.714 619.671 526.519 630.762 563.602C634.611 576.472 638.983 590.147 649.428 598.594C659.874 607.041 678.394 606.69 684.242 594.597C688.423 585.949 684.627 575.798 681.59 566.685C670.014 531.959 670.263 493.408 682.287 458.834C697.934 413.84 720.403 390.209 729.096 359.087C731.421 350.761 730.541 341.627 734.009 333.708C741.096 317.526 758.529 307.886 772.26 296.264C781.936 288.074 792.903 270.896 794.666 265.71C801.985 244.184 799.831 233.17 799.266 228.293Z" fill="#270F03"/>
<path d="M172.929 520.484C158.905 535.83 140.33 541.111 123.72 551C110.472 558.887 98.1789 569.995 87.8928 583.372C83.2053 589.469 78.5295 596.375 72.2872 599.09C65.4247 602.075 58.1468 598.852 54.2944 592.506C50.4421 586.16 49.6727 577.254 50.9431 568.69C54.7087 543.305 73.6402 523.624 89.3805 504.302C107.231 482.39 122.617 457.485 134.772 430.827C137.287 425.312 139.777 419.547 143.708 415.332C152.015 406.423 163.56 407.331 173.464 408.86C184.855 410.618 197.483 413.323 202.868 425.055C208.249 436.778 204.258 452.86 200.202 467.056C194.365 487.485 186.861 505.238 172.929 520.484Z" fill="#270F03"/>
<path d="M83.1449 555.787C82.2361 553.473 78.2241 548.216 73.602 547.801C71.6716 547.916 72.4391 547.859 70.9538 548.43C70.6103 548.596 71.1095 548.375 71.2801 548.305C70.3226 548.649 69.4871 549.278 68.789 550.009C68.6178 550.206 68.4836 550.396 68.3372 550.588C66.8479 552.294 66.1092 554.579 65.533 556.737C64.8065 559.99 64.3247 563.413 65.107 566.7C66.2054 570.785 71.1113 571.229 74.3265 569.363C77.3548 567.589 80.8425 566.014 82.8169 562.986C83.2623 562.172 83.6271 561.297 83.8102 560.384C83.8487 560.086 83.8652 559.866 83.8732 559.687C83.9876 558.351 83.7202 556.998 83.1449 555.787Z" fill="white"/>
<path d="M69.3717 577.929C68.3957 573.672 64.0293 572.585 61.5498 575.904C61.1967 576.254 60.8789 576.688 60.6282 577.232C59.6482 579.31 59.2136 581.656 59.3139 583.948C59.404 585.251 59.6232 586.638 60.5608 587.613C62.7771 590.03 66.3485 588.734 67.8781 586.215C69.4959 583.806 70.004 580.75 69.3717 577.929Z" fill="white"/>
<path d="M81.9852 573.892C80.3209 570.5 75.9215 570.211 74.2054 573.704C73.5161 575.03 73.3887 576.515 73.3075 577.982C73.3067 578.966 73.2217 580.055 73.3561 581.073C73.4454 583.124 73.9846 585.226 75.7406 586.384C77.9465 587.661 80.8572 586.643 81.9785 584.403C83.5779 581.171 83.4567 577.146 81.9852 573.892Z" fill="white"/>
<path d="M60.5406 564.475C58.9256 563.148 57.3798 563.358 56.0733 564.354C54.1507 565.213 53.0466 567.6 52.2954 569.461C51.2398 572.357 51.9675 576.512 55.905 575.639C57.6251 575.015 58.6773 573.947 60.4392 571.286C61.6246 569.269 62.3352 566.351 60.5406 564.475Z" fill="white"/>
<path d="M642.522 149.42C637.363 127.966 639.432 105.193 648.398 84.7423C649.182 83.9515 650.591 84.8236 651.323 85.6527C660.379 95.9196 669.436 106.186 678.492 116.453C681.711 120.102 684.98 123.83 686.769 128.179C688.557 132.528 688.651 137.681 685.728 141.52C683.053 145.033 678.391 146.877 673.905 148.361C663.913 151.664 653.536 154.056 642.522 149.42Z" fill="#270F03"/>
<path d="M705.774 157.133C705.541 156.265 704.719 155.886 704.047 155.396C702.372 154.22 700.713 153.021 699.066 151.805C694.284 148.215 689.234 144.277 683.761 139.755C680.947 137.383 678.214 134.917 675.413 132.531C674.013 131.389 672.551 130.058 670.669 129.898C665.97 129.583 667.505 136.965 667.312 139.975C667.597 150.066 668.972 160.111 671.459 169.896C672.616 173.891 673.456 178.064 674.774 181.969C675.739 183.361 678.081 182.201 677.573 180.575C675.757 172.507 673.628 164.502 672.422 156.308C671.636 151.997 670.89 138.331 671.117 134.045C672.431 134.903 675.103 137.299 677.096 139.048C683.602 144.765 690.449 150.086 697.362 155.299C699.464 156.657 701.369 158.602 703.679 159.517C704.973 159.79 706.163 158.377 705.774 157.133Z" fill="white"/>
<path d="M753.989 198.214C751.652 185.473 754.011 174.365 759.257 173.403C764.503 172.441 770.651 181.989 772.987 194.73C775.324 207.47 772.966 218.579 767.72 219.541C762.474 220.503 756.326 210.955 753.989 198.214Z" fill="white"/>
<path d="M761.715 197.829C759.993 188.442 760.676 180.451 763.241 179.981C765.806 179.51 769.281 186.739 771.003 196.126C772.725 205.513 772.042 213.504 769.477 213.974C766.912 214.445 763.437 207.216 761.715 197.829Z" fill="#270F03"/>
<path d="M498.315 604.466C497.304 601.882 495.676 599.545 493.659 597.644C492.602 596.719 491.517 595.665 490.118 595.318C488.449 594.891 486.78 595.942 486.191 597.508C485.807 598.014 485.55 598.691 485.499 599.552C485.717 602.796 487.43 605.776 489.283 608.373C490.92 610.561 493.947 613.623 497.336 611.04C499.084 609.374 499.191 606.598 498.315 604.466Z" fill="white"/>
<path d="M513.362 610.502C512.978 609.775 512.319 609.205 511.717 608.658C511.394 608.394 511.068 608.132 510.73 607.889C510.195 607.424 509.64 606.991 509.026 606.659C507.707 606.035 506.451 606.693 505.832 607.734C505.342 608.19 504.999 608.799 504.938 609.526C504.66 611.607 506.289 613.287 507.571 614.724C509.115 616.478 511.898 618.186 513.92 616.172C515.591 614.437 514.8 612.091 513.362 610.502Z" fill="white"/>
<path d="M502.297 616.509C501.328 615.686 500.353 614.56 499.03 614.404C496.763 613.993 495.468 616.625 496.455 618.306C496.409 618.866 496.521 619.454 496.847 620.007C498.266 622.823 503.139 625.763 504.706 621.542C505.166 619.519 503.641 617.823 502.297 616.509Z" fill="white"/>
</g>
<defs>
<clipPath id="clip0_250_552">
<rect width="800" height="800" fill="white"/>
</clipPath>
</defs>
</svg>
