<svg width="800" height="800" viewBox="0 0 800 800" fill="none" xmlns="http://www.w3.org/2000/svg">
<path d="M591.695 258.954C568.372 295.349 545.507 327.215 522.281 360.582C519.266 364.902 513.307 365.972 508.987 362.943C460.159 328.743 408.707 294.085 360.907 260.607C356.754 257.69 355.614 252.036 358.323 247.744C369.311 230.283 383.258 209.793 397.135 189.998C409.054 173.023 420.917 156.548 430.807 142.963C433.863 138.754 439.726 137.781 443.976 140.768C453.061 147.158 466.897 156.59 475.426 162.813C477.176 164.091 478.704 165.23 479.913 166.175C522.767 199.583 547.507 213.766 589.5 246.257C593.418 249.272 594.362 254.801 591.695 258.954Z" fill="white"/>
<path d="M459.24 243.035C455.653 232.1 451.973 221.196 448.247 210.308C446.841 206.426 445.766 202.37 444.236 198.56C443.568 197.718 442.121 198.548 442.514 199.564C448.013 219.141 454.617 238.374 460.636 257.792C460.913 259.484 463.381 259.652 463.757 257.914C462.875 252.858 460.684 247.986 459.24 243.035Z" fill="#270F03"/>
<path d="M575.557 254.239C557.691 254.386 539.858 255.461 522.051 256.952C504.7 258.182 484.806 259.102 469.15 260.982C469.045 261.001 469.036 261.005 469.055 261.004C468.999 261.012 468.942 261.016 468.885 261.025C467.547 261.261 466.205 261.487 464.872 261.752C464.79 261.752 464.574 261.778 464.45 261.855C463.593 262.155 463.509 263.466 464.313 263.899C475.292 264.45 486.442 263.294 497.437 262.544C517.609 261.249 537.676 258.803 557.813 257.106C563.271 256.734 568.731 256.369 574.192 256.032C574.837 255.903 575.609 256.077 576.143 255.653C576.647 255.168 576.284 254.214 575.557 254.239Z" fill="#270F03"/>
<path d="M499.637 320.677C499.618 320.637 499.599 320.593 499.581 320.553C499.583 320.561 499.603 320.602 499.637 320.677Z" fill="#270F03"/>
<path d="M499.563 320.522C499.508 320.415 499.5 320.389 499.563 320.522Z" fill="#270F03"/>
<path d="M502.195 319.475C498.016 306.207 492.899 295.643 487.74 282.574C485.326 276.668 483.672 272.846 481.698 268.191C480.908 266.815 478.691 267.709 479.134 269.272C485.822 286.323 493.201 306.404 499.58 320.552C499.694 320.766 499.939 321.174 500.157 321.218C501.26 321.903 502.697 320.681 502.195 319.475Z" fill="#270F03"/>
<path d="M458.626 182.008C477.189 163.445 477.189 133.348 458.626 114.785C440.063 96.2223 409.966 96.2223 391.403 114.785C372.84 133.348 372.84 163.445 391.403 182.008C409.966 200.571 440.063 200.571 458.626 182.008Z" fill="white"/>
<path d="M424.104 125.074C425.325 124.516 422.862 125.555 422.404 125.813C422.238 125.797 421.339 126.434 420.193 127.284C419.497 127.826 418.907 128.487 418.364 129.179C418.093 129.545 417.946 129.693 418.317 129.236C417.487 130.211 416.723 131.266 416.265 132.469C414.868 134.879 418.317 136.712 419.318 134.114C420.606 129.811 426.874 127.712 431.374 129.228C436.3 131.231 436.775 139.946 428.661 145.752C425.899 148.026 418.31 152.602 414.237 156.501C410.721 159.778 409.061 162.017 407.598 163.956C407.541 164.032 407.459 164.143 407.381 164.248C407.289 164.319 407.196 164.391 407.105 164.464C405.728 165.319 405.47 167.669 407.072 168.478C407.135 169.123 413.073 168.838 416.725 168.887C422.318 168.7 428.045 169.372 433.565 169.115C434.623 168.749 435.144 167.51 434.868 166.46C434.494 164.941 432.887 164.727 431.564 164.717C429.618 164.6 427.669 164.54 425.72 164.507C421.05 164.49 416.354 164.438 411.683 164.561C414.266 161.77 419.011 158.235 421.963 155.948C426.949 152.256 432.722 149.266 436.477 144.193C443.648 134.076 436.999 120.888 424.104 125.074Z" fill="#270F03"/>
<path d="M449.48 247.112C425.082 247.225 400.635 246.193 376.279 248.044C374.902 248.264 374.295 247.93 373.521 248.53C372.825 249.189 373.341 250.478 374.315 250.446C393.656 250.911 413.029 250.583 432.372 250.221C438.076 249.997 443.78 249.77 449.48 249.466C450.977 249.491 451.023 247.092 449.48 247.112Z" fill="#270F03"/>
<path d="M471.848 134.905C468.043 123.785 460.792 113.479 450.71 107.243C435.063 97.6031 413.922 97.305 398.654 107.881C392.799 111.843 387.162 116.52 383.454 122.624C375.671 135.654 374.82 152.449 380.836 166.335C383.388 172.448 386.885 178.291 391.537 183.039C392.945 184.39 393.988 185.067 395.781 186.183C396.051 186.346 396.33 186.586 396.663 186.488C397.193 186.346 397.283 185.606 396.814 185.337C391.219 182.044 386.735 174.77 384.253 169.308C380.59 161.352 378.419 152.059 379.338 142.714C380.678 127.451 388.215 116.711 401.635 108.663C416.37 99.443 435.546 100.324 450.235 109.59C459.8 115.786 467.219 126.42 470.274 137.636C471.452 142.941 471.716 146.876 471.897 151.489C471.799 152.195 472.779 152.636 473.255 152.111C473.828 150.757 473.51 149.541 473.775 147.706C473.709 143.384 473.076 139.052 471.848 134.905Z" fill="#270F03"/>
<path d="M582.591 239.751C557.98 221.21 530.493 202.879 505.809 183.861C496.205 176.999 486.895 169.737 477.272 162.9C475.663 161.768 474.037 160.659 472.453 159.491C472.104 159.286 471.688 159.236 471.3 159.34C470.072 159.652 469.805 161.455 470.942 162.075C488.338 174.514 505.307 187.54 522.557 200.18C541.754 214.015 561.004 227.784 580.314 241.461C581.25 241.942 582.049 243.085 583.183 242.852C583.631 242.732 583.973 242.37 584.106 241.929C584.172 240.328 583.54 240.653 582.591 239.751Z" fill="#270F03"/>
<path d="M530.731 350.661C530.486 349.703 529.407 349.094 528.459 349.371C526.837 350.094 526.37 352.201 525.374 353.569C522.378 358.707 519.618 363.803 516.61 364.222C514.248 364.652 508.245 361.095 503.177 357.159C482.309 341.992 461.927 326.143 440.636 311.567C422.495 299.295 403.68 288.055 385.765 275.439C380.951 272.213 376.05 269.122 371.256 265.868C370.139 265.114 369.023 264.358 367.955 263.536C367.654 263.36 367.291 263.314 366.955 263.405C366.027 263.633 365.68 264.921 366.382 265.576C371.694 269.939 377.124 273.408 383.278 277.721C390.001 282.369 396.544 287.273 403.304 291.867C418.158 301.999 433.512 311.381 448.149 321.835C467.373 335.597 486.117 350.025 505.327 363.807C519.998 374.081 523.021 365.452 529.959 353.163C530.357 352.382 531.013 351.585 530.731 350.661Z" fill="#270F03"/>
<path d="M591.768 247.544C590.998 246.238 589.634 244.824 587.765 243.341C587.392 242.959 586.755 242.813 586.272 243.058C585.386 243.371 585.159 244.637 585.832 245.273C593.254 251.084 589.365 257.04 584.645 265.232C576.141 278.386 566.743 290.945 558.304 304.149C549.804 316.955 540.918 329.523 532.717 342.519C532.34 343.249 531.728 343.968 531.99 344.833C532.215 345.711 533.209 346.277 534.081 346.02C535.346 345.43 535.374 344.734 536.676 343.255C540.277 338.501 543.551 333.515 546.821 328.53C556.619 314.453 565.862 300.015 575.283 285.689C581.437 276.249 589.165 267.373 592.767 256.56C593.373 253.945 593.753 250.769 591.768 247.544Z" fill="#270F03"/>
<path d="M396.573 192.203C396.288 191.061 394.608 190.817 394.034 191.871C384.085 204.35 373.323 220.345 363.771 234.734C361.453 238.237 359.209 241.8 357.297 245.544C356.282 247.616 355.347 249.79 355.227 252.124C355.066 254.837 356.09 257.525 357.918 259.52C358.456 260.103 359.015 260.747 359.688 261.189C360.045 261.484 360.364 261.85 360.804 262.004C362.609 262.877 364.313 260.321 362.857 258.956C362.67 258.761 362.49 258.558 362.3 258.366C362.246 258.297 362.191 258.228 362.127 258.157C361.892 257.959 361.124 257.001 360.904 256.732C359.734 255.147 359.534 254.01 359.442 253.572C359.349 251.496 359.312 251.992 359.975 249.775C362.9 242.605 370.568 232.377 375.724 224.26C380.622 216.665 385.507 209.055 390.692 201.652C392.479 199.024 394.43 196.505 396.12 193.814C396.419 193.327 396.761 192.794 396.573 192.203Z" fill="#270F03"/>
<path d="M471.295 165.043C470.868 164.276 469.63 164.429 469.416 165.289C468.09 169.409 465.299 173.016 463.023 175.794C458.686 180.58 455.012 183.707 449.882 186.977C440.329 192.909 433.057 193.598 420.926 193.656C413.758 193.183 408.559 192.334 401.758 189.487C400.987 189.33 400.559 190.508 401.276 190.884C403.912 192.505 406.736 193.843 410.347 195.004C417.661 197.45 429.479 197.631 438.216 195.36C447.952 192.543 456.806 186.653 463.589 179.165C466.352 175.991 468.764 172.463 470.449 168.597C470.779 167.525 471.703 166.126 471.295 165.043Z" fill="#270F03"/>
<path d="M211.442 544.212C244.775 608.347 303.01 659.124 371.088 683.412C439.165 707.699 516.39 705.248 582.791 676.694C630.957 655.981 673.539 621.622 701.934 577.546C730.328 533.47 744.058 479.671 738.71 430.019C737.39 425.61 739.293 420.804 742.157 417.202C745.021 413.6 748.786 410.835 752.022 407.563C760.53 398.958 765.042 387.214 768.296 375.559C774.106 354.747 776.631 333.021 775.184 312.095C785.142 297.943 793.278 282.511 799.328 266.299C799.803 265.027 800.268 263.623 799.817 262.342C798.86 259.625 797.037 258.888 791.683 259.332C778.082 260.458 762.341 264.032 750.97 269.653C734.183 254.451 711.85 245.514 688.657 245.247C683.167 234.028 676.083 223.589 667.684 214.343C666.437 212.97 665.062 211.563 663.268 211.092C659.296 210.052 655.847 213.944 653.879 217.547C646.318 231.386 644.14 247.433 640.652 263.408C630.319 274.734 619.939 286.12 611.503 298.922C603.068 311.725 596.59 326.115 594.502 342.315C583.036 357.99 569.432 372.1 555.495 383.922C543.631 366.712 537.771 345.364 523.096 330.478C519.466 326.797 514.462 323.382 509.482 324.77C505.735 325.815 503.148 329.431 502.24 333.214C501.333 336.996 501.813 340.959 502.363 344.81C505.425 366.213 510.554 387.321 517.493 408.013C513.179 409.766 508.741 411.215 502.799 412.207C491.828 395.202 485.367 375.764 477.161 357.266C474.003 350.146 470.283 342.801 463.778 338.517C462.403 337.612 460.805 336.839 459.174 337.057C457.186 337.322 455.68 338.979 454.635 340.69C450.192 347.966 451.027 357.171 452.135 365.624C455.056 387.904 458.851 410.07 461.583 433.448C431.041 440.072 400.697 447.615 368.537 456.901C358.909 430.01 342.881 405.434 322.154 385.782C303.205 367.815 280.318 353.793 264.364 333.122C253.702 319.307 246.376 302.799 233.596 290.916C227.729 285.46 217.936 281.317 212.294 287.005C209.714 289.605 208.986 293.5 208.796 297.158C207.96 313.293 215.109 328.732 223.215 342.709C231.321 356.685 240.673 370.269 245.003 385.835C248.844 399.646 248.501 414.226 247.627 428.833C241.314 413.715 234.589 398.018 222.146 387.361C209.719 376.718 193.111 372.433 179.334 363.606C165.491 354.738 154.978 341.601 145.392 328.245C140.684 321.686 134.216 314.171 126.291 315.717C118.49 317.239 115.16 326.732 115.341 334.678C115.802 354.801 128.89 372.255 142.403 387.173C157.27 403.584 173.446 418.927 186.367 436.91C199.287 454.893 208.938 476.193 208.676 496.692C150.927 478.575 103.978 429.371 88.5878 370.836C81.8537 345.224 80.8574 318.497 76.7286 292.338C72.5998 266.18 64.7622 239.505 46.9356 219.921C40.7896 213.169 33.1403 207.209 24.1404 205.669C15.1408 204.129 4.74571 208.181 1.29019 216.632C-2.46933 225.827 2.73643 235.981 7.32043 244.794C21.2784 271.63 30.6723 300.832 34.9782 330.772C37.6923 349.644 38.407 368.822 42.4337 387.458C50.9699 426.963 74.3892 462.464 105.001 488.853C135.614 515.242 173.117 532.885 211.442 544.212Z" fill="#270F03"/>
<path d="M654.659 320.472C666.786 320.472 676.617 310.642 676.617 298.515C676.617 286.388 666.786 276.557 654.659 276.557C642.532 276.557 632.701 286.388 632.701 298.515C632.701 310.642 642.532 320.472 654.659 320.472Z" fill="white"/>
<path d="M646.713 312.279C639.11 307.889 636.506 298.168 640.895 290.565C645.284 282.963 655.006 280.358 662.608 284.747C670.211 289.137 672.816 298.858 668.426 306.461C664.037 314.063 654.315 316.668 646.713 312.279Z" fill="#270F03"/>
<path d="M726.893 351.068C739.02 351.068 748.851 341.237 748.851 329.11C748.851 316.983 739.02 307.152 726.893 307.152C714.766 307.152 704.936 316.983 704.936 329.11C704.936 341.237 714.766 351.068 726.893 351.068Z" fill="white"/>
<path d="M718.947 342.876C711.345 338.487 708.74 328.766 713.129 321.163C717.519 313.561 727.24 310.956 734.843 315.345C742.445 319.734 745.05 329.456 740.66 337.058C736.271 344.661 726.55 347.266 718.947 342.876Z" fill="#270F03"/>
<path d="M620.76 524.515C619.365 523.855 617.94 523.258 616.53 522.63C612.406 520.82 608.311 518.936 604.313 516.862C586.753 507.647 572.86 496.395 559.675 481.503C549.137 469.953 540.672 458.005 533.122 443.618C528.941 435.516 526.008 428.862 523.021 420.5C521.796 416.998 520.707 413.45 519.63 409.901C519.531 409.542 519.294 409.237 518.974 409.048C517.942 408.41 516.502 409.462 516.879 410.659C524.466 436.592 537.281 461.25 555.175 481.57C569.142 498.05 586.132 512.095 605.694 521.422C610.451 523.689 614.976 525.615 618.059 526.89C619.77 527.67 619.425 527.428 620.123 527.747C620.851 528.192 621.895 527.924 622.31 527.173C623.003 525.839 621.948 524.928 620.76 524.515Z" fill="white"/>
<path d="M640.627 439.809C637.436 439.064 634.252 438.284 631.104 437.374C612.046 431.163 591.154 420.134 577.35 407.392C571.97 402.313 567.083 396.727 562.492 390.932C562.898 391.523 561.535 389.601 561.152 389.103C559.931 387.552 559.016 385.735 557.74 384.25C556.562 383.23 554.707 384.823 555.562 386.163C559.189 391.91 563.505 397.173 568.016 402.243C572.531 407.341 577.303 412.271 582.806 416.314C590.82 422.484 599.595 427.535 608.701 431.907C616.534 435.702 624.54 439.249 632.989 441.437C636.297 442.295 639.619 443.111 642.965 443.805C644.014 444.143 645.173 443.302 645.154 442.189C645.019 440.008 642.157 440.384 640.627 439.809Z" fill="white"/>
<path d="M259.025 570.871C257.404 567.378 255.754 563.896 254.251 560.35C252.291 555.791 249.125 547.804 247.643 541.502C245.857 534.139 245.285 528.449 244.407 521.562C241.917 503.416 241.566 485.025 243.017 466.775C243.783 458.525 244.757 451.865 246.654 443.497C247.327 439.929 248.578 436.439 249.237 432.903C249.133 431.571 247.028 431.381 246.714 432.73C238.804 459.578 237.647 488.067 240.445 515.8C241.494 524.715 242.233 533.712 244.363 542.453C246.36 550.507 249.246 557.395 252.358 564.067C253.941 567.471 255.716 570.782 257.667 573.99C258.088 574.842 258.83 575.948 259.902 575.321C261.489 574.204 259.389 572.203 259.025 570.871Z" fill="white"/>
<path d="M666.971 241.339C665.677 235.25 663.222 229.478 660.343 223.981C659.699 223.098 659.388 221.744 658.384 221.235C657.54 220.976 656.76 221.982 657.231 222.734C660.805 228.877 663.051 234.316 664.613 241.299C664.638 241.413 664.664 241.527 664.688 241.642C665.342 244.01 665.342 246.607 666.144 248.896C666.67 249.675 667.979 249.397 668.199 248.497C668.109 246.101 667.432 243.7 666.971 241.339Z" fill="white"/>
<path d="M657.962 237.566C657.187 236.897 656.006 237.943 656.551 238.805C657.394 240.64 658.002 242.147 658.354 244.564C658.371 244.662 658.444 245.168 658.473 245.37C658.57 245.99 658.447 246.705 658.887 247.189C659.489 247.833 660.666 247.348 660.637 246.464C660.337 243.392 659.654 240.165 657.962 237.566Z" fill="white"/>
<path d="M656.486 246.098C655.592 244.584 654.354 243.323 653.213 241.999C653.026 241.811 652.766 241.702 652.501 241.704C651.636 241.675 651.157 242.828 651.79 243.422C653.159 245.033 653.896 245.654 654.838 247.288C655.14 247.761 655.247 248.464 655.872 248.614C656.495 248.801 657.159 248.285 657.152 247.639C657.103 247.077 656.732 246.592 656.486 246.098Z" fill="white"/>
<path d="M790.175 267.654C781.091 269.723 772.29 273.309 764.536 278.501C763 279.557 761.493 280.675 760.143 281.963C759.78 282.289 759.493 282.725 759.506 283.231C759.816 285.356 761.7 284.882 762.748 283.83C766.074 280.994 774.169 276.137 780.578 273.42C782.15 272.715 787.77 270.702 790.817 269.982C792.323 269.564 791.706 267.243 790.175 267.654Z" fill="white"/>
<path d="M780.2 280.125C776.503 280.826 773.012 282.268 769.717 284.059C768.574 284.653 767.493 285.366 766.556 286.253C766.208 286.658 765.709 287.038 765.725 287.622C765.859 289.111 767.413 288.996 768.185 288.019C769.158 287.17 769.207 287.189 769.564 286.92C771.75 285.455 774.869 283.864 776.494 283.227C777.866 282.701 779.3 282.374 780.723 282.021C780.969 281.954 781.182 281.788 781.31 281.569C781.762 280.849 781.017 279.872 780.2 280.125Z" fill="white"/>
<path d="M779.19 287.35C776.003 287.146 772.747 287.411 769.745 288.56C768.781 288.935 767.118 289.235 767.48 290.627C767.796 291.726 768.994 291.654 769.817 291.184C770.791 290.826 771.774 290.484 772.782 290.235C774.992 289.64 776.861 289.921 779.668 289.723C780.903 289.283 780.496 287.302 779.19 287.35Z" fill="white"/>
<path d="M685.756 330.11C684.126 331.103 682.434 331.967 680.755 332.699C680.173 332.952 679.476 332.695 679.217 332.115C678.448 330.392 677.948 328.557 677.762 326.738C677.676 325.897 678.471 325.248 679.286 325.469C681.543 326.081 683.723 326.931 685.721 328.029C686.534 328.475 686.547 329.627 685.756 330.11Z" fill="white"/>
</svg>
