<svg width="800" height="800" viewBox="0 0 800 800" fill="none" xmlns="http://www.w3.org/2000/svg">
<path d="M799.45 580.617C797.066 588.734 787.386 592.631 778.947 591.996C770.507 591.352 762.721 587.444 754.624 584.983C722.995 575.361 689.187 588.099 656.132 587.688C633.04 587.405 610.065 580.48 590.656 567.957C609.069 598.639 639.76 622.268 674.584 632.788C680.884 634.693 688.543 637.506 689.383 644.031C689.441 644.49 689.461 644.93 689.451 645.359C689.441 646.161 689.304 646.932 689.06 647.655C688.289 650.029 686.423 651.973 684.03 653.467C683.58 653.75 683.111 654.014 682.623 654.268C679.585 655.831 675.951 656.749 672.66 656.983C644.762 658.986 618.534 644.901 594.124 631.245C562.915 613.779 530.729 595.483 509.454 566.736C451.92 573.603 391.338 561.442 337.691 535.878C284.045 510.325 237.158 471.751 198.349 426.749C159.687 425.44 121.991 414.138 84.1206 417.059C61.5269 418.808 37.9565 425.45 16.5936 419.179C14.7376 418.641 12.9011 417.997 11.0843 417.245C9.8926 416.756 8.69116 416.199 7.54828 415.555C5.1062 414.178 2.9182 412.409 1.531 410.007C0.65196 408.492 0.17324 406.842 0.0366 405.162C-0.0122 404.517 -0.0122 403.862 0.0366 403.208C0.3686 398.421 3.23068 393.567 7.15756 390.568C13.0184 386.085 20.5691 384.639 27.7976 383.164C68.0813 374.9 107.291 361.42 144.126 343.163C130.021 337.019 115.867 333.923 101.596 333.307C91.1243 332.848 80.4672 333.698 70.2987 331.178C69.1656 330.895 68.0325 330.533 66.8994 330.103C64.4378 329.156 62.0739 327.856 60.1301 326.225C58.0006 324.447 56.379 322.259 55.6856 319.729C55.5781 319.329 55.5 318.929 55.4315 318.518C55.3632 318.059 55.3339 317.58 55.3242 317.102C55.2754 311.798 59.3584 307.275 63.9592 304.618C72.3694 299.763 82.5576 299.451 92.277 299.265C139.818 298.337 187.37 297.409 234.911 296.481C232.742 273.028 229.47 245.404 239.258 220.808C248.02 198.8 266.286 181.931 285.823 168.548C303.298 156.563 322.678 146.589 343.64 143.483C356.026 141.656 370.629 143.229 377.848 153.456C379.499 155.791 380.681 158.565 380.603 161.418C380.466 166.194 376.842 170.287 372.593 172.475C368.353 174.663 363.528 175.337 358.829 176.197C340.485 179.557 322.756 186.219 306.746 195.762C293.412 203.714 281.095 213.853 272.733 226.932C258.091 249.858 257.661 281.087 271.668 304.413C305.525 306.035 338.023 320.247 367.982 337.136C397.951 354.025 426.327 373.825 457.448 388.468C488.57 403.1 523.451 412.468 557.376 406.763C560.941 401.352 560.961 395.52 561.801 390.099C564.673 371.442 577.879 356.164 591.682 343.3C592.903 332.946 594.202 323.06 596.263 313.341C596.898 310.382 597.699 307.256 599.926 305.204C600.541 304.647 601.264 304.179 602.085 304.081C604.048 303.827 605.592 305.644 606.715 307.265C613.523 317.151 619.843 327.358 625.655 337.859C647.634 339.656 668.508 346.641 685.807 358.783C693.124 352.902 700.235 346.924 707.346 340.936C708.899 339.637 710.482 338.308 712.328 337.478C713.012 337.175 713.832 336.941 714.496 337.312C714.965 337.576 715.239 338.084 715.454 338.582C717.221 342.763 716.431 347.539 715.6 352.003C713.354 364.135 711.107 376.258 708.87 388.38C713.334 408.766 707.248 431.682 692.909 447.506C686.706 454.354 678.911 460.175 675.268 468.664C673.05 473.822 672.572 479.536 672.376 485.153C671.917 497.949 672.767 510.804 674.906 523.434C682.897 535.537 697.891 541.339 712.406 543.243C726.922 545.148 741.691 543.879 756.245 545.461C770.8 547.043 785.921 552.094 794.907 563.649C798.639 568.455 801.169 574.775 799.45 580.617Z" fill="#270F03"/>
<path d="M637.362 404.923C639.192 405.291 640.948 406.015 642.505 407.043C642.779 407.224 643.079 407.481 643.042 407.807C643.003 408.152 642.619 408.33 642.29 408.44C640.832 408.924 639.352 409.341 637.855 409.689C637.655 409.736 637.44 409.78 637.247 409.708C637.082 409.646 636.959 409.508 636.845 409.373C635.691 408.014 634.678 406.534 633.828 404.967C633.761 404.842 633.693 404.689 633.762 404.565C633.837 404.43 634.022 404.416 634.176 404.421C635.379 404.459 636.546 404.758 637.362 404.923Z" fill="white"/>
<path d="M629.188 387.125C631.71 376.49 625.133 365.825 614.498 363.303C603.864 360.781 593.198 367.358 590.676 377.992C588.155 388.627 594.731 399.292 605.366 401.814C616.001 404.336 626.666 397.759 629.188 387.125Z" fill="white"/>
<path d="M693.444 406.413C695.206 395.626 687.889 385.454 677.103 383.692C666.316 381.93 656.144 389.247 654.382 400.033C652.62 410.82 659.937 420.992 670.723 422.754C681.51 424.516 691.683 417.199 693.444 406.413Z" fill="white"/>
<path d="M687.966 412.637C689.981 404.161 684.744 395.657 676.268 393.642C667.792 391.627 659.288 396.864 657.273 405.339C655.258 413.815 660.495 422.319 668.97 424.334C677.446 426.35 685.95 421.112 687.966 412.637Z" fill="#270F03"/>
<path d="M623.43 393.799C626.455 385.629 622.283 376.554 614.113 373.53C605.943 370.506 596.868 374.677 593.844 382.847C590.82 391.017 594.991 400.092 603.161 403.116C611.331 406.141 620.406 401.969 623.43 393.799Z" fill="#270F03"/>
<path d="M779.824 577.529C779.728 576.977 779.478 576.46 779.188 575.984C778.874 575.314 777.078 573.653 776.268 572.985C774.64 571.357 771.898 568.92 769.706 570.993C768.84 571.818 768.57 573.036 768.226 574.139C767.642 576.153 767.038 578.329 767.718 580.395C767.979 581.16 768.648 581.83 769.486 581.869C769.588 581.858 769.687 581.831 769.788 581.815C770.149 581.899 770.473 581.843 770.867 581.792C770.856 581.796 770.868 581.797 770.938 581.793C771.326 581.827 772.842 581.61 773.128 581.569C774.089 581.391 777.535 581.387 779.023 580.003C779.037 579.985 779.05 579.966 779.064 579.948C779.373 579.607 779.614 579.22 779.762 578.783C779.993 578.007 779.834 577.734 779.824 577.529Z" fill="white"/>
<path d="M789.782 572.499C789.186 569.623 784.332 568.825 781.874 569.165C779.797 569.599 779.259 572.25 780.589 573.735C782.288 575.453 786.661 576.564 788.645 574.891C788.768 574.786 788.875 574.668 788.97 574.542C789.514 574.084 789.845 573.425 789.782 572.499Z" fill="white"/>
<path d="M790.678 580.727C789.256 579.594 787.166 579.389 785.4 579.457C783.988 579.496 783.026 580.417 782.86 581.419C782.694 581.948 782.727 582.528 783.058 583.069C783.61 583.939 784.639 584.31 785.584 584.591C787.144 585.04 788.88 585.075 790.339 584.288C791.611 583.573 791.681 581.705 790.678 580.727Z" fill="white"/>
<path d="M781.86 586.137C781.166 584.973 779.803 584.509 778.588 584.083C777.022 583.542 774.535 583.453 774.438 585.652C774.483 586.578 775.059 587.278 775.843 587.779C775.918 587.921 776.007 588.057 776.127 588.174C776.748 588.733 777.651 588.834 778.437 589.031C779.274 589.179 780.173 589.289 780.971 588.941C782.079 588.548 782.43 587.104 781.86 586.137Z" fill="white"/>
<path d="M612.822 339.855C611.816 334.263 610.189 328.819 608.227 323.493C606.598 319.225 604.722 314.986 602.369 311.08C601.924 310.7 601.239 311.293 601.555 311.794C606.24 320.492 609.926 330.543 611.546 340.011C611.555 340.976 613.051 340.809 612.822 339.855Z" fill="white"/>
<path d="M712.349 341.628C706.614 348.859 699.124 356.484 691.018 361.371C690.257 361.859 691.08 362.937 691.781 362.348C696.4 359.736 700.447 356.25 704.262 352.588C707.56 349.379 710.642 345.928 713.401 342.243C713.802 341.575 712.744 340.938 712.349 341.628Z" fill="white"/>
<path d="M707.306 356.642C704.535 359.145 700.469 361.31 696.816 363.156C696.524 363.488 696.811 364.049 697.246 364.036C700.478 362.711 703.515 360.818 706.281 358.677C706.8 358.179 707.902 357.633 708.089 356.966C708.101 356.572 707.577 356.353 707.306 356.642Z" fill="white"/>
<path d="M704.295 363.95C702.821 364.561 701.285 365 699.767 365.489C699.105 365.584 698.899 366.514 699.495 366.848C699.687 366.946 699.913 366.988 700.116 366.896C700.914 366.576 701.716 366.268 702.516 365.952C703.263 365.651 704.011 365.347 704.735 364.992C704.862 364.918 704.958 364.794 704.997 364.652C705.118 364.241 704.708 363.825 704.295 363.95Z" fill="white"/>
<path d="M607.947 335.869C607.387 334.62 606.761 333.402 606.183 332.161C605.193 330.171 604.823 329.048 603.998 326.973C603.534 326.297 602.405 326.864 602.65 327.644C603.419 330.294 604.587 332.803 605.699 335.321C606.067 335.945 606.184 336.918 606.932 337.189C607.675 337.42 608.362 336.53 607.947 335.869Z" fill="white"/>
<path d="M603.098 335.615C602.42 334.016 602.104 332.441 601.936 331.337C601.621 330.451 600.202 330.744 600.237 331.679C600.31 333.261 600.707 334.808 601.332 336.26C601.704 337.537 603.635 336.835 603.098 335.615Z" fill="white"/>
<path d="M684.03 653.466C683.581 653.749 683.112 654.013 682.623 654.267C682.535 654.15 682.438 654.032 682.34 653.935C681.061 652.421 678.882 651.395 677.173 650.74C673.07 649.324 669.827 648.728 665.705 648.572C664.992 648.591 664.601 647.634 665.119 647.146C665.803 646.638 666.789 647.058 667.59 647.019C670.101 647.224 672.611 647.527 675.034 648.23C678.237 648.972 682.574 651.19 683.962 653.388C683.991 653.417 684.01 653.436 684.03 653.466Z" fill="white"/>
<path d="M689.451 645.359C689.441 646.16 689.304 646.932 689.06 647.655C688.825 647.498 688.689 647.225 688.523 647C687.272 645.3 684.029 643.298 681.304 642.526C677.914 641.491 675.453 641.501 671.966 641.051C671.116 640.856 671.213 639.518 672.073 639.449C674.867 639.742 679.428 640.045 682.818 641.266C684.889 641.97 687.497 643.366 689.451 645.359Z" fill="white"/>
<path d="M26.1657 418.26C23.079 418.915 19.8165 419.286 16.5931 419.179C14.7371 418.641 12.9006 417.997 11.0838 417.245C9.89217 416.756 8.69073 416.199 7.54785 415.555C10.0875 416.59 12.7249 417.264 15.3037 417.508C18.9569 417.85 22.3368 417.264 25.4723 416.854C26.283 416.6 26.8691 417.772 26.1657 418.26Z" fill="white"/>
<path d="M21.4678 409.468C21.1259 410.279 20.0418 409.976 19.3286 410.093C16.3786 410.162 13.4189 409.829 10.5178 409.331C6.46396 408.364 3.60188 407.104 0.0366 405.16C-0.0122 404.516 -0.0122 403.861 0.0366 403.207C0.31004 403.168 0.62268 403.246 0.91564 403.5C7.13788 407.221 13.165 408.667 20.6474 408.218C21.2627 408.198 21.7413 408.911 21.4678 409.468Z" fill="white"/>
<path d="M76.1694 318.528C76.0131 319.534 74.4404 319.475 73.659 319.788C70.7188 320.481 67.7102 320.911 64.6919 321.019C61.6833 321.107 58.45 320.989 55.6857 319.729C55.5782 319.329 55.5001 318.928 55.4316 318.518C55.5587 318.323 55.7638 318.186 56.0276 318.166C56.7113 318.166 57.3659 318.518 58.0495 318.626C60.4623 319.231 62.3671 319.309 65.1998 319.192C68.8043 318.977 71.0215 318.714 75.0657 317.561C75.6419 317.385 76.2867 317.932 76.1694 318.528Z" fill="white"/>
<path d="M77.6636 329.673C76.9505 330.229 75.8956 329.976 75.036 330.161C72.3204 330.405 69.5952 330.454 66.8992 330.103C64.4376 329.155 62.0737 327.856 60.1299 326.225C61.9956 326.82 63.8905 327.358 65.8148 327.739C68.6379 328.276 73.1801 328.325 76.931 327.895C77.8297 327.866 78.3182 329.057 77.6636 329.673Z" fill="white"/>
</svg>
