<svg width="800" height="800" viewBox="0 0 800 800" fill="none" xmlns="http://www.w3.org/2000/svg">
<path d="M788.143 590.649C769.827 624.962 732.592 644.968 695.423 656.458C674.617 662.878 652.462 667.28 631.107 662.996C622.564 661.293 613.354 657.296 610.354 649.108C607.117 640.317 612.895 630.268 620.927 625.447C628.971 620.638 638.679 619.734 648.008 618.804C677.513 615.856 708.799 610.629 730.81 590.753C748.13 575.11 757.551 551.134 755.52 527.892C753.489 504.636 740.047 482.665 715.612 473.376C665.721 525.939 594.71 554.108 523.319 566.62C380.511 591.657 228.244 557.567 107.669 474.987C102.101 472.511 93.9782 470.86 91.2792 476.324C89.2877 480.346 92.2357 484.971 95.0918 488.443C100.739 495.242 106.661 501.793 112.884 508.069C118.033 513.27 123.824 519.965 122.212 526.883C122.134 527.197 122.042 527.525 121.937 527.852C121.793 528.272 121.636 528.678 121.426 529.058C120.483 530.997 118.924 532.582 117.063 533.748C115.452 534.757 113.618 535.451 111.731 535.805C111.22 535.897 110.722 535.975 110.211 536.015C105.193 536.434 100.228 534.783 95.5896 532.818C66.1371 520.358 43.2878 493.814 34.1954 463.156C32.8197 458.505 34.025 449.111 36.4619 444.919C44.2443 431.542 66.9886 429.38 80.9421 433.691C73.972 411.3 66.9886 394.163 60.0056 371.785C58.5643 367.147 57.0578 362.405 54.0968 358.566C49.1443 352.172 40.9819 349.303 34.6277 344.298C25.915 337.459 20.9757 326.952 16.9142 316.64C8.94848 296.425 3.17056 275.357 0 254.932C4.17936 243.494 16.7178 237.533 23.7926 227.628C29.4131 219.754 31.2475 209.862 35.0994 200.979C40.9819 187.419 51.9086 176.099 65.2594 171.762C66.9494 160.574 69.1243 149.463 71.7709 138.471C72.0984 137.109 72.7141 135.484 74.1029 135.314C75.3083 135.17 76.2778 136.257 76.9984 137.227C83.1693 145.52 89.327 153.813 95.0394 163.063C112.595 158.936 131.174 159.211 149.726 162.801C153.014 154.455 157.351 146.529 162.591 139.27C163.535 137.973 164.57 136.637 166.063 136.061C169.719 134.645 173.191 138.419 175.208 141.786C181.576 152.385 186.646 163.77 190.288 175.588C192.437 182.598 194.114 189.803 197.403 196.354C199.983 201.503 203.495 206.115 206.81 210.832C221.824 232.2 232.974 256.268 242.276 283.808C286.494 274.257 332.402 277.322 377.38 282.196C421.323 286.965 466.262 293.804 505.069 315.933C506.064 285.59 530.106 257.552 559.938 251.944C576.866 248.748 594.278 252.141 611.507 252.023C628.735 251.892 647.759 246.992 657.008 232.449C660.782 226.514 662.551 219.479 666.219 213.478C672.259 203.586 683.264 197.206 694.741 195.66C706.231 194.127 718.062 197.14 728.111 202.931C732.539 205.473 736.837 208.801 739.208 213.229C739.706 214.12 740.099 215.05 740.414 216.033C740.558 216.465 740.663 216.911 740.741 217.356C741.239 219.898 740.911 222.662 739.89 225.021C739.575 225.768 739.195 226.475 738.724 227.117C737.453 228.951 735.658 230.327 733.417 230.825C728.399 231.951 723.434 228.571 718.285 228.597C713.254 228.624 708.695 232.03 706.035 236.314C703.375 240.612 702.327 245.669 701.58 250.661C700.309 259.098 699.772 267.64 699.995 276.169C700.349 290.673 702.524 306.5 694.414 318.54C686.029 331 669.691 334.773 654.925 337.551C650.065 338.468 645.191 339.385 640.317 340.97C660.965 344.088 681.037 350.941 698.528 359.142C706.258 344.783 715.756 331.38 726.735 319.313C729.461 316.313 732.356 313.339 736.038 311.662C740.702 309.526 746.047 309.697 751.157 310.103C761.521 310.902 772.565 312.802 779.994 320.073C780.793 320.859 781.527 321.737 782.182 322.667C783.191 324.121 784.003 325.694 784.619 327.358C785.745 330.371 786.178 333.633 785.837 336.699C785.771 337.42 785.654 338.114 785.483 338.782C784.697 342.189 782.837 345.202 779.758 347.141C774.504 350.443 767.613 349.709 761.939 352.238C754.288 355.657 750.436 364.134 747.698 372.034C742.353 387.481 738.763 403.544 736.784 423.537C761.154 443.622 781.867 469.013 792.532 498.727C803.21 528.455 803.026 562.781 788.143 590.649Z" fill="#270F03"/>
<path d="M41.7569 227.509C43.9752 212.476 53.6075 201.446 63.2713 202.872C72.935 204.298 78.9707 217.641 76.7525 232.673C74.5341 247.705 64.9017 258.736 55.2381 257.31C45.5744 255.884 39.5385 242.541 41.7569 227.509Z" fill="white"/>
<path d="M48.5367 237.301C47.1742 228.782 47.662 223.444 50.7348 216.413C51.7729 214.038 54.043 211.76 56.6155 212.079C59.4636 212.432 60.7913 215.757 61.3249 218.577C62.8724 226.756 62.5324 235.532 58.8143 242.98C57.7711 245.069 55.8617 247.31 53.5804 246.81C52.5652 246.587 49.4342 242.912 48.5367 237.301Z" fill="#270F03"/>
<path d="M159.365 426.493C159.355 426.475 159.244 426.373 159.204 426.361C159.221 426.376 159.241 426.394 159.255 426.406C159.292 426.434 159.328 426.463 159.365 426.493Z" fill="white"/>
<path d="M222.268 324.86C207.011 321.374 191.966 317.046 176.847 313.015C166.955 310.324 154.391 306.932 146.181 306.274C139.818 305.765 133.308 306.987 127.443 309.469C115.299 314.317 111.914 327.516 114.163 339.416C115.193 346.804 118.454 353.564 121.723 360.184C125.712 368.304 129.656 376.272 132.48 383.465C135.031 389.572 136.882 395.933 138.43 402.361C139.815 408.017 140.938 413.79 143.477 419.074C146.236 424.876 151.576 429.68 157.933 431.059C162.247 431.839 166.655 430.422 170.394 428.311C177.449 423.913 181.713 416.433 184.632 408.855C187.524 401.83 188.701 394.293 190.881 387.061C191.709 384.935 192.758 383.771 196.094 383.883C198.221 383.979 199.8 384.406 202.889 385.572C203.87 385.841 204.793 386.615 205.837 386.435C207.377 386.34 208.29 384.386 207.477 383.098C206.877 382.095 205.654 381.925 204.666 381.47C202.901 380.795 201.119 380.107 199.255 379.762C193.667 378.557 188.399 380.023 186.539 385.896C183.302 397.32 181.82 407.492 175.671 416.76C174.333 418.816 172.817 420.617 171.184 422.103C170.695 421.269 169.662 420.587 169.456 419.99C167.97 417.758 167.512 416.51 166.933 413.866C166.035 409.813 166.112 405.535 165.382 400.86C165.189 399.504 164.857 398.176 164.402 396.884C164.32 396.583 164.046 396.323 163.729 396.304C163.18 396.194 162.676 396.785 162.841 397.314C164.753 403.814 163.531 411.559 166.074 418.572C166.521 419.838 167.031 421.122 168.021 422.849C168.261 423.238 168.465 423.656 168.771 423.997C165.873 425.951 162.722 426.943 159.582 426.651C159.507 426.596 159.441 426.548 159.404 426.523C159.371 426.502 159.344 426.483 159.255 426.405C159.234 426.39 159.214 426.372 159.193 426.357C159.181 426.34 159.163 426.324 159.132 426.297C155.58 423.24 154.583 418.143 153.782 412.712C153.471 410.849 153.226 406.179 152.877 403.386C152.621 402.169 152.623 400.161 151.783 399.276C151.201 398.914 150.411 399.511 150.615 400.174C151.443 403.32 151.379 407.137 151.746 410.91C152.146 415.318 153.063 420.555 154.748 423.97C154.992 424.51 155.275 425.031 155.578 425.542C153.415 424.533 151.316 422.841 149.374 420.344C144.412 414.062 142.265 399.33 138.604 388.815C134.113 375.035 125.767 359.326 121.012 347.892C114.952 330.859 117.226 315.416 134.797 311.729C143.907 309.377 151.528 311.317 161.85 313.629C179.913 317.702 198.107 322.804 215.204 325.871C217.348 326.286 219.48 326.763 221.607 327.257C222.081 327.381 222.635 327.227 222.913 326.811C223.464 326.178 223.095 325.052 222.268 324.86Z" fill="white"/>
<path d="M174.572 151.649C173.335 148.435 171.988 145.259 170.344 142.228C169.725 141.286 169.112 139.6 168.196 139.044C167.559 138.852 166.966 139.606 167.324 140.179C175.431 154.836 179.807 173.126 181.599 189.529C181.744 190.236 181.531 190.234 181.931 190.782C182.455 191.334 183.472 190.861 183.359 190.091C182.324 176.942 179.525 163.892 174.572 151.649Z" fill="white"/>
<path d="M79.8877 150.935C78.5351 146.717 77.2301 142.293 74.8771 138.533C74.1646 137.921 73.0745 138.877 73.5776 139.674C74.9272 142.149 75.7562 145.094 76.867 148.239C78.8985 154.188 80.4712 159.979 80.7211 165.686C80.571 167.057 82.6441 167.266 82.6934 165.86C82.2614 160.807 81.3451 155.794 79.8877 150.935Z" fill="white"/>
<path d="M177.731 180.735C174.432 177.252 170.838 174.027 167 171.148C165.228 170.013 163.156 168.482 161.816 168.592C161.088 168.776 160.728 169.677 161.114 170.319C161.605 170.973 162.498 171.202 163.169 171.644C166.227 173.402 169.107 175.374 171.316 177.161C173.241 178.704 174.936 180.551 176.765 182.168C177.608 182.58 178.419 181.375 177.731 180.735Z" fill="white"/>
<path d="M116.053 533.428C116.123 533.436 116.189 533.445 116.251 533.453C116.346 533.458 116.328 533.455 116.053 533.428Z" fill="white"/>
<path d="M117.063 533.748C115.452 534.757 113.618 535.451 111.731 535.805C105.023 535.019 98.9173 531.337 94.5938 526.214C93.9913 525.651 94.7117 524.59 95.4455 524.944C96.546 525.979 98.3671 528.193 99.1269 528.573C104.211 532.398 109.163 533.289 115.19 533.42C115.412 533.394 116.067 533.447 116.251 533.46C116.356 533.473 116.408 533.473 116.434 533.473C116.487 533.486 116.5 533.486 116.513 533.486C116.709 533.525 116.906 533.617 117.063 533.748Z" fill="white"/>
<path d="M122.213 526.882C122.134 527.197 122.042 527.524 121.937 527.852C121.793 528.271 121.636 528.677 121.426 529.057C121.256 528.952 121.125 528.874 121.046 528.874C114.43 526.673 108.534 522.847 103.32 518.275C102.717 517.724 103.425 516.676 104.145 517.043C105.927 518.379 106.936 519.323 108.901 520.567C113.382 523.45 117.247 525.153 121.898 526.764C122.003 526.817 122.108 526.843 122.213 526.882Z" fill="white"/>
<path d="M739.89 225.021C739.576 225.767 739.196 226.475 738.724 227.117C737.99 226.475 737.23 225.82 736.379 225.191C735.173 224.287 733.929 223.462 732.632 222.715C727.574 219.806 721.862 217.605 716.438 216.989C715.77 217.002 715.403 216.151 715.888 215.705C716.032 215.561 716.228 215.482 716.438 215.482C717.617 215.614 718.796 215.745 719.962 215.98C723.028 216.544 726.042 217.369 728.95 218.483C732.619 219.872 736.012 221.929 739.065 224.326C739.274 224.562 739.576 224.785 739.89 225.021Z" fill="white"/>
<path d="M740.741 217.356C740.479 217.081 740.243 216.793 739.955 216.557C734.609 211.854 726.513 208.565 719.202 208.081C718.599 208.094 718.127 207.425 718.403 206.888C718.953 205.892 720.46 206.6 721.403 206.535C723.63 206.744 727.299 207.321 730.076 208.395C733.05 209.443 736.666 211.421 739.208 213.229C739.706 214.121 740.099 215.051 740.413 216.033C740.558 216.466 740.662 216.911 740.741 217.356Z" fill="white"/>
<path d="M785.837 336.699C785.772 337.419 785.654 338.114 785.484 338.782C782.274 337.563 779.011 336.424 775.618 335.886C772.513 335.362 766.604 335.166 763.184 335.677C762.595 335.86 762.058 335.153 762.372 334.629C762.477 334.471 762.621 334.353 762.804 334.314C763.84 334.104 764.861 333.895 765.897 333.712C772.605 332.48 780.177 334.275 785.837 336.699Z" fill="white"/>
<path d="M784.619 327.358C784.225 327.109 783.872 326.781 783.465 326.585C776.482 322.484 768.936 321.41 760.184 322.274C759.359 322.287 758.821 321.318 759.241 320.623C759.568 320.034 760.315 320.086 760.891 319.968C761.848 319.837 761.966 319.785 762.306 319.772C765.254 319.431 768.228 319.431 771.163 319.798C774.635 320.178 778.041 321.121 781.317 322.327C781.605 322.431 781.893 322.549 782.182 322.667C783.19 324.121 784.003 325.694 784.619 327.358Z" fill="white"/>
</svg>
