<svg width="1015" height="472" viewBox="0 0 1015 472" fill="none" xmlns="http://www.w3.org/2000/svg">
<path d="M696.921 202.468C699.28 189.146 702.139 175.835 707.121 163.217C711.621 149.957 718.122 136.452 716.834 122.131C716.169 115.642 712.786 108.859 706.611 106.09C703.271 104.569 699.484 104.966 696.055 105.979C691.218 107.298 686.919 109.985 683.116 113.197C674.796 120.346 669.767 130.557 665.492 140.475C657.178 159.404 652.257 179.803 650.41 200.374C648.729 223.165 649.69 246.144 652.271 268.834C653.323 276.969 655.298 284.939 656.809 292.992C658.544 303.084 659.926 313.233 661.617 323.332C663.763 337.613 666.008 352.185 663.932 367.54C662.562 384.419 653.581 401.752 637.941 410.614C634.698 412.419 631.733 413.647 628.375 414.671C633.733 392.538 632.452 369.225 628.953 346.861C626.355 332.129 622.524 317.513 617.095 303.563C611.868 290.463 604.809 278.209 597.869 265.962C590.98 253.118 582.33 241.261 576.094 228.072C570.757 216.421 565.684 205.053 562.725 191.681C560.628 183.432 559.45 176.834 559.665 168.267C559.808 162.885 560.23 157.974 561.103 153.073C561.175 152.618 561.265 152.166 561.356 151.713C564.29 146.59 567.369 141.374 568.716 134.726C570.104 128.331 570.003 121.757 569.062 115.306C568.659 111.085 566.655 101.723 564.451 95.8287C562.235 88.828 558.418 82.4558 554.704 76.1594C554.983 62.3914 553.896 48.6491 551.463 35.0868C548.713 16.176 535.821 35.4992 530.312 42.4759C526.855 47.1934 523.492 51.9782 520.154 56.78C510.946 54.5681 501.443 53.6225 491.993 53.2722C483.16 53.1388 474.326 54.3739 465.679 56.0959C464.12 56.4373 462.562 56.7893 461.009 57.1621C459.808 55.7905 458.584 54.4391 457.307 53.1385C453.65 49.3978 449.787 45.8649 446.192 42.0627C443.006 38.766 439.915 35.3141 436.19 32.6083C431.48 29.9403 430.924 34.0621 430.858 36.7622C430.415 43.7718 431.116 50.7469 431.783 57.7173C432.11 63.258 432.975 68.7477 433.423 74.2742C432.532 77.1809 431.18 80.5787 430.407 83.3967C428.104 90.818 421.482 109.043 420.456 120.682C418.315 144.966 433.582 156.967 433.775 157.239C433.549 166.785 431.659 181.079 415.166 194.394C408.287 199.949 398.782 204.426 388.84 206.545C378.955 208.876 370.553 210.036 360.023 209.101C359.788 209.087 359.544 209.053 359.308 209.035C355.622 208.486 351.674 207.73 347.329 206.483C339.332 203.976 333.789 201.566 327.645 198.79C322.872 196.468 318.15 194.04 313.34 191.79C310.575 190.466 307.675 189.166 304.555 189.131C296.861 189.48 293.025 193.601 294.213 203.562C295.453 212.758 302.517 219.663 308.816 225.903C320.623 237.038 335.244 244.568 349.977 251.074C363.584 257.414 381.376 263.775 397.413 267.814C399.895 268.387 402.389 268.922 404.892 269.415C405.624 280.618 403.432 291.399 400.008 303.254C396.989 312.826 394.64 321.616 390.054 329.24C383.065 339.893 374.756 349.617 367.77 360.277C361.831 368.48 356.752 377.45 354.799 387.492C352.331 399.13 352.738 411.299 355.227 422.898C356.213 426.382 357.513 429.768 359.026 433.057C358.7 433.066 358.374 433.072 358.047 433.081C347.889 434.764 337.491 435.95 328.554 440.841C323.144 444.111 321.879 447.616 323.329 451.787C326.897 462.158 341.556 462.189 350.72 462.121C360.578 462.197 370.421 461.539 380.274 461.345C395.826 460.729 411.393 460.451 426.929 459.468C430.78 459.23 434.628 458.925 438.464 458.51C439.01 458.37 439.64 458.359 440.248 458.302C441.553 469.671 461.779 466.659 490.256 467.781C519.209 468.921 559.803 465.688 588.639 462.967C620.145 459.994 617.453 447.124 618.74 445.386C621.551 445.519 624.37 445.5 627.197 445.226C636.645 444.674 646.12 442.82 654.675 438.666C670.966 431.323 682.982 416.719 690.257 400.694C697.76 383.95 701.023 365.535 702.747 347.363C703.488 339.217 701.979 331.099 700.933 323.045C699.437 308.78 695.12 290.119 693.606 275.682C692.365 261.201 692.344 246.606 693.075 232.096C693.743 221.36 695.151 213.354 696.921 202.468Z" fill="#0F0820"/>
<path d="M530.179 120.06C532.501 109.835 526.095 99.6636 515.87 97.3411C505.645 95.0187 495.473 101.425 493.15 111.65C490.828 121.875 497.234 132.047 507.459 134.369C517.685 136.692 527.856 130.285 530.179 120.06Z" fill="white"/>
<path d="M465.46 129.508C473.41 123.319 474.837 111.857 468.647 103.907C462.458 95.9571 450.996 94.53 443.047 100.719C435.097 106.908 433.67 118.37 439.859 126.32C446.048 134.27 457.51 135.697 465.46 129.508Z" fill="white"/>
<path d="M484.318 127.016C481.756 127.039 479.161 127.075 476.615 127.384C476.239 127.48 475.832 127.78 476.072 128.169C476.282 128.474 476.231 128.362 476.403 128.591C477.283 129.47 478.306 130.254 479.183 131.154C479.682 131.666 480.109 132.222 480.74 131.94C481.752 131.009 482.754 130.059 483.737 129.092C484.035 128.798 486.021 127.318 484.318 127.016Z" fill="white"/>
<path d="M506.729 110.016C509.556 115.19 509.764 121.84 507.237 127.016C504.581 122.156 504.14 115.923 506.729 110.016Z" fill="#0F0820"/>
<path d="M448.729 111.016C451.557 115.886 451.764 122.145 449.237 127.016C446.581 122.441 446.14 116.575 448.729 111.016Z" fill="#0F0820"/>
<path d="M545.826 275.346C545.188 276.288 545.161 277.571 544.717 278.624C543.459 282.403 542.491 284.483 540.636 288.135C532.907 301.644 524.519 312.571 513.108 323.326C506.917 329.175 499.688 333.507 491.543 338.068C482.183 343.67 470.613 348.828 461.858 347.547C452.802 346.214 450.414 340.196 453.437 333.246C455.712 328.043 458.404 325.166 461.665 321.064C467.683 313.795 474.323 307.017 479.658 299.201C488.487 286.194 497.689 272.704 500.05 256.8C500.35 254.952 500.6 253.092 500.714 251.222C500.768 250.461 500.984 249.444 500.094 249.112C499.398 248.775 498.509 249.367 498.534 250.144C497.515 263.553 492.372 274.918 484.471 286.698C479.604 294.13 475.448 300.534 470.051 306.759C465.693 311.922 461.082 316.87 456.926 322.203C453.944 325.903 451.204 329.92 449.788 334.504C446.74 343.461 452.928 349.866 461.626 350.856C473.044 352.05 483.772 346.323 493.401 340.839C505.465 334.46 516.462 326.142 525.213 315.594C531.78 307.824 538.133 299.727 542.743 290.608C544.245 287.38 546.797 281.849 547.951 276.586C548.299 275.385 546.718 274.414 545.826 275.346Z" fill="white"/>
<path d="M526.944 368.047C525.56 367.769 524.427 369.409 523.332 370.077C516.353 375.594 511.941 383.665 508.268 391.635C504.945 399.007 503.083 406.903 500.449 414.523C499.708 417.049 495.966 423.973 494.482 425.695C487.443 434.668 475.661 436.184 464.09 439.639C456.546 442.111 448.514 445.372 443.561 451.886C442.531 453.655 441.784 454.888 442.056 457.256C442.528 458.51 444.517 458.117 444.483 456.765C444.641 452.938 449.115 449.786 453.864 446.96C461.18 442.775 470.232 441.162 479.054 438.392C483.892 437.056 488.671 435.221 492.678 432.122C500.443 425.946 503.618 415.915 506.296 406.705C509.06 398.045 511.375 391.442 516.071 383.778C518.593 379.779 520.042 377.526 523.277 374.315C524.627 373.058 526.017 371.841 527.431 370.656C527.575 370.542 527.526 370.577 527.447 370.637C528.357 369.962 528.113 368.32 526.944 368.047Z" fill="white"/>
<path d="M448.143 61.5271C447.333 59.6987 446.499 57.8782 445.6 56.0906C442.979 51.0356 439.963 46.227 436.635 41.6009C436.193 41.0908 435.971 40.2838 435.285 40.0567C434.449 39.8011 433.673 40.7916 434.141 41.5316C439.028 48.2454 444.516 58.4142 446.656 64.1583C446.936 65.3001 448.691 65.3028 448.978 64.158C449.134 63.2312 448.41 62.3886 448.143 61.5271Z" fill="white"/>
<path d="M441.855 65.4662C440.544 60.92 438.705 56.5509 436.465 52.4095C435.969 51.5027 434.595 52.326 435.116 53.2245C436.738 56.3861 438.054 59.3143 439.108 62.347C439.58 63.7418 439.698 65.294 440.298 66.6255C441.039 67.6164 442.457 66.5314 441.855 65.4662Z" fill="white"/>
<path d="M545.438 35.2858C538.72 40.912 533.201 48.01 529.095 55.6834C528.35 57.2189 527.613 58.7676 527.072 60.386C526.952 60.7279 526.981 61.1155 527.169 61.4281C527.639 62.2776 528.956 62.1691 529.351 61.3395C529.336 61.3761 529.329 61.3939 529.357 61.3311C529.384 61.2685 529.412 61.2066 529.439 61.1441C531.199 55.5282 536.454 47.9592 540.123 43.5114C542.135 41.0302 544.309 38.6607 546.728 36.5569C547.57 35.7541 546.266 34.4478 545.438 35.2858Z" fill="white"/>
<path d="M544.335 47.2834C540.973 50.8027 538.056 54.7951 536.289 59.2512C535.734 60.6957 535.3 62.1849 535.039 63.7019C534.96 63.9705 535.002 64.2654 535.151 64.5055C535.493 65.0862 536.397 65.1912 536.888 64.7165C537.375 64.1965 537.229 63.403 537.456 62.7704C538.415 58.6326 540.075 55.7051 542.761 52.0529C543.86 50.5189 544.563 49.9353 545.908 48.2828C546.361 47.41 545.037 46.571 544.335 47.2834Z" fill="white"/>
<g clip-path="url(#clip0_366_149)">
<path d="M1011.29 3.70703H813.484V152.063H1011.29V3.70703Z" fill="white"/>
<path d="M1015 155.773H809.775V0H1015V155.773ZM817.193 148.356H1007.58V7.41778H817.193V148.356Z" fill="#0F0820"/>
<path d="M941.652 73.5596L886.847 41.7003C884.078 40.0931 880.826 42.4297 880.826 46.0273V109.746C880.826 113.344 884.078 115.68 886.847 114.073L941.652 82.2137C944.718 80.4335 944.718 75.3399 941.652 73.5596Z" fill="#0F0820"/>
<path d="M884.98 118.287C883.719 118.287 882.446 117.953 881.296 117.286C878.724 115.802 877.117 112.909 877.117 109.732V46.013C877.117 42.8358 878.724 39.9428 881.296 38.4593C883.62 37.1241 886.389 37.1241 888.714 38.484L943.519 70.3434C946.078 71.8269 947.66 74.7199 947.66 77.8724C947.66 81.025 946.078 83.9179 943.519 85.4015L888.714 117.261C887.552 117.941 886.266 118.275 884.98 118.275V118.287ZM884.98 44.9127C884.893 44.9375 884.535 45.2836 884.535 46.0378V109.757C884.535 110.498 884.906 110.857 885.029 110.894L939.797 79.0222C940.069 78.8615 940.255 78.404 940.255 77.8971C940.255 77.3903 940.069 76.9328 939.797 76.7721L884.992 44.9127H884.98Z" fill="#0F0820"/>
</g>
<g clip-path="url(#clip1_366_149)">
<path d="M499.439 454.961H338.721C335.307 454.961 332.539 457.728 332.539 461.142C332.539 464.556 335.307 467.324 338.721 467.324H499.439C502.853 467.324 505.621 464.556 505.621 461.142C505.621 457.728 502.853 454.961 499.439 454.961Z" fill="white"/>
<path d="M499.439 471.031H338.72C333.268 471.031 328.83 466.592 328.83 461.14C328.83 455.688 333.268 451.25 338.72 451.25H499.439C504.891 451.25 509.329 455.688 509.329 461.14C509.329 466.592 504.891 471.031 499.439 471.031ZM338.72 458.668C337.385 458.668 336.248 459.805 336.248 461.14C336.248 462.476 337.385 463.613 338.72 463.613H499.439C500.774 463.613 501.912 462.476 501.912 461.14C501.912 459.805 500.774 458.668 499.439 458.668H338.72Z" fill="#0F0820"/>
<path d="M352.507 467.32H154.699C151.3 467.32 147.776 464.539 146.861 461.139L107.77 315.256C106.855 311.856 108.895 309.074 112.294 309.074H310.102C313.502 309.074 317.025 311.856 317.94 315.256L357.032 461.139C357.947 464.539 355.907 467.32 352.507 467.32Z" fill="white"/>
<path d="M352.506 471.031H154.698C149.642 471.031 144.622 467.112 143.275 462.105L104.195 316.222C103.441 313.44 103.936 310.646 105.531 308.557C107.088 306.529 109.561 305.367 112.293 305.367H310.101C315.157 305.367 320.177 309.286 321.524 314.293L360.616 460.176C361.358 462.958 360.875 465.752 359.268 467.841C357.711 469.869 355.25 471.031 352.506 471.031ZM112.293 312.785C112.095 312.785 111.613 312.81 111.415 313.069C111.242 313.304 111.218 313.774 111.354 314.293L150.445 460.176C150.915 461.944 152.992 463.613 154.698 463.613H352.506C352.704 463.613 353.186 463.588 353.383 463.329C353.557 463.094 353.581 462.624 353.445 462.105L314.354 316.222C313.884 314.454 311.807 312.785 310.101 312.785H112.293Z" fill="#0F0820"/>
<path d="M247.36 386.964C250.487 398.635 243.564 408.093 231.893 408.093C220.223 408.093 208.218 398.635 205.103 386.964C201.975 375.294 208.898 365.836 220.569 365.836C232.24 365.836 244.244 375.294 247.36 386.964Z" fill="#0F0820"/>
</g>
<g clip-path="url(#clip2_366_149)">
<path d="M828.477 394.281C811.892 394.281 797.276 407.828 795.824 424.536C794.372 441.244 806.639 454.791 823.224 454.791C839.809 454.791 854.426 441.244 855.877 424.536C857.329 407.828 845.063 394.281 828.477 394.281ZM824.282 442.681C814.328 442.681 806.971 434.551 807.844 424.536C808.718 414.509 817.49 406.391 827.432 406.391C837.373 406.391 844.743 414.521 843.869 424.536C842.996 434.563 834.223 442.681 824.282 442.681Z" fill="#0F0820"/>
<path d="M824.909 386.734H745.846C742.462 386.734 740.186 389.523 740.777 392.932L749.734 444.108C751.961 456.862 764.154 467.298 776.814 467.298H793.928C806.589 467.298 818.769 456.862 821.008 444.108L829.965 392.932C830.556 389.523 828.28 386.734 824.896 386.734H824.909Z" fill="white"/>
<path d="M793.941 471.016H776.827C762.431 471.016 748.651 459.241 746.117 444.752L737.148 393.576C736.668 390.849 737.357 388.134 739.018 386.127C740.679 384.156 743.164 383.016 745.846 383.016H824.909C827.603 383.016 830.089 384.156 831.737 386.127C833.411 388.134 834.087 390.849 833.62 393.576L824.663 444.752C822.128 459.229 808.348 471.016 793.953 471.016H793.941ZM745.846 390.452C745.489 390.452 744.997 390.527 744.677 390.911C744.407 391.233 744.321 391.716 744.419 392.287L753.376 443.463C755.283 454.37 766.024 463.579 776.814 463.579H793.928C804.731 463.579 815.46 454.37 817.367 443.463L826.324 392.287C826.422 391.716 826.324 391.233 826.065 390.911C825.745 390.527 825.253 390.452 824.897 390.452H745.846Z" fill="#0F0820"/>
</g>
<g clip-path="url(#clip3_366_149)">
<path d="M136.325 195.652H9.67482C5.78886 195.652 2.63867 198.803 2.63867 202.688V329.339C2.63867 333.225 5.78886 336.375 9.67482 336.375H136.325C140.211 336.375 143.362 333.225 143.362 329.339V202.688C143.362 198.803 140.211 195.652 136.325 195.652Z" fill="white"/>
<path d="M136.325 339.016H9.6747C4.33602 339.016 0 334.68 0 329.341V202.69C0 197.352 4.33602 193.016 9.6747 193.016H136.325C141.664 193.016 146 197.352 146 202.69V329.341C146 334.68 141.664 339.016 136.325 339.016ZM9.6747 198.293C7.24723 198.293 5.27711 200.263 5.27711 202.69V329.341C5.27711 331.768 7.24723 333.739 9.6747 333.739H136.325C138.753 333.739 140.723 331.768 140.723 329.341V202.69C140.723 200.263 138.753 198.293 136.325 198.293H9.6747Z" fill="#0F0820"/>
<path d="M129.069 206.207H16.9302C14.9872 206.207 13.4121 207.782 13.4121 209.725V294.159C13.4121 296.102 14.9872 297.677 16.9302 297.677H129.069C131.012 297.677 132.587 296.102 132.587 294.159V209.725C132.587 207.782 131.012 206.207 129.069 206.207Z" fill="#0F0820"/>
<path d="M124.249 284.732L92.2956 238.918C90.5102 236.35 85.4002 236.35 83.6148 238.918L61.8643 270.106L50.4218 253.703C49.1553 251.882 45.5317 251.882 44.2652 253.703L21.6 286.192C20.4566 287.837 22.1189 289.763 24.6783 289.763H119.904C123.51 289.763 125.858 287.046 124.249 284.732Z" fill="white"/>
<path d="M33.1576 240.995C40.4438 240.995 46.3504 235.088 46.3504 227.802C46.3504 220.516 40.4438 214.609 33.1576 214.609C25.8714 214.609 19.9648 220.516 19.9648 227.802C19.9648 235.088 25.8714 240.995 33.1576 240.995Z" fill="white"/>
</g>
<defs>
<clipPath id="clip0_366_149">
<rect width="205.225" height="155.773" fill="white" transform="translate(809.775)"/>
</clipPath>
<clipPath id="clip1_366_149">
<rect width="405.481" height="165.664" fill="white" transform="translate(103.85 305.367)"/>
</clipPath>
<clipPath id="clip2_366_149">
<rect width="119" height="88" fill="white" transform="translate(737 383.016)"/>
</clipPath>
<clipPath id="clip3_366_149">
<rect width="146" height="146" fill="white" transform="translate(0 193.016)"/>
</clipPath>
</defs>
</svg>
