<?xml version="1.0" encoding="UTF-8"?>
<svg id="Layer_2" data-name="Layer 2" xmlns="http://www.w3.org/2000/svg" viewBox="0 0 43 48">
  <g id="Layer_1-2" data-name="Layer 1">
    <path d="M36.68,15.55c0-.11-2.83-.86-3.04-.91,0-.03.06-.07.06-.1.06-.33.22-1.73.22-2.1,0-6.87-5.57-12.44-12.45-12.44h0c-6.46,0-11.76,4.89-12.4,11.17-.04.42-.06.84-.06,1.27,0,.38.14,1.78.19,2.1,0,.03,0,.06.01.1-.22.05-2.92.8-2.93.91-3.75,1-6.29,5.32-6.29,9.4v14.23c0,4.87,3.49,8.82,8.34,8.82h26.28c4.85,0,8.38-3.95,8.38-8.82v-14.23c0-4.08-2.57-8.4-6.32-9.4ZM21.48,4.59c3.97,0,7.19,3.21,7.19,7.18,0,.45-.05.89-.13,1.32-1.58-.17-8.29-.31-8.9-.3,0,0-3.65.13-5.23.3-.08-.43-.13-.87-.13-1.32,0-3.96,3.22-7.18,7.19-7.18ZM30.79,32.09l-9.31,9.24-9.31-9.33h0c-1.26-1-2.03-2.93-2.03-4.83,0-3.8,3.09-6.86,6.9-6.86,1.69,0,3.24.62,4.44,1.63,1.2-1.01,2.75-1.62,4.44-1.62,3.81,0,6.89,3.09,6.89,6.88,0,1.91-.78,3.63-2.03,4.88Z"/>
  </g>
</svg>