<?xml version="1.0" encoding="UTF-8"?>
<svg id="Layer_1" xmlns="http://www.w3.org/2000/svg" version="1.1" viewBox="0 0 917 742">
  <!-- Generator: Adobe Illustrator 29.6.0, SVG Export Plug-In . SVG Version: 2.1.1 Build 207)  -->
  <defs>
    <style>
      .st0 {
        stroke-width: 3.2px;
      }

      .st0, .st1, .st2, .st3, .st4, .st5, .st6, .st7, .st8, .st9 {
        fill: none;
        stroke: #161621;
      }

      .st0, .st1, .st3, .st4, .st5, .st6, .st7, .st8 {
        stroke-miterlimit: 10;
      }

      .st10, .st11 {
        fill: #161621;
      }

      .st12 {
        fill: #ff2072;
        stroke: #fff;
        stroke-width: 1.1px;
      }

      .st13 {
        fill: #270f03;
      }

      .st14, .st15 {
        fill: #fff;
      }

      .st11, .st15, .st16, .st17 {
        fill-rule: evenodd;
      }

      .st16, .st18 {
        fill: #9cacbd;
      }

      .st17 {
        fill: #4a372e;
      }

      .st19 {
        fill: #a7ceff;
      }

      .st1 {
        stroke-width: 3.4px;
      }

      .st20 {
        fill: #5720c6;
      }

      .st21 {
        fill: #d0e7ff;
      }

      .st22 {
        fill: #5b8ad9;
      }

      .st2 {
        stroke-miterlimit: 10;
        stroke-width: 2.6px;
      }

      .st3 {
        stroke-width: 2.6px;
      }

      .st4 {
        stroke-width: 3.5px;
      }

      .st5 {
        stroke-width: 3.1px;
      }

      .st23 {
        fill: #9e694a;
      }

      .st6 {
        stroke-width: 3.6px;
      }

      .st24 {
        fill: #b1c4d9;
      }

      .st7 {
        stroke-width: 2.9px;
      }

      .st25 {
        fill: #76889c;
      }

      .st26 {
        fill: #0f0820;
      }

      .st27 {
        fill: #ff808b;
      }

      .st28 {
        fill: #784a2e;
      }

      .st8 {
        stroke-width: 3px;
      }

      .st9 {
        stroke-miterlimit: 10;
        stroke-width: 2.6px;
      }

      .st29 {
        fill: #dfedfc;
      }

      .st30 {
        fill: #ffb39b;
      }
    </style>
  </defs>
  <rect class="st29" x="66" y="23" width="785" height="636.7" rx="32.4" ry="32.4"/>
  <path class="st13" d="M799,80.7c-.5,0-.9.2-1.3.5-.3.3-.5.8-.5,1.3v7.1c0,.5-.2.9-.5,1.3-.3.3-.8.5-1.2.5h-24.8c-.5,0-.9-.2-1.3-.5-.3-.3-.5-.8-.5-1.3v-7.1c0-.5-.2-.9-.5-1.3-.3-.3-.8-.5-1.2-.5s-.9.2-1.3.5c-.3.3-.5.8-.5,1.3v7.1c0,1.4.6,2.8,1.6,3.8s2.3,1.6,3.8,1.6h24.8c1.4,0,2.8-.6,3.8-1.6s1.6-2.3,1.6-3.8v-7.1c0-.5-.2-.9-.5-1.3-.3-.3-.8-.5-1.2-.5h-.3ZM781.8,83.8c.2.2.4.3.6.4.2,0,.4,0,.7,0s.5,0,.7,0c.2,0,.4-.2.6-.4l7.1-7.1c.3-.3.5-.8.5-1.3s-.2-.9-.5-1.3c-.3-.3-.8-.5-1.3-.5s-.9.2-1.3.5l-4,4.1v-17c0-.5-.2-.9-.5-1.3-.3-.3-.8-.5-1.3-.5s-.9.2-1.2.5-.5.8-.5,1.3v17l-4-4.1c-.2-.2-.4-.3-.6-.4-.2,0-.4,0-.7,0s-.5,0-.7,0c-.2,0-.4.2-.6.4-.2.2-.3.4-.4.6,0,.2,0,.4,0,.7s0,.5,0,.7c0,.2.2.4.4.6l7.1,7.1h0Z"/>
  <path class="st19" d="M680.6,194.4c-6.6-74.2-73.6-129.8-147.8-122.5-45,4.5-82.7,30.5-103.7,66.9-12.2,21-35.7,32.7-59.7,29.2-10.7-1.5-21.8-1.8-33.1-.6-73.3,7.5-127.4,73.3-120.6,146.6,6.9,74.7,73.2,129.4,147.7,122,45.1-4.5,82.9-30.7,103.9-67.2,12.1-21.1,36.1-32.2,60.1-28.8,10.4,1.4,21.1,1.7,32,.6,73.7-7.3,127.7-72.6,121.2-146.2h0Z"/>
  <path class="st21" d="M65.4,552v107.7h753.9c17.5,0,31.7-14.2,31.7-31.7v-75.9H65.4Z"/>
  <g>
    <path class="st19" d="M582.5,521.3h.7c3-13.4,15-23.4,29.3-23.4s11.5,1.8,16.2,4.7c5.3-17.7,21.7-30.5,41-30.5s17,2.7,23.8,7.2c6.8-4.6,15-7.2,23.8-7.2,19.4,0,35.7,12.9,41,30.5,4.7-3,10.2-4.7,16.2-4.7,14.3,0,26.3,10,29.3,23.4h.7c10.1,0,18.3,8.2,18.3,18.3s-2.4,10.3-6.1,13.6h-246.4c-3.7-3.3-6.1-8.2-6.1-13.6,0-10.1,8.2-18.3,18.3-18.3h0Z"/>
    <path class="st22" d="M752.9,510.4c.3-.2,34.4-20.4,22.5-67.8l-2.9.7c11.3,45.2-19.8,63.7-21.1,64.5l1.5,2.6Z"/>
    <path class="st21" d="M778.3,438.7c1,2.8-.4,6-3.2,7s-6-.4-7-3.2c-1-2.8.4-6,3.2-7s6,.4,7,3.2Z"/>
    <path class="st22" d="M755.1,508.5c.4,0,39.9-2.9,50.4-50.7l-2.9-.6c-10,45.5-46.1,48.2-47.6,48.3l.2,3h-.1Z"/>
    <path class="st21" d="M809.7,455.5c-.3,3-3,5.2-6,4.8-3-.3-5.2-3-4.8-6,.3-3,3-5.2,6-4.8,3,.3,5.2,3,4.8,6Z"/>
    <path class="st19" d="M724.7,418.4h0c35.5,17.8,49.8,61,32,96.4h0c-35.5-17.8-49.8-61-32-96.4Z"/>
    <path class="st21" d="M680.3,448.9h0c39.5-3.3,74.3,26.1,77.6,65.6h0c-39.5,3.3-74.3-26.1-77.6-65.6Z"/>
  </g>
  <g>
    <path class="st19" d="M322.9,520.5h-.7c-3-13.4-15-23.4-29.3-23.4s-11.5,1.8-16.2,4.7c-5.3-17.7-21.7-30.5-41-30.5s-17,2.7-23.8,7.2c-6.8-4.6-15-7.2-23.8-7.2-19.4,0-35.7,12.9-41,30.5-4.7-3-10.2-4.7-16.2-4.7-14.3,0-26.3,10-29.3,23.4h-.7c-10.1,0-18.3,8.2-18.3,18.3s2.4,10.3,6.1,13.6h246.4c3.7-3.3,6.1-8.2,6.1-13.6,0-10.1-8.2-18.3-18.3-18.3Z"/>
    <path class="st22" d="M152.5,509.6c-.3-.2-34.4-20.4-22.5-67.8l2.9.7c-11.3,45.2,19.8,63.7,21.1,64.5l-1.5,2.6Z"/>
    <path class="st21" d="M127.2,437.9c-1,2.8.4,6,3.2,7,2.8,1,6-.4,7-3.2,1-2.8-.4-6-3.2-7s-6,.4-7,3.2Z"/>
    <path class="st22" d="M150.3,507.7c-.4,0-39.9-2.9-50.4-50.7l2.9-.6c10,45.5,46.1,48.2,47.6,48.3l-.2,3h.1Z"/>
    <path class="st21" d="M95.7,454.8c.3,3,3,5.2,6,4.8,3-.3,5.2-3,4.8-6-.3-3-3-5.2-6-4.8-3,.3-5.2,3-4.8,6Z"/>
    <path class="st19" d="M180.7,417.6h0c-35.5,17.8-49.8,61-32,96.4h0c35.5-17.8,49.8-61,32-96.4Z"/>
    <path class="st21" d="M225.1,448.1h0c-39.5-3.3-74.3,26.1-77.6,65.6h0c39.5,3.3,74.3-26.1,77.6-65.6Z"/>
  </g>
  <g>
    <path class="st19" d="M659.5,589.7c0,8.8-89.7,16-200.4,16s-200.4-7.1-200.4-16,89.7-16,200.4-16,200.4,7.1,200.4,16Z"/>
    <g>
      <g>
        <g>
          <path class="st18" d="M457.2,356.7c11.8-19.7,31.2-14.1,35.3,2.2l58.8,57.3,33.2-41.9s17.1-.3,22.6,15.7l-58.1,42.9-59.7-61.9s-17.5,11-32-14.3h0Z"/>
          <path class="st1" d="M457.2,356.7c11.8-19.7,31.2-14.1,35.3,2.2l58.8,57.3,33.2-41.9s17.1-.3,22.6,15.7l-58.1,42.9-59.7-61.9s-17.5,11-32-14.3h0Z"/>
        </g>
        <g>
          <path class="st18" d="M620.1,375.5c0,15.1-12.3,27.4-27.4,27.4s-22.1-12.3-22.1-27.4,7-27.4,22.1-27.4,27.4,12.3,27.4,27.4Z"/>
          <path class="st10" d="M575.3,393.8c-6.7-7.4-6.7-18.5-5-27.8,1.4-6.5,4.8-12.9,10.7-16.4,8.9-5.2,20.5-3.5,28.7,2.3,18.1,12.8,15.5,40.7-4.6,49.9-4.5,2-9.7,3.2-14.7,2.5-1.6-.4-3.3-1-4.5-2.3,3.3-.7,6.1-.6,9.2-.8,23.4-2.5,31.5-32.5,12.5-46.4-7-5.1-17.2-6.8-25-2.4-13.2,8-12.3,28.7-7.3,41.5h0Z"/>
        </g>
        <g>
          <path class="st18" d="M593.3,358.3c-1.4-6.8,32.5-19.5,43.2-21.7s20.4,1.5,21.8,8.3c1.4,6.8-6.1,14-16.8,16.2s-46.8,4-48.2-2.8Z"/>
          <path class="st4" d="M593.3,358.3c-1.4-6.8,32.5-19.5,43.2-21.7s20.4,1.5,21.8,8.3c1.4,6.8-6.1,14-16.8,16.2s-46.8,4-48.2-2.8Z"/>
        </g>
        <g>
          <path class="st14" d="M646.3,348.2c1.8,4.8,7.2,7.3,12.1,5.5s19.2-7,17.4-11.9c-1.8-4.8-19.2-7.5-24-5.7s-7.3,7.2-5.5,12.1Z"/>
          <path class="st1" d="M646.3,348.2c1.8,4.8,7.2,7.3,12.1,5.5s19.2-7,17.4-11.9c-1.8-4.8-19.2-7.5-24-5.7s-7.3,7.2-5.5,12.1Z"/>
        </g>
        <g>
          <path class="st18" d="M637.1,374.2c0,6.4-17.6,11.5-27.6,11.5s-18.1-5.1-18.1-11.5,8.1-11.5,18.1-11.5,27.6,5.1,27.6,11.5Z"/>
          <path class="st0" d="M637.1,374.2c0,6.4-17.6,11.5-27.6,11.5s-18.1-5.1-18.1-11.5,8.1-11.5,18.1-11.5,27.6,5.1,27.6,11.5Z"/>
        </g>
        <g>
          <path class="st18" d="M637.1,390.8c0,6.4-17.6,11.5-27.6,11.5s-18.1-5.1-18.1-11.5,8.1-11.5,18.1-11.5,27.6,5.1,27.6,11.5Z"/>
          <path class="st0" d="M637.1,390.8c0,6.4-17.6,11.5-27.6,11.5s-18.1-5.1-18.1-11.5,8.1-11.5,18.1-11.5,27.6,5.1,27.6,11.5Z"/>
        </g>
        <g>
          <path class="st18" d="M597.1,347.6l11.8,27.4s-11.2,10.9-18.9-1.1c0,0-1.5,11.7-9.8,12.7-12,1.4-20.6-17.3-12.3-32.7,8.3-15.4,29.4-6.3,29.4-6.3h-.2Z"/>
          <path class="st10" d="M575.1,386.1c-1.6.4-3.4-.1-4.6-1.2l-.9-.8c-.5-.4-1.1-1.2-1.6-1.7l-.7-.9c-7.1-10-5.8-26.1,3.6-34.2,5-4,12-4.7,18-3.6,3.2.5,6.3,1.5,9.4,2.8l.2.6,11.8,27.4.5,1c-1.8,1.7-3.7,3.1-5.8,4.2-6.3,3.3-12.8,1.2-16.4-4.8,0,0,3-.7,2.9-.7-.7,4.7-3.4,9.9-8.2,11.4,3.1-3.2,4.2-7.6,5-11.8l.6-4.2,2.3,3.6c2.8,4.6,7.5,6.2,12.3,3.6,1.5-.7,3-1.8,4.2-2.8l-.4,1.8-11.8-27.4.8.8c-15-5.3-27.6-2.4-30.1,15-.7,5.7.5,11.8,3.9,16.5,1.5,2.1,3.6,3.1,4.9,5.4h0Z"/>
        </g>
      </g>
      <g>
        <path class="st18" d="M411.6,455.7c-84.8-141.8-168.2-66.5-154.4-13.8,13.8,52.7-5.5,61.9-16.8,60.6,0,0,11.4,9.9,27.6,2,16.3-7.9,14.6-24.7,14.6-24.7,0,0,3.2,19.2-8.6,27.7,0,0,36.3,4.3,37.8-42.1s-1.2-51.8,4.9-61.7c6.2-9.9,26.2-13.8,46.4,13.3,20.2,27.1,48.5,38.6,48.5,38.6h0Z"/>
        <path class="st14" d="M311.9,460.4c-12.7-14.1-33.9-19.4-51.9-6.2,7.9,41.8-9.2,49.5-19.6,48.3,0,0,11.4,9.9,27.6,2,16.3-7.9,14.6-24.7,14.6-24.7,0,0,3.2,19.2-8.6,27.7,0,0,36.3,4.3,37.8-42.1,0-1.7.1-3.4.1-5h0Z"/>
        <path class="st1" d="M411.6,455.7c-84.8-141.8-168.2-66.5-154.4-13.8,13.8,52.7-5.5,61.9-16.8,60.6,0,0,11.4,9.9,27.6,2,16.3-7.9,14.6-24.7,14.6-24.7,0,0,5.1,16.3-8.6,27.7,0,0,36.3,4.3,37.8-42.1s-1.2-51.8,4.9-61.7c6.2-9.9,26.2-13.8,46.4,13.3,20.2,27.1,48.5,38.6,48.5,38.6h0Z"/>
      </g>
      <g>
        <path class="st18" d="M476.3,352.4c0-.9.1-1.8.1-2.7,0-17.9-14.5-45.9-32.4-45.9s-32.4,28-32.4,45.9,0,1.8.1,2.7c-16.4,17.9-27.3,46.5-27.3,67.5,0,32.9,26.7,59.6,59.6,59.6s59.6-26.7,59.6-59.6-10.9-49.6-27.3-67.5h0Z"/>
        <path class="st25" d="M476.3,352.4c0-.9.1-1.8.1-2.7,0-17.9-14.5-45.9-32.4-45.9s-14.6,5.1-20.2,12.3c18.8,60.8,45.4,68.9,62.9,50.2-3.1-5-6.6-9.8-10.4-13.9Z"/>
        <path class="st1" d="M476.3,352.4c0-.9.1-1.8.1-2.7,0-17.9-14.5-45.9-32.4-45.9s-32.4,28-32.4,45.9,0,1.8.1,2.7c-16.4,17.9-27.3,46.5-27.3,67.5,0,32.9,26.7,59.6,59.6,59.6s59.6-26.7,59.6-59.6-10.9-49.6-27.3-67.5h0Z"/>
      </g>
      <g>
        <g>
          <path class="st25" d="M537.5,233s26.5-5.5,57.8,25.9h-13.3s8.4,15.4,6.7,39.1l-18.3-8.4,2.2,24.9-52.2-16.5,17.1-64.9h0Z"/>
          <path class="st10" d="M537.5,233c14.9-3.3,30.9,3.1,43.2,11.2.7.4,3.7,2.6,4.3,3,.5.4,1.9,1.5,2.4,2,4.4,3.4,8.4,7.6,12.4,11.5h-17.8l1.6-2.7c6.4,13.3,7.8,28.2,6.8,42.7-.6-.2-19.4-9-20.7-9.6l2.6-1.8,2.2,24.9.3,2.7-2.7-.8c-17.5-5.3-35-10.6-51.7-18.2,9.1,1.5,17.9,4,26.6,6.5,8.8,2.5,17.5,5.2,26.1,8.2l-2.4,1.9-2.2-24.9-.3-3.1,2.9,1.3,18.3,8.4-2.6,1.5c.9-13.9-1.1-28.4-7.8-40.8h16.3l-1.3,3.1c-7.8-7.4-16.1-14.2-25.6-19.2-9.5-4.9-20.1-8.4-30.9-8h0v.2Z"/>
        </g>
        <g>
          <path class="st18" d="M503.8,176.3s17.9-68.7,69.7-89.3l-8.6,18.5s5.2-3.2,14-1.7c0,0-15.9,20.6-8.8,43.7,9.7,31.5,2,82-34.4,74.5-36.4-7.5-31.9-45.7-31.9-45.7h0Z"/>
          <path class="st10" d="M505,192.6c-2.3-5.2-3.1-10.9-2.6-16.6,1.3-4.9,2.9-9.5,4.6-14.2,5.2-13.8,11.9-27.1,20.5-39.2,12.6-17.8,28.7-31.6,49.3-39-1,2.2-9.2,19.8-10.4,22.5l-2.4-2.2c5-2.7,10.8-2.7,16.2-1.8v2.5c-6.4,9.6-10.5,21.3-9.7,32.7.2,6,2.7,11.5,3.7,17.3,1.2,6.1,1.8,12.2,1.9,18.4,0,15.3-2.8,32.1-14,43.5-6.8,7-17.5,9.2-26.4,5.3,8.7.2,17.6-1.6,23.8-8,13.4-14.2,13.9-40,10.4-58.3-1.2-6-3.5-11.8-3.7-18-.6-12.6,3.9-24.9,11.3-35.1l1.1,2.7c-4.3-.7-8.9-.5-12.8,1.5l-4.7,2.7,2.2-4.8,8.6-18.5,2.2,2.3c-27,11.2-45.8,35.6-58.3,61.2-4.1,8.4-8.2,18.5-10.6,26.7-.5,5.3-.3,10.8-.1,16.2h0v.2Z"/>
          <g>
            <path class="st30" d="M535.3,212.6s7.2-4.1,7.9-14.8l-5.8,5.8-2.1-17.8s-5.8,7.2-6.1,12.7l-5.9-16.3-4.9,11.8s-6.9-17.1,5.7-40c12.6-22.9,30.1-30.6,30.1-30.6,0,0-2.9,28.5,1.6,46.2,4.4,17.8,3.8,43.1-20.4,42.9h0Z"/>
            <path class="st6" d="M535.3,212.6s7.2-4.1,7.9-14.8l-5.8,5.8-2.1-17.8s-5.8,7.2-6.1,12.7l-5.9-16.3-4.9,11.8s-6.9-17.1,5.7-40c12.6-22.9,30.1-30.6,30.1-30.6,0,0-2.9,28.5,1.6,46.2,4.4,17.8,3.8,43.1-20.4,42.9h0Z"/>
          </g>
        </g>
        <path class="st18" d="M399.6,243.7c1.1-43.9,34.9-67.8,76.5-67.8s75.3,26.5,75.3,68.1-1.5,16.9-4.1,24.6c2.6,4.8,4.1,9.9,4.1,15.2,0,24.9-25.3,45.7-69.2,43.5-48.9-2.5-84.5-30.2-82.5-83.6h-.1Z"/>
        <path class="st1" d="M399.6,243.7c1.1-43.9,34.9-67.8,76.5-67.8s75.3,26.5,75.3,68.1-1.5,16.9-4.1,24.6c2.6,4.8,4.1,9.9,4.1,15.2,0,24.9-25.3,45.7-69.2,43.5-48.9-2.5-84.5-30.2-82.5-83.6h-.1Z"/>
        <g>
          <path class="st18" d="M449.9,176.3s-17.9-68.7-69.7-89.3l8.6,18.5s-5.2-3.2-14-1.7c0,0,15.9,20.6,8.8,43.7-9.7,31.5-2,82,34.4,74.5s31.9-45.7,31.9-45.7Z"/>
          <path class="st10" d="M448.6,192.6c.2-5.4.4-10.8-.1-16.2-2.5-8.2-6.5-18.3-10.6-26.7-12.5-25.6-31.4-50-58.3-61.2l2.2-2.3,8.6,18.5,2.2,4.8-4.7-2.7c-3.9-2-8.6-2.2-12.8-1.5l1.1-2.7c7.4,10.1,11.9,22.4,11.3,35.1-.2,6.2-2.5,12-3.7,18-3.5,18.3-2.9,44.1,10.4,58.3,6.2,6.4,15.1,8.2,23.8,8-8.9,3.9-19.6,1.7-26.4-5.3-11.2-11.4-13.9-28.2-14-43.5,0-6.2.7-12.3,1.9-18.4,1.1-5.8,3.5-11.4,3.7-17.3.8-11.4-3.3-23.2-9.7-32.7v-2.5c5.4-.9,11.2-.9,16.2,1.8l-2.4,2.2c-1.2-2.6-9.4-20.2-10.4-22.5,20.7,7.4,36.8,21.2,49.3,39,8.6,12.1,15.3,25.3,20.5,39.2,1.7,4.7,3.3,9.3,4.6,14.2.4,5.7-.3,11.4-2.6,16.6h0v-.2Z"/>
          <g>
            <path class="st30" d="M418.3,212.6s-7.2-4.1-7.9-14.8l5.8,5.8,2.1-17.8s5.8,7.2,6.1,12.7l5.9-16.3,4.9,11.8s6.9-17.1-5.7-40-30.1-30.6-30.1-30.6c0,0,2.9,28.5-1.6,46.2-4.4,17.8-3.8,43.1,20.4,42.9h.1Z"/>
            <path class="st6" d="M418.3,212.6s-7.2-4.1-7.9-14.8l5.8,5.8,2.1-17.8s5.8,7.2,6.1,12.7l5.9-16.3,4.9,11.8s6.9-17.1-5.7-40-30.1-30.6-30.1-30.6c0,0,2.9,28.5-1.6,46.2-4.4,17.8-3.8,43.1,20.4,42.9h.1Z"/>
          </g>
        </g>
        <g>
          <path class="st18" d="M437.6,299.9c5.1-15.3,19.9-2.6,37.4,3.2,17.5,5.9,28.3,2.6,23.2,17.8-5.1,15.3-20.5,23.1-38.1,17.2-17.5-5.9-27.6-23-22.5-38.3h0Z"/>
          <path class="st10" d="M496.9,324.5c-6.4,15.3-25.1,19.5-39.8,14.6-7.6-2.3-14.1-7.9-17.7-15-3.6-7-4.5-15.1-2.7-22.4-.2,7.5,1.6,14.8,5.3,20.9,3.7,6,9.4,10.7,16.1,12.8,13.8,4.6,30.2,1.8,38.7-11h.1Z"/>
          <g>
            <path class="st10" d="M500.1,308.8s-26.6-3.4-40.8-9.4c-14.2-6-18.3-9.5-18.3-9.5,0,0,3.3,30.8,24.9,34s33.8-11.9,33.8-11.9l.3-3.2h.1Z"/>
            <path class="st15" d="M443,298.9c-1.5-5.1-1.9-9-1.9-9,0,0,4.1,3.5,18.3,9.5,12.2,5.1,33.7,8.4,39.3,9.2-21.4,6-41.7-1.6-55.7-9.7h0Z"/>
            <path class="st3" d="M444.4,299.7c-1.5-5.1-3.4-9.8-3.4-9.8,0,0,4.1,3.5,18.3,9.5,12.2,5.1,33.7,8.4,39.3,9.2-21.4,6-40.2-.7-54.2-8.9h0Z"/>
            <path class="st27" d="M470.2,320.1c-2.2-5.7-7.2-10.4-7.2-10.4,11.6,3.2,16,9.4,17.7,14-4.1,1.3-9.1,2-14.8,1.1-9.6-1.4-15-9.3-17.9-16.5,16.5.2,22.1,11.7,22.1,11.7h0Z"/>
            <path class="st3" d="M437.8,286.6c8,4.7,3.2,32.7,30.6,37.8,20.1,3.8,32-13,32-13"/>
          </g>
        </g>
        <g>
          <path class="st14" d="M490.5,315.7c2.9,19.6,9.3,20.9,12.8,1.4,0,0-5.9-15.4-12.8-1.4Z"/>
          <path class="st8" d="M490.5,315.7c2.9,19.6,9.3,20.9,12.8,1.4,0,0-5.9-15.4-12.8-1.4Z"/>
        </g>
        <g>
          <path class="st14" d="M518.1,318c2.9,19.6,9.3,20.9,12.8,1.4,0,0-5.9-15.4-12.8-1.4Z"/>
          <path class="st8" d="M518.1,318c2.9,19.6,9.3,20.9,12.8,1.4,0,0-5.9-15.4-12.8-1.4Z"/>
        </g>
        <g>
          <path class="st14" d="M547,320.9c5,19.1,11.5,19.8,12.9,0,0,0-7.5-14.7-12.9,0Z"/>
          <path class="st8" d="M547,320.9c5,19.1,11.5,19.8,12.9,0,0,0-7.5-14.7-12.9,0Z"/>
        </g>
        <g>
          <path class="st14" d="M576.8,316.7c8.5,17.8,15.1,17.2,12.7-2.4,0,0-10.2-13-12.7,2.4Z"/>
          <path class="st8" d="M576.8,316.7c8.5,17.8,15.1,17.2,12.7-2.4,0,0-10.2-13-12.7,2.4Z"/>
        </g>
        <g>
          <circle class="st19" cx="512.5" cy="244.7" r="32"/>
          <ellipse class="st14" cx="508.4" cy="245.8" rx="28.1" ry="27"/>
          <path class="st11" d="M502.2,248.9c0,6.1,3.3,11,7.5,11s7.5-4.9,7.5-11-3.3-11-7.5-11-7.5,4.9-7.5,11Z"/>
          <circle class="st9" cx="512.5" cy="244.7" r="32"/>
          <path class="st10" d="M551.4,239.6c-4.6-12.6-14.4-23.3-27.5-26.8-9.5-2.6-20-1.2-27.9,4.8-2.6,1.9-4.9,4.3-6.9,6.9l-2.1-1.5c18.3-26.5,59.3-13.5,64.4,16.6h0Z"/>
        </g>
        <path class="st18" d="M418.3,263.8c72.1,91.1,203.3,56.1,214.7,12.9,11.4-43.2-41.5-72.7-72.1-37.1-18.3,21.3-34.6,38-75,25.5l-67.6-1.4h0Z"/>
        <path class="st10" d="M431.8,278.7c7.7,4.7,14.1,10.6,21.6,15.5,22,14.8,48,23,74.4,24.6,26.2,1.5,53.4-2.9,76.7-15.2,9.3-5.1,18.5-11.7,23.9-21.1,6.9-13.1,5.1-30.3-4.2-41.8-13.9-17.6-39.7-20-56.5-5-3.3,2.8-6.2,6.3-9,9.5-8.8,10-19.4,20.2-32.8,23.9-13.3,4-27.6,1.6-40.5-2.4l1-3.2c13.5,4,28.1,6.2,41.5,1,13.5-5,22.9-16.4,32.2-27l2.4-2.5,2.6-2.3c18.5-16.6,46.9-13.9,62.3,5.5,9,11,11.3,26.3,7.4,39.8-4.2,13.5-16.5,22.8-28.4,29.2-24.1,12.6-51.9,16.9-78.8,15.3-28.1-1.8-55.8-11.1-78.8-27.4-6.4-4.6-12.7-9.6-17-16.3h0Z"/>
        <g>
          <circle class="st19" cx="461.9" cy="244.9" r="32"/>
          <circle class="st14" cx="457.1" cy="244.6" r="27.5"/>
          <circle class="st2" cx="461.9" cy="244.9" r="32"/>
          <path class="st10" d="M422.6,239.6c5-30.1,46.1-43,64.4-16.6l-2.1,1.5c-2-2.6-4.3-5-6.9-6.9-7.9-6-18.4-7.4-27.9-4.8-13,3.5-22.9,14.2-27.5,26.8h0Z"/>
        </g>
        <ellipse class="st10" cx="459.3" cy="248.8" rx="7.5" ry="11"/>
        <path class="st1" d="M560.2,319.4c62.7-12.9,48.1-56.8,48.1-56.8"/>
        <g>
          <path class="st28" d="M640.6,246.4c0,12.5-15.8,22.7-35.2,22.7s-35.2-10.2-35.2-22.7,15.8-14.4,35.2-14.4,35.2,1.8,35.2,14.4h0Z"/>
          <path class="st17" d="M570.6,250c2.7,10.8,17.2,19.1,34.7,19.1s3.1,0,4.6-.2c-14.5-16.4-34-23.8-39.3-18.9Z"/>
          <path class="st23" d="M638.1,240.5c0,7.4-11.9,13.5-26.6,13.5s-26.6-6-26.6-13.5,11.9-8.5,26.6-8.5,26.6,1.1,26.6,8.5Z"/>
          <path class="st7" d="M640.6,246.4c0,12.5-15.8,22.7-35.2,22.7s-35.2-10.2-35.2-22.7,15.8-14.4,35.2-14.4,35.2,1.8,35.2,14.4h0Z"/>
        </g>
        <g>
          <path class="st18" d="M533.9,165.3c6.7-9.9,34.1-15.8,34.1-15.8-34.5-20.2-56.3.5-56.3.5,1.7-11.1,9.3-18.8,9.3-18.8-10.8,4.9-13.9,15.8-13.9,15.8,0-19.7,9.9-35.8,9.9-35.8-41.5,7.2-37.8,52.3-37.8,52.3-6-11.8-19.7-11.1-19.7-11.1,0,0,20,26.4,6.1,30.4l26.6,3.5c15.6.7,31.5,12.1,31.5,12.1-1.5-6.4-3.9-8.9-3.9-8.9,18.5-8.9,44.7,1.7,44.7,1.7-8.4-28.1-30.4-25.9-30.4-25.9h-.2Z"/>
          <path class="st10" d="M502.2,188.1c8,1.1,15.8,4.1,22.3,8.9l-2.6,1.8c-.7-2.8-1.7-5.8-3.5-8.1l-1.6-1.8c4.3-2.1,8.9-3.6,13.6-4.2,11.8-1.3,23.5.9,34.6,5l-2.3,2.1c-.6-1.6-1.1-3.3-1.7-4.9-.7-1.4-1.5-3.3-2.3-4.7-.3-.5-1.4-2.3-1.7-2.8-1.4-1.9-2.9-3.7-4.6-5.3-4.9-4.5-11.6-7.3-18.3-7l-3.6.2,2-2.8c2.1-3,5-4.9,7.8-6.6,8.5-4.8,17.9-7.6,27.3-9.9l-.5,3.1c-15.6-9.4-35.8-12.5-51.5-1.9-2,1.2-4.7,3.9-6.4,5.4l.8-4.8c.9-5.5,3.1-10.7,6.2-15.3,1.1-1.5,2.1-2.9,3.5-4.4l1.9,2.7c-2.3,1.1-4.4,2.5-6.2,4.2-3,2.9-5.5,6.6-6.7,10.5l-3.6,11.1c.3-5.9,0-15.4,1-21.2,1.5-9.5,4.6-18.7,9.4-27.1l1.7,2.6c-18.3,3-30.7,15.4-34.8,33.4-1.3,5.5-1.9,11.5-1.6,17.1l.4,7.3-3.6-6.4c-2.5-5-7.3-8.4-12.7-9.6-1.7-.4-3.7-.7-5.4-.6l1.3-2.7c4.6,6,8.7,12.6,10.5,20.1,1.3,4.7.2,11.1-5.7,11.3,2.6-1.4,3.9-3.7,3.6-6.6-.5-5.5-3.6-10.7-6.4-15.5-2-3.3-4.3-6.7-6.5-9.9,5.3-.4,10.7.3,15.4,2.8,3.9,2,7,5.3,9,9.1l-3.2.9c-.8-18.1,5.7-38.1,22-47.9,6.3-3.9,13.6-5.8,20.8-6.9-4.7,7.5-8.1,15.9-10,24.5-1,4.5-1.5,9-1.5,13.6l-3.3-.5c1.9-5.5,5.3-10.4,9.9-13.9,3-2.4,9.9-5.3,13.3-7.1-4,4.3-9.8,9.8-12.2,15.2-1.5,3-2.6,6.2-3.1,9.5l-2.8-1.5c16.9-14.2,40.4-11.6,58.4-.7l3.7,2.2-4.2.9c-9.8,2.4-26.7,6.9-33,15.1l-1.6-2.6c10.1-.5,19.9,5.1,25.6,13.3.7.9,1.6,2.6,2.2,3.6.9,1.5,1.7,3.5,2.5,5,.6,1.7,1.2,3.5,1.9,5.2l1.2,3.4c-8-3.3-16.6-5.6-25.2-6.3-7.3-.6-14.9,0-21.5,3.2l.5-2.7c.4.5.7.8.9,1.2,2.4,3.6,3.4,8.2,4.4,12.4-7.9-4.6-15.6-9.9-23.9-13.8h-.3Z"/>
        </g>
        <g>
          <path class="st18" d="M412.5,233s-26.5-5.5-57.8,25.9h13.3s-8.4,15.4-6.7,39.1l18.3-8.4-2.2,24.9,52.2-16.5-17.1-64.9h0Z"/>
          <path class="st10" d="M412.5,233c-10.8-.4-21.4,3.1-30.9,8s-17.9,11.8-25.6,19.2l-1.3-3.1h16.3c-6.7,12.3-8.7,26.9-7.8,40.8l-2.6-1.5,18.3-8.4,2.9-1.3-.3,3.1-2.2,24.9-2.4-1.9c8.6-3,17.4-5.6,26.1-8.2,8.8-2.5,17.5-5.1,26.6-6.5-16.7,7.6-34.2,12.9-51.7,18.2l-2.7.8.3-2.7,2.2-24.9,2.6,1.8c-1.3.6-20.1,9.2-20.7,9.6-1-14.5.3-29.4,6.8-42.7l1.6,2.7h-17.8c4-3.8,8-8.1,12.4-11.5.5-.4,1.9-1.6,2.4-2,.6-.4,3.6-2.5,4.3-3,12.3-8.2,28.3-14.6,43.2-11.2h0v-.2Z"/>
        </g>
      </g>
      <g>
        <g>
          <path class="st18" d="M343.2,560.4c-11.8-8.6-35.3,6.2-26.2,22,9.1,15.8,32.9,8,32.9,8l-6.7-30h0Z"/>
          <path class="st1" d="M343.2,560.4c-11.8-8.6-35.3,6.2-26.2,22,9.1,15.8,32.9,8,32.9,8l-6.7-30h0Z"/>
          <g>
            <path class="st14" d="M326.8,578.1c0,5.2-4.2,9.4-9.4,9.4s-20.5.2-20.5-4.9,15.3-13.8,20.5-13.8,9.4,4.2,9.4,9.4h0Z"/>
            <path class="st1" d="M326.8,578.1c0,5.2-4.2,9.4-9.4,9.4s-20.5.2-20.5-4.9,15.3-13.8,20.5-13.8,9.4,4.2,9.4,9.4h0Z"/>
          </g>
        </g>
        <g>
          <path class="st18" d="M354.2,560.4c-11.8-8.6-35.3,6.2-26.2,22,9.1,15.8,32.9,8,32.9,8l-6.7-30h0Z"/>
          <path class="st1" d="M354.2,560.4c-11.8-8.6-35.3,6.2-26.2,22,9.1,15.8,32.9,8,32.9,8l-6.7-30h0Z"/>
          <g>
            <path class="st14" d="M342.2,578.1c0,5.2-4.2,9.4-9.4,9.4s-20.5.2-20.5-4.9,15.3-13.8,20.5-13.8,9.4,4.2,9.4,9.4h0Z"/>
            <path class="st1" d="M342.2,578.1c0,5.2-4.2,9.4-9.4,9.4s-20.5.2-20.5-4.9,15.3-13.8,20.5-13.8,9.4,4.2,9.4,9.4h0Z"/>
          </g>
        </g>
        <g>
          <path class="st18" d="M421.3,445.5v124.6s-24.6-11.6-56.2-13.2c-31.6-1.6-37.5,31.6-6.9,35.2,30.6,3.6,85.8,0,85.8,0l-13-144.8-9.7-1.9h0Z"/>
          <path class="st10" d="M421.3,465.9c2.1,17.3,1.3,34.7,1.7,52.1,0,16.5.3,38.5,0,54.8-16.3-7.6-34.4-12-52.3-13.8-4.2-.3-8.5-.8-12.7,0-7.8.9-16.2,5.6-17.9,13.7-2.2,11.2,9.5,17.3,19.2,17.9,10.8,1.2,21.6,1.4,32.5,1.5,17.4,0,34.8-.6,52.1-1.6l-1.6,1.8c-1.7-17.7-4.1-44.3-5.5-62.2-1.1-18.3-4.4-44.2-3.9-62.4,3.7,17.7,5.1,43.9,7.2,62.1,1.6,18,4.2,44.4,5.6,62.2l.2,1.8c-18,.8-36,1.7-54.1,1.6-8.7,0-17.5-.3-26.3-.9-4.5-.4-8.9-.6-13.3-1.8-6.6-1.7-13.5-6.4-15.3-13.5-2-7.2,1.8-14.8,7.7-18.8,7.7-5.5,17.3-5.7,26.3-4.7,8.8.8,17.5,2.4,26,4.5,8.5,2.2,16.9,4.9,25,8.5l-2.4,1.5c-.2-15.1-.1-36.8,0-52.1.4-17.4-.4-34.8,1.7-52.1h0Z"/>
        </g>
        <g>
          <path class="st14" d="M361.7,578.1c0,5.2-4.2,9.4-9.4,9.4s-20.5.2-20.5-4.9,15.3-13.8,20.5-13.8,9.4,4.2,9.4,9.4h0Z"/>
          <path class="st1" d="M361.7,578.1c0,5.2-4.2,9.4-9.4,9.4s-20.5.2-20.5-4.9,15.3-13.8,20.5-13.8,9.4,4.2,9.4,9.4h0Z"/>
        </g>
      </g>
      <g>
        <g>
          <path class="st18" d="M550.6,560.4c11.8-8.6,35.3,6.2,26.2,22s-32.9,8-32.9,8l6.7-30Z"/>
          <path class="st1" d="M550.6,560.4c11.8-8.6,35.3,6.2,26.2,22s-32.9,8-32.9,8l6.7-30Z"/>
          <g>
            <path class="st14" d="M567,578.1c0,5.2,4.2,9.4,9.4,9.4s20.5.2,20.5-4.9-15.3-13.8-20.5-13.8-9.4,4.2-9.4,9.4h0Z"/>
            <path class="st1" d="M567,578.1c0,5.2,4.2,9.4,9.4,9.4s20.5.2,20.5-4.9-15.3-13.8-20.5-13.8-9.4,4.2-9.4,9.4h0Z"/>
          </g>
        </g>
        <g>
          <path class="st18" d="M539.5,560.4c11.8-8.6,35.3,6.2,26.2,22s-32.9,8-32.9,8l6.7-30Z"/>
          <path class="st1" d="M539.5,560.4c11.8-8.6,35.3,6.2,26.2,22s-32.9,8-32.9,8l6.7-30Z"/>
          <g>
            <path class="st14" d="M551.5,578.1c0,5.2,4.2,9.4,9.4,9.4s20.5.2,20.5-4.9-15.3-13.8-20.5-13.8-9.4,4.2-9.4,9.4h0Z"/>
            <path class="st1" d="M551.5,578.1c0,5.2,4.2,9.4,9.4,9.4s20.5.2,20.5-4.9-15.3-13.8-20.5-13.8-9.4,4.2-9.4,9.4h0Z"/>
          </g>
        </g>
        <g>
          <path class="st18" d="M472.5,445.5v124.6s24.6-11.6,56.2-13.2c31.6-1.6,37.5,31.6,6.9,35.2-30.6,3.6-85.8,0-85.8,0l13-144.8,9.7-1.9h0Z"/>
          <path class="st10" d="M472.5,465.9c2.1,17.3,1.3,34.7,1.7,52.1.1,15.4.2,36.9,0,52.1l-2.4-1.5c8.2-3.6,16.5-6.3,25-8.5,8.5-2.1,17.2-3.7,26-4.5,9-.9,18.6-.8,26.3,4.7,5.9,4.1,9.7,11.7,7.7,18.8-1.8,7.1-8.7,11.8-15.3,13.5-4.4,1.2-8.8,1.4-13.3,1.8-26.2,1.8-52.4.8-78.6-.7h-1.7l.2-1.8c1.4-17.7,4-44.3,5.6-62.2,2.2-18.2,3.5-44.3,7.2-62.1.5,18.1-2.8,44.1-3.9,62.4-1.5,18-3.8,44.5-5.6,62.2l-1.6-1.8c17.3,1,34.8,1.6,52.1,1.6s21.7-.3,32.5-1.5c9.7-.6,21.4-6.7,19.2-17.9-1.7-8.1-10.1-12.8-17.9-13.7-4.2-.6-8.4-.2-12.7,0-17.9,1.8-36,6.2-52.3,13.8-.3-16.2-.1-38.4,0-54.8.4-17.4-.4-34.8,1.7-52.1h0Z"/>
        </g>
        <g>
          <path class="st14" d="M532.1,578.1c0,5.2,4.2,9.4,9.4,9.4s20.5.2,20.5-4.9-15.3-13.8-20.5-13.8-9.4,4.2-9.4,9.4h0Z"/>
          <path class="st1" d="M532.1,578.1c0,5.2,4.2,9.4,9.4,9.4s20.5.2,20.5-4.9-15.3-13.8-20.5-13.8-9.4,4.2-9.4,9.4h0Z"/>
        </g>
      </g>
      <g>
        <g>
          <path class="st18" d="M421.3,362.6c13.5-18.6.6-34.2-16-31.5l-75.9-31.3-7.3-49.6s-13.3-10.5-32.8-10.4l25.6,68.8,80.5,30.3s-3.2,20.4,25.8,23.8h0Z"/>
          <path class="st10" d="M422.8,336.4c-3.2-1-5.5-2.3-8.6-3-3-.7-6-.9-9.1-.7-.3-.1-75.9-31.4-76.3-31.5l-.9-.4v-1c-.1,0-7.4-49.6-7.4-49.6l.7,1.1c-4.6-3.2-9.8-5.8-15.1-7.6-5.3-1.8-11-2.8-16.5-2.4l1.5-2.3,25.6,68.8-1-1,80.5,30.3,1.2.5c-1,6.7,1.3,13.4,6.4,17.9,1.4,1.4,3.5,2.8,5.3,3.9-1.5-.4-3.3-1.1-4.7-1.9l-.8-.4-.7-.5c-4-2.5-7-6.5-8.3-11-.7-2.4-1-4.7-.7-7.2l1.1,1.8-80.5-30.3-.7-.3-.3-.7-25.6-68.8-.8-2.2h2.3c12.2-.8,24,3.9,34,10.6l.6.4v.7c.1,0,7.4,49.6,7.4,49.6l-1-1.3,75.9,31.3h-.9c6.2-1.9,15.7,0,17.7,7h0l-.3.2Z"/>
        </g>
        <g>
          <path class="st18" d="M305.5,211c15.1.9,26.6,13.8,25.7,28.9-.9,15.1-13.5,21.4-28.6,20.5s-26.9-8.6-26-23.7c.9-15.1,13.8-26.6,28.9-25.7Z"/>
          <path class="st10" d="M321.1,256.8c-7.8,6.3-18.9,5.7-28.1,3.4-6.4-1.7-12.6-5.6-15.8-11.7-4.6-9.2-2.3-20.7,4-28.5,13.8-17.3,41.6-13.1,49.6,7.5,1.8,4.7,2.6,9.9,1.6,14.8-.4,1.6-1.2,3.2-2.6,4.4-.5-3.3-.2-6.1-.2-9.3-1.2-23.5-30.6-33.3-45.6-15.2-5.5,6.7-7.8,16.8-3.9,24.8,7.2,13.6,27.9,13.9,41,9.8h0Z"/>
        </g>
        <g>
          <g>
            <path class="st18" d="M293.5,235.4c-5.4,3-25.6-22.6-30.4-31.1-4.8-8.6-4.3-18,1.1-21s13.7,1.4,18.5,10,16.2,39.1,10.8,42.2h0Z"/>
            <path class="st10" d="M288,233.6c-2.7-.3-4.7-2.2-6.6-4.1-1.8-1.8-3.6-3.7-5.3-5.6-5.1-5.8-9.9-11.7-13.9-18.3-2.7-4.6-4.4-10-3.8-15.5.6-6.5,6.1-11.1,12.6-9.2,8.1,2.2,13,9.8,15.9,17.1,2,4.7,3.8,9.5,5.4,14.3,1.4,4.9,3.6,9.8,2.4,15.1-2.7-4.5-3.4-9.4-5.2-14.2-1.6-4.7-3.4-9.4-5.5-14-2-4.4-4.2-8.8-8-11.9-9.7-8.2-16.8-1-13.9,10.1,1.2,4.7,4,8.8,6.8,12.8,2.9,4.1,6,8,9.2,11.9,1.6,1.9,3.3,3.8,5,5.5,1.8,1.8,3.7,3.5,4.8,5.9h.1Z"/>
          </g>
          <g>
            <path class="st14" d="M271.3,193.8c3.4-3.2,3.6-8.5.4-11.9s-12.5-13.6-15.9-10.4.3,18.6,3.5,22,8.5,3.6,11.9.4h.1Z"/>
            <path class="st5" d="M271.3,193.8c3.4-3.2,3.6-8.5.4-11.9s-12.5-13.6-15.9-10.4.3,18.6,3.5,22,8.5,3.6,11.9.4h.1Z"/>
          </g>
        </g>
        <g>
          <g>
            <path class="st18" d="M302,229.8c-6.9,0-12.6-35.7-12.6-46.6s5.6-19.7,12.5-19.7,12.5,8.8,12.6,19.7c0,10.9-5.5,46.7-12.4,46.7h-.1Z"/>
            <path class="st10" d="M297.6,225c-2.4-1.8-3.4-4.7-4.2-7.5-.8-2.7-1.5-5.5-2.1-8.2-1.8-8.3-3.2-16.7-3.6-25.2-.2-6,1.1-12.1,4.7-17.1,4.1-5.9,11.9-7.4,17.2-2.1,6.7,6.5,7.3,16.5,6.2,25.2-.6,5.6-1.5,11.2-2.6,16.8-1.3,5.5-1.9,11.5-5.8,15.9-.1-5.8,1.8-10.9,2.7-16.5,1-5.5,1.8-11,2.2-16.5.5-5.4.6-10.8-1.3-15.8-5-13.2-15.8-10.1-18.9,2.2-1.4,5.2-.8,10.7-.3,16.1.6,5.5,1.4,11,2.5,16.5.6,2.7,1.1,5.4,1.9,8.1.8,2.7,1.7,5.4,1.4,8.3h0v-.2Z"/>
          </g>
          <g>
            <path class="st14" d="M303,177.4c5-1.2,8.1-6.3,6.8-11.4s-4.7-19.9-9.7-18.7-9.7,18.2-8.5,23.2,6.3,8.1,11.4,6.8h0Z"/>
            <path class="st1" d="M303,177.4c5-1.2,8.1-6.3,6.8-11.4s-4.7-19.9-9.7-18.7-9.7,18.2-8.5,23.2,6.3,8.1,11.4,6.8h0Z"/>
          </g>
        </g>
        <g>
          <g>
            <path class="st18" d="M315.1,232c-5.7-2.2,1.1-33.5,4.6-42.5s10.9-14.5,16.6-12.3,7.5,11.3,4,20.3-19.5,36.8-25.2,34.5Z"/>
            <path class="st10" d="M313,226.7c-1.4-2.3-1.3-5-1-7.5.2-2.5.5-5,.9-7.5.8-4.9,1.8-9.8,3-14.7s2.7-10,5.7-14.3c8.4-12,22.4-9.4,22.2,6.2,0,5.3-2.1,10.3-4.5,14.8-2.3,4.5-4.8,8.8-7.5,13-2.8,4.2-5.2,8.8-9.9,11.3,1.8-4.9,5-8.4,7.5-12.8,2.6-4.2,5-8.5,7.1-12.9,2.1-4.3,4-8.7,4-13.5,0-12.5-9.8-13.4-16.3-4.2-2.8,3.9-4.1,8.6-5.4,13.2-1.3,4.7-2.4,9.6-3.2,14.4-.4,2.4-.8,4.8-1,7.3-.3,2.5-.3,5-1.5,7.3h-.1Z"/>
          </g>
          <g>
            <path class="st14" d="M332.7,189.1c4.5.6,8.7-2.6,9.3-7.2.6-4.5,2.5-18-2-18.5-4.5-.6-13.9,11.9-14.4,16.4-.6,4.5,2.6,8.7,7.2,9.3h-.1Z"/>
            <path class="st8" d="M332.7,189.1c4.5.6,8.7-2.6,9.3-7.2.6-4.5,2.5-18-2-18.5-4.5-.6-13.9,11.9-14.4,16.4-.6,4.5,2.6,8.7,7.2,9.3h-.1Z"/>
          </g>
        </g>
        <g>
          <path class="st18" d="M301.9,240.5s13.3-15.9,32.4-6.1c0,0,6.9-10.7,19.6-8.2l-6.7,24.2s-26.5,21.9-49.6,1l4.3-10.9h0Z"/>
          <path class="st10" d="M308.2,235.3c6.9-7,18.8-7.8,26.9-2.5l-2.3.6c.7-.9,1.3-1.7,2-2.4,4.8-5.3,12.4-8,19.4-6.5l1.9.3-.5,1.9-6.7,24.2-.2.5c-10.9,9.2-26.6,14.1-40.3,8.6-4.4-1.8-8.2-4.7-10.9-8.6,2.1,1,4,2.2,6,3.1,14.3,7.6,29.8,3.4,42.4-5.4l-.6.9,6.7-24.2,1.4,2.2c-6.8-1.4-13.9,1.9-17.8,7.4l-.9,1.3c-4.4-1.9-9-3.4-13.7-3.5-4.4-.2-8.7.8-13,2.2h.2Z"/>
        </g>
      </g>
      <g>
        <g>
          <path class="st16" d="M460.7,285.4c-2.3,8.8-14.4,13.3-27,10.1-12.7-3.3-21.1-13-18.8-21.9,2.3-8.8,14.4-13.3,27-10.1,12.7,3.3,21.1,13,18.8,21.9Z"/>
          <path class="st10" d="M459.9,287.6c-1.1,3.9-4.5,6.8-8.2,8.5-10.9,4.7-25.5,1.1-32.5-8.7,3.1,2.4,6.5,4.1,10,5.4,10,3.4,23.5,4,30.7-5.1h0Z"/>
          <path class="st10" d="M422.1,265.1c11.9-8.4,32.3-2.7,38.1,10.8.8,2,1.2,4.1.9,6.2-3.6-14.9-25.6-21.6-39-16.9h0Z"/>
        </g>
        <path class="st24" d="M422.3,267.6c31.1-2.6,40,14.9,33.1,16.8s-15.8-15.8-33.1-16.8Z"/>
      </g>
    </g>
  </g>
  <circle class="st12" cx="186.1" cy="484.1" r="10.4"/>
  <rect class="st14" x="4.1" y="530.9" width="274.9" height="208" rx="10" ry="10"/>
  <path class="st20" d="M119.3,664.6h111.4c15.2,0,27.5,12.3,27.5,27.5h0c0,15.2-12.3,27.5-27.5,27.5h-111.4c-15.2,0-27.5-12.3-27.5-27.5h0c0-15.2,12.3-27.5,27.5-27.5Z"/>
  <path class="st14" d="M142.3,686.8c-1.5,0-2.6.5-3.5,1.5-.8,1-1.3,2.3-1.3,4s.4,3.1,1.2,4.1,2,1.4,3.5,1.4,2-.2,3.2-.5v1.4c-.9.3-2.1.5-3.4.5-2,0-3.5-.6-4.6-1.8s-1.6-2.9-1.6-5.1.3-2.6.8-3.6,1.3-1.8,2.2-2.4c1-.6,2.1-.8,3.4-.8s2.6.3,3.7.8l-.7,1.3c-1-.5-2-.7-3-.7h.1ZM156,694c0,1.6-.4,2.9-1.2,3.8-.8.9-2,1.4-3.4,1.4s-1.7-.2-2.4-.6c-.7-.4-1.2-1-1.6-1.8-.4-.8-.6-1.7-.6-2.8,0-1.6.4-2.9,1.2-3.8.8-.9,2-1.4,3.4-1.4s2.5.5,3.3,1.4,1.2,2.2,1.2,3.8h.1ZM148.4,694c0,1.3.3,2.3.8,2.9.5.7,1.3,1,2.3,1s1.7-.3,2.3-1c.5-.7.8-1.6.8-2.9s-.3-2.2-.8-2.9-1.3-1-2.3-1-1.7.3-2.2,1-.8,1.6-.8,2.9h-.1ZM170.7,699v-6.5c0-.8-.2-1.4-.5-1.8-.3-.4-.9-.6-1.6-.6s-1.6.3-2.1.8-.7,1.4-.7,2.5v5.6h-1.5v-6.5c0-.8-.2-1.4-.5-1.8-.3-.4-.9-.6-1.6-.6s-1.6.3-2.1.9c-.4.6-.7,1.5-.7,2.8v5.3h-1.5v-10h1.2l.2,1.4h0c.3-.5.7-.9,1.2-1.1.5-.3,1.1-.4,1.8-.4,1.6,0,2.6.6,3.1,1.7h0c.3-.5.7-.9,1.3-1.2s1.2-.5,1.9-.5c1.1,0,2,.3,2.5.9.6.6.8,1.5.8,2.8v6.5h-1.5l.3-.2ZM178.9,699.2c-1.5,0-2.7-.5-3.5-1.4-.9-.9-1.3-2.2-1.3-3.8s.4-2.9,1.2-3.8c.8-1,1.9-1.4,3.2-1.4s2.2.4,3,1.2c.7.8,1.1,1.9,1.1,3.3v1h-6.9c0,1.2.3,2.1.9,2.7.6.6,1.4.9,2.4.9s2.1-.2,3.2-.7v1.4c-.5.2-1,.4-1.5.5s-1.1.2-1.7.2h0ZM178.5,690.1c-.8,0-1.4.3-1.9.8s-.8,1.3-.8,2.2h5.2c0-1-.2-1.7-.6-2.2-.4-.5-1-.8-1.8-.8h0ZM191.3,699v-6.5c0-.8-.2-1.4-.6-1.8-.4-.4-1-.6-1.7-.6s-1.8.3-2.3.9c-.5.6-.7,1.5-.7,2.8v5.3h-1.5v-10h1.2l.2,1.4h0c.3-.5.7-.9,1.3-1.1.6-.3,1.2-.4,1.9-.4,1.2,0,2.1.3,2.7.9.6.6.9,1.5.9,2.8v6.5h-1.5v-.2ZM198.4,697.9h.8c.3,0,.4,0,.6,0v1.2c-.2,0-.4,0-.7.2h-.9c-1.9,0-2.9-1-2.9-3.1v-6h-1.4v-.7l1.4-.6.6-2.1h.9v2.3h2.9v1.2h-2.9v5.9c0,.6.1,1.1.4,1.4.3.3.7.5,1.2.5h0ZM207.2,699l-.3-1.4h0c-.5.6-1,1.1-1.5,1.3s-1.1.3-1.9.3-1.8-.3-2.3-.8c-.6-.5-.8-1.2-.8-2.2,0-2,1.6-3.1,4.9-3.2h1.7v-.7c0-.8-.2-1.4-.5-1.7-.3-.4-.9-.6-1.6-.6s-1.8.3-2.8.8l-.5-1.2c.5-.3,1-.5,1.6-.6.6-.2,1.2-.2,1.8-.2,1.2,0,2.1.3,2.7.8.6.5.9,1.4.9,2.6v6.8h-1.4ZM203.8,697.9c.9,0,1.7-.3,2.2-.8s.8-1.2.8-2.2v-.9h-1.5c-1.2,0-2.1.3-2.6.6s-.8.8-.8,1.5.2,1,.5,1.3.8.4,1.4.4h0ZM215.3,688.8c.4,0,.8,0,1.2,0l-.2,1.4c-.4,0-.8,0-1.1,0-.8,0-1.5.3-2.1,1s-.9,1.5-.9,2.5v5.4h-1.5v-10h1.3l.2,1.9h0c.4-.7.8-1.2,1.3-1.5.5-.4,1.1-.5,1.7-.5v-.2Z"/>
  <circle class="st12" cx="727.9" cy="194.2" r="10.4"/>
  <rect class="st14" x="640.1" y="237.2" width="275.3" height="208.3" rx="10" ry="10"/>
  <rect class="st20" x="728.5" y="372.4" width="166.7" height="55.1" rx="21.1" ry="21.1"/>
  <path class="st14" d="M777.9,394.4c-1.5,0-2.6.5-3.5,1.5-.8,1-1.3,2.3-1.3,4s.4,3.1,1.2,4.1,2,1.4,3.5,1.4,2-.2,3.2-.5v1.4c-.9.3-2.1.5-3.4.5-2,0-3.5-.6-4.6-1.8-1.1-1.2-1.6-2.9-1.6-5.1s.3-2.6.8-3.6,1.3-1.8,2.2-2.4c1-.6,2.1-.8,3.4-.8s2.6.3,3.7.8l-.7,1.3c-1-.5-2-.7-3-.7h0ZM791.7,401.6c0,1.6-.4,2.9-1.2,3.8s-2,1.4-3.4,1.4-1.7-.2-2.4-.6-1.2-1-1.6-1.8c-.4-.8-.6-1.7-.6-2.8,0-1.6.4-2.9,1.2-3.8s2-1.4,3.4-1.4,2.5.5,3.3,1.4,1.2,2.2,1.2,3.8h0ZM784,401.6c0,1.3.3,2.3.8,2.9.5.7,1.3,1,2.3,1s1.7-.3,2.3-1c.5-.7.8-1.7.8-2.9s-.3-2.2-.8-2.9c-.5-.7-1.3-1-2.3-1s-1.7.3-2.3,1c-.5.7-.8,1.6-.8,2.9ZM806.4,406.6v-6.5c0-.8-.2-1.4-.5-1.8s-.9-.6-1.6-.6-1.6.3-2.1.8-.7,1.4-.7,2.5v5.6h-1.5v-6.5c0-.8-.2-1.4-.5-1.8s-.9-.6-1.6-.6-1.7.3-2.1.9c-.4.6-.7,1.5-.7,2.8v5.3h-1.5v-10h1.2l.2,1.4h0c.3-.5.7-.9,1.2-1.1.5-.3,1.1-.4,1.8-.4,1.6,0,2.6.6,3.1,1.7h0c.3-.5.7-.9,1.3-1.2.6-.3,1.2-.5,1.9-.5,1.1,0,2,.3,2.5.9.6.6.9,1.5.9,2.8v6.5h-1.5l.2-.2ZM814.5,406.8c-1.5,0-2.7-.5-3.5-1.4-.9-.9-1.3-2.2-1.3-3.8s.4-2.9,1.2-3.9,1.9-1.4,3.2-1.4,2.3.4,3,1.2c.7.8,1.1,1.9,1.1,3.3v1h-6.9c0,1.2.3,2.1.9,2.7.6.6,1.4.9,2.4.9s2.1-.2,3.2-.7v1.4c-.5.2-1,.4-1.5.5s-1.1.2-1.7.2h-.1ZM814.1,397.7c-.8,0-1.4.3-1.9.8s-.8,1.3-.8,2.2h5.2c0-1-.2-1.7-.6-2.2-.4-.5-1-.8-1.8-.8h-.1ZM827,406.6v-6.5c0-.8-.2-1.4-.6-1.8-.4-.4-1-.6-1.7-.6s-1.8.3-2.3.9-.7,1.5-.7,2.8v5.3h-1.5v-10h1.2l.2,1.4h0c.3-.5.7-.9,1.3-1.1.6-.3,1.2-.4,1.9-.4,1.2,0,2.1.3,2.7.9.6.6.9,1.5.9,2.8v6.5h-1.5v-.2ZM834.1,405.5h.8c.3,0,.4,0,.6-.1v1.2c-.2,0-.4.1-.7.2h-.9c-1.9,0-2.9-1-2.9-3.1v-6h-1.4v-.7l1.4-.6.6-2.1h.9v2.3h2.9v1.2h-2.9v5.9c0,.6,0,1.1.4,1.4.3.3.7.5,1.2.5h0ZM842.9,406.6l-.3-1.4h0c-.5.6-1,1.1-1.5,1.3-.5.2-1.1.3-1.9.3s-1.8-.3-2.3-.8c-.6-.5-.8-1.2-.8-2.2,0-2,1.6-3.1,4.9-3.2h1.7v-.7c0-.8-.2-1.4-.5-1.7-.3-.4-.9-.6-1.6-.6s-1.8.3-2.8.8l-.5-1.2c.5-.3,1-.5,1.6-.6.6-.2,1.2-.2,1.8-.2,1.2,0,2.1.3,2.7.8.6.5.9,1.4.9,2.6v6.8h-1.4ZM839.5,405.5c.9,0,1.7-.3,2.2-.8s.8-1.2.8-2.2v-.9h-1.5c-1.2.1-2.1.3-2.6.6-.5.3-.8.8-.8,1.5s.2,1,.5,1.3.8.4,1.4.4h0ZM851,396.4c.4,0,.8,0,1.2.1l-.2,1.4c-.4,0-.8-.1-1.1-.1-.8,0-1.5.3-2.1,1s-.9,1.5-.9,2.5v5.4h-1.5v-10h1.3l.2,1.9h0c.4-.7.8-1.2,1.3-1.5.5-.4,1.1-.5,1.7-.5v-.2Z"/>
  <g>
    <path class="st26" d="M672.2,275.5h2.8l4.9,12h.2l4.9-12h2.8v15.5h-2.2v-11.2h0l-4.6,11.2h-1.8l-4.6-11.2h0v11.2h-2.2v-15.5h0Z"/>
    <path class="st26" d="M696.1,291.2c-1.1,0-2.1-.2-2.9-.7-.8-.5-1.5-1.2-1.9-2.1s-.7-1.9-.7-3.1.2-2.2.7-3.1,1.1-1.6,1.9-2.1,1.7-.8,2.8-.8,1.3.1,1.9.3,1.2.6,1.7,1c.5.5.9,1.1,1.2,1.8.3.7.4,1.6.4,2.7v.8h-9.2v-1.7h7c0-.6,0-1.1-.4-1.6-.2-.5-.6-.8-1-1.1-.4-.3-.9-.4-1.5-.4s-1.2.2-1.7.5-.8.7-1.1,1.2-.4,1-.4,1.6v1.3c0,.8,0,1.4.4,2s.7,1,1.2,1.2c.5.3,1.1.4,1.7.4s.8,0,1.2-.2c.4-.1.7-.3.9-.6s.5-.6.6-.9l2.1.4c-.2.6-.5,1.2-.9,1.6-.4.5-1,.8-1.7,1.1-.7.3-1.4.4-2.3.4h0Z"/>
    <path class="st26" d="M714,295.6c-.9,0-1.7-.1-2.4-.4-.7-.2-1.2-.6-1.6-1-.4-.4-.7-.8-.9-1.3l1.9-.8c0,.2.3.5.5.7s.5.5.9.6c.4.2.9.3,1.5.3s1.6-.2,2.1-.6.8-1.1.8-2v-2.3h0c0,.2-.3.5-.6.8s-.6.6-1,.8c-.4.2-1,.3-1.7.3s-1.7-.2-2.5-.6c-.7-.4-1.3-1.1-1.7-1.9s-.6-1.9-.6-3.1.2-2.3.6-3.2c.4-.9,1-1.6,1.7-2,.7-.5,1.6-.7,2.5-.7s1.3.1,1.7.4c.4.2.8.5,1,.8s.4.6.6.8h.2v-1.9h2.2v11.9c0,1-.2,1.8-.7,2.5-.5.6-1.1,1.1-1.9,1.4s-1.7.5-2.7.5h.2ZM714,288.9c.6,0,1.2-.2,1.6-.5.5-.3.8-.7,1-1.3.2-.6.4-1.3.4-2.1s0-1.5-.3-2.1-.6-1.1-1-1.4-1-.5-1.7-.5-1.2.2-1.7.5-.8.8-1,1.4-.3,1.3-.3,2,0,1.4.3,2,.6,1,1,1.3c.5.3,1,.5,1.7.5v.2Z"/>
    <path class="st26" d="M729.6,286.2v-6.8h2.3v11.6h-2.2v-2h0c-.3.6-.7,1.1-1.3,1.5s-1.3.6-2.2.6-1.4-.2-2-.5-1-.8-1.3-1.5c-.3-.6-.5-1.5-.5-2.4v-7.4h2.3v7.1c0,.8.2,1.4.7,1.9.4.5,1,.7,1.7.7s.8-.1,1.3-.3c.4-.2.8-.5,1-1s.4-1,.4-1.6h-.1Z"/>
    <path class="st26" d="M743.6,282.2l-2,.4c0-.3-.2-.5-.4-.7s-.4-.4-.7-.6-.7-.2-1.2-.2-1.2.1-1.6.4-.6.7-.6,1.1,0,.7.4.9c.3.2.7.4,1.4.6l1.8.4c1.1.2,1.9.6,2.4,1.1s.8,1.2.8,2-.2,1.3-.6,1.9c-.4.5-1,1-1.7,1.3s-1.5.5-2.5.5-2.4-.3-3.2-.8-1.3-1.3-1.5-2.4l2.2-.3c0,.6.4,1,.8,1.3.4.3,1,.4,1.7.4s1.3-.2,1.8-.5.7-.7.7-1.1,0-.7-.4-.9c-.3-.2-.7-.4-1.2-.6l-2-.4c-1.1-.2-1.9-.6-2.4-1.2s-.8-1.2-.8-2,.2-1.3.6-1.8c.4-.5.9-.9,1.6-1.2.7-.3,1.4-.4,2.3-.4,1.3,0,2.2.3,3,.8s1.2,1.3,1.4,2.2v-.2Z"/>
    <path class="st26" d="M751.7,279.4v1.8h-6.3v-1.8h6.3ZM747.1,276.6h2.3v11c0,.4,0,.8.2,1,0,.2.3.4.5.4s.4.1.7.1h.8l.4,1.9c0,0-.3.1-.6.2h-.9c-.6,0-1.1,0-1.7-.3s-.9-.6-1.2-1c-.3-.5-.5-1-.5-1.7v-11.6Z"/>
    <path class="st26" d="M757.6,291.2c-.7,0-1.4-.1-2-.4s-1.1-.7-1.4-1.2c-.3-.5-.5-1.2-.5-1.9s0-1.2.4-1.6c.3-.4.6-.8,1-1s.9-.4,1.4-.6c.5-.1,1.1-.2,1.6-.3.7,0,1.3-.1,1.7-.2.4,0,.7-.1.9-.3s.3-.3.3-.6h0c0-.7-.2-1.2-.6-1.6-.4-.4-.9-.5-1.6-.5s-1.4.2-1.8.5-.7.7-.9,1.1l-2.1-.5c.3-.7.6-1.3,1.1-1.7.5-.4,1-.8,1.7-1,.6-.2,1.3-.3,2-.3s1,0,1.5.2c.5.1,1,.3,1.5.6.5.3.8.7,1.1,1.2s.4,1.2.4,2.1v7.7h-2.2v-1.6h0c0,.3-.4.6-.7.9s-.7.5-1.1.7c-.5.2-1,.3-1.6.3h-.1ZM758.1,289.4c.6,0,1.2-.1,1.6-.4s.8-.6,1-1,.4-.8.4-1.3v-1.5s-.2.2-.5.2-.5.1-.8.2c-.3,0-.6,0-.9.1h-.7c-.4,0-.8.1-1.2.3-.4.1-.6.3-.9.6s-.3.6-.3,1,.2,1,.6,1.3c.4.3.9.4,1.6.4h.1Z"/>
    <path class="st26" d="M766.3,291v-11.6h2.2v1.8h0c.2-.6.6-1.1,1.1-1.5s1.1-.5,1.8-.5.3,0,.5,0h.5v2.2h-1.2c-.5,0-1,.1-1.4.3-.4.2-.7.5-1,.9-.2.4-.4.8-.4,1.3v7.1h-2.3.1Z"/>
    <path class="st26" d="M775.6,277.6c-.4,0-.7-.1-1-.4s-.4-.6-.4-.9,0-.7.4-1,.6-.4,1-.4.7.1,1,.4.4.6.4.9,0,.7-.4,1-.6.4-1,.4ZM774.5,291v-11.6h2.3v11.6h-2.3Z"/>
    <path class="st26" d="M783.2,291.2c-.7,0-1.4-.1-2-.4s-1.1-.7-1.4-1.2c-.3-.5-.5-1.2-.5-1.9s0-1.2.4-1.6c.3-.4.6-.8,1-1s.9-.4,1.4-.6c.5-.1,1.1-.2,1.6-.3.7,0,1.3-.1,1.7-.2.4,0,.7-.1.9-.3s.3-.3.3-.6h0c0-.7-.2-1.2-.6-1.6-.4-.4-.9-.5-1.6-.5s-1.4.2-1.8.5-.7.7-.9,1.1l-2.1-.5c.3-.7.6-1.3,1.1-1.7.5-.4,1-.8,1.7-1,.6-.2,1.3-.3,2-.3s1,0,1.5.2c.5.1,1,.3,1.5.6.5.3.8.7,1.1,1.2s.4,1.2.4,2.1v7.7h-2.2v-1.6h0c0,.3-.4.6-.7.9s-.7.5-1.1.7c-.5.2-1,.3-1.6.3h-.1ZM783.7,289.4c.6,0,1.2-.1,1.6-.4s.8-.6,1-1,.4-.8.4-1.3v-1.5s-.2.2-.5.2-.5.1-.8.2c-.3,0-.6,0-.9.1h-.7c-.4,0-.8.1-1.2.3-.4.1-.6.3-.9.6s-.3.6-.3,1,.2,1,.6,1.3c.4.3.9.4,1.6.4h.1Z"/>
    <path class="st26" d="M797.5,295.3v-15.9h2.2v1.9h.2c0-.2.3-.5.6-.8.2-.3.6-.6,1-.8.4-.2,1-.4,1.7-.4s1.8.2,2.5.7,1.3,1.2,1.7,2c.4.9.6,2,.6,3.2s-.2,2.3-.6,3.2c-.4.9-1,1.6-1.7,2.1s-1.6.7-2.5.7-1.3-.1-1.7-.4-.8-.5-1-.8c-.3-.3-.4-.6-.6-.8h0v6.2h-2.3ZM799.7,285.2c0,.8,0,1.5.4,2.1.2.6.6,1.1,1,1.4s1,.5,1.6.5,1.2-.2,1.7-.5c.5-.4.8-.8,1-1.5.2-.6.4-1.3.4-2.1s0-1.5-.3-2.1-.6-1.1-1-1.4c-.5-.4-1-.5-1.7-.5s-1.2.2-1.7.5-.8.8-1,1.4-.3,1.3-.3,2.1h-.1Z"/>
    <path class="st26" d="M810.6,291v-11.6h2.2v1.8h0c.2-.6.6-1.1,1.1-1.5s1.1-.5,1.8-.5.3,0,.5,0h.5v2.2h-1.2c-.5,0-1,.1-1.4.3-.4.2-.7.5-1,.9-.2.4-.4.8-.4,1.3v7.1h-2.3.1Z"/>
    <path class="st26" d="M823.7,291.2c-1.1,0-2-.2-2.8-.7s-1.4-1.2-1.9-2.1c-.4-.9-.7-1.9-.7-3.1s.2-2.3.7-3.2c.4-.9,1.1-1.6,1.9-2.1.8-.5,1.8-.7,2.8-.7s2,.2,2.8.7,1.4,1.2,1.9,2.1.7,2,.7,3.2-.2,2.2-.7,3.1c-.4.9-1.1,1.6-1.9,2.1-.8.5-1.8.7-2.8.7ZM823.7,289.3c.7,0,1.3-.2,1.8-.6s.8-.9,1-1.5.3-1.3.3-2,0-1.4-.3-2-.6-1.1-1-1.5c-.5-.4-1-.6-1.8-.6s-1.3.2-1.8.6-.8.9-1,1.5-.3,1.3-.3,2,0,1.4.3,2,.6,1.1,1,1.5c.5.4,1.1.6,1.8.6Z"/>
    <path class="st26" d="M831.8,291v-15.5h2.3v5.7h0c0-.2.3-.5.6-.8.2-.3.6-.6,1-.8.4-.2,1-.4,1.7-.4s1.8.2,2.5.7,1.3,1.2,1.7,2c.4.9.6,2,.6,3.2s-.2,2.3-.6,3.2c-.4.9-1,1.6-1.7,2.1s-1.6.7-2.5.7-1.3-.1-1.7-.4-.8-.5-1-.8c-.3-.3-.4-.6-.6-.8h-.2v1.8h-2.2,0ZM834,285.2c0,.8,0,1.5.4,2.1s.6,1.1,1,1.4,1,.5,1.6.5,1.2-.2,1.7-.5c.5-.4.8-.8,1-1.5.2-.6.4-1.3.4-2.1s0-1.5-.3-2.1-.6-1.1-1-1.4c-.5-.4-1-.5-1.7-.5s-1.2.2-1.7.5-.8.8-1,1.4-.3,1.3-.3,2.1h-.1Z"/>
    <path class="st26" d="M848.3,291.2c-.7,0-1.4-.1-2-.4s-1.1-.7-1.4-1.2c-.3-.5-.5-1.2-.5-1.9s0-1.2.4-1.6c.3-.4.6-.8,1-1s.9-.4,1.4-.6c.5-.1,1.1-.2,1.6-.3.7,0,1.3-.1,1.7-.2.4,0,.7-.1.9-.3s.3-.3.3-.6h0c0-.7-.2-1.2-.6-1.6-.4-.4-.9-.5-1.6-.5s-1.4.2-1.8.5-.7.7-.9,1.1l-2.1-.5c.3-.7.6-1.3,1.1-1.7.5-.4,1-.8,1.7-1,.6-.2,1.3-.3,2-.3s1,0,1.5.2c.5.1,1,.3,1.5.6.5.3.8.7,1.1,1.2s.4,1.2.4,2.1v7.7h-2.2v-1.6h0c0,.3-.4.6-.7.9s-.7.5-1.1.7c-.5.2-1,.3-1.6.3h-.1ZM848.8,289.4c.6,0,1.2-.1,1.6-.4s.8-.6,1-1,.4-.8.4-1.3v-1.5s-.2.2-.5.2-.5.1-.8.2c-.3,0-.6,0-.9.1h-.7c-.4,0-.8.1-1.2.3-.4.1-.6.3-.9.6s-.3.6-.3,1,.2,1,.6,1.3c.4.3.9.4,1.6.4h.1Z"/>
    <path class="st26" d="M857,291v-11.6h2.2v1.8h0c.2-.6.6-1.1,1.1-1.5s1.1-.5,1.8-.5.3,0,.5,0h.5v2.2h-1.2c-.5,0-1,.1-1.4.3-.4.2-.7.5-1,.9-.2.4-.4.8-.4,1.3v7.1h-2.3.1Z"/>
    <path class="st26" d="M676.9,316.7c-1.1,0-2.1-.3-2.9-.8s-1.4-1.2-1.9-2.1-.6-1.9-.6-3.1.2-2.2.7-3.1c.4-.9,1.1-1.6,1.9-2.1.8-.5,1.8-.8,2.8-.8s1.7.2,2.4.5,1.2.8,1.7,1.4c.4.6.7,1.3.8,2h-2.2c0-.5-.4-1-.8-1.4-.4-.4-1-.6-1.7-.6s-1.2.2-1.6.5-.8.8-1.1,1.4-.4,1.3-.4,2.1,0,1.6.4,2.2c.3.6.6,1.1,1.1,1.4s1,.5,1.7.5.8,0,1.2-.2c.3-.2.6-.4.9-.7.2-.3.4-.7.5-1.1h2.2c0,.8-.3,1.4-.7,2s-1,1.1-1.6,1.4c-.7.3-1.5.5-2.4.5h-.4Z"/>
    <path class="st26" d="M688.9,316.7c-1.1,0-2-.2-2.8-.7s-1.4-1.2-1.9-2.1c-.4-.9-.7-1.9-.7-3.1s.2-2.3.7-3.2c.4-.9,1.1-1.6,1.9-2.1.8-.5,1.8-.7,2.8-.7s2,.2,2.8.7,1.4,1.2,1.9,2.1.7,2,.7,3.2-.2,2.2-.7,3.1c-.4.9-1.1,1.6-1.9,2.1-.8.5-1.8.7-2.8.7ZM688.9,314.8c.7,0,1.3-.2,1.8-.6s.8-.9,1-1.5.3-1.3.3-2,0-1.4-.3-2-.6-1.1-1-1.5c-.5-.4-1-.6-1.8-.6s-1.3.2-1.8.6-.8.9-1,1.5-.3,1.3-.3,2,0,1.4.3,2,.6,1.1,1,1.5c.5.4,1.1.6,1.8.6Z"/>
    <path class="st26" d="M699.1,309.6v6.9h-2.3v-11.6h2.2v1.9h0c.3-.6.7-1.1,1.3-1.5s1.3-.6,2.2-.6,1.5.2,2.1.5,1.1.8,1.4,1.5c.3.6.5,1.5.5,2.4v7.4h-2.3v-7.1c0-.8-.2-1.5-.7-2-.4-.5-1-.7-1.8-.7s-1,.1-1.4.3c-.4.2-.7.6-1,1-.2.4-.4,1-.4,1.6h.1Z"/>
    <path class="st26" d="M720.1,316.7c-1.1,0-2-.2-2.8-.7s-1.4-1.2-1.9-2.1c-.4-.9-.7-1.9-.7-3.1s.2-2.3.7-3.2c.4-.9,1.1-1.6,1.9-2.1.8-.5,1.8-.7,2.8-.7s2,.2,2.8.7,1.4,1.2,1.9,2.1.7,2,.7,3.2-.2,2.2-.7,3.1c-.4.9-1.1,1.6-1.9,2.1-.8.5-1.8.7-2.8.7ZM720.1,314.8c.7,0,1.3-.2,1.8-.6s.8-.9,1-1.5.3-1.3.3-2,0-1.4-.3-2-.6-1.1-1-1.5c-.5-.4-1-.6-1.8-.6s-1.3.2-1.8.6-.8.9-1,1.5-.3,1.3-.3,2,0,1.4.3,2,.6,1.1,1,1.5c.5.4,1.1.6,1.8.6Z"/>
    <path class="st26" d="M733.4,304.9v1.8h-6.3v-1.8h6.3ZM728.8,302.1h2.3v11c0,.4,0,.8.2,1,0,.2.3.4.5.4s.4.1.7.1h.8l.4,1.9c0,0-.3.1-.6.2h-.9c-.6,0-1.1,0-1.7-.3s-.9-.6-1.2-1c-.3-.5-.5-1-.5-1.7v-11.6Z"/>
    <path class="st26" d="M735.9,316.5v-11.6h2.2v1.8h0c.2-.6.6-1.1,1.1-1.5s1.1-.5,1.8-.5.3,0,.5,0h.5v2.2h-1.2c-.5,0-1,.1-1.4.3-.4.2-.7.5-1,.9-.2.4-.4.8-.4,1.3v7.1h-2.3.1Z"/>
    <path class="st26" d="M747.4,316.7c-.7,0-1.4-.1-2-.4s-1.1-.7-1.4-1.2c-.3-.5-.5-1.2-.5-1.9s0-1.2.4-1.6c.3-.4.6-.8,1-1s.9-.4,1.4-.6c.5-.1,1.1-.2,1.6-.3.7,0,1.3-.1,1.7-.2.4,0,.7-.1.9-.3s.3-.3.3-.6h0c0-.7-.2-1.2-.6-1.6-.4-.4-.9-.5-1.6-.5s-1.4.2-1.8.5-.7.7-.9,1.1l-2.1-.5c.3-.7.6-1.3,1.1-1.7.5-.4,1-.8,1.7-1,.6-.2,1.3-.3,2-.3s1,0,1.5.2c.5.1,1,.3,1.5.6.5.3.8.7,1.1,1.2s.4,1.2.4,2.1v7.7h-2.2v-1.6h0c0,.3-.4.6-.7.9s-.7.5-1.1.7c-.5.2-1,.3-1.6.3h-.1ZM747.9,314.9c.6,0,1.2-.1,1.6-.4s.8-.6,1-1,.4-.8.4-1.3v-1.5s-.2.2-.5.2-.5.1-.8.2c-.3,0-.6,0-.9.1h-.7c-.4,0-.8.1-1.2.3-.4.1-.6.3-.9.6s-.3.6-.3,1,.2,1,.6,1.3c.4.3.9.4,1.6.4h.1Z"/>
    <path class="st26" d="M761.8,320.8v-15.9h2.2v1.9h.2c0-.2.3-.5.6-.8.2-.3.6-.6,1-.8.4-.2,1-.4,1.7-.4s1.8.2,2.5.7,1.3,1.2,1.7,2c.4.9.6,2,.6,3.2s-.2,2.3-.6,3.2c-.4.9-1,1.6-1.7,2.1s-1.6.7-2.5.7-1.3-.1-1.7-.4-.8-.5-1-.8c-.3-.3-.4-.6-.6-.8h0v6.2h-2.3ZM764,310.7c0,.8,0,1.5.4,2.1.2.6.6,1.1,1,1.4s1,.5,1.6.5,1.2-.2,1.7-.5c.5-.4.8-.8,1-1.5.2-.6.4-1.3.4-2.1s0-1.5-.3-2.1-.6-1.1-1-1.4c-.5-.4-1-.5-1.7-.5s-1.2.2-1.7.5-.8.8-1,1.4-.3,1.3-.3,2.1h-.1Z"/>
    <path class="st26" d="M778.3,316.7c-.7,0-1.4-.1-2-.4s-1.1-.7-1.4-1.2c-.3-.5-.5-1.2-.5-1.9s0-1.2.4-1.6c.3-.4.6-.8,1-1s.9-.4,1.4-.6c.5-.1,1.1-.2,1.6-.3.7,0,1.3-.1,1.7-.2.4,0,.7-.1.9-.3s.3-.3.3-.6h0c0-.7-.2-1.2-.6-1.6-.4-.4-.9-.5-1.6-.5s-1.4.2-1.8.5-.7.7-.9,1.1l-2.1-.5c.3-.7.6-1.3,1.1-1.7.5-.4,1-.8,1.7-1,.6-.2,1.3-.3,2-.3s1,0,1.5.2c.5.1,1,.3,1.5.6.5.3.8.7,1.1,1.2s.4,1.2.4,2.1v7.7h-2.2v-1.6h0c0,.3-.4.6-.7.9s-.7.5-1.1.7c-.5.2-1,.3-1.6.3h-.1ZM778.8,314.9c.6,0,1.2-.1,1.6-.4s.8-.6,1-1,.4-.8.4-1.3v-1.5s-.2.2-.5.2-.5.1-.8.2c-.3,0-.6,0-.9.1h-.7c-.4,0-.8.1-1.2.3-.4.1-.6.3-.9.6s-.3.6-.3,1,.2,1,.6,1.3c.4.3.9.4,1.6.4h.1Z"/>
    <path class="st26" d="M789.3,301v15.5h-2.3v-15.5h2.3Z"/>
    <path class="st26" d="M797.3,316.7c-1.1,0-2.1-.2-2.9-.7-.8-.5-1.5-1.2-1.9-2.1s-.7-1.9-.7-3.1.2-2.2.7-3.1,1.1-1.6,1.9-2.1,1.7-.8,2.8-.8,1.3.1,1.9.3,1.2.6,1.7,1c.5.5.9,1.1,1.2,1.8.3.7.4,1.6.4,2.7v.8h-9.2v-1.7h7c0-.6,0-1.1-.4-1.6-.2-.5-.6-.8-1-1.1-.4-.3-.9-.4-1.5-.4s-1.2.2-1.7.5-.8.7-1.1,1.2-.4,1-.4,1.6v1.3c0,.8,0,1.4.4,2s.7,1,1.2,1.2c.5.3,1.1.4,1.7.4s.8,0,1.2-.2c.4-.1.7-.3.9-.6s.5-.6.6-.9l2.1.4c-.2.6-.5,1.2-.9,1.6-.4.5-1,.8-1.7,1.1-.7.3-1.4.4-2.3.4h0Z"/>
    <path class="st26" d="M810.2,304.9v1.8h-6.3v-1.8h6.3ZM805.6,302.1h2.3v11c0,.4,0,.8.2,1,0,.2.3.4.5.4s.4.1.7.1h.8l.4,1.9c0,0-.3.1-.6.2h-.9c-.6,0-1.1,0-1.7-.3s-.9-.6-1.2-1c-.3-.5-.5-1-.5-1.7v-11.6Z"/>
    <path class="st26" d="M816.1,316.7c-.7,0-1.4-.1-2-.4s-1.1-.7-1.4-1.2c-.3-.5-.5-1.2-.5-1.9s0-1.2.4-1.6c.3-.4.6-.8,1-1s.9-.4,1.4-.6c.5-.1,1.1-.2,1.6-.3.7,0,1.3-.1,1.7-.2.4,0,.7-.1.9-.3s.3-.3.3-.6h0c0-.7-.2-1.2-.6-1.6-.4-.4-.9-.5-1.6-.5s-1.4.2-1.8.5-.7.7-.9,1.1l-2.1-.5c.3-.7.6-1.3,1.1-1.7.5-.4,1-.8,1.7-1,.6-.2,1.3-.3,2-.3s1,0,1.5.2c.5.1,1,.3,1.5.6.5.3.8.7,1.1,1.2s.4,1.2.4,2.1v7.7h-2.2v-1.6h0c0,.3-.4.6-.7.9s-.7.5-1.1.7c-.5.2-1,.3-1.6.3h-.1ZM816.6,314.9c.6,0,1.2-.1,1.6-.4s.8-.6,1-1,.4-.8.4-1.3v-1.5s-.2.2-.5.2-.5.1-.8.2c-.3,0-.6,0-.9.1h-.7c-.4,0-.8.1-1.2.3-.4.1-.6.3-.9.6s-.3.6-.3,1,.2,1,.6,1.3c.4.3.9.4,1.6.4h.1Z"/>
    <path class="st26" d="M834.8,316.7c-.9,0-1.8-.2-2.5-.7s-1.3-1.2-1.7-2.1-.6-2-.6-3.2.2-2.3.6-3.2c.4-.9,1-1.6,1.7-2s1.6-.7,2.5-.7,1.3.1,1.7.4c.4.2.8.5,1,.8s.4.6.6.8h0v-5.7h2.3v15.5h-2.2v-1.8h-.2c0,.2-.3.5-.6.8s-.6.6-1,.8c-.4.2-1,.4-1.7.4h0ZM835.3,314.8c.6,0,1.2-.2,1.6-.5s.8-.8,1-1.4.4-1.3.4-2.1,0-1.5-.3-2.1-.6-1.1-1-1.4-1-.5-1.7-.5-1.2.2-1.7.5c-.5.4-.8.8-1,1.4s-.3,1.3-.3,2.1,0,1.5.3,2.1.6,1.1,1,1.5c.5.4,1,.5,1.7.5h0Z"/>
    <path class="st26" d="M848.7,316.7c-1.1,0-2.1-.2-2.9-.7-.8-.5-1.5-1.2-1.9-2.1s-.7-1.9-.7-3.1.2-2.2.7-3.1,1.1-1.6,1.9-2.1,1.7-.8,2.8-.8,1.3.1,1.9.3,1.2.6,1.7,1c.5.5.9,1.1,1.2,1.8.3.7.4,1.6.4,2.7v.8h-9.2v-1.7h7c0-.6,0-1.1-.4-1.6-.2-.5-.6-.8-1-1.1-.4-.3-.9-.4-1.5-.4s-1.2.2-1.7.5-.8.7-1.1,1.2-.4,1-.4,1.6v1.3c0,.8,0,1.4.4,2s.7,1,1.2,1.2c.5.3,1.1.4,1.7.4s.8,0,1.2-.2c.4-.1.7-.3.9-.6s.5-.6.6-.9l2.1.4c-.2.6-.5,1.2-.9,1.6-.4.5-1,.8-1.7,1.1-.7.3-1.4.4-2.3.4h0Z"/>
    <path class="st26" d="M676.9,342.2c-1.1,0-2.1-.3-2.9-.8s-1.4-1.2-1.9-2.1-.6-1.9-.6-3.1.2-2.2.7-3.1c.4-.9,1.1-1.6,1.9-2.1.8-.5,1.8-.8,2.8-.8s1.7.2,2.4.5,1.2.8,1.7,1.4c.4.6.7,1.3.8,2h-2.2c0-.5-.4-1-.8-1.4-.4-.4-1-.6-1.7-.6s-1.2.2-1.6.5-.8.8-1.1,1.4-.4,1.3-.4,2.1,0,1.6.4,2.2c.3.6.6,1.1,1.1,1.4s1,.5,1.7.5.8,0,1.2-.2c.3-.2.6-.4.9-.7.2-.3.4-.7.5-1.1h2.2c0,.8-.3,1.4-.7,2s-1,1.1-1.6,1.4c-.7.3-1.5.5-2.4.5h-.4Z"/>
    <path class="st26" d="M688.9,342.2c-1.1,0-2-.2-2.8-.7s-1.4-1.2-1.9-2.1c-.4-.9-.7-1.9-.7-3.1s.2-2.3.7-3.2c.4-.9,1.1-1.6,1.9-2.1.8-.5,1.8-.7,2.8-.7s2,.2,2.8.7,1.4,1.2,1.9,2.1.7,2,.7,3.2-.2,2.2-.7,3.1c-.4.9-1.1,1.6-1.9,2.1-.8.5-1.8.7-2.8.7ZM688.9,340.3c.7,0,1.3-.2,1.8-.6s.8-.9,1-1.5.3-1.3.3-2,0-1.4-.3-2-.6-1.1-1-1.5c-.5-.4-1-.6-1.8-.6s-1.3.2-1.8.6-.8.9-1,1.5-.3,1.3-.3,2,0,1.4.3,2,.6,1.1,1,1.5c.5.4,1.1.6,1.8.6Z"/>
    <path class="st26" d="M699.1,326.5v15.5h-2.3v-15.5h2.3Z"/>
    <path class="st26" d="M707,342.2c-1.1,0-2-.2-2.8-.7s-1.4-1.2-1.9-2.1c-.4-.9-.7-1.9-.7-3.1s.2-2.3.7-3.2c.4-.9,1.1-1.6,1.9-2.1.8-.5,1.8-.7,2.8-.7s2,.2,2.8.7,1.4,1.2,1.9,2.1.7,2,.7,3.2-.2,2.2-.7,3.1c-.4.9-1.1,1.6-1.9,2.1-.8.5-1.8.7-2.8.7ZM707,340.3c.7,0,1.3-.2,1.8-.6s.8-.9,1-1.5.3-1.3.3-2,0-1.4-.3-2-.6-1.1-1-1.5c-.5-.4-1-.6-1.8-.6s-1.3.2-1.8.6-.8.9-1,1.5-.3,1.3-.3,2,0,1.4.3,2,.6,1.1,1,1.5c.5.4,1.1.6,1.8.6Z"/>
    <path class="st26" d="M715,342v-11.6h2.2v1.8h0c.2-.6.6-1.1,1.1-1.5s1.1-.5,1.8-.5.3,0,.5,0h.5v2.2h-1.2c-.5,0-1,.1-1.4.3-.4.2-.7.5-1,.9-.2.4-.4.8-.4,1.3v7.1h-2.3.1Z"/>
    <path class="st26" d="M728.1,342.2c-1.1,0-2.1-.2-2.9-.7-.8-.5-1.5-1.2-1.9-2.1s-.7-1.9-.7-3.1.2-2.2.7-3.1,1.1-1.6,1.9-2.1,1.7-.8,2.8-.8,1.3.1,1.9.3,1.2.6,1.7,1c.5.5.9,1.1,1.2,1.8.3.7.4,1.6.4,2.7v.8h-9.2v-1.7h7c0-.6,0-1.1-.4-1.6-.2-.5-.6-.8-1-1.1-.4-.3-.9-.4-1.5-.4s-1.2.2-1.7.5-.8.7-1.1,1.2-.4,1-.4,1.6v1.3c0,.8,0,1.4.4,2s.7,1,1.2,1.2c.5.3,1.1.4,1.7.4s.8,0,1.2-.2c.4-.1.7-.3.9-.6s.5-.6.6-.9l2.1.4c-.2.6-.5,1.2-.9,1.6-.4.5-1,.8-1.7,1.1-.7.3-1.4.4-2.3.4h0Z"/>
    <path class="st26" d="M744.3,333.2l-2,.4c0-.3-.2-.5-.4-.7s-.4-.4-.7-.6-.7-.2-1.2-.2-1.2.1-1.6.4-.6.7-.6,1.1,0,.7.4.9c.3.2.7.4,1.4.6l1.8.4c1.1.2,1.9.6,2.4,1.1s.8,1.2.8,2-.2,1.3-.6,1.9c-.4.5-1,1-1.7,1.3s-1.5.5-2.5.5-2.4-.3-3.2-.8-1.3-1.3-1.5-2.4l2.2-.3c0,.6.4,1,.8,1.3.4.3,1,.4,1.7.4s1.3-.2,1.8-.5.7-.7.7-1.1,0-.7-.4-.9c-.3-.2-.7-.4-1.2-.6l-2-.4c-1.1-.2-1.9-.6-2.4-1.2s-.8-1.2-.8-2,.2-1.3.6-1.8c.4-.5.9-.9,1.6-1.2.7-.3,1.4-.4,2.3-.4,1.3,0,2.2.3,3,.8s1.2,1.3,1.4,2.2v-.2Z"/>
    <path class="st26" d="M749.9,339.9v.8c-.2.6-.3,1.2-.5,1.9s-.4,1.3-.6,1.8c-.2.6-.3,1-.5,1.3h-1.6c0-.3.2-.7.3-1.3,0-.5.2-1.1.3-1.8,0-.7.2-1.3.2-2v-.8h2.4Z"/>
    <path class="st26" d="M764.4,334.9v.2c0,.9,0,1.7-.3,2.2-.2.6-.4,1-.8,1.3s-.7.7-1.2.9c-.3.2-.6.4-.8.6s-.4.5-.6.8c0,.3-.2.6-.2,1s0,.8.3,1.2.5.6.8.8.7.3,1.2.3.8,0,1.1-.2c.4-.2.6-.4.9-.8.2-.3.4-.8.4-1.3h2.3c0,.9-.3,1.7-.7,2.3-.4.6-1,1.1-1.7,1.4s-1.5.5-2.3.5-1.7-.2-2.4-.5-1.2-.8-1.6-1.4-.6-1.3-.6-2.2,0-1.1.3-1.5c.2-.5.4-.9.8-1.2.3-.4.7-.7,1.2-.9.4-.3.8-.5,1-.8.3-.3.5-.6.6-1s.2-.9.2-1.5v-.2h2.2-.1ZM763.3,330.3c.4,0,.8.1,1.1.4s.4.7.4,1.1,0,.8-.4,1.1-.7.4-1.1.4-.8-.1-1.1-.4-.4-.7-.4-1.1,0-.5.2-.8c0-.2.3-.4.6-.5.2-.1.5-.2.8-.2h0Z"/>
    <path class="st26" d="M775.5,346.3v-15.9h2.2v1.9h.2c0-.2.3-.5.6-.8.2-.3.6-.6,1-.8.4-.2,1-.4,1.7-.4s1.8.2,2.5.7,1.3,1.2,1.7,2c.4.9.6,2,.6,3.2s-.2,2.3-.6,3.2c-.4.9-1,1.6-1.7,2.1s-1.6.7-2.5.7-1.3-.1-1.7-.4-.8-.5-1-.8c-.3-.3-.4-.6-.6-.8h0v6.2h-2.3ZM777.8,336.2c0,.8,0,1.5.4,2.1.2.6.6,1.1,1,1.4s1,.5,1.6.5,1.2-.2,1.7-.5c.5-.4.8-.8,1-1.5.2-.6.4-1.3.4-2.1s0-1.5-.3-2.1-.6-1.1-1-1.4c-.5-.4-1-.5-1.7-.5s-1.2.2-1.7.5-.8.8-1,1.4-.3,1.3-.3,2.1h-.1Z"/>
    <path class="st26" d="M793.5,342.2c-1.1,0-2-.2-2.8-.7s-1.4-1.2-1.9-2.1c-.4-.9-.7-1.9-.7-3.1s.2-2.3.7-3.2c.4-.9,1.1-1.6,1.9-2.1.8-.5,1.8-.7,2.8-.7s2,.2,2.8.7,1.4,1.2,1.9,2.1.7,2,.7,3.2-.2,2.2-.7,3.1c-.4.9-1.1,1.6-1.9,2.1-.8.5-1.8.7-2.8.7ZM793.6,340.3c.7,0,1.3-.2,1.8-.6s.8-.9,1-1.5.3-1.3.3-2,0-1.4-.3-2-.6-1.1-1-1.5c-.5-.4-1-.6-1.8-.6s-1.3.2-1.8.6-.8.9-1,1.5-.3,1.3-.3,2,0,1.4.3,2,.6,1.1,1,1.5c.5.4,1.1.6,1.8.6Z"/>
    <path class="st26" d="M805.8,342.2c-.9,0-1.8-.2-2.5-.7s-1.3-1.2-1.7-2.1-.6-2-.6-3.2.2-2.3.6-3.2c.4-.9,1-1.6,1.7-2s1.6-.7,2.5-.7,1.3.1,1.7.4c.4.2.8.5,1,.8s.4.6.6.8h0v-5.7h2.3v15.5h-2.2v-1.8h-.2c0,.2-.3.5-.6.8s-.6.6-1,.8c-.4.2-1,.4-1.7.4h0ZM806.3,340.3c.6,0,1.2-.2,1.6-.5s.8-.8,1-1.4.4-1.3.4-2.1,0-1.5-.3-2.1-.6-1.1-1-1.4-1-.5-1.7-.5-1.2.2-1.7.5c-.5.4-.8.8-1,1.4s-.3,1.3-.3,2.1,0,1.5.3,2.1.6,1.1,1,1.5c.5.4,1,.5,1.7.5h0Z"/>
    <path class="st26" d="M814.8,342v-11.6h2.2v1.8h0c.2-.6.6-1.1,1.1-1.5s1.1-.5,1.8-.5.3,0,.5,0h.5v2.2h-1.2c-.5,0-1,.1-1.4.3-.4.2-.7.5-1,.9-.2.4-.4.8-.4,1.3v7.1h-2.3.1Z"/>
    <path class="st26" d="M824.1,328.6c-.4,0-.7-.1-1-.4s-.4-.6-.4-.9,0-.7.4-1,.6-.4,1-.4.7.1,1,.4.4.6.4.9,0,.7-.4,1-.6.4-1,.4ZM822.9,342v-11.6h2.3v11.6h-2.3Z"/>
    <path class="st26" d="M831.6,342.3c-.7,0-1.4-.1-2-.4s-1.1-.7-1.4-1.2c-.3-.5-.5-1.2-.5-1.9s0-1.2.4-1.6c.3-.4.6-.8,1-1s.9-.4,1.4-.6c.5-.1,1.1-.2,1.6-.3.7,0,1.3-.1,1.7-.2.4,0,.7-.1.9-.3s.3-.3.3-.6h0c0-.7-.2-1.2-.6-1.6-.4-.4-.9-.5-1.6-.5s-1.4.2-1.8.5-.7.7-.9,1.1l-2.1-.5c.3-.7.6-1.3,1.1-1.7.5-.4,1-.8,1.7-1,.6-.2,1.3-.3,2-.3s1,0,1.5.2c.5.1,1,.3,1.5.6.5.3.8.7,1.1,1.2s.4,1.2.4,2.1v7.7h-2.2v-1.6h0c0,.3-.4.6-.7.9s-.7.5-1.1.7c-.5.2-1,.3-1.6.3h-.1ZM832.1,340.4c.6,0,1.2-.1,1.6-.4s.8-.6,1-1,.4-.8.4-1.3v-1.5s-.2.2-.5.2-.5.1-.8.2c-.3,0-.6,0-.9.1h-.7c-.4,0-.8.1-1.2.3-.4.1-.6.3-.9.6s-.3.6-.3,1,.2,1,.6,1.3c.4.3.9.4,1.6.4h.1Z"/>
    <path class="st26" d="M854.6,333.2l-2,.4c0-.3-.2-.5-.4-.7s-.4-.4-.7-.6-.7-.2-1.2-.2-1.2.1-1.6.4-.6.7-.6,1.1,0,.7.4.9c.3.2.7.4,1.4.6l1.8.4c1.1.2,1.9.6,2.4,1.1s.8,1.2.8,2-.2,1.3-.6,1.9c-.4.5-1,1-1.7,1.3s-1.5.5-2.5.5-2.4-.3-3.2-.8-1.3-1.3-1.5-2.4l2.2-.3c0,.6.4,1,.8,1.3.4.3,1,.4,1.7.4s1.3-.2,1.8-.5.7-.7.7-1.1,0-.7-.4-.9c-.3-.2-.7-.4-1.2-.6l-2-.4c-1.1-.2-1.9-.6-2.4-1.2s-.8-1.2-.8-2,.2-1.3.6-1.8c.4-.5.9-.9,1.6-1.2.7-.3,1.4-.4,2.3-.4,1.3,0,2.2.3,3,.8s1.2,1.3,1.4,2.2v-.2Z"/>
    <path class="st26" d="M862.3,342.2c-1.1,0-2.1-.2-2.9-.7-.8-.5-1.5-1.2-1.9-2.1s-.7-1.9-.7-3.1.2-2.2.7-3.1,1.1-1.6,1.9-2.1,1.7-.8,2.8-.8,1.3.1,1.9.3,1.2.6,1.7,1c.5.5.9,1.1,1.2,1.8.3.7.4,1.6.4,2.7v.8h-9.2v-1.7h7c0-.6,0-1.1-.4-1.6-.2-.5-.6-.8-1-1.1-.4-.3-.9-.4-1.5-.4s-1.2.2-1.7.5-.8.7-1.1,1.2-.4,1-.4,1.6v1.3c0,.8,0,1.4.4,2s.7,1,1.2,1.2c.5.3,1.1.4,1.7.4s.8,0,1.2-.2c.4-.1.7-.3.9-.6s.5-.6.6-.9l2.1.4c-.2.6-.5,1.2-.9,1.6-.4.5-1,.8-1.7,1.1-.7.3-1.4.4-2.3.4h0Z"/>
    <path class="st26" d="M869.8,342v-11.6h2.2v1.8h0c.2-.6.6-1.1,1.1-1.5s1.1-.5,1.8-.5.3,0,.5,0h.5v2.2h-1.2c-.5,0-1,.1-1.4.3-.4.2-.7.5-1,.9-.2.4-.4.8-.4,1.3v7.1h-2.3.1Z"/>
    <path class="st26" d="M886.1,337.6h0c0-1.1,0-1.8.3-2.4s.4-1,.8-1.3c.3-.3.7-.7,1.2-.9.3-.2.6-.4.8-.6s.4-.5.6-.8c0-.3.2-.6.2-1s0-.8-.3-1.2c-.2-.3-.5-.6-.8-.8s-.7-.3-1.2-.3-.8,0-1.1.2c-.4.2-.6.4-.9.8-.2.3-.4.8-.4,1.3h-2.3c0-.9.3-1.7.7-2.3.4-.6,1-1.1,1.7-1.4s1.5-.5,2.3-.5,1.7.2,2.4.5,1.2.8,1.6,1.4c.4.6.6,1.3.6,2.2s0,1.1-.3,1.5c-.2.5-.4.9-.8,1.2s-.7.7-1.2.9c-.4.3-.8.5-1,.8-.3.3-.5.6-.6,1s-.2.9-.2,1.5h0c0,.1-2.2.1-2.2.1h.1ZM887.2,342.1c-.4,0-.8-.1-1.1-.4s-.4-.7-.4-1.1,0-.8.4-1.1.7-.4,1.1-.4.8.1,1.1.4.4.6.4,1.1,0,.5-.2.8c0,.2-.3.4-.5.5s-.5.2-.8.2Z"/>
  </g>
  <g>
    <path class="st26" d="M31.4,578.1v-15.5h5.5c1.2,0,2.2.2,3,.7.8.4,1.4,1,1.8,1.8.4.8.6,1.6.6,2.6s-.2,1.8-.6,2.6c-.4.8-1,1.4-1.8,1.8s-1.8.7-3,.7h-3.8v-2h3.6c.8,0,1.4,0,1.8-.4.5-.3.8-.6,1-1.1s.3-1,.3-1.6,0-1.1-.3-1.6-.6-.8-1-1.1-1.1-.4-1.9-.4h-2.9v13.5s-2.3,0-2.3,0Z"/>
    <path class="st26" d="M49.7,578.4c-1.1,0-2-.2-2.8-.7s-1.4-1.2-1.9-2.1c-.4-.9-.7-1.9-.7-3.1s.2-2.3.7-3.2c.4-.9,1.1-1.6,1.9-2.1.8-.5,1.8-.7,2.8-.7s2,.2,2.8.7,1.4,1.2,1.9,2.1c.4.9.7,2,.7,3.2s-.2,2.2-.7,3.1c-.4.9-1.1,1.6-1.9,2.1-.8.5-1.8.7-2.8.7ZM49.7,576.5c.7,0,1.3-.2,1.8-.6.5-.4.8-.9,1-1.5s.3-1.3.3-2,0-1.4-.3-2-.6-1.1-1-1.5c-.5-.4-1-.6-1.8-.6s-1.3.2-1.8.6c-.5.4-.8.9-1,1.5s-.3,1.3-.3,2,0,1.4.3,2,.6,1.1,1,1.5c.5.4,1.1.6,1.8.6Z"/>
    <path class="st26" d="M62,578.4c-.9,0-1.8-.2-2.5-.7s-1.3-1.2-1.7-2.1c-.4-.9-.6-2-.6-3.2s.2-2.3.6-3.2c.4-.9,1-1.6,1.7-2,.7-.5,1.6-.7,2.5-.7s1.3,0,1.7.4c.4.2.8.5,1,.8s.4.6.6.8h0v-5.7h2.3v15.5h-2.2v-1.8h-.2c0,.2-.3.5-.6.8-.3.3-.6.6-1,.8s-1,.4-1.7.4h0ZM62.5,576.4c.6,0,1.2-.2,1.6-.5.4-.3.8-.8,1-1.4.2-.6.4-1.3.4-2.1s0-1.5-.3-2.1c-.2-.6-.6-1.1-1-1.4-.4-.3-1-.5-1.7-.5s-1.2.2-1.7.5c-.5.4-.8.8-1,1.4-.2.6-.3,1.3-.3,2.1s0,1.5.3,2.1.6,1.1,1,1.5c.5.4,1,.5,1.7.5h0Z"/>
    <path class="st26" d="M71,578.1v-11.6h2.2v1.8h0c.2-.6.6-1.1,1.1-1.5s1.1-.5,1.8-.5.3,0,.5,0h.5v2.2h-1.2c-.5,0-1,0-1.4.3s-.7.5-1,.9c-.2.4-.4.8-.4,1.3v7.1h-2.3.1Z"/>
    <path class="st26" d="M80.3,564.8c-.4,0-.7,0-1-.4-.3-.3-.4-.6-.4-.9s0-.7.4-1,.6-.4,1-.4.7,0,1,.4c.3.3.4.6.4.9s0,.7-.4,1-.6.4-1,.4ZM79.1,578.1v-11.6h2.3v11.6h-2.3Z"/>
    <path class="st26" d="M87.8,578.4c-.7,0-1.4,0-2-.4s-1.1-.7-1.4-1.2-.5-1.2-.5-1.9,0-1.2.4-1.6c.3-.4.6-.8,1-1s.9-.4,1.4-.6c.5,0,1.1-.2,1.6-.3.7,0,1.3,0,1.7-.2s.7,0,.9-.3c.2,0,.3-.3.3-.6h0c0-.7-.2-1.2-.6-1.6-.4-.4-.9-.5-1.6-.5s-1.4.2-1.8.5-.7.7-.9,1.1l-2.1-.5c.3-.7.6-1.3,1.1-1.7s1-.8,1.7-1c.6-.2,1.3-.3,2-.3s1,0,1.5.2c.5,0,1,.3,1.5.6s.8.7,1.1,1.2c.3.5.4,1.2.4,2.1v7.7h-2.2v-1.6h0c0,.3-.4.6-.7.9-.3.3-.7.5-1.1.7s-1,.3-1.6.3h-.1ZM88.3,576.6c.6,0,1.2,0,1.6-.4.4-.2.8-.6,1-1s.4-.8.4-1.3v-1.5s-.2.2-.5.2-.5,0-.8.2c-.3,0-.6,0-.9,0h-.7c-.4,0-.8,0-1.2.3-.4,0-.6.3-.9.6s-.3.6-.3,1,.2,1,.6,1.3.9.4,1.6.4h.1Z"/>
    <path class="st26" d="M96.5,578.1v-11.6h2.2v1.9h0c.2-.6.6-1.1,1.2-1.5.5-.4,1.2-.5,2-.5s1.4.2,2,.5c.5.4.9.9,1.2,1.5h0c.3-.6.7-1.1,1.3-1.5.6-.4,1.3-.6,2.2-.6s1.9.3,2.6,1,1,1.7,1,3v7.8h-2.3v-7.6c0-.8-.2-1.4-.6-1.7-.4-.4-.9-.5-1.5-.5s-1.3.2-1.7.7-.6,1-.6,1.7v7.4h-2.2v-7.7c0-.6-.2-1.1-.6-1.5s-.9-.6-1.5-.6-.8,0-1.2.3c-.4.2-.6.5-.9.9s-.3.9-.3,1.4v7.1h-2.5Z"/>
    <path class="st26" d="M120.2,578.4c-1.1,0-2-.2-2.8-.7s-1.4-1.2-1.9-2.1c-.4-.9-.7-1.9-.7-3.1s.2-2.3.7-3.2c.4-.9,1.1-1.6,1.9-2.1s1.8-.7,2.8-.7,2,.2,2.8.7,1.4,1.2,1.9,2.1c.4.9.7,2,.7,3.2s-.2,2.2-.7,3.1c-.4.9-1.1,1.6-1.9,2.1s-1.8.7-2.8.7ZM120.2,576.5c.7,0,1.3-.2,1.8-.6.5-.4.8-.9,1-1.5s.3-1.3.3-2,0-1.4-.3-2c-.2-.6-.6-1.1-1-1.5-.5-.4-1-.6-1.8-.6s-1.3.2-1.8.6c-.5.4-.8.9-1,1.5s-.3,1.3-.3,2,0,1.4.3,2c.2.6.6,1.1,1,1.5.5.4,1.1.6,1.8.6Z"/>
    <path class="st26" d="M136.8,569.4l-2,.4c0-.3-.2-.5-.4-.7s-.4-.4-.7-.6c-.3-.2-.7-.2-1.2-.2s-1.2,0-1.6.4-.6.7-.6,1.1.1.7.4.9c.3.2.7.4,1.4.6l1.8.4c1.1.2,1.9.6,2.4,1.1s.8,1.2.8,2-.2,1.3-.6,1.9c-.4.5-1,1-1.7,1.3s-1.5.5-2.5.5-2.4-.3-3.2-.8c-.8-.6-1.3-1.3-1.5-2.4l2.2-.3c.1.6.4,1,.8,1.3.4.3,1,.4,1.7.4s1.3-.2,1.8-.5.7-.7.7-1.1-.1-.7-.4-.9c-.3-.2-.7-.4-1.2-.6l-2-.4c-1.1-.2-1.9-.6-2.4-1.2-.5-.5-.8-1.2-.8-2s.2-1.3.6-1.8c.4-.5.9-.9,1.6-1.2.7-.3,1.4-.4,2.3-.4,1.3,0,2.2.3,3,.8s1.2,1.3,1.4,2.2v-.2Z"/>
    <path class="st26" d="M145.1,582.5v-15.9h2.2v1.9h.2c.1-.2.3-.5.6-.8.2-.3.6-.6,1-.8s1-.4,1.7-.4,1.8.2,2.5.7,1.3,1.2,1.7,2c.4.9.6,2,.6,3.2s-.2,2.3-.6,3.2c-.4.9-1,1.6-1.7,2.1s-1.6.7-2.5.7-1.3,0-1.7-.4-.8-.5-1-.8c-.3-.3-.4-.6-.6-.8h-.1v6.2h-2.3,0ZM147.3,572.3c0,.8.1,1.5.4,2.1.2.6.6,1.1,1,1.4.4.3,1,.5,1.6.5s1.2-.2,1.7-.5c.5-.4.8-.8,1-1.5.2-.6.4-1.3.4-2.1s-.1-1.5-.3-2.1-.6-1.1-1-1.4c-.5-.4-1-.5-1.7-.5s-1.2.2-1.7.5-.8.8-1,1.4c-.2.6-.3,1.3-.3,2.1h0Z"/>
    <path class="st26" d="M158.2,578.1v-11.6h2.2v1.8h.1c.2-.6.6-1.1,1.1-1.5s1.1-.5,1.8-.5.3,0,.5,0h.5v2.2h-1.2c-.5,0-1,0-1.4.3s-.7.5-1,.9c-.2.4-.4.8-.4,1.3v7.1h-2.3,0Z"/>
    <path class="st26" d="M171.3,578.4c-1.1,0-2-.2-2.8-.7s-1.4-1.2-1.9-2.1c-.4-.9-.7-1.9-.7-3.1s.2-2.3.7-3.2c.4-.9,1.1-1.6,1.9-2.1.8-.5,1.8-.7,2.8-.7s2,.2,2.8.7,1.4,1.2,1.9,2.1c.4.9.7,2,.7,3.2s-.2,2.2-.7,3.1c-.4.9-1.1,1.6-1.9,2.1-.8.5-1.8.7-2.8.7ZM171.3,576.5c.7,0,1.3-.2,1.8-.6.5-.4.8-.9,1-1.5s.3-1.3.3-2-.1-1.4-.3-2-.6-1.1-1-1.5c-.5-.4-1-.6-1.8-.6s-1.3.2-1.8.6c-.5.4-.8.9-1,1.5s-.3,1.3-.3,2,.1,1.4.3,2,.6,1.1,1,1.5c.5.4,1.1.6,1.8.6Z"/>
    <path class="st26" d="M179.4,578.1v-15.5h2.3v5.7h.1c.1-.2.3-.5.6-.8.2-.3.6-.6,1-.8s1-.4,1.7-.4,1.8.2,2.5.7,1.3,1.2,1.7,2c.4.9.6,2,.6,3.2s-.2,2.3-.6,3.2-1,1.6-1.7,2.1-1.6.7-2.5.7-1.3,0-1.7-.4-.8-.5-1-.8c-.3-.3-.4-.6-.6-.8h-.2v1.8h-2.2ZM181.6,572.3c0,.8.1,1.5.4,2.1.2.6.6,1.1,1,1.4.4.3,1,.5,1.6.5s1.2-.2,1.7-.5c.5-.4.8-.8,1-1.5.2-.6.4-1.3.4-2.1s-.1-1.5-.3-2.1-.6-1.1-1-1.4c-.5-.4-1-.5-1.7-.5s-1.2.2-1.7.5-.8.8-1,1.4c-.2.6-.3,1.3-.3,2.1h0Z"/>
    <path class="st26" d="M195.9,578.4c-.7,0-1.4,0-2-.4s-1.1-.7-1.4-1.2c-.3-.5-.5-1.2-.5-1.9s.1-1.2.4-1.6c.3-.4.6-.8,1-1s.9-.4,1.4-.6c.5,0,1.1-.2,1.6-.3.7,0,1.3,0,1.7-.2s.7,0,.9-.3c.2,0,.3-.3.3-.6h0c0-.7-.2-1.2-.6-1.6-.4-.4-.9-.5-1.6-.5s-1.4.2-1.8.5c-.4.3-.7.7-.9,1.1l-2.1-.5c.3-.7.6-1.3,1.1-1.7s1-.8,1.7-1c.6-.2,1.3-.3,2-.3s1,0,1.5.2c.5,0,1,.3,1.5.6s.8.7,1.1,1.2.4,1.2.4,2.1v7.7h-2.2v-1.6h0c-.1.3-.4.6-.7.9-.3.3-.7.5-1.1.7s-1,.3-1.6.3h0ZM196.4,576.6c.6,0,1.2,0,1.6-.4.4-.2.8-.6,1-1s.4-.8.4-1.3v-1.5s-.2.2-.5.2-.5,0-.8.2c-.3,0-.6,0-.9,0h-.7c-.4,0-.8,0-1.2.3-.4,0-.6.3-.9.6s-.3.6-.3,1,.2,1,.6,1.3c.4.3.9.4,1.6.4h0Z"/>
    <path class="st26" d="M204.6,578.1v-11.6h2.2v1.8h.1c.2-.6.6-1.1,1.1-1.5s1.1-.5,1.8-.5.3,0,.5,0h.5v2.2h-1.2c-.5,0-1,0-1.4.3s-.7.5-1,.9c-.2.4-.4.8-.4,1.3v7.1h-2.3,0Z"/>
    <path class="st26" d="M34.6,603.9c-.7,0-1.4,0-2-.4s-1.1-.7-1.4-1.2-.5-1.2-.5-1.9.1-1.2.4-1.6c.3-.4.6-.8,1-1,.4-.2.9-.4,1.4-.6s1.1-.2,1.6-.3c.7,0,1.3,0,1.7-.2.4,0,.7,0,.9-.3.2,0,.3-.3.3-.6h0c0-.7-.2-1.2-.6-1.6-.4-.4-.9-.5-1.6-.5s-1.4.2-1.8.5c-.4.3-.7.7-.9,1.1l-2.1-.5c.3-.7.6-1.3,1.1-1.7s1-.8,1.7-1c.6-.2,1.3-.3,2-.3s1,0,1.5.2,1,.3,1.5.6.8.7,1.1,1.2.4,1.2.4,2.1v7.7h-2.2v-1.6h0c0,.3-.4.6-.7.9-.3.3-.7.5-1.1.7-.5.2-1,.3-1.6.3h-.1ZM35.1,602.1c.6,0,1.2,0,1.6-.4.4-.2.8-.6,1-1s.4-.8.4-1.3v-1.5s-.2.2-.5.2-.5,0-.8.2-.6,0-.9,0h-.7c-.4,0-.8,0-1.2.3-.4,0-.6.3-.9.6s-.3.6-.3,1,.2,1,.6,1.3c.4.3.9.4,1.6.4h.1Z"/>
    <path class="st26" d="M48.2,608.2c-.9,0-1.7,0-2.4-.4-.7-.2-1.2-.6-1.6-1-.4-.4-.7-.8-.9-1.3l1.9-.8c0,.2.3.5.5.7s.5.5.9.6c.4.2.9.3,1.5.3s1.6-.2,2.1-.6.8-1.1.8-2v-2.3h0c0,.2-.3.5-.6.8s-.6.6-1,.8-1,.3-1.7.3-1.7-.2-2.5-.6c-.7-.4-1.3-1.1-1.7-1.9-.4-.8-.6-1.9-.6-3.1s.2-2.3.6-3.2,1-1.6,1.7-2c.7-.5,1.6-.7,2.5-.7s1.3,0,1.7.4.8.5,1,.8.4.6.6.8h.2v-1.9h2.2v11.9c0,1-.2,1.8-.7,2.5-.5.6-1.1,1.1-1.9,1.4-.8.3-1.7.5-2.7.5h.2ZM48.2,601.6c.6,0,1.2-.2,1.6-.5.5-.3.8-.7,1-1.3s.4-1.3.4-2.1,0-1.5-.3-2.1-.6-1.1-1-1.4c-.4-.3-1-.5-1.7-.5s-1.2.2-1.7.5-.8.8-1,1.4c-.2.6-.3,1.3-.3,2s0,1.4.3,2,.6,1,1,1.3c.5.3,1,.5,1.7.5v.2Z"/>
    <path class="st26" d="M56.5,603.6v-11.6h2.2v1.8h0c.2-.6.6-1.1,1.1-1.5s1.1-.5,1.8-.5.3,0,.5,0h.5v2.2h-1.2c-.5,0-1,0-1.4.3s-.7.5-1,.9c-.2.4-.4.8-.4,1.3v7.1h-2.3.1Z"/>
    <path class="st26" d="M69.6,603.9c-1.1,0-2.1-.2-2.9-.7s-1.5-1.2-1.9-2.1c-.4-.9-.7-1.9-.7-3.1s.2-2.2.7-3.1c.4-.9,1.1-1.6,1.9-2.1s1.7-.8,2.8-.8,1.3,0,1.9.3,1.2.6,1.7,1c.5.5.9,1.1,1.2,1.8.3.7.4,1.6.4,2.7v.8h-9.2v-1.7h7c0-.6,0-1.1-.4-1.6-.2-.5-.6-.8-1-1.1s-.9-.4-1.5-.4-1.2.2-1.7.5-.8.7-1.1,1.2-.4,1-.4,1.6v1.3c0,.8,0,1.4.4,2,.3.5.7,1,1.2,1.2.5.3,1.1.4,1.7.4s.8,0,1.2-.2c.4,0,.7-.3.9-.6.3-.2.5-.6.6-.9l2.1.4c-.2.6-.5,1.2-.9,1.6-.4.5-1,.8-1.7,1.1s-1.4.4-2.3.4h0Z"/>
    <path class="st26" d="M82,608.2c-.9,0-1.7,0-2.4-.4-.7-.2-1.2-.6-1.6-1s-.7-.8-.9-1.3l1.9-.8c0,.2.3.5.5.7s.5.5.9.6c.4.2.9.3,1.5.3s1.6-.2,2.1-.6.8-1.1.8-2v-2.3h0c0,.2-.3.5-.6.8-.3.3-.6.6-1,.8s-1,.3-1.7.3-1.7-.2-2.5-.6c-.7-.4-1.3-1.1-1.7-1.9-.4-.8-.6-1.9-.6-3.1s.2-2.3.6-3.2,1-1.6,1.7-2c.7-.5,1.6-.7,2.5-.7s1.3,0,1.7.4.8.5,1,.8.4.6.6.8h.2v-1.9h2.2v11.9c0,1-.2,1.8-.7,2.5-.5.6-1.1,1.1-1.9,1.4-.8.3-1.7.5-2.7.5h.2ZM82,601.6c.6,0,1.2-.2,1.6-.5.5-.3.8-.7,1-1.3s.4-1.3.4-2.1,0-1.5-.3-2.1-.6-1.1-1-1.4c-.4-.3-1-.5-1.7-.5s-1.2.2-1.7.5-.8.8-1,1.4c-.2.6-.3,1.3-.3,2s0,1.4.3,2c.2.6.6,1,1,1.3.5.3,1,.5,1.7.5v.2Z"/>
    <path class="st26" d="M93.6,603.9c-.7,0-1.4,0-2-.4s-1.1-.7-1.4-1.2-.5-1.2-.5-1.9,0-1.2.4-1.6c.3-.4.6-.8,1-1s.9-.4,1.4-.6,1.1-.2,1.6-.3c.7,0,1.3,0,1.7-.2.4,0,.7,0,.9-.3.2,0,.3-.3.3-.6h0c0-.7-.2-1.2-.6-1.6-.4-.4-.9-.5-1.6-.5s-1.4.2-1.8.5-.7.7-.9,1.1l-2.1-.5c.3-.7.6-1.3,1.1-1.7s1-.8,1.7-1c.6-.2,1.3-.3,2-.3s1,0,1.5.2,1,.3,1.5.6.8.7,1.1,1.2c.3.5.4,1.2.4,2.1v7.7h-2.2v-1.6h0c0,.3-.4.6-.7.9-.3.3-.7.5-1.1.7-.5.2-1,.3-1.6.3h-.1ZM94.1,602.1c.6,0,1.2,0,1.6-.4.4-.2.8-.6,1-1s.4-.8.4-1.3v-1.5s-.2.2-.5.2-.5,0-.8.2-.6,0-.9,0h-.7c-.4,0-.8,0-1.2.3-.4,0-.6.3-.9.6s-.3.6-.3,1,.2,1,.6,1.3.9.4,1.6.4h.1Z"/>
    <path class="st26" d="M102.4,603.6v-11.6h2.2v1.8h0c.2-.6.6-1.1,1.1-1.5s1.1-.5,1.8-.5.3,0,.5,0h.5v2.2h-1.2c-.5,0-1,0-1.4.3s-.7.5-1,.9c-.2.4-.4.8-.4,1.3v7.1h-2.3.1Z"/>
    <path class="st26" d="M116.2,603.6v-11.6h2.2v1.9h0c.2-.6.6-1.1,1.2-1.5.5-.4,1.2-.5,2-.5s1.4.2,2,.5c.5.4.9.9,1.2,1.5h0c.3-.6.7-1.1,1.3-1.5.6-.4,1.3-.6,2.2-.6s1.9.3,2.6,1c.7.7,1,1.7,1,3v7.8h-2.3v-7.6c0-.8-.2-1.4-.6-1.7s-.9-.5-1.5-.5-1.3.2-1.7.7-.6,1-.6,1.7v7.4h-2.2v-7.7c0-.6-.2-1.1-.6-1.5s-.9-.6-1.5-.6-.8,0-1.2.3c-.4.2-.6.5-.9.9-.2.4-.3.9-.3,1.4v7.1h-2.5Z"/>
    <path class="st26" d="M138.3,603.9c-.7,0-1.4,0-2-.4s-1.1-.7-1.4-1.2c-.3-.5-.5-1.2-.5-1.9s.1-1.2.4-1.6c.3-.4.6-.8,1-1s.9-.4,1.4-.6,1.1-.2,1.6-.3c.7,0,1.3,0,1.7-.2.4,0,.7,0,.9-.3.2,0,.3-.3.3-.6h0c0-.7-.2-1.2-.6-1.6-.4-.4-.9-.5-1.6-.5s-1.4.2-1.8.5c-.4.3-.7.7-.9,1.1l-2.1-.5c.3-.7.6-1.3,1.1-1.7s1-.8,1.7-1c.6-.2,1.3-.3,2-.3s1,0,1.5.2,1,.3,1.5.6.8.7,1.1,1.2.4,1.2.4,2.1v7.7h-2.2v-1.6h0c-.1.3-.4.6-.7.9-.3.3-.7.5-1.1.7-.5.2-1,.3-1.6.3h0ZM138.8,602.1c.6,0,1.2,0,1.6-.4.4-.2.8-.6,1-1s.4-.8.4-1.3v-1.5s-.2.2-.5.2-.5,0-.8.2-.6,0-.9,0h-.7c-.4,0-.8,0-1.2.3-.4,0-.6.3-.9.6s-.3.6-.3,1,.2,1,.6,1.3c.4.3.9.4,1.6.4h0Z"/>
    <path class="st26" d="M155.7,594.9l-2,.4c0-.3-.2-.5-.4-.7s-.4-.4-.7-.6c-.3-.2-.7-.2-1.2-.2s-1.2,0-1.6.4-.6.7-.6,1.1.1.7.4.9c.3.2.7.4,1.4.6l1.8.4c1.1.2,1.9.6,2.4,1.1s.8,1.2.8,2-.2,1.3-.6,1.9c-.4.5-1,1-1.7,1.3s-1.5.5-2.5.5-2.4-.3-3.2-.8c-.8-.6-1.3-1.3-1.5-2.4l2.2-.3c.1.6.4,1,.8,1.3s1,.4,1.7.4,1.3-.2,1.8-.5.7-.7.7-1.1-.1-.7-.4-.9c-.3-.2-.7-.4-1.2-.6l-2-.4c-1.1-.2-1.9-.6-2.4-1.2-.5-.5-.8-1.2-.8-2s.2-1.3.6-1.8c.4-.5.9-.9,1.6-1.2.7-.3,1.4-.4,2.3-.4,1.3,0,2.2.3,3,.8s1.2,1.3,1.4,2.2v-.2Z"/>
    <path class="st26" d="M168.4,603.9c-.9,0-1.8-.2-2.5-.7s-1.3-1.2-1.7-2.1c-.4-.9-.6-2-.6-3.2s.2-2.3.6-3.2,1-1.6,1.7-2c.7-.5,1.6-.7,2.5-.7s1.3,0,1.7.4.8.5,1,.8.4.6.6.8h.1v-5.7h2.3v15.5h-2.2v-1.8h-.2c-.1.2-.3.5-.6.8s-.6.6-1,.8-1,.4-1.7.4h0ZM168.9,601.9c.6,0,1.2-.2,1.6-.5s.8-.8,1-1.4c.2-.6.4-1.3.4-2.1s-.1-1.5-.3-2.1-.6-1.1-1-1.4c-.4-.3-1-.5-1.7-.5s-1.2.2-1.7.5-.8.8-1,1.4c-.2.6-.3,1.3-.3,2.1s.1,1.5.3,2.1.6,1.1,1,1.5c.5.4,1,.5,1.7.5h0Z"/>
    <path class="st26" d="M182.4,603.9c-1.1,0-2.1-.2-2.9-.7-.8-.5-1.5-1.2-1.9-2.1-.4-.9-.7-1.9-.7-3.1s.2-2.2.7-3.1c.4-.9,1.1-1.6,1.9-2.1.8-.5,1.7-.8,2.8-.8s1.3,0,1.9.3c.6.2,1.2.6,1.7,1,.5.5.9,1.1,1.2,1.8s.4,1.6.4,2.7v.8h-9.2v-1.7h7c0-.6-.1-1.1-.4-1.6-.2-.5-.6-.8-1-1.1s-.9-.4-1.5-.4-1.2.2-1.7.5-.8.7-1.1,1.2-.4,1-.4,1.6v1.3c0,.8.1,1.4.4,2,.3.5.7,1,1.2,1.2.5.3,1.1.4,1.7.4s.8,0,1.2-.2c.4,0,.7-.3.9-.6.3-.2.5-.6.6-.9l2.1.4c-.2.6-.5,1.2-.9,1.6-.4.5-1,.8-1.7,1.1s-1.4.4-2.3.4h0Z"/>
    <path class="st26" d="M36.3,629.4c-1.1,0-2.1-.2-2.9-.7-.8-.5-1.5-1.2-1.9-2.1-.4-.9-.7-1.9-.7-3.1s.2-2.2.7-3.1c.4-.9,1.1-1.6,1.9-2.1s1.7-.8,2.8-.8,1.3,0,1.9.3c.6.2,1.2.6,1.7,1s.9,1.1,1.2,1.8.4,1.6.4,2.7v.8h-9.2v-1.7h7c0-.6,0-1.1-.4-1.6-.2-.5-.6-.8-1-1.1s-.9-.4-1.5-.4-1.2.2-1.7.5-.8.7-1.1,1.2-.4,1-.4,1.6v1.3c0,.8,0,1.4.4,2,.3.5.7,1,1.2,1.2s1.1.4,1.7.4.8,0,1.2-.2c.4,0,.7-.3.9-.6.3-.2.5-.6.6-.9l2.1.4c-.2.6-.5,1.2-.9,1.6s-1,.8-1.7,1.1-1.4.4-2.3.4h0Z"/>
    <path class="st26" d="M52.4,620.4l-2,.4c0-.3-.2-.5-.4-.7s-.4-.4-.7-.6c-.3-.2-.7-.2-1.2-.2s-1.2,0-1.6.4-.6.7-.6,1.1,0,.7.4.9c.3.2.7.4,1.4.6l1.8.4c1.1.2,1.9.6,2.4,1.1s.8,1.2.8,2-.2,1.3-.6,1.9c-.4.5-1,1-1.7,1.3s-1.5.5-2.5.5-2.4-.3-3.2-.8c-.8-.6-1.3-1.3-1.5-2.4l2.2-.3c0,.6.4,1,.8,1.3.4.3,1,.4,1.7.4s1.3-.2,1.8-.5.7-.7.7-1.1,0-.7-.4-.9c-.3-.2-.7-.4-1.2-.6l-2-.4c-1.1-.2-1.9-.6-2.4-1.2-.5-.5-.8-1.2-.8-2s.2-1.3.6-1.8c.4-.5.9-.9,1.6-1.2.7-.3,1.4-.4,2.3-.4,1.3,0,2.2.3,3,.8s1.2,1.3,1.4,2.2v-.2Z"/>
    <path class="st26" d="M60.6,617.6v1.8h-6.3v-1.8h6.3ZM55.9,614.8h2.3v11c0,.4,0,.8.2,1s.3.4.5.4.4,0,.7,0h.8l.4,1.9c0,0-.3,0-.6.2s-.5,0-.9,0c-.6,0-1.1,0-1.7-.3-.5-.2-.9-.6-1.2-1-.3-.5-.5-1-.5-1.7v-11.6Z"/>
    <path class="st26" d="M68,629.4c-1.1,0-2.1-.2-2.9-.7s-1.5-1.2-1.9-2.1c-.4-.9-.7-1.9-.7-3.1s.2-2.2.7-3.1c.4-.9,1.1-1.6,1.9-2.1s1.7-.8,2.8-.8,1.3,0,1.9.3,1.2.6,1.7,1,.9,1.1,1.2,1.8c.3.7.4,1.6.4,2.7v.8h-9.2v-1.7h7c0-.6,0-1.1-.4-1.6-.2-.5-.6-.8-1-1.1s-.9-.4-1.5-.4-1.2.2-1.7.5-.8.7-1.1,1.2c-.3.5-.4,1-.4,1.6v1.3c0,.8,0,1.4.4,2,.3.5.7,1,1.2,1.2s1.1.4,1.7.4.8,0,1.2-.2c.4,0,.7-.3.9-.6.3-.2.5-.6.6-.9l2.1.4c-.2.6-.5,1.2-.9,1.6s-1,.8-1.7,1.1-1.4.4-2.3.4h0Z"/>
    <path class="st26" d="M86.6,617.6v1.8h-6.3v-1.8h6.3ZM81.9,614.8h2.3v11c0,.4,0,.8.2,1s.3.4.5.4.4,0,.7,0h.8l.4,1.9c0,0-.3,0-.6.2s-.5,0-.9,0c-.6,0-1.1,0-1.7-.3-.5-.2-.9-.6-1.2-1-.3-.5-.5-1-.5-1.7v-11.6Z"/>
    <path class="st26" d="M90.2,615.8c-.4,0-.7,0-1-.4-.3-.3-.4-.6-.4-.9s0-.7.4-1,.6-.4,1-.4.7,0,1,.4c.3.3.4.6.4.9s0,.7-.4,1-.6.4-1,.4ZM89.1,629.2v-11.6h2.3v11.6h-2.3Z"/>
    <path class="st26" d="M94.4,633.5v-15.9h2.2v1.9h.2c0-.2.3-.5.6-.8.2-.3.6-.6,1-.8s1-.4,1.7-.4,1.8.2,2.5.7,1.3,1.2,1.7,2c.4.9.6,2,.6,3.2s-.2,2.3-.6,3.2-1,1.6-1.7,2.1-1.6.7-2.5.7-1.3,0-1.7-.4-.8-.5-1-.8c-.3-.3-.4-.6-.6-.8h0v6.2h-2.3,0ZM96.6,623.4c0,.8,0,1.5.4,2.1.2.6.6,1.1,1,1.4.4.3,1,.5,1.6.5s1.2-.2,1.7-.5c.5-.4.8-.8,1-1.5.2-.6.4-1.3.4-2.1s0-1.5-.3-2.1c-.2-.6-.6-1.1-1-1.4-.5-.4-1-.5-1.7-.5s-1.2.2-1.7.5-.8.8-1,1.4c-.2.6-.3,1.3-.3,2.1h0Z"/>
    <path class="st26" d="M112.4,629.4c-1.1,0-2-.2-2.8-.7s-1.4-1.2-1.9-2.1c-.4-.9-.7-1.9-.7-3.1s.2-2.3.7-3.2c.4-.9,1.1-1.6,1.9-2.1s1.8-.7,2.8-.7,2,.2,2.8.7,1.4,1.2,1.9,2.1c.4.9.7,2,.7,3.2s-.2,2.2-.7,3.1c-.4.9-1.1,1.6-1.9,2.1s-1.8.7-2.8.7ZM112.4,627.5c.7,0,1.3-.2,1.8-.6.5-.4.8-.9,1-1.5s.3-1.3.3-2,0-1.4-.3-2c-.2-.6-.6-1.1-1-1.5-.5-.4-1-.6-1.8-.6s-1.3.2-1.8.6c-.5.4-.8.9-1,1.5s-.3,1.3-.3,2,0,1.4.3,2c.2.6.6,1.1,1,1.5.5.4,1.1.6,1.8.6Z"/>
    <path class="st26" d="M130.2,629.4c-.9,0-1.8-.2-2.5-.7s-1.3-1.2-1.7-2.1c-.4-.9-.6-2-.6-3.2s.2-2.3.6-3.2,1-1.6,1.7-2c.7-.5,1.6-.7,2.5-.7s1.3,0,1.7.4c.4.2.8.5,1,.8s.4.6.6.8h.1v-5.7h2.3v15.5h-2.2v-1.8h-.2c-.1.2-.3.5-.6.8s-.6.6-1,.8-1,.4-1.7.4h0ZM130.7,627.5c.6,0,1.2-.2,1.6-.5s.8-.8,1-1.4c.2-.6.4-1.3.4-2.1s-.1-1.5-.3-2.1-.6-1.1-1-1.4c-.4-.3-1-.5-1.7-.5s-1.2.2-1.7.5c-.5.4-.8.8-1,1.4-.2.6-.3,1.3-.3,2.1s0,1.5.3,2.1c.2.6.6,1.1,1,1.5.5.4,1,.5,1.7.5h0Z"/>
    <path class="st26" d="M144.2,629.4c-1.1,0-2.1-.2-2.9-.7-.8-.5-1.5-1.2-1.9-2.1-.4-.9-.7-1.9-.7-3.1s.2-2.2.7-3.1c.4-.9,1.1-1.6,1.9-2.1.8-.5,1.7-.8,2.8-.8s1.3,0,1.9.3c.6.2,1.2.6,1.7,1s.9,1.1,1.2,1.8.4,1.6.4,2.7v.8h-9.2v-1.7h7c0-.6-.1-1.1-.4-1.6-.2-.5-.6-.8-1-1.1s-.9-.4-1.5-.4-1.2.2-1.7.5-.8.7-1.1,1.2-.4,1-.4,1.6v1.3c0,.8.1,1.4.4,2,.3.5.7,1,1.2,1.2s1.1.4,1.7.4.8,0,1.2-.2c.4,0,.7-.3.9-.6.3-.2.5-.6.6-.9l2.1.4c-.2.6-.5,1.2-.9,1.6s-1,.8-1.7,1.1-1.4.4-2.3.4h0Z"/>
    <path class="st26" d="M157.3,633.5v-15.9h2.2v1.9h.2c.1-.2.3-.5.6-.8.2-.3.6-.6,1-.8s1-.4,1.7-.4,1.8.2,2.5.7,1.3,1.2,1.7,2c.4.9.6,2,.6,3.2s-.2,2.3-.6,3.2c-.4.9-1,1.6-1.7,2.1s-1.6.7-2.5.7-1.3,0-1.7-.4-.8-.5-1-.8c-.3-.3-.4-.6-.6-.8h-.1v6.2h-2.3,0ZM159.5,623.4c0,.8.1,1.5.4,2.1.2.6.6,1.1,1,1.4.4.3,1,.5,1.6.5s1.2-.2,1.7-.5c.5-.4.8-.8,1-1.5.2-.6.4-1.3.4-2.1s-.1-1.5-.3-2.1-.6-1.1-1-1.4c-.5-.4-1-.5-1.7-.5s-1.2.2-1.7.5-.8.8-1,1.4c-.2.6-.3,1.3-.3,2.1h0Z"/>
    <path class="st26" d="M172.7,613.7v15.5h-2.3v-15.5h2.3Z"/>
    <path class="st26" d="M179.1,629.4c-.7,0-1.4,0-2-.4s-1.1-.7-1.4-1.2c-.3-.5-.5-1.2-.5-1.9s.1-1.2.4-1.6c.3-.4.6-.8,1-1s.9-.4,1.4-.6c.5,0,1.1-.2,1.6-.3.7,0,1.3,0,1.7-.2s.7,0,.9-.3c.2,0,.3-.3.3-.6h0c0-.7-.2-1.2-.6-1.6-.4-.4-.9-.5-1.6-.5s-1.4.2-1.8.5c-.4.3-.7.7-.9,1.1l-2.1-.5c.3-.7.6-1.3,1.1-1.7s1-.8,1.7-1c.6-.2,1.3-.3,2-.3s1,0,1.5.2c.5,0,1,.3,1.5.6s.8.7,1.1,1.2.4,1.2.4,2.1v7.7h-2.2v-1.6h0c-.1.3-.4.6-.7.9-.3.3-.7.5-1.1.7s-1,.3-1.6.3h0ZM179.6,627.6c.6,0,1.2,0,1.6-.4.4-.2.8-.6,1-1s.4-.8.4-1.3v-1.5s-.2.2-.5.2-.5,0-.8.2c-.3,0-.6,0-.9,0h-.7c-.4,0-.8,0-1.2.3-.4,0-.6.3-.9.6s-.3.6-.3,1,.2,1,.6,1.3c.4.3.9.4,1.6.4h0Z"/>
    <path class="st26" d="M190.1,622.3v6.9h-2.3v-11.6h2.2v1.9h.1c.3-.6.7-1.1,1.3-1.5s1.3-.6,2.2-.6,1.5.2,2.1.5,1.1.8,1.4,1.5.5,1.5.5,2.4v7.4h-2.3v-7.1c0-.8-.2-1.5-.7-2-.4-.5-1-.7-1.8-.7s-1,0-1.4.3-.7.6-1,1c-.2.4-.4,1-.4,1.6h0Z"/>
    <path class="st26" d="M205.9,617.6v1.8h-6.3v-1.8h6.3ZM201.3,614.8h2.3v11c0,.4,0,.8.2,1s.3.4.5.4.4,0,.7,0h.8l.4,1.9c-.1,0-.3,0-.6.2s-.5,0-.9,0c-.6,0-1.1,0-1.7-.3-.5-.2-.9-.6-1.2-1-.3-.5-.5-1-.5-1.7v-11.6Z"/>
    <path class="st26" d="M211.8,629.4c-.7,0-1.4,0-2-.4s-1.1-.7-1.4-1.2c-.3-.5-.5-1.2-.5-1.9s.1-1.2.4-1.6c.3-.4.6-.8,1-1s.9-.4,1.4-.6c.5,0,1.1-.2,1.6-.3.7,0,1.3,0,1.7-.2s.7,0,.9-.3c.2,0,.3-.3.3-.6h0c0-.7-.2-1.2-.6-1.6-.4-.4-.9-.5-1.6-.5s-1.4.2-1.8.5c-.4.3-.7.7-.9,1.1l-2.1-.5c.3-.7.6-1.3,1.1-1.7s1-.8,1.7-1c.6-.2,1.3-.3,2-.3s1,0,1.5.2c.5,0,1,.3,1.5.6s.8.7,1.1,1.2.4,1.2.4,2.1v7.7h-2.2v-1.6h0c-.1.3-.4.6-.7.9-.3.3-.7.5-1.1.7s-1,.3-1.6.3h0ZM212.3,627.6c.6,0,1.2,0,1.6-.4.4-.2.8-.6,1-1s.4-.8.4-1.3v-1.5s-.2.2-.5.2-.5,0-.8.2c-.3,0-.6,0-.9,0h-.7c-.4,0-.8,0-1.2.3-.4,0-.6.3-.9.6s-.3.6-.3,1,.2,1,.6,1.3c.4.3.9.4,1.6.4h0Z"/>
    <path class="st26" d="M229.2,620.4l-2,.4c0-.3-.2-.5-.4-.7s-.4-.4-.7-.6c-.3-.2-.7-.2-1.2-.2s-1.2,0-1.6.4-.6.7-.6,1.1.1.7.4.9c.3.2.7.4,1.4.6l1.8.4c1.1.2,1.9.6,2.4,1.1s.8,1.2.8,2-.2,1.3-.6,1.9c-.4.5-1,1-1.7,1.3s-1.5.5-2.5.5-2.4-.3-3.2-.8c-.8-.6-1.3-1.3-1.5-2.4l2.2-.3c.1.6.4,1,.8,1.3.4.3,1,.4,1.7.4s1.3-.2,1.8-.5.7-.7.7-1.1-.1-.7-.4-.9c-.3-.2-.7-.4-1.2-.6l-2-.4c-1.1-.2-1.9-.6-2.4-1.2-.5-.5-.8-1.2-.8-2s.2-1.3.6-1.8c.4-.5.9-.9,1.6-1.2.7-.3,1.4-.4,2.3-.4,1.3,0,2.2.3,3,.8s1.2,1.3,1.4,2.2v-.2Z"/>
  </g>
</svg>