<?xml version="1.0" encoding="UTF-8"?>
<svg id="Layer_1" xmlns="http://www.w3.org/2000/svg" version="1.1" viewBox="0 0 499 500">
  <!-- Generator: Adobe Illustrator 29.6.0, SVG Export Plug-In . SVG Version: 2.1.1 Build 207)  -->
  <defs>
    <style>
      .st0 {
        fill: #fff;
      }

      .st1 {
        fill: #0f0820;
      }
    </style>
  </defs>
  <path class="st1" d="M211.4,460.2c-18.3,1.1-36.4-5.2-54.7-5.1-31.7,0-62.8,18.8-93.7,11.3-4.2-1-8.9-3.1-10-7.3-1.5-5.8,4.7-10.4,10-13.1,9.9-5,20.1-9.7,30.3-14,10.3-4.3,20.9-8.4,29.6-15.5,15.5-12.5,23.8-33.2,41.5-42.2-22.7,2-43.2-17.8-66-16.5-13.4.8-25.1,8.8-37.3,14.4-14.4,6.6-30.2,10.1-46,10.1-6.9,0-16.1-3.2-15.2-10.1.2-1.8,1.2-3.3,2.3-4.7,6.5-7.9,17.9-9,27.6-12.2,30.5-10.2,46.5-44.4,74.9-59.5,17.9-9.6,38.9-10.7,58.4-16,37.9-10.3,69.8-36.3,95.8-65.7s47.5-62.6,71.8-92.3c-5.1-34.6,13.4-71.4,43.8-88,6.1-10.8,13.3-20.9,21.5-30.2,1.8-2,4.4-4.2,6.9-3.3,2,.7,2.9,2.9,3.5,4.9,2.5,8.5,3.6,17.5,3.6,26.5,21,4.8,40.1,17.3,53.1,34.5,10.2-2.3,20.5-4.6,31-5,1.4,0,3.2.2,3.6,1.6.2.6,0,1.2-.2,1.8-4.5,15.5-14.3,28.8-24,42.3-1,17.7-6.9,35.1-16.9,49.7-8.5,12.5-20.2,23.7-24,38.7-5.2,38.4-11.8,77.8-32.2,110.8-11.5,18.6-27,34.4-40.4,51.8-9.6,12.4-18.2,25.7-28.4,37.7-13.1,15.4-28.7,28.5-45.6,39.7-14.3,9.4-29.4,17.4-47.2,23.3,31,16.9,70.5,17.2,101.6.6,25-13.3,43.5-35.8,65.7-53.5,3.8-3,7.8-5.9,12.5-6.8,4.7-.9,10.3.8,12.4,5,3.2,6.3,1.5,17.7-7.5,30.1-5.6,7.7-11.1,15.4-18.1,21.8-35.8,32.9-79.5,50-127.6,43-26.2-3.8-54.1-18.4-66.7-38.3Z"/>
  <path class="st0" d="M308.7,362.9l-142.6-114.4c-2.4-2-2.8-5.5-.9-7.9l69.2-86.2c2-2.4,5.5-2.8,7.9-.9l142.6,114.4c2.4,2,2.8,5.5.9,7.9l-69.2,86.2c-2,2.4-5.5,2.8-7.9.9Z"/>
  <path class="st1" d="M312.2,364.7c-1.4,0-2.7-.5-3.8-1.4l-142.6-114.4c-1.3-1-2.1-2.5-2.3-4.1-.2-1.6.3-3.2,1.3-4.5l69.2-86.2c1-1.3,2.5-2.1,4.1-2.3,1.6-.2,3.2.3,4.5,1.3l142.6,114.4c1.3,1,2.1,2.5,2.3,4.1.2,1.6-.3,3.2-1.3,4.5l-69.2,86.2c-1,1.3-2.5,2.1-4.1,2.3-.2,0-.5,0-.7,0ZM238.9,152.7c-.2,0-.4,0-.6,0-1.4.1-2.6.8-3.4,1.9l-69.2,86.2c-1.8,2.2-1.4,5.5.8,7.2l142.6,114.4c1.1.9,2.4,1.3,3.8,1.1,1.4-.1,2.6-.8,3.4-1.9l69.2-86.2c1.8-2.2,1.4-5.5-.8-7.2l-142.6-114.4c-.9-.7-2-1.1-3.2-1.1Z"/>
  <path class="st1" d="M338.9,107.4c-10.6,17.8-29.3,29.5-48.6,37.1-7.5,2.9-15.2,5.4-22,9.6-5.4,3.4-10,7.8-14.7,12.1-9,8.5-17.9,17-26.9,25.4-3.4,3.2-7.1,7.2-6.3,11.8.8,4.5,5.9,7.2,10.5,6.9,4.6-.3,8.7-2.7,12.7-5,26.6-15.5,44.6-29.2,83.2-39.5"/>
  <path class="st1" d="M371.4,186.2c-11.4,17.3-32.9,25.6-45,42.4-3.1,4.3-5.6,9.1-7.9,13.9-5.7,11.7-11,23.6-15.9,35.6-2,4.9-3.7,11-.3,15,3.6,4.2,10.5,3,15.4.5,16.4-8.4,25.6-26.5,40.5-37.2,6.7-4.8,14.3-8,21.3-12.3,6.7-4.2,12.8-9.4,17.9-15.4"/>
  <path class="st0" d="M382.6,87.6c3.1-9.3-1.9-19.2-11.2-22.3-9.3-3.1-19.2,1.9-22.3,11.2-3.1,9.3,1.9,19.2,11.2,22.3,9.3,3.1,19.2-1.9,22.3-11.2Z"/>
  <path class="st0" d="M436.3,123.8c7.1-6.9,7.2-18.3.3-25.3-6.9-7.1-18.3-7.2-25.3-.3-7.1,6.9-7.2,18.3-.3,25.3,6.9,7.1,18.3,7.2,25.3.3Z"/>
  <path class="st1" d="M363.1,92.9c5.3-5.4,8.6-12.8,8.7-20.4,0-1.7-2.1-2.7-3.3-1.4-2.6,2.7-4.9,5.8-6.4,9.2-1.6,3.6-2.4,7.5-2.3,11.4,0,1.6,2.1,2.4,3.3,1.3Z"/>
  <path class="st1" d="M419.5,121.4c6.1-4.5,10.3-11.4,11.6-18.9.3-1.7-1.7-3-3.1-1.9-3,2.3-5.7,5-7.7,8.2-2.1,3.3-3.5,7-3.9,10.9-.2,1.6,1.7,2.7,3,1.7Z"/>
  <path class="st1" d="M294.8,278.4c-11-1.3-22-2.4-32.9-3.6-3.2-.2-6.5-.8-9.7-.9,0-.2,0-.4,0-.6-2.7-15.7-6.2-31.3-8.8-47-.8-4.5-1.1-9.2-2.1-13.7-.6-1.1-2.5-.5-2.3.8,1.5,15.5,4.2,30.7,7.2,46,.9,5,1.8,10.1,2.7,15.2.4,1.2,0,.9.9,1.9.3.2.7.3,1.2.3,7.5,1.2,15,1.9,22.5,2.8,6.7.7,16.5,2,21.7,2.1,2.4,0,2.3-3.3-.2-3.2Z"/>
  <path class="st1" d="M371.8,279.1c-.5,0-4.9.2-6.8.4-6.7.4-13.5,1.1-20.2,1.4-2.9.3-5.8.1-8.6.6-.8.4-.5,1.8.4,1.9,10,0,19.8-.3,30.4-1,1.8-.1,3.5-.2,5.3-.3.8,0,1.7-.3,1.9-1.1.2-1.9-1.4-1.8-2.3-1.7Z"/>
  <path class="st1" d="M312,352.5s0,0,0,.1c0,0,0,.1,0,.2,0-.1-.1-.4,0-.3Z"/>
  <path class="st1" d="M291.5,285.8c-.5-1.2-2.5-.4-1.9.8,3,11.9,7.5,26.2,11.5,38.9,2.4,7.9,4.1,14,6.5,22,.6,2.1.7,2.5,1.6,5.5.1.4.2.8.5,1,1,1.1,2.9-.2,2.3-1.5-5.4-17.9-11-35.8-16.6-53.6-1.2-3.8-2.3-8.2-3.8-13.1Z"/>
  <path class="st1" d="M239.8,246.4c-10.6-1.6-21.4-2.5-32.1-3.5-10.4-1-20.9-2.5-31.3-2.8-1.9.7-1.1,3,.8,2.9,17.1,2,34.2,3.6,51.4,4.9,3.8.2,7.6,1,11.4,1,1.3-.3,1.2-2.4-.2-2.5Z"/>
  <path class="st0" d="M397.6,8.2c-.3,3.9-.4,7.7-1.4,11.5,0,.7-1.2,3.8-1.6,5.5,0,.8.9,1.3,1.6,1,.5-.2.7-.9.9-1.4,2.2-5.2,2.6-10.8,3-16.4.2-1.6-2.3-1.9-2.5-.3Z"/>
  <path class="st0" d="M393.6,15.3c-.6-.8-1.9-.4-2,.6-.4,2.5-.7,3.7-1.4,5.8-.2.6-.7,1.5,0,2,1.5,1.1,2-1.4,2.4-2.4.5-1.4.8-2.9,1.1-4.4.1-.5.3-1.2-.1-1.6Z"/>
  <path class="st0" d="M488.6,66.3c-4.5,0-8.9,1.2-13.2,2.5-1.7.6-3.5,1.2-5.1,2-.4.2-.9.4-1.1.8-.3.7.2,1.5.9,1.5.8,0,1.4-.6,2.1-.8,4.3-1.8,7.3-2.7,11.7-3.6.9-.2,3.7-.5,3.6-.5.5,0,1,.1,1.4-.2.7-.5.3-1.7-.5-1.7Z"/>
  <path class="st0" d="M487.5,73.2c-4.1.6-7.9,2.6-11.2,5-.9.7-1.7,1.3-2.5,2.1-.4.3-.7.9-.5,1.5.1.6.8,1.1,1.5,1,.8-.1,1.2-.9,1.8-1.3,1-.9,1.9-1.7,3-2.4,2.1-1.4,3.5-2.3,6.2-3.4.8-.3,1.4-.5,1.6-.5.4,0,.8-.1,1-.5.5-.6-.1-1.6-.9-1.4Z"/>
  <path class="st0" d="M385.1,101.4c2.5,1,4.9,2.4,6.8,4.2.9.8.6,2.3-.5,2.7-1.7.7-3.6,1.3-5.4,1.7-.8.2-1.6-.3-1.9-1.1-.6-2-1.2-4-1.2-6,0-1.1,1.1-1.9,2.2-1.5Z"/>
  <path class="st0" d="M328.8,164.6c-7.7,1.7-15.5,3.5-22.9,6.4-8.7,3.6-16.8,8.3-25,12.8-.5.5-.2,1.4.5,1.5.7,0,1.3-.6,2-.9,10.1-5.5,20.1-11.4,31.3-14.6,3.7-1.2,6.4-1.9,10.7-3,.9-.2,2.8-.8,3.1-.9.3-.1.8-.1.9-.5.2-.4-.2-.9-.6-.8Z"/>
  <path class="st0" d="M371.7,184c-3.3,5.1-6.8,9.9-10.8,13.6-8.8,7.7-18.7,14.1-26.9,22.4-1.1,1-2.1,2.1-3.2,3.1-.2.1-.3.4-.3.6,0,.6.4,1.1,1,1,.6-.1.9-.7,1.3-1.1,5.6-5.5,11.4-10.7,17.7-15.4,7.8-5.8,15.7-12,20.7-20.5.8-1.5,1.6-2.4,1.7-3.4,0-.6-.9-.8-1.2-.3Z"/>
  <path class="st0" d="M399.4,225.1c-7.8,10.5-18.1,18.9-29.5,24.8-.7.5-1.7.6-2.1,1.3-.2.5.2,1.1.7,1.2.5,0,.9-.3,1.3-.5,9.9-5.2,19.2-11.8,26.5-20.4,1.5-1.9,3.1-3.7,4.3-5.8.2-.7-.8-1.2-1.2-.6Z"/>
  <path class="st1" d="M298.5,355.1c-29.6-23.8-58.4-48.6-87.7-72.9-5.8-4.7-11.4-9.7-17.1-14.4-5.8-4.7-11.9-9.1-17.7-13.9-1.1-.9-2.2-1.9-3.4-2.8-.2-.2-.5-.2-.8-.2-.9.1-1.2,1.4-.5,1.9,32,25.9,63,53,94.7,79.3,10.4,8.6,22.4,19,32.4,26.2.8.6,2.1-.1,1.9-1.1-.3-.9-.9-1.1-1.9-2.2Z"/>
  <path class="st1" d="M258,162.8c-1.9-1.3-3.8-2.6-5.7-4-2.7-1.9-5.3-4-8.1-6-1.3-.9-2.7-1.9-4.4-2.2-4.4-1.1-7.3,3.3-10,6-3.5,4-7,8-10.5,12-12.4,15.8-25,31.5-37.4,47.3-5.1,6.4-10,13-14.9,19.6-2.6,3.5-6.2,8.4-2.5,12.5.7.9,1.6,1.6,2.4,2.3.4.3.9.9,1.5.8.9-.1,1.2-1.4.5-1.9-3.5-3.1-4-4.9-2-8.3,2.5-4.1,5.8-7.6,8.7-11.4,5.1-6.5,10.2-13.1,15.3-19.5,6.9-8.6,13.8-17.3,20.7-25.9,4.7-6.1,9.3-12.3,14.5-18.1,4.1-4.5,8.1-9.9,11.7-12.1.2,0,.4,0,.6,0,1.1,0,2.1.6,1.9.5,5.2,3.4,10,7.5,15.2,10.9.8.5,1.5,1.3,2.4,1.6.8.3,1.6-.3,1.9-1,.5-1.4-1-2.3-2-3Z"/>
</svg>