<svg width="499" height="500" viewBox="0 0 499 500" fill="none" xmlns="http://www.w3.org/2000/svg">
<path d="M211.442 460.165C193.133 461.246 175.092 454.999 156.751 455.03C125.047 455.084 93.9064 473.79 63.0814 466.378C58.8576 465.363 54.1721 463.267 53.1026 459.056C51.6354 453.281 57.7977 448.665 63.117 445.979C73.0577 440.959 83.1695 436.278 93.4291 431.946C103.728 427.598 114.351 423.501 123.057 416.489C138.517 404.037 146.82 383.288 164.507 374.275C141.857 376.268 121.315 356.429 98.537 357.807C85.1477 358.617 73.4614 366.611 61.2757 372.219C46.9025 378.832 31.0859 382.288 15.2639 382.271C8.34249 382.263 -0.836409 379.042 0.0610915 372.179C0.290291 370.426 1.22839 368.839 2.34729 367.471C8.83059 359.54 20.2753 358.505 29.9895 355.256C60.4759 345.059 76.5174 310.899 104.849 295.711C122.704 286.139 143.713 285.003 163.262 279.688C201.164 269.384 233.018 243.401 259.099 214.032C285.18 184.663 306.596 151.471 330.908 121.719C325.796 87.1469 344.287 50.3151 374.708 33.7154C380.773 22.9302 387.988 12.7925 396.193 3.53035C398.004 1.48565 400.565 -0.710251 403.133 0.219849C405.097 0.930849 405.999 3.15255 406.594 5.15395C409.13 13.68 410.201 22.6399 410.233 31.6053C431.215 36.413 450.333 48.9526 463.378 66.1223C473.609 63.8273 483.906 61.5233 494.382 61.0747C495.807 61.0138 497.624 61.2541 498.018 62.6255C498.184 63.2024 498.023 63.8172 497.855 64.3934C493.335 79.8837 483.578 93.2248 473.858 106.668C472.847 124.352 466.931 141.73 456.943 156.357C448.433 168.819 436.72 180.02 432.933 195.031C427.766 233.446 421.149 272.879 400.749 305.837C389.215 324.472 373.716 340.274 360.313 357.614C350.696 370.056 342.137 383.32 331.958 395.306C318.868 410.72 303.22 423.854 286.337 434.985C272.072 444.389 256.891 452.401 239.132 458.251C270.09 475.192 309.584 475.408 340.725 458.808C365.697 445.497 384.274 422.983 406.405 405.348C410.16 402.356 414.2 399.42 418.913 398.502C423.626 397.584 429.177 399.261 431.338 403.548C434.523 409.868 432.87 421.252 423.84 433.621C418.246 441.285 412.741 449.004 405.753 455.422C369.946 488.309 326.266 505.455 278.156 498.449C251.919 494.628 224.099 480.099 211.442 460.165Z" fill="#270F03"/>
<path d="M308.687 362.918L166.131 248.497C163.696 246.543 163.306 242.984 165.26 240.549L234.457 154.338C236.411 151.903 239.97 151.513 242.405 153.468L384.962 267.888C387.397 269.843 387.787 273.402 385.832 275.837L316.636 362.048C314.681 364.483 311.123 364.873 308.687 362.918Z" fill="white"/>
<path d="M312.214 364.679C310.816 364.679 309.47 364.207 308.365 363.32L165.808 248.899C164.523 247.867 163.717 246.397 163.537 244.76C163.358 243.122 163.827 241.512 164.858 240.227L234.054 154.016C235.086 152.731 236.556 151.925 238.194 151.745C239.829 151.564 241.442 152.035 242.726 153.066L385.283 267.487C386.568 268.519 387.374 269.989 387.554 271.626C387.733 273.264 387.264 274.874 386.233 276.159L317.036 362.37C316.005 363.655 314.535 364.462 312.897 364.641C312.668 364.666 312.44 364.679 312.214 364.679ZM238.875 152.737C238.686 152.737 238.497 152.747 238.306 152.768C236.941 152.917 235.717 153.589 234.857 154.66L165.661 240.871C163.887 243.082 164.242 246.322 166.452 248.096L309.009 362.517C310.08 363.377 311.423 363.768 312.785 363.618C314.15 363.469 315.374 362.797 316.233 361.726L385.43 275.515C387.204 273.305 386.849 270.064 384.639 268.29L242.082 153.869C241.161 153.129 240.04 152.737 238.875 152.737Z" fill="#270F03"/>
<path d="M338.901 107.377C328.274 125.224 309.614 136.913 290.277 144.497C282.823 147.421 275.101 149.873 268.307 154.11C262.915 157.472 258.258 161.869 253.64 166.234C244.671 174.713 235.702 183.192 226.733 191.671C223.353 194.866 219.675 198.894 220.482 203.475C221.277 207.993 226.393 210.672 230.972 210.403C235.552 210.134 239.686 207.714 243.651 205.406C270.215 189.947 288.234 176.188 326.842 165.893" fill="#270F03"/>
<path d="M371.357 186.24C360.006 203.562 338.48 211.856 326.307 228.61C323.177 232.919 320.745 237.688 318.399 242.47C312.674 254.141 307.378 266.023 302.526 278.084C300.556 282.983 298.829 289.098 302.273 293.1C305.891 297.305 312.725 296.144 317.666 293.625C334.079 285.257 343.221 267.168 358.196 256.44C364.873 251.657 372.544 248.461 379.525 244.135C386.243 239.973 392.308 234.76 397.433 228.744" fill="#270F03"/>
<path d="M382.566 87.555C385.643 78.3014 380.636 68.3055 371.382 65.2287C362.128 62.1518 352.132 67.1591 349.055 76.4128C345.979 85.6664 350.986 95.6622 360.24 98.7391C369.493 101.816 379.489 96.8086 382.566 87.555Z" fill="white"/>
<path d="M436.299 123.788C443.373 116.873 443.502 105.532 436.586 98.4579C429.67 91.3841 418.33 91.2558 411.256 98.1715C404.182 105.087 404.053 116.428 410.969 123.502C417.885 130.576 429.225 130.704 436.299 123.788Z" fill="white"/>
<path d="M363.089 92.9086C368.424 87.5508 371.643 80.1143 371.823 72.505C371.865 70.7554 369.743 69.8271 368.519 71.0775C365.881 73.7713 363.651 76.8586 362.105 80.2896C360.505 83.8405 359.668 87.7726 359.821 91.6454C359.885 93.2876 361.929 94.0733 363.089 92.9086Z" fill="#270F03"/>
<path d="M419.49 121.391C425.549 116.868 429.818 109.981 431.106 102.479C431.402 100.754 429.439 99.5264 428.045 100.585C425.043 102.865 422.387 105.594 420.357 108.763C418.256 112.043 416.855 115.811 416.441 119.665C416.266 121.299 418.173 122.374 419.49 121.391Z" fill="#270F03"/>
<path d="M294.778 278.378C283.814 277.072 272.817 275.983 261.835 274.816C258.605 274.593 255.349 274.059 252.113 273.945C252.087 273.779 252.063 273.592 252.042 273.363C249.347 257.646 245.809 242.088 243.238 226.35C242.392 221.811 242.114 217.112 241.159 212.627C240.54 211.484 238.638 212.164 238.881 213.457C240.344 228.915 243.1 244.193 246.093 259.416C247.001 264.465 247.884 269.52 248.796 274.568C249.174 275.763 248.72 275.468 249.652 276.436C249.983 276.684 250.401 276.771 250.803 276.722C258.256 277.961 265.781 278.65 273.284 279.515C279.995 280.202 289.749 281.482 294.941 281.597C297.361 281.654 297.198 278.33 294.778 278.378Z" fill="#270F03"/>
<path d="M371.814 279.093C371.271 279.042 366.946 279.318 365.025 279.45C358.281 279.872 351.55 280.502 344.799 280.828C341.947 281.099 338.964 280.941 336.176 281.455C335.35 281.9 335.654 283.272 336.594 283.34C346.616 283.43 356.365 282.991 366.978 282.294C368.735 282.175 370.495 282.112 372.249 281.951C373.015 281.915 373.97 281.699 374.118 280.812C374.324 278.949 372.737 279.062 371.814 279.093Z" fill="#270F03"/>
<path d="M311.983 352.45C312.001 352.487 311.998 352.523 312.012 352.56C312.035 352.635 312.058 352.71 312.081 352.786C312.051 352.685 311.975 352.419 311.983 352.45Z" fill="#270F03"/>
<path d="M291.529 285.849C290.986 284.631 289.076 285.427 289.625 286.693C292.641 298.567 297.175 312.918 301.104 325.602C303.493 333.467 305.235 339.646 307.563 347.572C308.174 349.631 308.267 350.025 309.161 353.11C309.273 353.464 309.347 353.861 309.664 354.091C310.693 355.164 312.537 353.907 312.012 352.559C306.633 334.631 301.031 316.771 295.369 298.931C294.169 295.093 293.087 290.772 291.529 285.849Z" fill="#270F03"/>
<path d="M239.797 246.403C229.16 244.813 218.444 243.948 207.744 242.92C197.328 241.94 186.882 240.383 176.442 240.072C174.58 240.747 175.333 243.117 177.271 243.014C194.361 245.048 211.493 246.664 228.656 247.944C232.436 248.192 236.242 248.904 240.011 248.925C241.339 248.617 241.171 246.507 239.797 246.403Z" fill="#270F03"/>
<path d="M397.602 8.16376C397.35 12.0212 397.173 15.9116 396.24 19.6789C396.151 20.3673 395.005 23.4898 394.611 25.181C394.57 25.948 395.482 26.5048 396.162 26.1755C396.709 25.9306 396.847 25.3162 397.067 24.8115C399.248 19.634 399.705 13.9856 400.052 8.43806C400.224 6.84376 397.794 6.56296 397.602 8.16376Z" fill="white"/>
<path d="M393.577 15.2686C392.997 14.5119 391.682 14.8994 391.606 15.8516C391.183 18.3097 390.922 19.5953 390.237 21.6495C390.047 22.2864 389.514 23.1056 390.16 23.6491C391.682 24.7702 392.129 22.2564 392.543 21.2575C393.038 19.833 393.379 18.3616 393.681 16.886C393.781 16.3493 393.984 15.729 393.577 15.2686Z" fill="white"/>
<path d="M488.566 66.3066C484.091 66.3394 479.667 67.4701 475.414 68.7883C473.688 69.3768 471.959 69.9684 470.312 70.7562C469.895 70.9441 469.419 71.1285 469.259 71.5994C468.984 72.2694 469.475 73.0663 470.194 73.1382C470.97 73.1537 471.617 72.5542 472.334 72.3107C476.587 70.5108 479.632 69.6133 484.061 68.7564C484.919 68.5379 487.769 68.2352 487.654 68.2592C488.133 68.2189 488.679 68.3709 489.077 68.0345C489.738 67.527 489.402 66.3731 488.566 66.3066Z" fill="white"/>
<path d="M487.521 73.1621C483.393 73.7349 479.635 75.7911 476.288 78.1923C475.435 78.853 474.585 79.5259 473.808 80.2745C473.379 80.6159 473.112 81.2206 473.316 81.7542C473.459 82.4014 474.159 82.8064 474.799 82.7154C475.556 82.5794 475.997 81.8459 476.574 81.3998C477.527 80.5337 478.523 79.7144 479.573 78.9672C481.638 77.5315 483.023 76.7038 485.729 75.5841C486.541 75.2723 487.093 75.1133 487.376 75.0475C487.74 74.9558 488.162 74.9245 488.388 74.5837C488.858 73.9732 488.283 73.0232 487.521 73.1621Z" fill="white"/>
<path d="M385.079 101.384C387.619 102.339 389.97 103.784 391.903 105.622C392.762 106.439 392.514 107.875 391.421 108.333C389.68 109.063 387.864 109.633 385.997 110.061C385.175 110.25 384.354 109.748 384.1 108.944C383.476 106.962 382.943 104.925 382.908 102.925C382.889 101.803 384.029 100.989 385.079 101.384Z" fill="white"/>
<path d="M328.843 164.557C321.102 166.306 313.338 168.094 305.914 170.956C297.262 174.532 289.088 179.218 280.935 183.771C280.432 184.243 280.782 185.18 281.469 185.233C282.207 185.207 282.816 184.592 283.483 184.311C293.571 178.793 303.606 172.916 314.738 169.75C318.459 168.581 321.182 167.844 325.413 166.747C326.313 166.511 328.254 165.989 328.546 165.887C328.886 165.763 329.345 165.752 329.489 165.363C329.653 164.955 329.285 164.479 328.843 164.557Z" fill="white"/>
<path d="M371.747 183.982C368.446 189.032 364.98 193.923 360.902 197.6C352.124 205.314 342.244 211.708 333.984 220.032C332.918 221.048 331.87 222.082 330.827 223.121C330.65 223.266 330.539 223.474 330.512 223.7C330.442 224.25 330.959 224.752 331.51 224.661C332.088 224.536 332.405 223.922 332.847 223.568C338.409 218.061 344.292 212.882 350.55 208.178C358.381 202.363 366.224 196.192 371.232 187.649C372.03 186.174 372.787 185.288 372.976 184.28C372.903 183.697 372.081 183.488 371.747 183.982Z" fill="white"/>
<path d="M399.383 225.125C391.597 235.616 381.285 244.022 369.866 249.964C369.191 250.43 368.175 250.571 367.749 251.303C367.544 251.815 367.914 252.433 368.467 252.486C368.965 252.523 369.374 252.14 369.814 251.958C379.754 246.783 389.054 240.126 396.302 231.515C397.814 229.644 399.41 227.769 400.622 225.697C400.834 224.99 399.798 224.504 399.383 225.125Z" fill="white"/>
<path d="M298.545 355.085C268.918 331.287 240.136 306.467 210.879 282.223C205.083 277.521 199.522 272.54 193.733 267.831C187.917 263.113 181.848 258.715 176.061 253.962C174.932 253.026 173.814 252.075 172.691 251.131C172.464 250.968 172.183 250.901 171.907 250.941C171.005 251.063 170.657 252.338 171.44 252.867C203.471 278.747 234.445 305.905 266.162 332.174C276.584 340.771 288.537 351.191 298.549 358.396C299.341 359.008 300.629 358.268 300.432 357.248C300.132 356.301 299.528 356.1 298.545 355.085Z" fill="#270F03"/>
<path d="M257.967 162.766C256.097 161.417 254.183 160.131 252.313 158.781C249.592 156.832 246.964 154.757 244.247 152.802C242.911 151.871 241.521 150.919 239.895 150.604C235.536 149.529 232.626 153.921 229.912 156.594C226.378 160.56 222.892 164.571 219.442 168.61C207.052 184.455 194.472 200.151 182.008 215.94C176.918 222.378 171.993 228.941 167.063 235.501C164.434 239.043 160.874 243.891 164.558 247.966C165.254 248.845 166.125 249.554 167.006 250.237C167.446 250.58 167.87 251.115 168.487 251.008C169.407 250.888 169.701 249.628 168.949 249.106C165.454 245.986 164.979 244.254 166.954 240.757C169.469 236.691 172.741 233.154 175.636 229.361C180.759 222.865 185.807 216.308 190.958 209.833C197.855 201.196 204.718 192.532 211.637 183.912C216.329 177.784 220.933 171.577 226.107 165.838C230.228 161.338 234.163 155.892 237.823 153.768C238.036 153.717 238.253 153.683 238.472 153.671C239.532 153.678 240.535 154.288 240.419 154.185C245.646 157.599 250.44 161.647 255.651 165.097C256.488 165.58 257.148 166.433 258.067 166.73C258.826 166.981 259.681 166.473 259.962 165.751C260.504 164.316 258.938 163.485 257.967 162.766Z" fill="#270F03"/>
</svg>
