<svg width="56" height="56" viewBox="0 0 56 56" fill="none" xmlns="http://www.w3.org/2000/svg">
<g clip-path="url(#clip0_171_2135)">
<path d="M43.827 4.90011C43.2927 4.53611 42.5693 4.67144 42.2053 5.20111C41.8413 5.73311 41.9743 6.45878 42.5063 6.82278C49.4947 11.6201 53.6667 19.5371 53.6667 28.0001C53.6667 37.0394 48.958 44.9868 41.874 49.5601C40.999 42.6768 35.1167 37.3334 28 37.3334C20.8833 37.3334 15.001 42.6768 14.126 49.5601C7.04433 44.9868 2.33333 37.0394 2.33333 28.0001C2.33333 19.5371 6.50533 11.6201 13.4937 6.82278C14.0257 6.45878 14.1587 5.73311 13.7947 5.20111C13.433 4.67144 12.705 4.53611 12.173 4.90011C4.55 10.1314 0 18.7671 0 28.0001C0 43.4398 12.5603 56.0001 28 56.0001C43.4397 56.0001 56 43.4398 56 28.0001C56 18.7671 51.45 10.1314 43.827 4.90011ZM16.3823 50.8574C16.639 44.6508 21.7303 39.6668 28 39.6668C34.2697 39.6668 39.3633 44.6484 39.6177 50.8574C36.1247 52.6401 32.1837 53.6668 28 53.6668C23.8163 53.6668 19.8753 52.6401 16.3823 50.8574ZM28 32.6668C33.1473 32.6668 37.3333 28.4808 37.3333 23.3334C37.3333 18.1861 33.1473 14.0001 28 14.0001C22.8527 14.0001 18.6667 18.1861 18.6667 23.3334C18.6667 28.4808 22.8527 32.6668 28 32.6668ZM28 16.3334C31.8593 16.3334 35 19.4741 35 23.3334C35 27.1928 31.8593 30.3334 28 30.3334C24.1407 30.3334 21 27.1928 21 23.3334C21 19.4741 24.1407 16.3334 28 16.3334ZM21.875 11.6668H34.125C35.8937 11.6668 37.3333 10.2271 37.3333 8.45844V2.18644C37.3333 1.32311 36.8223 0.536775 36.022 0.182108C35.2403 -0.158559 34.3163 -0.0115586 33.6257 0.616108L31.6843 2.61577L30.2353 0.998775C29.666 0.366441 28.8517 0.00244141 28 0.00244141C27.1483 0.00244141 26.334 0.366441 25.767 0.998775L24.3157 2.61811L22.3207 0.567108C21.6813 -0.0138919 20.7597 -0.158559 19.9663 0.191441C19.1777 0.541441 18.6667 1.32777 18.6667 2.19111V8.46311C18.6667 10.2318 20.1063 11.6714 21.875 11.6714V11.6668ZM21 2.55044L23.513 5.13811C23.737 5.36911 24.038 5.47411 24.3717 5.49278C24.696 5.48578 25.0017 5.34578 25.2163 5.10544L27.5007 2.55511C27.846 2.17011 28.1493 2.17011 28.497 2.55511L30.7813 5.10311C30.996 5.34578 31.304 5.48578 31.626 5.49278C31.9667 5.47644 32.2607 5.36911 32.4847 5.13811L34.9977 2.55044V8.46078C34.9977 8.94378 34.6057 9.33578 34.1227 9.33578H21.8727C21.3897 9.33578 20.9977 8.94378 20.9977 8.46078V2.55044H21Z" fill="#353148"/>
</g>
<defs>
<clipPath id="clip0_171_2135">
<rect width="56" height="56" fill="white"/>
</clipPath>
</defs>
</svg>
