<svg width="56" height="56" viewBox="0 0 56 56" fill="none" xmlns="http://www.w3.org/2000/svg">
<g clip-path="url(#clip0_171_2076)">
<path d="M20.9999 10.4999C20.9999 12.6909 19.7889 14.6789 17.8406 15.6869C16.5853 16.3332 16.3333 16.8606 16.3333 17.4999C16.3333 18.1439 15.8106 18.6666 15.1666 18.6666C14.5226 18.6666 13.9999 18.1439 13.9999 17.4999C13.9999 15.2972 15.5796 14.2262 16.7696 13.6126C17.9409 13.0082 18.6666 11.8159 18.6666 10.4999C18.6666 8.57023 17.0963 6.9999 15.1666 6.9999C13.2369 6.9999 11.6666 8.57023 11.6666 10.4999C11.6666 11.1439 11.1439 11.6666 10.4999 11.6666C9.85592 11.6666 9.33325 11.1439 9.33325 10.4999C9.33325 7.28456 11.9513 4.66656 15.1666 4.66656C18.3819 4.66656 20.9999 7.28456 20.9999 10.4999ZM15.1666 20.9999C13.8786 20.9999 12.8333 22.0452 12.8333 23.3332C12.8333 24.6212 13.8786 25.6666 15.1666 25.6666C16.4546 25.6666 17.4999 24.6212 17.4999 23.3332C17.4999 22.0452 16.4546 20.9999 15.1666 20.9999ZM26.1613 25.2792C22.9833 28.5366 18.5149 30.3332 13.5823 30.3332H5.82625C2.39625 30.3332 -8.20407e-05 27.4842 -8.20407e-05 23.4032V15.7662C-0.168082 7.42923 7.12125 -0.375771 15.5469 0.00456271C23.6366 0.202896 30.1303 6.69656 30.3286 14.7862C30.4243 18.6992 28.9449 22.4256 26.1613 25.2792ZM24.4906 23.6506C26.8309 21.2519 28.0769 18.1229 27.9953 14.8446C27.8273 7.99856 22.3346 2.5059 15.4886 2.3379C8.34625 2.0089 2.18625 8.7079 2.33325 15.7639V23.4009C2.33325 26.1939 3.70292 27.9976 5.82625 27.9976H13.5823C17.8803 27.9976 21.7536 26.4552 24.4906 23.6506ZM27.9999 34.7992C27.9999 32.6152 28.8493 30.5666 30.3916 29.0242L46.0413 13.3746C48.3162 11.0996 52.0169 11.0996 54.2896 13.3746C56.5529 15.5422 56.5529 19.4552 54.2896 21.6229L38.6399 37.2726C37.0976 38.8149 35.0466 39.6642 32.8649 39.6642H29.1642C28.5203 39.6642 27.9976 39.1416 27.9976 38.4976V34.7969L27.9999 34.7992ZM30.3333 37.3332H32.8673C34.4236 37.3332 35.8889 36.7266 36.9926 35.6252L52.6423 19.9756C54.0003 18.6736 54.0003 16.3286 52.6423 15.0266C51.2796 13.6616 49.0559 13.6616 47.6933 15.0266L32.0436 30.6762C30.9399 31.7776 30.3356 33.2429 30.3356 34.8016V37.3356L30.3333 37.3332ZM36.1666 11.6666H41.1529L42.7443 10.0752C43.0266 9.7929 43.3486 9.5759 43.6543 9.33323H36.1689C35.5249 9.33323 35.0023 9.8559 35.0023 10.4999C35.0023 11.1439 35.5249 11.6666 36.1689 11.6666H36.1666ZM53.6666 52.1592C53.6666 52.7262 53.3679 53.2256 52.8686 53.4916C52.3623 53.7622 51.7906 53.7342 51.3146 53.4192L41.7736 47.0562L40.4786 46.6642H24.4976C19.9873 46.6642 16.3309 43.0079 16.3309 38.4976V36.1642C16.3309 35.5202 15.8083 34.9976 15.1643 34.9976C14.5203 34.9976 13.9976 35.5202 13.9976 36.1642V38.4976C13.9976 44.2959 18.6993 48.9976 24.4976 48.9976H40.4786L50.0219 55.3606C50.6636 55.7899 51.4079 56.0046 52.1522 56.0046C54.2126 56.0442 56.0419 54.2289 55.9976 52.1592V26.5159L53.6643 28.8492V52.1616L53.6666 52.1592Z" fill="#353148"/>
</g>
<defs>
<clipPath id="clip0_171_2076">
<rect width="56" height="56" fill="white"/>
</clipPath>
</defs>
</svg>
