<?xml version="1.0" encoding="UTF-8"?>
<svg id="Layer_1" xmlns="http://www.w3.org/2000/svg" version="1.1" viewBox="0 0 702 600">
  <!-- Generator: Adobe Illustrator 29.6.0, SVG Export Plug-In . SVG Version: 2.1.1 Build 207)  -->
  <defs>
    <style>
      .st0 {
        fill: #fff;
      }

      .st1 {
        fill: #f06880;
      }

      .st2 {
        fill: #101820;
      }

      .st3 {
        fill: #ff2072;
      }

      .st4 {
        fill: #f8de40;
      }

      .st5 {
        fill: #e6e7e8;
      }

      .st6 {
        fill: #864e20;
      }
    </style>
  </defs>
  <rect class="st0" x="3.2" y="149" width="522.3" height="120.2" rx="58.2" ry="58.2"/>
  <path class="st0" d="M0,287.6c30.1-7,35-29.6,33.6-40.1l32.8,8.8c-2.1,13.9-18.4,39.6-66.5,31.2h.1Z"/>
  <rect class="st3" x="182.6" width="480.6" height="120.2" rx="58.2" ry="58.2"/>
  <path class="st3" d="M666.4,138.6c-30.1-7-35-29.6-33.6-40l-32.8,8.8c2.1,13.9,18.4,39.6,66.5,31.2h-.1Z"/>
  <path class="st0" d="M247.7,66.6h-12.4v-22.2h12.4v2.3h-9.8v7.1h9.2v2.3h-9.2v8.2h9.8v2.3ZM253.5,66.6h-2.5v-23.6h2.5v23.6ZM275.8,64.4h-.1c-1.2,1.7-2.9,2.5-5.2,2.5s-3.9-.7-5.1-2.2-1.8-3.6-1.8-6.3.6-4.9,1.8-6.4c1.2-1.5,2.9-2.3,5.1-2.3s4,.8,5.2,2.5h.2v-1.2c-.1,0-.2-1.2-.2-1.2v-6.8h2.5v23.6h-2l-.3-2.2h-.1ZM270.7,64.8c1.7,0,3-.5,3.7-1.4.8-.9,1.2-2.5,1.2-4.5v-.5c0-2.4-.4-4-1.2-5-.8-1-2-1.5-3.7-1.5s-2.6.6-3.4,1.7c-.8,1.1-1.2,2.8-1.2,4.9s.4,3.7,1.2,4.8c.8,1.1,1.9,1.6,3.4,1.6h0ZM284.8,66.6h-2.5v-16.6h2.5v16.6ZM282,45.5c0-.6.1-1,.4-1.3s.6-.4,1.1-.4.8,0,1,.4c.3.3.4.7.4,1.3s-.1,1-.4,1.3-.6.4-1,.4-.8,0-1.1-.4c-.3-.3-.4-.7-.4-1.3ZM299.6,62.1c0,1.5-.6,2.7-1.7,3.6-1.2.8-2.8,1.3-4.9,1.3s-3.9-.3-5.2-1v-2.3c.8.4,1.7.7,2.6,1,.9.2,1.8.3,2.7.3,1.3,0,2.3-.2,3-.6s1.1-1.1,1.1-1.9-.3-1.2-.9-1.7-1.6-1-3.3-1.6c-1.5-.6-2.6-1.1-3.3-1.5-.6-.4-1.1-.9-1.5-1.5-.3-.5-.5-1.2-.5-2,0-1.4.6-2.4,1.7-3.2s2.6-1.2,4.5-1.2,3.5.4,5.2,1.1l-.9,2c-1.7-.7-3.2-1-4.5-1s-2.1.2-2.7.6c-.6.4-.9.9-.9,1.5s.1.8.3,1.1c.2.3.6.6,1.1.9.5.3,1.5.7,2.9,1.2,2,.7,3.3,1.4,4,2.2.7.7,1,1.6,1,2.7h.2ZM309.5,66.9c-2.5,0-4.4-.7-5.8-2.2s-2.1-3.6-2.1-6.2.7-4.8,2-6.4c1.3-1.6,3.1-2.4,5.3-2.4s3.7.7,4.9,2.1c1.2,1.4,1.8,3.2,1.8,5.4v1.6h-11.5c0,2,.5,3.4,1.5,4.4.9,1,2.3,1.5,4,1.5s3.6-.4,5.3-1.1v2.2c-.9.4-1.7.7-2.5.8-.8.2-1.7.3-2.9.3h0ZM308.8,51.8c-1.3,0-2.4.4-3.2,1.3-.8.9-1.3,2.1-1.4,3.6h8.7c0-1.6-.4-2.8-1.1-3.6s-1.7-1.3-3-1.3ZM330,66.6v-10.8c0-1.4-.3-2.4-.9-3-.6-.7-1.6-1-2.9-1s-3,.5-3.8,1.4-1.2,2.5-1.2,4.7v8.7h-2.5v-16.6h2l.4,2.3h.1c.5-.8,1.2-1.5,2.2-1.9.9-.5,2-.7,3.1-.7,2,0,3.5.5,4.5,1.5s1.5,2.5,1.5,4.6v10.8h-2.5ZM328.1,47.8c-.4,0-.9,0-1.3-.3-.4-.2-.8-.4-1.2-.6-.4-.2-.8-.4-1.2-.6-.4-.2-.7-.3-1.1-.3s-.9.2-1.2.5c-.3.3-.5.8-.6,1.4h-1.5c.1-1.2.5-2.2,1.1-2.9s1.3-1,2.3-1,.9,0,1.4.3c.4.2.8.4,1.2.6.4.2.8.4,1.1.6.4.2.7.3,1,.3.5,0,.9,0,1.1-.4.2-.3.4-.8.6-1.4h1.5c-.1,1.2-.5,2.2-1.1,2.9s-1.3,1-2.3,1h.2ZM350.8,58.3c0,2.7-.7,4.8-2,6.4-1.4,1.5-3.3,2.3-5.7,2.3s-2.8-.3-4-1-2-1.7-2.7-3c-.6-1.3-.9-2.8-.9-4.6,0-2.7.7-4.8,2-6.3,1.4-1.5,3.2-2.3,5.6-2.3s4.2.8,5.5,2.3c1.4,1.5,2.1,3.6,2.1,6.3h.1ZM338.2,58.3c0,2.1.4,3.7,1.3,4.9.8,1.1,2.1,1.7,3.7,1.7s2.9-.6,3.7-1.7c.9-1.1,1.3-2.7,1.3-4.9s-.4-3.7-1.3-4.8-2.1-1.7-3.8-1.7-2.9.5-3.7,1.6c-.8,1.1-1.3,2.7-1.3,4.8h0ZM368.3,52h-4.2v14.7h-2.5v-14.7h-3v-1.1l3-.9v-.9c0-4.1,1.8-6.1,5.4-6.1s1.9.2,3.1.5l-.7,2c-1-.3-1.8-.5-2.5-.5s-1.7.3-2.1,1c-.5.6-.7,1.6-.7,3v1.1h4.2v2h0ZM372.5,50v10.8c0,1.4.3,2.4.9,3,.6.7,1.6,1,2.9,1s3-.5,3.8-1.4c.8-1,1.2-2.5,1.2-4.7v-8.7h2.5v16.6h-2.1l-.4-2.2h-.1c-.5.8-1.2,1.4-2.2,1.9-.9.4-2,.7-3.1.7-2,0-3.5-.5-4.6-1.4-1-1-1.5-2.5-1.5-4.6v-10.9h2.7ZM395,66.9c-2.5,0-4.4-.7-5.8-2.2s-2.1-3.6-2.1-6.2.7-4.8,2-6.4c1.3-1.6,3.1-2.4,5.3-2.4s3.7.7,4.9,2.1c1.2,1.4,1.8,3.2,1.8,5.4v1.6h-11.4c0,2,.5,3.4,1.5,4.4.9,1,2.3,1.5,4,1.5s3.6-.4,5.3-1.1v2.2c-.9.4-1.7.7-2.5.8-.8.2-1.7.3-2.9.3h0ZM394.3,51.8c-1.3,0-2.4.4-3.2,1.3-.8.9-1.3,2.1-1.4,3.6h8.7c0-1.6-.4-2.8-1.1-3.6s-1.7-1.3-3-1.3ZM421.2,66.6l-.5-2.4h-.1c-.8,1-1.7,1.7-2.5,2.1s-1.8.5-3.1.5-2.9-.4-3.9-1.3c-.9-.8-1.4-2.1-1.4-3.6,0-3.4,2.7-5.1,8.1-5.3h2.8v-1.1c0-1.3-.3-2.3-.8-2.9-.6-.6-1.5-.9-2.7-.9s-3,.4-4.7,1.3l-.8-1.9c.8-.4,1.7-.8,2.7-1,1-.3,2-.4,2.9-.4,2,0,3.4.4,4.4,1.3,1,.9,1.4,2.3,1.4,4.2v11.3h-1.9.1ZM415.5,64.9c1.6,0,2.8-.4,3.7-1.3.9-.9,1.4-2.1,1.4-3.6v-1.5h-2.5c-2,.2-3.4.5-4.3,1s-1.3,1.4-1.3,2.6.3,1.6.8,2.1c.6.5,1.3.7,2.3.7h-.1ZM433.7,66.9c-2.4,0-4.3-.7-5.6-2.2-1.3-1.5-2-3.6-2-6.3s.7-4.9,2-6.4,3.3-2.3,5.7-2.3,1.6,0,2.4.3c.8.2,1.4.4,1.9.6l-.8,2.1c-.6-.2-1.2-.4-1.8-.5-.7-.2-1.2-.2-1.7-.2-3.4,0-5.1,2.2-5.1,6.5s.4,3.6,1.2,4.7c.8,1.1,2.1,1.6,3.7,1.6s2.8-.3,4.3-.9v2.2c-1.1.6-2.5.9-4.2.9h0ZM446,64.9h1.3c.4,0,.7,0,1-.2v1.9c-.3,0-.7.2-1.2.3-.5,0-1,0-1.4,0-3.2,0-4.8-1.7-4.8-5.1v-9.9h-2.4v-1.2l2.4-1,1.1-3.5h1.5v3.9h4.8v2h-4.8v9.8c0,1,.2,1.8.7,2.3.5.5,1.1.8,2,.8l-.2-.2ZM452.7,50v10.8c0,1.4.3,2.4.9,3,.6.7,1.6,1,2.9,1s3-.5,3.8-1.4c.8-1,1.2-2.5,1.2-4.7v-8.7h2.5v16.6h-2.1l-.4-2.2h-.1c-.5.8-1.2,1.4-2.2,1.9-.9.4-2,.7-3.1.7-2,0-3.5-.5-4.5-1.4-1-1-1.5-2.5-1.5-4.6v-10.9h2.6ZM478.4,66.6l-.5-2.4h-.1c-.8,1-1.7,1.7-2.5,2.1s-1.8.5-3.1.5-2.9-.4-3.9-1.3c-.9-.8-1.4-2.1-1.4-3.6,0-3.4,2.7-5.1,8.1-5.3h2.8v-1.1c0-1.3-.3-2.3-.8-2.9-.6-.6-1.5-.9-2.7-.9s-3,.4-4.7,1.3l-.8-1.9c.8-.4,1.7-.8,2.7-1,1-.3,2-.4,2.9-.4,2,0,3.4.4,4.4,1.3,1,.9,1.4,2.3,1.4,4.2v11.3h-1.9.1ZM472.7,64.9c1.6,0,2.8-.4,3.7-1.3.9-.9,1.4-2.1,1.4-3.6v-1.5h-2.5c-2,.2-3.4.5-4.3,1s-1.3,1.4-1.3,2.6.3,1.6.8,2.1c.6.5,1.3.7,2.3.7h-.1ZM486.7,66.6h-2.5v-23.6h2.5v23.6ZM493.3,66.6h-2.5v-16.6h2.5v16.6ZM490.6,45.5c0-.6.1-1,.4-1.3s.6-.4,1.1-.4.8,0,1,.4c.3.3.4.7.4,1.3s-.1,1-.4,1.3-.6.4-1,.4-.8,0-1.1-.4c-.3-.3-.4-.7-.4-1.3ZM508.1,66.6h-12.1v-1.7l9.1-13h-8.5v-2h11.3v2l-8.9,12.7h9.2v2h-.1ZM520.9,66.6l-.5-2.4h0c-.8,1-1.7,1.7-2.5,2.1s-1.8.5-3.1.5-2.9-.4-3.9-1.3c-.9-.8-1.4-2.1-1.4-3.6,0-3.4,2.7-5.1,8.1-5.3h2.8v-1.1c0-1.3-.3-2.3-.9-2.9-.6-.6-1.5-.9-2.7-.9s-3,.4-4.7,1.3l-.8-1.9c.8-.4,1.7-.8,2.7-1,1-.3,2-.4,2.9-.4,2,0,3.4.4,4.4,1.3,1,.9,1.4,2.3,1.4,4.2v11.3h-1.9.2ZM515.3,64.9c1.6,0,2.8-.4,3.7-1.3.9-.9,1.3-2.1,1.3-3.6v-1.5h-2.5c-2,.2-3.4.5-4.3,1-.9.5-1.3,1.4-1.3,2.6s.3,1.6.8,2.1c.6.5,1.3.7,2.3.7ZM538.1,64.4h0c-1.2,1.7-2.9,2.5-5.2,2.5s-3.9-.7-5.1-2.2c-1.2-1.5-1.8-3.6-1.8-6.3s.6-4.9,1.8-6.4,2.9-2.3,5.1-2.3,4,.8,5.2,2.5h.2v-1.2c0,0-.2-1.2-.2-1.2v-6.8h2.5v23.6h-2l-.3-2.2h-.1ZM533,64.8c1.7,0,3-.5,3.7-1.4.8-.9,1.2-2.5,1.2-4.5v-.5c0-2.4-.4-4-1.2-5s-2-1.5-3.7-1.5-2.6.6-3.4,1.7c-.8,1.1-1.2,2.8-1.2,4.9s.4,3.7,1.2,4.8,1.9,1.6,3.4,1.6h0ZM558.9,58.3c0,2.7-.7,4.8-2,6.4-1.4,1.5-3.2,2.3-5.7,2.3s-2.8-.3-4-1-2-1.7-2.7-3c-.6-1.3-.9-2.8-.9-4.6,0-2.7.7-4.8,2-6.3,1.4-1.5,3.2-2.3,5.6-2.3s4.2.8,5.5,2.3c1.4,1.5,2.1,3.6,2.1,6.3h.1ZM546.3,58.3c0,2.1.4,3.7,1.3,4.9.8,1.1,2.1,1.7,3.7,1.7s2.9-.6,3.7-1.7c.9-1.1,1.3-2.7,1.3-4.9s-.4-3.7-1.3-4.8c-.8-1.1-2.1-1.7-3.8-1.7s-2.9.5-3.7,1.6-1.3,2.7-1.3,4.8h0Z"/>
  <rect class="st3" x="286.8" y="298" width="411.7" height="120.1" rx="58.2" ry="58.2"/>
  <path class="st3" d="M701.7,436.5c-30.1-7-35-29.6-33.6-40.1l-32.8,8.8c2.1,13.9,18.4,39.6,66.5,31.2h-.1Z"/>
  <path class="st0" d="M357,347.6c-2.4,0-4.4.8-5.8,2.4s-2.1,3.8-2.1,6.7.7,5.1,2,6.7c1.4,1.6,3.3,2.4,5.8,2.4s3.3-.3,5.3-.8v2.3c-1.5.6-3.4.9-5.7.9-3.3,0-5.8-1-7.6-3-1.8-2-2.7-4.8-2.7-8.4s.4-4.3,1.3-6,2.1-3,3.7-4c1.6-.9,3.5-1.4,5.7-1.4s4.4.4,6.1,1.3l-1.1,2.2c-1.7-.8-3.4-1.2-5-1.2h.1ZM375.7,367.8l-.5-2.4h-.1c-.8,1-1.7,1.7-2.5,2.1s-1.8.5-3.1.5-2.9-.4-3.9-1.3c-.9-.8-1.4-2.1-1.4-3.6,0-3.4,2.7-5.1,8.1-5.3h2.8v-1.1c0-1.3-.3-2.3-.8-2.9-.6-.6-1.5-.9-2.7-.9s-3,.4-4.7,1.3l-.8-1.9c.8-.4,1.7-.8,2.7-1,1-.3,2-.4,2.9-.4,2,0,3.4.4,4.4,1.3s1.4,2.3,1.4,4.2v11.3h-1.9.1ZM370,366c1.6,0,2.8-.4,3.7-1.3.9-.9,1.4-2.1,1.4-3.6v-1.5h-2.5c-2,.2-3.4.5-4.3,1s-1.3,1.4-1.3,2.6.3,1.6.8,2.1c.6.5,1.3.7,2.3.7h-.1ZM402.7,367.8v-10.8c0-1.3-.3-2.3-.8-3-.6-.7-1.4-1-2.6-1s-2.7.4-3.5,1.3c-.7.9-1.1,2.3-1.1,4.2v9.3h-2.5v-10.8c0-1.3-.3-2.3-.8-3-.6-.7-1.5-1-2.7-1s-2.7.5-3.5,1.4c-.7.9-1.1,2.5-1.1,4.6v8.7h-2.5v-16.6h2l.4,2.3h.1c.5-.8,1.1-1.4,2-1.9s1.8-.7,2.9-.7c2.6,0,4.3.9,5.1,2.8h.1c.5-.9,1.2-1.6,2.2-2.1.9-.5,2-.8,3.2-.8,1.9,0,3.3.5,4.2,1.5.9,1,1.4,2.5,1.4,4.6v10.8h-2.5v.2ZM416.9,350.9c2.2,0,3.9.7,5.1,2.2s1.8,3.6,1.8,6.3-.6,4.9-1.8,6.4c-1.2,1.5-2.9,2.3-5.1,2.3s-2.1-.2-3-.6-1.6-1-2.2-1.9h-.2l-.5,2.1h-1.8v-23.6h2.5v5.7c0,1.3,0,2.4-.1,3.5h.1c1.2-1.7,2.9-2.5,5.2-2.5h0ZM416.5,353c-1.7,0-3,.5-3.7,1.5-.8,1-1.1,2.6-1.1,5s.4,4,1.2,5c.8,1,2,1.5,3.7,1.5s2.7-.6,3.5-1.7,1.1-2.8,1.1-4.9-.4-3.8-1.1-4.8c-.8-1.1-1.9-1.6-3.5-1.6h-.1ZM429.5,367.8h-2.5v-16.6h2.5v16.6ZM426.7,346.7c0-.6.1-1,.4-1.3s.6-.4,1.1-.4.8.1,1,.4c.3.3.4.7.4,1.3s-.1,1-.4,1.3-.6.4-1,.4-.8-.1-1.1-.4c-.3-.3-.4-.7-.4-1.3ZM447.9,359.5c0,2.7-.7,4.8-2,6.4-1.4,1.5-3.2,2.3-5.7,2.3s-2.8-.3-4-1-2-1.7-2.7-3c-.6-1.3-.9-2.8-.9-4.6,0-2.7.7-4.8,2-6.3,1.4-1.5,3.2-2.3,5.6-2.3s4.2.8,5.5,2.3c1.4,1.5,2.1,3.6,2.1,6.3h.1ZM435.3,359.5c0,2.1.4,3.7,1.3,4.9s2.1,1.7,3.7,1.7,2.9-.6,3.7-1.7c.9-1.1,1.3-2.7,1.3-4.9s-.4-3.7-1.3-4.8c-.8-1.1-2.1-1.7-3.8-1.7s-2.9.5-3.7,1.6-1.3,2.7-1.3,4.8h0ZM461.8,363.3c0,1.5-.6,2.7-1.7,3.6-1.2.8-2.8,1.3-4.9,1.3s-3.9-.3-5.2-1v-2.3c.8.4,1.7.7,2.6,1,.9.2,1.8.3,2.7.3,1.3,0,2.3-.2,3-.6s1.1-1.1,1.1-1.9-.3-1.2-.9-1.7-1.6-1-3.3-1.6c-1.5-.6-2.6-1.1-3.3-1.5-.6-.4-1.1-.9-1.5-1.5-.3-.5-.5-1.2-.5-2,0-1.4.6-2.4,1.7-3.2,1.1-.8,2.6-1.2,4.5-1.2s3.5.4,5.2,1.1l-.9,2c-1.7-.7-3.2-1-4.5-1s-2.1.2-2.7.6-.9.9-.9,1.5.1.8.3,1.1c.2.3.6.6,1.1.9s1.5.7,2.9,1.2c2,.7,3.3,1.4,4,2.2.7.7,1,1.6,1,2.7h.2ZM479.1,350.9c.7,0,1.4,0,2,.2l-.3,2.3c-.7-.2-1.3-.2-1.8-.2-1.3,0-2.5.5-3.5,1.6-.9,1.1-1.4,2.5-1.4,4.1v8.9h-2.5v-16.6h2.1l.3,3.1h.1c.6-1.1,1.4-1.9,2.2-2.5.9-.6,1.8-.9,2.9-.9h-.1ZM490,368.1c-2.5,0-4.4-.7-5.8-2.2s-2.1-3.6-2.1-6.2.7-4.8,2-6.4,3.1-2.4,5.3-2.4,3.7.7,4.9,2.1c1.2,1.4,1.8,3.2,1.8,5.4v1.6h-11.5c0,2,.5,3.4,1.5,4.4.9,1,2.3,1.5,4,1.5s3.6-.4,5.3-1.1v2.2c-.9.4-1.7.7-2.5.8-.8.2-1.7.3-2.9.3h0ZM489.3,353c-1.3,0-2.4.4-3.2,1.3-.8.9-1.3,2.1-1.4,3.6h8.7c0-1.6-.4-2.8-1.1-3.6-.7-.8-1.7-1.3-3-1.3ZM509.4,367.8l-.5-2.4h-.1c-.8,1-1.7,1.7-2.5,2.1s-1.8.5-3.1.5-2.9-.4-3.9-1.3c-.9-.8-1.4-2.1-1.4-3.6,0-3.4,2.7-5.1,8.1-5.3h2.8v-1.1c0-1.3-.3-2.3-.8-2.9-.6-.6-1.5-.9-2.7-.9s-3,.4-4.7,1.3l-.8-1.9c.8-.4,1.7-.8,2.7-1,1-.3,2-.4,2.9-.4,2,0,3.4.4,4.4,1.3s1.4,2.3,1.4,4.2v11.3h-1.9.1ZM503.7,366c1.6,0,2.8-.4,3.7-1.3.9-.9,1.4-2.1,1.4-3.6v-1.5h-2.5c-2,.2-3.4.5-4.3,1s-1.3,1.4-1.3,2.6.3,1.6.8,2.1c.6.5,1.3.7,2.3.7h-.1ZM517.7,367.8h-2.5v-23.6h2.5v23.6ZM524.3,367.8h-2.5v-16.6h2.5v16.6ZM521.6,346.7c0-.6,0-1,.4-1.3.3-.3.6-.4,1.1-.4s.8.1,1,.4c.3.3.4.7.4,1.3s0,1-.4,1.3c-.3.3-.6.4-1,.4s-.8-.1-1.1-.4-.4-.7-.4-1.3ZM539.1,367.8h-12.1v-1.7l9.1-13h-8.5v-2h11.3v2l-8.9,12.7h9.2v2h0ZM551.9,367.8l-.5-2.4h0c-.8,1-1.7,1.7-2.5,2.1s-1.8.5-3.1.5-2.9-.4-3.9-1.3c-.9-.8-1.4-2.1-1.4-3.6,0-3.4,2.7-5.1,8.1-5.3h2.8v-1.1c0-1.3-.3-2.3-.8-2.9-.6-.6-1.5-.9-2.7-.9s-3,.4-4.7,1.3l-.8-1.9c.8-.4,1.7-.8,2.7-1,1-.3,2-.4,2.9-.4,2,0,3.4.4,4.4,1.3s1.4,2.3,1.4,4.2v11.3h-1.9,0ZM546.2,366c1.6,0,2.8-.4,3.7-1.3s1.4-2.1,1.4-3.6v-1.5h-2.5c-2,.2-3.4.5-4.3,1-.9.5-1.3,1.4-1.3,2.6s.3,1.6.8,2.1c.6.5,1.3.7,2.3.7h-.1ZM569.1,365.6h0c-1.2,1.7-2.9,2.5-5.2,2.5s-3.9-.7-5.1-2.2c-1.2-1.5-1.8-3.6-1.8-6.3s.6-4.9,1.8-6.4,2.9-2.3,5.1-2.3,4,.8,5.2,2.5h.2v-1.2c0,0-.2-1.2-.2-1.2v-6.8h2.5v23.6h-2l-.3-2.2h-.1ZM564,366c1.7,0,3-.5,3.7-1.4.8-.9,1.2-2.5,1.2-4.5v-.5c0-2.4-.4-4-1.2-5s-2-1.5-3.7-1.5-2.6.6-3.4,1.7c-.8,1.1-1.2,2.8-1.2,4.9s.4,3.7,1.2,4.8c.8,1.1,1.9,1.6,3.4,1.6h0ZM589.9,359.5c0,2.7-.7,4.8-2,6.4-1.4,1.5-3.2,2.3-5.7,2.3s-2.8-.3-4-1-2-1.7-2.7-3c-.6-1.3-.9-2.8-.9-4.6,0-2.7.7-4.8,2-6.3,1.4-1.5,3.2-2.3,5.6-2.3s4.2.8,5.5,2.3c1.4,1.5,2.1,3.6,2.1,6.3h.1ZM577.2,359.5c0,2.1.4,3.7,1.3,4.9.9,1.1,2.1,1.7,3.7,1.7s2.9-.6,3.7-1.7c.9-1.1,1.3-2.7,1.3-4.9s-.4-3.7-1.3-4.8c-.8-1.1-2.1-1.7-3.8-1.7s-2.9.5-3.7,1.6-1.3,2.7-1.3,4.8h0ZM603.8,363.3c0,1.5-.6,2.7-1.7,3.6-1.2.8-2.8,1.3-4.9,1.3s-3.9-.3-5.2-1v-2.3c.8.4,1.7.7,2.6,1,.9.2,1.8.3,2.7.3,1.3,0,2.3-.2,3-.6s1.1-1.1,1.1-1.9-.3-1.2-.8-1.7c-.6-.5-1.6-1-3.3-1.6-1.5-.6-2.6-1.1-3.3-1.5-.6-.4-1.1-.9-1.5-1.5-.3-.5-.5-1.2-.5-2,0-1.4.6-2.4,1.7-3.2,1.1-.8,2.6-1.2,4.5-1.2s3.5.4,5.2,1.1l-.9,2c-1.7-.7-3.2-1-4.5-1s-2.1.2-2.7.6c-.6.4-.9.9-.9,1.5s0,.8.3,1.1c.2.3.6.6,1.1.9s1.5.7,2.9,1.2c2,.7,3.3,1.4,4,2.2.7.7,1,1.6,1,2.7h.1ZM609,361.7h-1.6l-.8-16.1h3.1l-.8,16.1h0ZM606.3,366.2c0-1.4.6-2.1,1.8-2.1s1,.2,1.3.5c.3.4.5.9.5,1.5s-.2,1.2-.5,1.5c-.3.4-.8.5-1.3.5s-1-.2-1.3-.5-.5-.8-.5-1.6v.2Z"/>
  <path class="st3" d="M56.3,220.4h-2.6v-19.9h-7v-2.3h16.6v2.3h-7s0,19.9,0,19.9ZM72.1,220.7c-2.5,0-4.4-.7-5.8-2.2s-2.1-3.6-2.1-6.2.7-4.8,2-6.4c1.3-1.6,3.1-2.4,5.3-2.4s3.7.7,4.9,2.1c1.2,1.4,1.8,3.2,1.8,5.4v1.6h-11.4c0,2,.5,3.4,1.5,4.4.9,1,2.3,1.5,4,1.5s3.6-.4,5.3-1.1v2.2c-.9.4-1.7.7-2.5.8-.8.2-1.7.3-2.9.3h-.1ZM71.4,205.6c-1.3,0-2.4.4-3.2,1.3-.8.9-1.3,2.1-1.4,3.6h8.7c0-1.6-.4-2.8-1.1-3.6s-1.7-1.3-3-1.3ZM99.4,218.2h0c-1.2,1.7-2.9,2.5-5.2,2.5s-3.9-.7-5.1-2.2-1.8-3.6-1.8-6.3.6-4.9,1.8-6.4c1.2-1.5,2.9-2.3,5.1-2.3s4,.8,5.2,2.5h.2v-1.2c0,0-.2-1.2-.2-1.2v-6.8h2.5v23.6h-2l-.3-2.2h0ZM94.4,218.6c1.7,0,3-.5,3.7-1.4.8-.9,1.2-2.5,1.2-4.5v-.5c0-2.4-.4-4-1.2-5-.8-1-2-1.5-3.7-1.5s-2.6.6-3.4,1.7c-.8,1.1-1.2,2.8-1.2,4.9s.4,3.7,1.2,4.8c.8,1.1,1.9,1.6,3.4,1.6h0ZM112.9,220.7c-2.5,0-4.4-.7-5.8-2.2s-2.1-3.6-2.1-6.2.7-4.8,2-6.4c1.3-1.6,3.1-2.4,5.3-2.4s3.7.7,4.9,2.1c1.2,1.4,1.8,3.2,1.8,5.4v1.6h-11.4c0,2,.5,3.4,1.5,4.4.9,1,2.3,1.5,4,1.5s3.6-.4,5.3-1.1v2.2c-.9.4-1.7.7-2.5.8-.8.2-1.7.3-2.9.3h-.1ZM112.2,205.6c-1.3,0-2.4.4-3.2,1.3-.8.9-1.3,2.1-1.4,3.6h8.7c0-1.6-.4-2.8-1.1-3.6s-1.7-1.3-3-1.3ZM120.1,227.9c-1,0-1.7-.1-2.3-.4v-2c.7.2,1.4.3,2.1.3s1.4-.2,1.7-.7c.4-.4.6-1.1.6-2v-19.4h2.5v19.2c0,3.3-1.5,4.9-4.5,4.9h0ZM121.9,199.3c0-.6,0-1,.4-1.3s.6-.4,1.1-.4.8.1,1,.4c.3.3.4.7.4,1.3s0,1-.4,1.3-.6.4-1,.4-.8-.1-1.1-.4c-.3-.3-.4-.7-.4-1.3ZM135.7,220.7c-2.5,0-4.4-.7-5.8-2.2-1.4-1.5-2.1-3.6-2.1-6.2s.7-4.8,2-6.4c1.3-1.6,3.1-2.4,5.3-2.4s3.7.7,4.9,2.1c1.2,1.4,1.8,3.2,1.8,5.4v1.6h-11.4c0,2,.5,3.4,1.5,4.4.9,1,2.3,1.5,4,1.5s3.6-.4,5.3-1.1v2.2c-.9.4-1.7.7-2.5.8-.8.2-1.7.3-2.9.3h-.1ZM135.1,205.6c-1.3,0-2.4.4-3.2,1.3-.8.9-1.3,2.1-1.4,3.6h8.7c0-1.6-.4-2.8-1.1-3.6-.7-.8-1.7-1.3-3-1.3ZM162,220.4l-.5-2.4h-.1c-.8,1-1.7,1.7-2.5,2.1-.8.4-1.8.5-3.1.5s-2.9-.4-3.9-1.3c-.9-.8-1.4-2.1-1.4-3.6,0-3.4,2.7-5.1,8.1-5.3h2.8v-1.1c0-1.3-.3-2.3-.8-2.9-.6-.6-1.4-.9-2.7-.9s-3,.4-4.7,1.3l-.8-1.9c.8-.4,1.7-.8,2.7-1,1-.3,2-.4,2.9-.4,2,0,3.4.4,4.4,1.3,1,.9,1.4,2.3,1.4,4.2v11.3h-1.9.1ZM156.3,218.6c1.6,0,2.8-.4,3.7-1.3.9-.9,1.4-2.1,1.4-3.6v-1.5h-2.5c-2,.2-3.4.5-4.3,1-.9.5-1.3,1.4-1.3,2.6s.3,1.6.8,2.1c.6.5,1.3.7,2.3.7h0ZM170.3,220.4h-2.5v-23.6h2.5v23.6ZM188,203.8v1.6l-3.1.4c.3.4.5.8.8,1.4.2.6.3,1.2.3,1.9,0,1.6-.6,2.9-1.7,3.9-1.1,1-2.6,1.5-4.6,1.5s-1,0-1.4-.1c-1.1.6-1.6,1.3-1.6,2.1s.2.8.6,1c.4.2,1,.3,1.9.3h2.9c1.8,0,3.2.4,4.1,1.1,1,.8,1.5,1.9,1.5,3.3s-.7,3.2-2.2,4.2-3.6,1.5-6.5,1.5-3.9-.4-5-1.2c-1.2-.8-1.8-2-1.8-3.4s.3-1.9,1-2.6c.6-.7,1.6-1.2,2.7-1.5-.4-.2-.8-.5-1.1-.9s-.4-.9-.4-1.4.2-1.1.5-1.6.8-.9,1.5-1.3c-.9-.4-1.6-1-2.1-1.8s-.8-1.8-.8-2.9c0-1.8.5-3.2,1.6-4.2s2.6-1.5,4.6-1.5,1.7.1,2.4.3h5.9ZM174.8,223.2c0,.9.4,1.6,1.1,2,.8.5,1.8.7,3.3.7s3.7-.3,4.7-1c1-.6,1.5-1.5,1.5-2.6s-.3-1.5-.8-1.9c-.6-.3-1.6-.5-3.1-.5h-3c-1.1,0-2,.3-2.7.8-.6.5-1,1.3-1,2.3v.2ZM176.1,209.1c0,1.2.3,2,1,2.6s1.6.9,2.7.9c2.5,0,3.7-1.2,3.7-3.6s-1.2-3.7-3.7-3.7-2.1.3-2.7,1c-.6.6-1,1.6-1,2.8ZM192.5,203.8v10.8c0,1.4.3,2.4.9,3,.6.7,1.6,1,2.9,1s3-.5,3.8-1.4c.8-1,1.2-2.5,1.2-4.7v-8.7h2.5v16.6h-2.1l-.4-2.2h-.1c-.5.8-1.2,1.4-2.2,1.9-.9.4-2,.7-3.1.7-2,0-3.5-.5-4.6-1.4-1-1-1.5-2.5-1.5-4.6v-10.9h2.7ZM219.4,220.4v-10.8c0-1.4-.3-2.4-.9-3-.6-.7-1.6-1-2.9-1s-3,.5-3.8,1.4-1.2,2.5-1.2,4.7v8.7h-2.5v-16.6h2l.4,2.3h.1c.5-.8,1.2-1.5,2.2-1.9.9-.5,2-.7,3.1-.7,2,0,3.5.5,4.5,1.5s1.5,2.5,1.5,4.6v10.8h-2.5ZM236.1,220.4l-.5-2.4h-.1c-.8,1-1.7,1.7-2.5,2.1-.8.4-1.8.5-3.1.5s-2.9-.4-3.9-1.3c-.9-.8-1.4-2.1-1.4-3.6,0-3.4,2.7-5.1,8.1-5.3h2.8v-1.1c0-1.3-.3-2.3-.8-2.9-.6-.6-1.5-.9-2.7-.9s-3,.4-4.7,1.3l-.8-1.9c.8-.4,1.7-.8,2.7-1,1-.3,2-.4,2.9-.4,2,0,3.4.4,4.4,1.3,1,.9,1.4,2.3,1.4,4.2v11.3h-1.9.1ZM230.4,218.6c1.6,0,2.8-.4,3.7-1.3.9-.9,1.3-2.1,1.3-3.6v-1.5h-2.5c-2,.2-3.4.5-4.3,1-.9.5-1.3,1.4-1.3,2.6s.3,1.6.8,2.1c.6.5,1.3.7,2.3.7ZM252.6,215.9c0,1.5-.6,2.7-1.7,3.6-1.2.8-2.8,1.3-4.9,1.3s-3.9-.3-5.2-1v-2.3c.8.4,1.7.7,2.6,1,.9.2,1.8.3,2.7.3,1.3,0,2.3-.2,3-.6.7-.4,1.1-1.1,1.1-1.9s-.3-1.2-.8-1.7c-.6-.5-1.6-1-3.3-1.6-1.5-.6-2.6-1.1-3.3-1.5-.6-.4-1.1-.9-1.5-1.5-.3-.5-.5-1.2-.5-2,0-1.4.6-2.4,1.7-3.2,1.1-.8,2.6-1.2,4.5-1.2s3.5.4,5.2,1.1l-.9,2c-1.7-.7-3.2-1-4.5-1s-2.1.2-2.7.6c-.6.4-.9.9-.9,1.5s.1.8.3,1.1.6.6,1.1.9c.5.3,1.5.7,2.9,1.2,2,.7,3.3,1.4,4,2.2.7.7,1,1.6,1,2.7h0ZM269,220.7c-2.4,0-4.3-.7-5.6-2.2-1.3-1.5-2-3.6-2-6.3s.7-4.9,2-6.4,3.3-2.3,5.7-2.3,1.6,0,2.4.3,1.4.4,1.9.6l-.8,2.1c-.6-.2-1.2-.4-1.8-.5-.7-.2-1.2-.2-1.7-.2-3.4,0-5.1,2.2-5.1,6.5s.4,3.6,1.2,4.7c.8,1.1,2.1,1.6,3.7,1.6s2.8-.3,4.3-.9v2.2c-1.1.6-2.5.9-4.2.9h0ZM290.2,212.1c0,2.7-.7,4.8-2,6.4-1.4,1.5-3.3,2.3-5.7,2.3s-2.8-.3-4-1-2-1.7-2.7-3c-.6-1.3-.9-2.8-.9-4.6,0-2.7.7-4.8,2-6.3,1.4-1.5,3.2-2.3,5.6-2.3s4.2.8,5.5,2.3c1.4,1.5,2.1,3.6,2.1,6.3h.1ZM277.5,212.1c0,2.1.4,3.7,1.3,4.9s2.1,1.7,3.7,1.7,2.9-.6,3.7-1.7c.9-1.1,1.3-2.7,1.3-4.9s-.4-3.7-1.3-4.8-2.1-1.7-3.8-1.7-2.9.5-3.7,1.6c-.8,1.1-1.3,2.7-1.3,4.8h0ZM301,203.5c.7,0,1.4,0,2,.2l-.3,2.3c-.7-.2-1.3-.2-1.8-.2-1.3,0-2.5.5-3.5,1.6s-1.4,2.5-1.4,4.1v8.9h-2.5v-16.6h2.1l.3,3.1h.1c.6-1.1,1.4-1.9,2.2-2.5.9-.6,1.8-.9,2.9-.9h-.1ZM312.4,203.5c.7,0,1.4,0,2,.2l-.3,2.3c-.7-.2-1.3-.2-1.8-.2-1.3,0-2.5.5-3.5,1.6s-1.4,2.5-1.4,4.1v8.9h-2.5v-16.6h2.1l.3,3.1h.1c.6-1.1,1.4-1.9,2.2-2.5.9-.6,1.8-.9,2.9-.9h-.1ZM323.3,220.7c-2.5,0-4.4-.7-5.8-2.2s-2.1-3.6-2.1-6.2.7-4.8,2-6.4c1.3-1.6,3.1-2.4,5.3-2.4s3.7.7,4.9,2.1c1.2,1.4,1.8,3.2,1.8,5.4v1.6h-11.4c0,2,.5,3.4,1.5,4.4.9,1,2.3,1.5,4,1.5s3.6-.4,5.3-1.1v2.2c-.9.4-1.7.7-2.5.8-.8.2-1.7.3-2.9.3h0ZM322.6,205.6c-1.3,0-2.4.4-3.2,1.3-.8.9-1.3,2.1-1.4,3.6h8.7c0-1.6-.4-2.8-1.1-3.6s-1.7-1.3-3-1.3ZM339.1,220.7c-2.4,0-4.3-.7-5.6-2.2-1.3-1.5-2-3.6-2-6.3s.7-4.9,2-6.4,3.3-2.3,5.7-2.3,1.6,0,2.4.3c.8.2,1.4.4,1.9.6l-.8,2.1c-.6-.2-1.2-.4-1.8-.5-.7-.2-1.2-.2-1.7-.2-3.4,0-5.1,2.2-5.1,6.5s.4,3.6,1.2,4.7c.8,1.1,2.1,1.6,3.7,1.6s2.8-.3,4.3-.9v2.2c-1.1.6-2.5.9-4.2.9h0ZM352.7,220.7c-2.4,0-4.3-.7-5.6-2.2-1.3-1.5-2-3.6-2-6.3s.7-4.9,2-6.4,3.3-2.3,5.7-2.3,1.6,0,2.4.3c.8.2,1.4.4,1.9.6l-.8,2.1c-.6-.2-1.2-.4-1.8-.5-.7-.2-1.2-.2-1.7-.2-3.4,0-5.1,2.2-5.1,6.5s.4,3.6,1.2,4.7c.8,1.1,2.1,1.6,3.7,1.6s2.8-.3,4.3-.9v2.2c-1.1.6-2.5.9-4.2.9h0ZM362.1,220.4h-2.5v-16.6h2.5v16.6ZM359.4,199.3c0-.6.1-1,.4-1.3s.6-.4,1.1-.4.8.1,1,.4c.3.3.4.7.4,1.3s-.1,1-.4,1.3-.6.4-1,.4-.8-.1-1.1-.4c-.3-.3-.4-.7-.4-1.3ZM380.5,212.1c0,2.7-.7,4.8-2,6.4-1.4,1.5-3.2,2.3-5.7,2.3s-2.8-.3-4-1-2-1.7-2.7-3c-.6-1.3-.9-2.8-.9-4.6,0-2.7.7-4.8,2-6.3,1.4-1.5,3.2-2.3,5.6-2.3s4.2.8,5.5,2.3c1.4,1.5,2.1,3.6,2.1,6.3h.1ZM367.9,212.1c0,2.1.4,3.7,1.3,4.9.8,1.1,2.1,1.7,3.7,1.7s2.9-.6,3.7-1.7c.9-1.1,1.3-2.7,1.3-4.9s-.4-3.7-1.3-4.8c-.8-1.1-2.1-1.7-3.8-1.7s-2.9.5-3.7,1.6c-.8,1.1-1.3,2.7-1.3,4.8h0ZM395.1,220.4v-10.8c0-1.4-.3-2.4-.9-3-.6-.7-1.6-1-2.9-1s-3,.5-3.8,1.4-1.2,2.5-1.2,4.7v8.7h-2.5v-16.6h2l.4,2.3h.1c.5-.8,1.2-1.5,2.2-1.9.9-.5,2-.7,3.1-.7,2,0,3.5.5,4.5,1.5s1.5,2.5,1.5,4.6v10.8h-2.5ZM408.6,220.7c-2.5,0-4.4-.7-5.8-2.2s-2.1-3.6-2.1-6.2.7-4.8,2-6.4c1.3-1.6,3.1-2.4,5.3-2.4s3.7.7,4.9,2.1c1.2,1.4,1.8,3.2,1.8,5.4v1.6h-11.5c0,2,.5,3.4,1.5,4.4.9,1,2.3,1.5,4,1.5s3.6-.4,5.3-1.1v2.2c-.9.4-1.7.7-2.5.8-.8.2-1.7.3-2.9.3h0ZM407.9,205.6c-1.3,0-2.4.4-3.2,1.3-.8.9-1.3,2.1-1.4,3.6h8.7c0-1.6-.4-2.8-1.1-3.6s-1.7-1.3-3-1.3ZM428.5,215.9c0,1.5-.6,2.7-1.7,3.6-1.2.8-2.8,1.3-4.9,1.3s-3.9-.3-5.2-1v-2.3c.8.4,1.7.7,2.6,1,.9.2,1.8.3,2.7.3,1.3,0,2.3-.2,3-.6.7-.4,1.1-1.1,1.1-1.9s-.3-1.2-.8-1.7c-.6-.5-1.6-1-3.3-1.6-1.5-.6-2.6-1.1-3.3-1.5-.6-.4-1.1-.9-1.5-1.5-.3-.5-.5-1.2-.5-2,0-1.4.6-2.4,1.7-3.2s2.6-1.2,4.5-1.2,3.5.4,5.2,1.1l-.9,2c-1.7-.7-3.2-1-4.5-1s-2.1.2-2.7.6c-.6.4-.9.9-.9,1.5s.1.8.3,1.1c.2.3.6.6,1.1.9.5.3,1.5.7,2.9,1.2,2,.7,3.3,1.4,4,2.2.7.7,1,1.6,1,2.7h0Z"/>
  <g>
    <rect class="st0" x="102.5" y="447" width="322" height="120.2" rx="58.2" ry="58.2"/>
    <path class="st0" d="M99.3,585.5c30.1-7,35-29.6,33.6-40l32.8,8.8c-2.1,13.9-18.4,39.6-66.5,31.2h.1Z"/>
  </g>
  <path class="st3" d="M175.2,496.2v14.3c0,2.5-.8,4.5-2.3,6-1.5,1.4-3.6,2.2-6.3,2.2s-4.7-.7-6.2-2.2-2.2-3.5-2.2-6v-14.3h2.6v14.5c0,1.8.5,3.3,1.5,4.3s2.5,1.5,4.5,1.5,3.3-.5,4.3-1.5,1.5-2.4,1.5-4.3v-14.4h2.6,0ZM197.5,503.7h-4.2v14.7h-2.5v-14.7h-3v-1.1l3-.9v-.9c0-4.1,1.8-6.1,5.4-6.1s1.9.2,3.1.5l-.7,2c-1-.3-1.8-.5-2.5-.5s-1.7.3-2.1,1c-.5.6-.7,1.6-.7,3v1.1h4.2v2h0ZM186.9,503.7h-4.2v14.7h-2.5v-14.7h-3v-1.1l3-.9v-.9c0-4.1,1.8-6.1,5.4-6.1s1.9.2,3.1.5l-.7,2c-1-.3-1.8-.5-2.5-.5s-1.7.3-2.1,1c-.5.6-.7,1.6-.7,3v1.1h4.2v2h0ZM201.9,514.8l.2.3c-.3,1-.6,2.2-1.1,3.5s-1,2.6-1.5,3.7h-1.9c.3-1.1.6-2.4.9-3.9.3-1.5.6-2.8.7-3.7h2.8,0ZM220.2,518.7c-1.1,0-2.1-.2-3-.6-.9-.4-1.6-1-2.2-1.8h-.2c.1,1,.2,1.9.2,2.8v6.8h-2.5v-24.1h2l.3,2.3h.1c.6-.9,1.4-1.6,2.3-2,.9-.4,1.8-.6,3-.6,2.2,0,3.9.8,5.1,2.3,1.2,1.5,1.8,3.6,1.8,6.3s-.6,4.9-1.8,6.4-2.9,2.3-5.1,2.3h0ZM219.9,503.6c-1.7,0-2.9.5-3.7,1.4s-1.1,2.4-1.2,4.5v.6c0,2.3.4,4,1.2,5s2,1.5,3.7,1.5,2.6-.6,3.4-1.7c.8-1.2,1.2-2.8,1.2-4.8s-.4-3.7-1.2-4.8c-.8-1.1-2-1.7-3.4-1.7h0ZM237.3,518.7c-2.5,0-4.4-.7-5.8-2.2-1.4-1.5-2.1-3.6-2.1-6.2s.7-4.8,2-6.4,3.1-2.4,5.3-2.4,3.7.7,4.9,2.1,1.8,3.2,1.8,5.4v1.6h-11.4c0,2,.5,3.4,1.5,4.4.9,1,2.3,1.5,4,1.5s3.6-.4,5.3-1.1v2.2c-.9.4-1.7.7-2.5.8-.8.2-1.7.3-2.9.3h-.1ZM236.6,503.6c-1.3,0-2.4.4-3.2,1.3s-1.3,2.1-1.4,3.6h8.7c0-1.6-.4-2.8-1.1-3.6-.7-.8-1.7-1.3-3-1.3ZM254.1,501.5c.7,0,1.4,0,2,.2l-.3,2.3c-.7-.2-1.3-.2-1.8-.2-1.3,0-2.5.5-3.5,1.6-.9,1.1-1.4,2.5-1.4,4.1v8.9h-2.5v-16.6h2.1l.3,3.1h.1c.6-1.1,1.4-1.9,2.2-2.5.9-.6,1.8-.9,2.9-.9h-.1ZM265.4,503.7h-4.2v14.7h-2.5v-14.7h-3v-1.1l3-.9v-.9c0-4.1,1.8-6.1,5.4-6.1s1.9.2,3.1.5l-.7,2c-1-.3-1.8-.5-2.5-.5s-1.7.3-2.1,1c-.5.6-.7,1.6-.7,3v1.1h4.2v2h0ZM274.2,518.7c-2.5,0-4.4-.7-5.8-2.2s-2.1-3.6-2.1-6.2.7-4.8,2-6.4,3.1-2.4,5.3-2.4,3.7.7,4.9,2.1c1.2,1.4,1.8,3.2,1.8,5.4v1.6h-11.4c0,2,.5,3.4,1.5,4.4.9,1,2.3,1.5,4,1.5s3.6-.4,5.3-1.1v2.2c-.9.4-1.7.7-2.5.8-.8.2-1.7.3-2.9.3h0ZM273.5,503.6c-1.3,0-2.4.4-3.2,1.3-.8.9-1.3,2.1-1.4,3.6h8.7c0-1.6-.4-2.8-1.1-3.6-.7-.8-1.7-1.3-3-1.3ZM290,518.7c-2.4,0-4.3-.7-5.6-2.2-1.3-1.5-2-3.6-2-6.3s.7-4.9,2-6.4,3.3-2.3,5.7-2.3,1.6,0,2.4.3c.8.2,1.4.4,1.9.6l-.8,2.1c-.6-.2-1.2-.4-1.8-.5-.7-.2-1.2-.2-1.7-.2-3.4,0-5.1,2.2-5.1,6.5s.4,3.6,1.2,4.7c.8,1.1,2.1,1.6,3.7,1.6s2.8-.3,4.3-.9v2.2c-1.1.6-2.5.9-4.2.9h0ZM302.3,516.6h1.3c.4,0,.7,0,1-.2v1.9c-.3,0-.7.2-1.2.3-.5,0-1,0-1.4,0-3.2,0-4.8-1.7-4.8-5.1v-9.9h-2.4v-1.2l2.4-1,1.1-3.5h1.5v3.9h4.8v2h-4.8v9.8c0,1,.2,1.8.7,2.3s1.1.8,2,.8l-.2-.2ZM321,510.1c0,2.7-.7,4.8-2,6.4-1.4,1.5-3.2,2.3-5.7,2.3s-2.8-.3-4-1-2-1.7-2.7-3c-.6-1.3-.9-2.8-.9-4.6,0-2.7.7-4.8,2-6.3,1.4-1.5,3.2-2.3,5.6-2.3s4.2.8,5.5,2.3c1.4,1.5,2.1,3.6,2.1,6.3h.1ZM308.4,510.1c0,2.1.4,3.7,1.3,4.9.8,1.1,2.1,1.7,3.7,1.7s2.9-.6,3.7-1.7c.9-1.1,1.3-2.7,1.3-4.9s-.4-3.7-1.3-4.8c-.8-1.1-2.1-1.7-3.8-1.7s-2.9.5-3.7,1.6c-.8,1.1-1.3,2.7-1.3,4.8h0ZM326.5,512.3h-1.6l-.8-16.1h3.1l-.8,16.1h0ZM323.9,516.8c0-1.4.6-2.1,1.8-2.1s1,.2,1.4.5c.3.4.5.9.5,1.5s-.2,1.2-.5,1.5c-.3.4-.8.5-1.4.5s-1-.2-1.3-.5-.5-.8-.5-1.6v.2Z"/>
  <rect class="st4" x="580.5" y="34.6" width="44" height="44" rx="7.7" ry="7.7"/>
  <path class="st6" d="M596.3,52.3c0,.2-.2.4-.4.4s-.2,0-.3-.2c-.3-.5-.7-.8-1.1-1.1-1.2-.8-2.7-.8-3.8,0-.5.3-.8.7-1.1,1.1,0,.2-.3.2-.5,0,0,0-.2-.2-.2-.3,0-.7.2-1.5.7-2,1.3-1.7,3.7-2,5.4-.6.2.2.5.4.6.6.5.6.7,1.3.7,2h0Z"/>
  <path class="st6" d="M616.1,52.3c0,.2-.2.4-.4.4s-.2,0-.3-.2c-.3-.5-.7-.8-1.1-1.1-1.2-.8-2.7-.8-3.8,0-.5.3-.8.7-1.1,1.1,0,.2-.3.2-.5,0,0,0-.2-.2-.2-.3,0-.7.2-1.5.7-2,1.3-1.7,3.7-2,5.4-.6.2.2.5.4.6.6.5.6.7,1.3.7,2h0Z"/>
  <path class="st0" d="M592.8,56.6h19.5c2.1,0,3.9,1.7,3.9,3.9h0c0,2.1-1.7,3.9-3.9,3.9h-19.5c-2.1,0-3.9-1.7-3.9-3.9h0c0-2.1,1.7-3.9,3.9-3.9h0Z"/>
  <ellipse class="st5" cx="602.5" cy="60.5" rx="12.4" ry=".5"/>
  <ellipse class="st5" cx="593" cy="60.5" rx=".4" ry="2.9"/>
  <ellipse class="st5" cx="597.8" cy="60.5" rx=".4" ry="2.9"/>
  <ellipse class="st5" cx="602.5" cy="60.5" rx=".4" ry="2.9"/>
  <ellipse class="st5" cx="607.2" cy="60.5" rx=".4" ry="2.9"/>
  <ellipse class="st5" cx="612" cy="60.5" rx=".4" ry="2.9"/>
  <g>
    <rect class="st4" x="444.9" y="190" width="44" height="44" rx="7.7" ry="7.7"/>
    <path class="st6" d="M481.3,215.6c-2.4-.5-4.6-1.9-6.1-3.9-1.6-1.9-4.2-2.4-6.4-1.3-.8.6-1.5,1.4-1.9,2.3-.4-.9-1.1-1.7-1.9-2.3-2.2-1.1-4.8-.6-6.4,1.3-1.5,2-3.6,3.4-6.1,3.9-.5,0-.9.4-.9.9s0,.3.1.4c1.5,2.5,4.3,3.9,7.1,3.6,4.7-.3,7.1-2,8-3.7.9,1.7,3.2,3.4,8,3.7,2.9.3,5.7-1.1,7.2-3.6.2-.4,0-1-.3-1.2-.1,0-.3-.1-.4-.1h0Z"/>
    <path class="st2" d="M486,199.3c-.1-.6-5.8-1.7-9.7-1.7-2.3-.2-4.6.3-6.6,1.4-.9.4-1.8.7-2.8.7s-1.9-.3-2.8-.7c-2-1.1-4.3-1.6-6.6-1.4-4,0-9.6,1.1-9.7,1.7s-.2,2.4.2,2.8.9,0,1,1.2c0,1.2,1,6,3.6,7.5,2.7,1.6,7.5.3,9.2-.7,1.8-1.1,3.2-2.9,3.8-5,.3-1.8.7-3,1.4-3s1.1,1.2,1.4,3c.6,2.1,1.9,3.9,3.8,5,1.7,1.1,6.5,2.3,9.2.7s3.5-6.4,3.6-7.5.6-.9,1-1.2.3-2.2.2-2.8h-.2Z"/>
  </g>
  <rect class="st4" x="348.9" y="487.9" width="44" height="44" rx="7.7" ry="7.7"/>
  <path class="st6" d="M385.3,513.5c-2.4-.5-4.6-1.9-6.1-3.9-1.6-1.9-4.2-2.4-6.4-1.3-.8.6-1.5,1.4-1.9,2.3-.4-.9-1.1-1.7-1.9-2.3-2.2-1.1-4.8-.6-6.4,1.3-1.5,2-3.6,3.4-6.1,3.9-.5,0-.9.4-.9.9s0,.3.1.4c1.5,2.5,4.3,3.9,7.1,3.6,4.7-.3,7.1-2,8-3.7.9,1.7,3.2,3.4,8,3.7,2.9.3,5.7-1.1,7.2-3.6.2-.4,0-1-.3-1.2-.1,0-.3,0-.4,0h0Z"/>
  <path class="st1" d="M366.1,499.9c-1.2-1-3-.9-4.2.2l-.9.9-.9-.9c-1.1-1.2-2.9-1.3-4.2-.2-1.2,1.1-1.3,2.9-.2,4.2h.1c0,.1,4.4,4.5,4.4,4.5.4.4,1.1.4,1.5,0h0l4.4-4.4c1.1-1.1,1.2-3,0-4.2h-.1c0-.1.1-.1.1-.1Z"/>
  <path class="st1" d="M385.9,499.9c-1.2-1-3.1-.9-4.2.2l-.9.9-.9-.9c-1.1-1.2-2.9-1.3-4.2-.2-1.2,1.1-1.3,2.9-.2,4.2h.1c0,.1,4.4,4.5,4.4,4.5.4.4,1.1.4,1.5,0h0l4.4-4.4c1.2-1.1,1.2-3,0-4.2h-.1c0-.1.1-.1.1-.1Z"/>
  <rect class="st4" x="628.4" y="336" width="43.7" height="43.7" rx="7.7" ry="7.7"/>
  <path class="st6" d="M640.5,348.6c-1.9,0-3.5,1.6-3.5,3.5s1.6,3.5,3.5,3.5,3.5-1.6,3.5-3.5h0c0-1.9-1.6-3.5-3.5-3.5Z"/>
  <path class="st6" d="M660.2,348.6c-1.9,0-3.5,1.5-3.5,3.5s1.5,3.5,3.5,3.5,3.5-1.5,3.5-3.5h0c0-1.9-1.5-3.5-3.5-3.5Z"/>
  <path class="st6" d="M654.3,356.3c-.4,0-.6.3-.6.6h0c0,1-.4,1.9-1,2.6-.6.6-1.5.9-2.4.9s-1.7-.3-2.4-.9c-.6-.7-1-1.7-1-2.7s-.3-.6-.6-.6-.6.3-.6.6c0,1.3.5,2.6,1.3,3.6.9.8,2.1,1.3,3.3,1.2,1.2,0,2.4-.4,3.3-1.2.9-1,1.3-2.2,1.3-3.6s-.3-.6-.6-.6h0Z"/>
</svg>