<?xml version="1.0" encoding="UTF-8"?>
<svg id="Layer_2" data-name="Layer 2" xmlns="http://www.w3.org/2000/svg" viewBox="0 0 48 48">
  <g id="Layer_1-2" data-name="Layer 1">
    <path d="M24,48C10.75,48,0,37.25,0,24S10.75,0,24,0s24,10.75,24,24-10.75,24-24,24ZM24,6C14.06,6,6,14.06,6,24s8.06,18,18,18,18-8.06,18-18S33.94,6,24,6ZM36.09,28.8c0,1.99-5.39,8.4-12.05,8.4s-12.05-6.41-12.05-8.4,5.39-2.4,12.05-2.4,12.05.41,12.05,2.4ZM19.2,18c0,1.99-1.61,3.6-3.6,3.6s-3.6-1.61-3.6-3.6,1.61-3.6,3.6-3.6,3.6,1.61,3.6,3.6ZM36,18c0,1.99-1.61,3.6-3.6,3.6s-3.6-1.61-3.6-3.6,1.61-3.6,3.6-3.6,3.6,1.61,3.6,3.6Z"/>
  </g>
</svg>