<svg width="800" height="800" viewBox="0 0 800 800" fill="none" xmlns="http://www.w3.org/2000/svg">
<g clip-path="url(#clip0_250_734)">
<path d="M680.144 549.396C680.123 549.447 680.1 549.497 680.079 549.547C680.059 549.594 680.041 549.641 680.021 549.687C680.068 549.583 680.123 549.459 680.144 549.396Z" fill="black"/>
<path d="M520.977 421.303C519.061 432.942 516.267 444.429 513.431 455.873C510.962 465.725 508.234 475.545 506.729 485.603C505.647 491.644 505.105 497.155 505.517 504.246C505.874 514.618 507.13 524.914 507.498 535.286C508.061 549.502 505.571 563.555 501.013 577.001C496.779 588.846 490.608 612.026 479.63 617.71C478.742 618.164 477.855 618.5 476.977 618.727C476.479 618.868 475.982 618.965 475.494 619.02C472.105 619.485 468.912 618.381 466.476 616.281C465.696 615.62 465.003 614.862 464.408 614.018C462.329 611.116 461.344 607.24 462.167 603.104C464.852 589.636 469.475 574.262 470.698 561.941C471.088 554.893 470.016 549.74 468.056 542.941C466.172 537.137 464.245 533.467 462.253 528.141C458.626 519.133 456.818 509.519 455.649 499.905C452.163 510.147 447.994 520.172 443.61 530.057C437.027 544.608 430.672 559.278 424.219 573.894C417.918 587.731 411.509 601.654 402.826 614.191C395.918 624.325 387.798 633.549 379.462 642.524C368.624 654.109 357.05 665.001 344.751 675.037C339.522 679.335 334.314 683.644 329.063 687.899C327.245 690.844 325.48 693.789 323.78 696.614C317.446 707.268 311.817 718.311 306.609 729.56C299.106 746.287 290.391 762.505 279.055 776.981C270.74 787.797 260.791 798.623 246.478 799.857C246.12 799.901 245.763 799.922 245.395 799.944C245.124 799.955 244.864 799.977 244.594 799.987C240.62 800.106 236.366 799.403 233.161 797.01C232.76 796.718 232.381 796.393 232.024 796.046C231.494 795.505 231.017 794.942 230.606 794.368C227.26 789.789 227.271 784.256 228.191 780.348C229.415 774.999 231.883 770.041 233.973 764.996C237.99 755.49 242.385 746.829 245.785 734.984C247.236 729.473 247.95 724.417 248.546 719.729C243.684 721.234 238.737 722.458 233.702 723.161C220.277 724.709 206.04 722.371 193.654 717.553C189.778 723.129 185.794 728.618 181.42 733.815C177.793 738.232 173.971 742.498 169.847 746.46C165.31 750.986 160.297 755.122 154.505 757.915C149.979 760.005 144.252 761.78 138.601 762.051C137.919 762.094 137.236 762.105 136.565 762.083C133.101 762.018 129.712 761.336 126.691 759.745C125.847 759.333 125.067 758.813 124.353 758.197C123.541 757.493 122.815 756.681 122.198 755.782C121.419 754.645 120.823 753.379 120.423 752.079C119.113 747.294 120.25 742.27 122.025 737.756C128.694 720.899 141.632 712.151 149.871 696.95C150.423 695.781 151.279 693.756 151.874 691.472C151.842 691.439 151.809 691.417 151.777 691.396C144.241 685.236 137.865 677.354 134.346 668.227C132.808 663.842 132.787 661.547 132.462 657.563C131.899 644.711 135.493 632.315 139.456 620.243C141.567 613.476 143.462 606.645 145.671 599.911C144.306 593.793 143.245 586.453 142.282 580.444C140.441 567.929 139.272 555.261 140.225 542.616C140.214 542.475 140.246 542.345 140.29 542.215C139.467 541.371 140.463 539.736 141.795 540.418C150.239 543.449 158.403 547.26 166.468 551.201C172.791 554.547 178.789 558.499 184.571 562.721C188.912 559.213 193.47 555.965 198.061 552.815C207.263 546.286 216.953 540.515 227.022 535.459C236.149 530.858 243.23 525.802 249.26 519.717C254.5 511.543 258.896 502.839 262.923 494.004C267.676 482.365 272.602 463.614 277.269 449.528C284.945 425.298 295.631 402.107 308.634 380.292C321.95 358.562 337.108 337.829 354.549 319.229C371.948 300.315 392.486 283.599 416.803 274.602C423.126 272.317 438.868 267.911 448.07 268.463C449.488 266.027 450.907 263.58 452.325 261.133C456.84 253.609 460.25 246.636 462.827 238.603C468.186 222.904 470.449 207.769 470.914 191.431C471.12 178.753 467.547 164.354 462.989 153.559C458.377 142.332 449.51 127.456 444.259 114.54C441.509 108.293 439.279 101.83 437.07 95.377C434.45 87.6575 431.863 79.9165 429.849 72.0238C427.857 64.4126 425.865 56.7582 424.966 48.9196C424.327 42.2071 424.533 35.4079 425.215 28.6955C426.146 20.7919 427.965 12.6503 432.566 6.01366C435.609 1.85606 441.055 -0.763939 446.208 0.199581C450.463 0.870941 453.862 3.78326 456.84 6.71718C459.427 9.33734 461.03 12.7153 462.253 16.1475C464.278 21.171 465.122 26.5302 465.718 31.8892C467.98 54.2465 468.717 73.7994 474.931 95.4743C479.543 111.011 486.711 124.1 493.964 139.539C502.756 157.446 506.87 177.302 507.411 197.18C507.53 211.666 505.116 226.109 500.98 239.978C499.075 246.82 496.119 253.782 493.878 258.816C490.348 266.698 486.505 274.461 482.207 281.953C484.556 283.599 486.808 285.482 489.482 287.68C495.264 292.715 501.413 300.542 505.895 308.218C512.348 319.099 516.181 328.486 519.451 340.525C522.255 352.142 523.521 364.084 523.943 376.015C524.452 391.161 523.37 406.351 520.977 421.303Z" fill="#270F03"/>
<path d="M680.021 549.688C679.982 549.776 679.949 549.851 679.952 549.855C679.976 549.799 679.998 549.743 680.021 549.688Z" fill="black"/>
<path d="M177.882 578.175C176.215 574.607 173.911 571.404 171.375 568.408C168.082 564.326 164.481 560.502 160.609 556.963C156.215 552.889 151.391 549.567 145.964 545.665C145.458 545.376 144.986 544.8 144.352 544.973C143.58 545.165 143.422 546.297 144.129 546.683C155.071 554.23 169.5 569.81 175.662 579.017C176.565 581.077 178.91 579.901 177.882 578.175Z" fill="white"/>
<path d="M289.343 601.81C283.869 584.556 276.129 567.859 265.69 553.038C264.932 551.839 263.236 550.531 261.954 551.779C261.153 552.718 261.116 554.057 260.792 555.204C260.366 557.321 259.593 559.349 258.873 561.379C257.054 566.25 255.51 570.507 253.572 574.713C251.758 578.667 249.713 582.511 247.542 586.28C247.196 587.099 246.245 588.165 246.369 589.024C246.562 589.793 247.684 589.948 248.068 589.246C250.712 584.256 253.652 579.42 256.066 574.309C258.257 569.535 259.837 566.031 261.585 561.244C262.348 559.156 263.097 556.494 263.654 554.703C263.911 554.951 264.155 555.194 264.229 555.296C264.937 556.098 264.818 555.924 265.306 556.553C270.434 563.124 273.645 570.595 276.618 577.385C280.087 585.225 284.148 595.078 287.473 605.07C287.802 606.041 288.081 607.03 288.49 607.972C288.498 608.005 288.52 608.031 288.531 608.063C288.659 608.527 289.053 608.902 289.515 608.93C290.078 609.041 290.654 608.633 290.806 608.088C290.943 606.842 289.898 603.938 289.343 601.81Z" fill="white"/>
<path d="M313.155 603.77C310.379 596.273 306.435 589.306 301.893 582.764C296.535 575.21 290.377 568.186 283.172 562.341C280.567 560.216 278.005 557.934 275.127 556.206C274.713 556.134 274.482 556.746 274.868 556.957C290.901 568.835 305.122 585.211 311.946 603.996C312.308 604.65 312.319 605.589 312.964 605.722C314.147 605.709 313.356 604.392 313.155 603.77Z" fill="white"/>
<path d="M265.257 564.184C264.935 563.853 264.326 564.005 264.212 564.46C263.029 570.554 260.682 575.392 258.051 580.769C256.87 583.027 255.676 585.285 254.302 587.432C253.671 588.478 252.524 589.957 252.471 590.468C252.378 590.908 252.704 591.349 253.125 591.468C253.521 591.582 253.967 591.388 254.168 591.031C254.113 591.103 253.97 591.281 254.087 591.149C254.604 590.578 254.579 590.547 255.225 589.7C258.036 585.411 260.101 580.661 262.052 575.932C263.169 573.115 264.218 570.262 264.944 567.316C265.129 566.548 265.306 565.778 265.397 564.992C265.44 564.712 265.489 564.397 265.257 564.184Z" fill="white"/>
<path d="M267.005 573.567C265.218 579.121 261.767 585.184 258.14 589.793C258.109 589.838 258.028 589.971 258.049 590.043C258.037 590.391 258.512 590.585 258.742 590.317C260.944 587.755 262.971 585.018 264.55 582.025C265.889 579.343 267.248 576.556 267.909 573.629C267.87 573.143 267.119 573.09 267.005 573.567Z" fill="white"/>
<path d="M270.472 578.372C270.239 578.23 269.907 578.364 269.84 578.629C268.976 582.801 266.378 586.771 263.768 589.846C262.987 590.732 262.181 591.598 261.332 592.421C260.992 592.736 261.247 593.357 261.712 593.34C261.934 593.343 262.096 593.191 262.245 593.045C262.914 592.441 263.558 591.81 264.186 591.163C266.36 588.962 268.541 585.667 269.506 583.195C269.992 581.92 270.453 580.618 270.64 579.261C270.66 578.959 270.789 578.559 270.472 578.372Z" fill="white"/>
<path d="M170.527 580.918C166.482 573.183 160.201 566.596 153.389 561.672C152.326 560.985 150.936 559.765 149.749 559.49C149.462 559.563 149.401 559.984 149.666 560.129C152.574 561.86 154.874 564.016 157.508 566.379C162.284 570.814 165.985 575.248 169.173 580.859C169.394 581.167 169.483 581.638 169.88 581.76C170.352 581.904 170.794 581.342 170.527 580.918Z" fill="white"/>
<path d="M162.712 576.241C159.576 572.225 155.764 568.566 151.097 566.408C150.585 566.181 150.348 566.084 149.807 565.876C149.717 565.85 149.621 565.865 149.542 565.91C149.322 566.036 149.317 566.379 149.542 566.504C155.923 569.776 160.748 575.1 164.849 581.465C165.224 582.003 165.522 582.619 165.961 583.1C166.349 583.441 167.009 583.107 166.993 582.596C165.969 580.283 164.201 578.289 162.712 576.241Z" fill="white"/>
<path d="M162.717 584.756C160.583 581.456 158.857 579.044 156.142 576.281C155.082 575.247 154.493 574.733 153.202 573.8C152.739 573.557 152.277 573.064 151.725 573.141C151.24 573.259 151.145 573.97 151.586 574.21C155.346 576.68 158.623 581.376 161.587 585.748C162.206 586.282 163.155 585.447 162.717 584.756Z" fill="white"/>
<path d="M233.129 791.64C233.032 793.101 232.988 794.573 233.064 796.046C233.075 796.187 233.118 796.652 233.162 797.009C232.761 796.717 232.382 796.392 232.025 796.046C231.494 795.505 231.018 794.942 230.606 794.368C230.617 793.891 230.65 793.404 230.715 792.928C230.715 791.575 231.927 786.876 233.194 784.624C234.417 782.155 236.193 780.022 237.481 777.576C237.828 776.926 238.91 777.305 238.77 778.03C237.752 780.369 236.063 782.393 234.915 784.689C233.952 786.562 233.14 790.362 233.129 791.64Z" fill="white"/>
<path d="M254.63 780.033C253.244 782.242 251.393 783.271 250.408 785.306C248.383 788.868 247.647 794.108 246.673 798.72C246.564 799.078 246.521 799.467 246.477 799.857C246.12 799.9 245.763 799.922 245.395 799.944C245.124 799.955 244.864 799.976 244.594 799.987C244.756 799.24 244.929 798.482 245.07 797.724C245.85 794.086 246.456 790.384 247.712 786.887C248.665 783.899 251.425 781.019 252.779 779.254C253.363 778.236 254.944 778.907 254.63 780.033Z" fill="white"/>
<path d="M133.231 736.12C133.361 736.651 132.895 737.084 132.668 737.539C130.632 740.538 128.38 742.324 126.637 745.919C124.84 749.394 124.18 753.671 124.353 758.196C123.541 757.492 122.815 756.68 122.198 755.782C122.209 755.554 122.22 755.338 122.241 755.121C122.404 751.256 123.703 747.553 125.565 744.186C127.33 741.036 130.264 738.524 131.866 735.936C132.17 735.373 133.079 735.503 133.231 736.12Z" fill="white"/>
<path d="M148.171 740.69C146.266 743.765 143.992 746.612 142.13 749.73C140.863 752.026 140.192 753.541 139.51 756.031C139.045 758.132 138.882 759.994 138.601 762.051C137.919 762.094 137.236 762.105 136.565 762.084C137.053 759.279 137.54 756.475 138.59 753.823C140.484 748.518 144.079 744.382 147.208 740.116C147.565 739.478 148.55 740.073 148.171 740.69Z" fill="white"/>
<path d="M465.977 610.954C465.75 612.946 466.042 615.014 466.476 616.281C465.696 615.62 465.003 614.862 464.408 614.018C463.736 608.139 467.71 602.607 469.68 597.648C471.456 596.024 468.013 604.361 467.818 604.848C467.006 606.645 466.086 609.72 465.977 610.954Z" fill="white"/>
<path d="M479.922 603.223C479.749 604.685 479.186 606.06 478.721 607.456C477.941 609.611 477.086 612.578 476.934 614.266C476.815 615.739 476.891 617.233 476.978 618.716C476.48 618.868 475.982 618.965 475.494 619.019C475.44 618.683 475.419 618.402 475.332 617.807C474.953 612.794 477.486 608.073 479.1 602.617C479.176 602.346 479.522 602.206 479.76 602.357C480.085 602.541 479.955 602.92 479.922 603.223Z" fill="white"/>
<path d="M241.872 674.154C256.819 674.154 268.935 662.082 268.935 647.19C268.935 632.299 256.819 620.227 241.872 620.227C226.926 620.227 214.81 632.299 214.81 647.19C214.81 662.082 226.926 674.154 241.872 674.154Z" fill="white"/>
<path d="M241.872 666.102C252.355 666.102 260.853 657.635 260.853 647.191C260.853 636.746 252.355 628.279 241.872 628.279C231.389 628.279 222.891 636.746 222.891 647.191C222.891 657.635 231.389 666.102 241.872 666.102Z" fill="#270F03"/>
<path d="M164.203 662.228C177.74 662.228 188.714 651.295 188.714 637.808C188.714 624.321 177.74 613.388 164.203 613.388C150.667 613.388 139.693 624.321 139.693 637.808C139.693 651.295 150.667 662.228 164.203 662.228Z" fill="white"/>
<path d="M164.203 654.935C173.698 654.935 181.394 647.267 181.394 637.807C181.394 628.348 173.698 620.68 164.203 620.68C154.709 620.68 147.013 628.348 147.013 637.807C147.013 647.267 154.709 654.935 164.203 654.935Z" fill="#270F03"/>
</g>
<defs>
<clipPath id="clip0_250_734">
<rect width="800" height="800" fill="white"/>
</clipPath>
</defs>
</svg>
