<svg width="800" height="800" viewBox="0 0 800 800" fill="none" xmlns="http://www.w3.org/2000/svg">
<path d="M799.886 757.153C798.068 774.488 776.219 781.484 758.807 780.513C709.883 777.816 668.188 746.244 627.046 719.648C585.904 693.037 535.903 669.6 490.986 684.501C414.851 713.408 333.2 723.947 252.411 734.271C244.368 735.303 236.032 736.305 228.281 733.917C220.531 731.513 213.52 724.718 213.597 716.612C213.689 705.641 225.384 699 235.153 691.974C222.734 692.914 212.811 702.144 202.055 708.43C192.456 714.039 181.577 717.46 170.498 718.369C169.312 718.492 168.125 718.554 166.939 718.585C165.829 718.647 164.735 718.662 163.626 718.647C161.053 718.631 158.294 718.277 155.69 717.537C154.35 717.183 153.086 716.72 151.9 716.135C148.032 714.317 145.12 711.389 144.719 707.182C143.903 698.446 154.242 693.715 160.714 687.813C170.128 679.215 172.209 665.394 173.256 652.697C176.816 609.475 174.905 565.822 167.077 523.632C155.598 509.272 143.995 494.787 129.803 483.092C115.612 471.397 98.431 462.521 80.0946 461.273C76.2424 461.011 72.1898 461.119 68.7691 462.922C61.9738 466.481 59.955 475.388 60.6486 483.03C61.3576 490.673 64.0232 498.162 63.5146 505.82C63.1139 512.045 59.5853 518.686 54.1616 521.013C52.9136 521.552 51.5574 521.861 50.1245 521.876C50.1245 522.369 50.0782 522.847 49.9856 523.309C49.1074 528.317 43.9301 532.046 38.7373 532.693C38.6296 532.693 38.5678 532.708 38.5216 532.708C33.3134 533.248 28.2131 531.507 23.3131 529.565C22.7893 529.365 22.2806 529.149 21.7568 528.949C19.3069 527.962 16.8104 526.961 14.8843 525.173C11.9568 522.461 10.7549 518.409 9.67634 514.572C5.34642 499.102 0.98578 483.493 0.13842 467.467C-0.70926 451.427 2.24914 434.708 11.4328 421.549C32.0654 391.949 78.2301 386.91 94.9486 354.937C104.995 335.737 101.143 312.486 97.183 293.748C84.6093 271.745 59.3235 256.336 55.3941 231.281C54.1768 223.515 55.2402 215.58 56.3189 207.783C61.2958 171.803 66.689 135.87 74.239 100.522C68.9386 75.3747 63.6226 49.5649 67.444 24.1404C67.7058 22.4763 68.1373 20.5964 69.6165 19.7796C71.219 18.8859 73.2069 19.7336 74.8557 20.5809C95.2261 31.1206 114.734 43.3396 133.101 57.0844C138.648 61.2294 145.151 64.5731 151.669 63.4945C191.346 56.915 233.751 69.658 263.244 96.9932C292.736 124.329 308.638 165.655 305.109 205.703C304.339 214.27 302.752 222.837 303.384 231.42C304.616 247.799 313.738 262.361 322.614 276.182C341.736 305.952 360.982 335.907 384.881 362.01C399.35 377.819 415.421 392.103 429.752 408.051C482.958 467.329 509.477 549.689 501.187 634.869C537.028 631.51 575.365 628.644 606.891 646.04C627.57 657.443 643.025 676.503 662.918 689.247C694.367 709.417 733.598 712.036 768.899 724.255C784.308 729.587 801.566 740.928 799.886 757.153Z" fill="#270F03"/>
<path d="M164.633 251.571C156.961 237.518 159.429 218.503 170.781 207.211C182.132 195.918 201.533 193.657 214.925 202.434C226.316 209.9 232.38 223.939 232.291 237.558C232.222 248.063 228.585 258.853 220.892 266.008C213.588 272.802 202.996 275.755 193.157 274.107C183.319 272.46 173.125 267.125 164.633 251.571Z" fill="white"/>
<path d="M74.0357 229.667C62.0021 216.068 60.1877 179.22 78.9876 171.646C90.6528 166.947 107.544 173.032 115.774 196.277C127.006 228.002 101.836 261.085 74.0357 229.667Z" fill="white"/>
<path d="M133.298 247.149C137.242 247.499 141.091 248.872 144.367 251.097C145.052 251.563 145.787 252.219 145.706 253.044C145.666 253.454 145.424 253.813 145.18 254.145C143.6 256.297 141.6 258.14 139.327 259.541C137.093 260.917 134.172 261.842 131.907 260.517C131.078 260.031 130.432 259.291 129.828 258.544C127.897 256.157 126.228 253.558 124.861 250.809C124.553 250.191 124.256 249.474 124.508 248.831C124.763 248.178 125.486 247.853 126.155 247.646C128.753 246.84 131.566 246.995 133.298 247.149Z" fill="white"/>
<path d="M189.479 229.478C192.81 239.962 192.355 251.622 188.226 261.818C187.668 263.196 185.65 263.123 185.186 261.71C181.623 250.842 182.028 238.808 186.48 229.263C187.092 227.951 189.041 228.098 189.479 229.478Z" fill="black"/>
<path d="M87.7807 199.541C91.1112 210.025 90.657 221.686 86.5278 231.881C85.9696 233.259 83.9513 233.186 83.4882 231.773C79.925 220.906 80.3302 208.872 84.7817 199.326C85.3937 198.014 87.3426 198.162 87.7807 199.541Z" fill="black"/>
<path d="M88.4355 52.7905C84.4853 41.4193 81.2144 32.8428 74.8531 22.7905C73.3286 21.4811 70.9902 23.5265 72.0691 25.2343C76.5857 34.1137 79.5542 42.2175 82.9912 52.4295C86.4224 62.7001 89.4598 73.1101 91.2619 83.8025C91.5502 84.76 91.1635 84.6417 91.972 85.7249C93.0947 86.9242 95.3032 85.9568 95.1457 84.304C94.3558 73.5613 91.9697 62.9559 88.4355 52.7905Z" fill="white"/>
<path d="M266.895 140.319C265.827 130.141 263.29 120.205 260.603 110.353C257.183 97.5029 257.541 95.693 245.103 97.5719C234.257 99.5121 223.758 103.153 213.837 107.916C206.579 111.341 200.12 116.107 193.541 120.644C191.887 121.634 193.329 124.206 195.053 123.231C201.795 118.663 210.769 113.506 216.704 111.249C221.133 109.33 229.834 106.108 236.433 104.703C241.387 103.681 244.411 102.965 248.329 102.759C231.332 117.302 217.74 132.187 207.491 152.163C207.083 152.83 206.685 153.608 207.81 154.138C209.102 154.3 209.31 152.893 210.281 151.942C218.101 141.257 226.206 132.393 237.51 120.545C242.542 115.07 248.104 110.12 253.342 104.854C253.865 106.494 254.391 108.524 254.921 110.357C257.669 120.092 260.247 129.899 261.708 139.922C262.753 146.374 263.604 156.869 264.219 166.926C264.532 169.752 264.464 173.513 264.795 176.54C265.157 177.562 266.849 177.257 266.801 176.136C267.996 165.685 268.262 152.455 266.895 140.319Z" fill="white"/>
<path d="M249.327 122.392C237.003 130.732 224.388 141.73 217.941 154.712C217.594 155.232 218.136 155.968 218.74 155.778C219.292 155.545 219.519 154.884 220.122 154.231C226.527 146.578 234.138 140.008 241.478 133.273C243.732 131.302 245.976 129.32 248.302 127.434C249.369 126.409 250.887 125.712 251.665 124.45C252.337 123.079 250.618 121.568 249.327 122.392Z" fill="white"/>
<path d="M227.523 154.367C227.576 154.307 227.585 154.276 227.607 154.254C227.598 154.269 227.562 154.316 227.523 154.367Z" fill="white"/>
<path d="M250.084 136.098C243.502 139.526 237.665 144.254 232.288 149.332C230.627 150.916 229.016 152.558 227.556 154.33C227.32 154.597 227.173 154.94 227.174 155.298C227.157 156.086 227.862 156.789 228.651 156.774C229.888 156.607 229.928 155.976 231.333 154.978C236.099 150.704 242.71 144.796 245.713 142.715C247.399 141.482 249.094 140.249 250.897 139.187C251.475 138.851 252.181 138.556 252.348 137.838C252.742 136.565 251.218 135.386 250.084 136.098Z" fill="white"/>
<path d="M250.168 145.697C244.563 148.148 239.603 151.851 234.991 155.827C234.197 156.704 232.744 157.32 232.688 158.631C232.664 159.684 233.753 160.498 234.76 160.209C235.751 159.802 238.031 157.965 239.938 156.714C243.939 153.649 248.252 150.929 252.543 148.402C253.826 146.917 251.82 144.65 250.168 145.697Z" fill="white"/>
<path d="M162.316 699.108C160.513 701.111 157.924 702.467 156.306 704.702C153.995 707.722 153.224 711.05 154.704 715.549C154.811 716.135 155.274 716.767 155.674 717.537C154.349 717.183 153.086 716.721 151.899 716.135C151.36 714.563 151.113 712.899 151.129 711.25C150.99 705.21 155.921 701.096 160.343 697.783C161.221 696.828 162.886 697.953 162.316 699.108Z" fill="white"/>
<path d="M168.865 707.213C167.355 710.31 168.125 714.979 170.298 718.061C170.359 718.184 170.436 718.292 170.498 718.369C169.312 718.492 168.125 718.554 166.939 718.585C166.476 717.645 166.122 716.643 165.829 715.642C164.073 709.755 166.261 704.871 170.498 700.079C171.284 699.247 172.809 699.878 172.763 701.019C172.763 701.789 172.07 702.267 171.669 702.852C171.145 703.499 169.62 705.518 168.865 707.213Z" fill="white"/>
<path d="M38.6753 532.693C38.6292 532.693 38.5674 532.708 38.5212 532.708C33.313 533.248 28.2127 531.507 23.3127 529.565C22.8042 529.149 22.3265 528.717 21.8487 528.286C18.0428 524.233 16.5791 518.763 16.163 513.34C16.1167 511.999 17.935 511.259 18.8441 512.23C19.4606 512.846 19.291 513.771 19.4606 514.557C19.4606 514.634 20.1231 519.256 20.801 520.612C22.8812 526.868 31.7412 532.046 38.1359 532.616C38.3054 532.647 38.4903 532.677 38.6753 532.693Z" fill="white"/>
<path d="M54.1613 521.013C52.9133 521.552 51.5571 521.86 50.1242 521.876C50.1242 522.369 50.0779 522.847 49.9853 523.309C48.0747 522.507 46.2256 521.521 44.4384 520.443C41.4181 518.563 38.3979 516.529 36.1483 513.74C33.9912 511.167 32.7584 507.962 31.9571 504.741C31.3871 502.938 34.0066 501.613 35.0698 503.185C36.3949 506.436 36.3333 507.854 38.2131 510.519C40.1856 513.678 46.0099 517.115 51.48 519.487C51.8191 519.642 52.8669 520.104 52.8824 520.119C52.9747 520.15 53.0671 520.196 53.1597 520.227C53.2368 520.258 53.3291 520.289 53.4061 520.335C53.7298 520.504 53.9919 520.735 54.1613 521.013Z" fill="white"/>
</svg>
