<svg width="800" height="800" viewBox="0 0 800 800" fill="none" xmlns="http://www.w3.org/2000/svg">
<g clip-path="url(#clip0_250_675)">
<path d="M799.753 667.421C799.741 667.531 799.716 667.63 799.692 667.741C799.433 668.885 799.003 669.968 798.461 670.989C796.554 674.532 793.085 677.251 789.271 678.691C789.234 678.703 789.209 678.715 789.172 678.728C788.336 679.035 787.487 679.306 786.625 679.515C782.393 680.585 777.902 680.536 773.522 680.142C756.827 678.666 740.82 672.539 726.179 664.406C711.526 656.274 698.091 646.148 686.292 635.813C670.679 636.736 654.992 636.109 639.44 634.411C632.76 633.685 626.042 632.75 619.398 629.76C630.656 647.698 650.28 658.452 669.534 667.273C678.085 671.185 686.734 674.864 695.101 679.158C699.112 681.213 703.209 683.538 705.694 687.303C708.942 692.224 708.487 698.474 705.792 703.789C705.362 704.675 704.857 705.524 704.279 706.336C702.68 708.698 700.6 710.765 698.238 712.279C697.34 712.857 696.417 713.374 695.47 713.829C694.756 714.173 694.03 714.481 693.292 714.764C686.181 717.495 678.171 717.286 671.515 715.256C631.234 707.936 593.081 691.031 558.57 668.996C524.06 646.972 493.043 619.868 465.496 591.632C404.373 581.359 368.336 534.102 301.123 505.89C209.204 467.307 124.151 408.46 70.2871 324.563C64.8739 316.135 59.534 306.33 61.8841 296.585C65.2305 282.719 83.1073 276.888 96.7641 281.009C110.421 285.143 120.793 295.97 131.017 305.924C144.562 319.088 159.29 331.588 176.76 338.749C194.231 345.91 214.987 347.103 234.869 341.234C186.788 312.026 145.768 271.302 116.228 223.417C101.304 199.241 88.9515 172.863 68.5401 153.091C50.5281 135.67 27.41 124.56 7.57706 109.23C4.59962 106.929 1.54842 104.321 0.441056 100.716C-2.40102 91.4638 9.05354 84.0694 18.6993 83.3437C36.1823 82.0272 52.9887 90.1474 67.6667 99.7316C88.3363 113.216 106.791 130.072 122.097 149.437C138.878 170.66 151.748 194.677 167.336 216.798C197.036 258.974 236.702 294.088 281.745 317.772C271.828 311.054 262.724 303.106 254.739 294.186C248.427 287.136 242.62 279.041 241.341 269.678C240.049 260.315 244.663 249.586 253.656 246.671C260.054 244.604 267.153 246.831 272.714 250.608C278.263 254.385 282.655 259.589 287.441 264.314C301.467 278.167 319.27 288.145 339.731 293.239C397.446 280.739 460.722 297.385 504.805 336.657C516.333 346.931 526.619 358.631 539.008 367.834C570.111 390.977 612.152 396.759 641.963 421.846C678.639 422.313 715.155 431.959 745.483 449.971C756.864 442.282 768.232 434.592 779.612 426.915C780.818 426.09 782.184 425.229 783.636 425.426C786.502 425.82 787.191 429.622 787.117 432.513C786.638 451.029 784.3 469.484 780.806 490.375C786.785 511.71 791.571 533.794 789.812 555.878C788.065 577.963 779.01 600.281 761.576 613.963C756.679 617.801 751.118 620.951 745.877 623.313C755.633 630.781 766.19 637.204 777.312 642.432C782.861 645.029 788.643 647.415 793.232 651.476C797.735 655.462 800.934 661.552 799.753 667.421Z" fill="#270F03"/>
<path d="M649.703 587.978C615.152 589.567 600.712 546.448 626.486 527.986C639.958 518.337 663.178 520.207 672.828 541.935C682.802 564.394 671.879 586.958 649.703 587.978Z" fill="white"/>
<path d="M759.097 582.12C744.117 586.686 725.234 576.837 724.653 555.227C724.009 531.342 745.866 518.724 764.129 526.743C785.415 536.089 792.517 571.934 759.097 582.12Z" fill="white"/>
<path d="M703.728 589.023C701.452 587.81 699.319 586.328 697.385 584.621C696.788 584.094 697.136 583.091 697.932 583.052C701.931 582.858 705.935 582.777 709.938 582.811C710.76 582.818 711.126 583.849 710.505 584.388C708.629 586.02 706.653 587.528 704.676 588.956C704.399 589.157 704.029 589.184 703.728 589.023Z" fill="white"/>
<path d="M644.042 553.76C643.828 548.324 643.545 545.034 642.754 541.372C642.07 538.202 639.219 540.817 638.776 542.327C636.82 547.628 635.06 553.676 634.312 559.705C633.423 566.865 633.961 573.999 637.291 579.826C640.068 584.219 644.601 567.955 644.042 553.76Z" fill="#270F03"/>
<path d="M753.339 552.764C753.125 547.328 752.842 544.037 752.051 540.376C751.367 537.206 748.516 539.821 748.073 541.33C746.117 546.632 744.357 552.68 743.609 558.709C742.72 565.869 743.258 573.003 746.588 578.83C749.365 583.223 753.898 566.959 753.339 552.764Z" fill="#270F03"/>
<path d="M643.241 458.359C643.12 458.244 643.114 458.25 643.147 458.295C643.113 458.255 643.086 458.207 643.047 458.171C642.092 457.211 641.037 456.362 640.02 455.47C636.727 452.585 633.495 449.63 630.295 446.643C617.696 434.999 605.883 422.48 592.699 411.483C589.949 409.577 584.065 403.231 581.41 407.985C578.634 416.056 578.471 422.01 577.872 430.451C577.088 443.051 577.288 456.905 578.771 468.364C579.661 474.783 580.455 481.298 582.588 487.445C583.004 488.54 583.421 489.654 584.066 490.638C584.278 490.995 584.535 491.356 584.961 491.458C585.961 491.755 586.875 490.584 586.322 489.688C584.459 486.871 583.812 483.635 582.86 479.831C581.462 473.156 580.95 467.147 580.513 459.934C579.607 441.72 580.647 427.354 584.8 410.599C587.204 412.005 591.355 415.515 594.71 418.599C605.996 429.338 617.949 439.332 629.339 449.957C632.925 453.229 636.548 456.468 640.365 459.469C641.536 460.249 641.616 460.457 642.901 461.107C643.318 461.426 643.938 461.453 644.317 461.053C645.216 459.775 643.983 459.396 643.241 458.359Z" fill="white"/>
<path d="M634.072 420.286C625.505 418.216 613.117 415.629 603.679 411.954C599.559 410.434 595.432 408.879 591.739 407.401C591.475 407.313 591.229 407.099 590.94 407.179C590.506 407.287 590.411 407.928 590.813 408.145C599.516 412.977 608.738 416.903 618.393 419.377C623.303 420.563 630.127 422.576 633.942 422.806C635.315 422.7 635.432 420.554 634.072 420.286Z" fill="white"/>
<path d="M633.975 460.855C626.265 457.762 612.105 450.248 603.041 443.481C601.355 442.32 599.012 440.581 598.167 439.943C597.343 439.294 596.508 438.655 595.744 437.936C595.615 437.807 595.442 437.736 595.261 437.736C594.679 437.719 594.345 438.496 594.778 438.901C598.025 442.203 601.88 444.819 605.58 447.578C612.03 452.427 618.773 456.867 625.963 460.548C628.383 461.829 630.795 463.163 633.394 464.05C634.287 464.342 635.488 464.826 636.141 463.861C637.505 461.598 634.123 461.092 633.975 460.855Z" fill="white"/>
<path d="M632.061 464.95C631.252 464.01 631.564 464.506 630.766 464.091C628.88 463.409 622.609 461.682 619.378 460.205C614.592 458.194 606.86 453.977 601.604 450.192C599.691 448.862 598.729 448.101 597.007 446.847C596.212 446.458 595.438 447.596 596.092 448.203C604.489 457.17 621.839 464.818 630.353 467.172C631.604 467.563 632.762 466.064 632.061 464.95Z" fill="white"/>
<path d="M624.191 467.23C614.905 465.562 607.336 463.009 599.404 458.741C597.655 457.912 596.051 456.731 594.393 455.814C593.528 455.644 592.939 456.83 593.589 457.43C597.296 460.652 601.822 462.767 606.223 464.866C610.54 466.987 619.431 470.127 623.356 470.676C624.449 471.003 625.609 470.106 625.596 468.97C625.568 467.563 624.239 467.222 624.191 467.23Z" fill="white"/>
<path d="M732.166 460.319C732.273 460.263 732.308 460.254 732.166 460.319V460.319Z" fill="white"/>
<path d="M784.11 428.669C777.715 430.372 772.434 434.765 766.973 438.324C755.682 446.169 744.048 455.506 732.143 460.332C731.986 460.417 731.732 460.577 731.693 460.731C731.212 461.506 732.055 462.542 732.918 462.2C741.07 459.938 748.42 455.582 755.416 450.928C762.874 445.96 769.954 440.776 776.187 436.102C777.875 434.796 780.304 432.946 782.526 431.575C783.728 430.789 784.193 430.909 785.115 430.171C785.69 429.505 784.96 428.398 784.11 428.669Z" fill="white"/>
<path d="M774.877 444.465C766.691 453.173 758.665 458.27 747.619 464.395C746.803 464.897 746.454 464.81 746.006 465.367C745.716 465.84 745.99 466.507 746.527 466.647C750.239 465.982 753.922 463.83 757.177 461.926C763.385 458.196 768.708 453.399 772.963 448.197C773.328 447.671 776.777 443.855 774.877 444.465Z" fill="white"/>
<path d="M771.013 456.119C770.846 455.477 769.976 455.238 769.514 455.724C764.574 460.916 758.18 464.358 751.233 467.629C751.162 467.663 751.089 467.693 751.019 467.731C751.082 467.704 751.297 467.614 751.264 467.627C750.407 468.028 748.44 469.022 748.208 469.151C747.474 469.328 747.471 470.45 748.208 470.633C751.948 470.166 757.29 468.114 760.999 465.638C763.955 463.647 766.734 461.382 769.239 458.845C769.784 458.303 770.274 457.711 770.721 457.086C770.951 456.819 771.124 456.477 771.013 456.119Z" fill="white"/>
<path d="M768.485 461.341C766.904 463.112 764.555 464.267 762.186 465.549C759.444 466.991 756.721 468.47 753.955 469.864C752.977 470.234 753.074 471.761 754.092 472.007C755.071 472.084 754.603 471.971 755.42 471.701C760.047 469.678 764.622 467.359 768.538 464.136C769.151 463.54 770.027 462.919 770.162 462.035C770.189 461.191 769.065 460.722 768.485 461.341Z" fill="white"/>
<path d="M110.268 313.459C105.876 311.575 103.495 310.863 101.488 311.037C99.3539 311.167 97.1174 312.69 96.7061 314.869C96.6877 314.984 96.673 315.108 96.6566 315.229C96.2722 316.191 96.107 317.338 96.2152 318.652C96.6538 322.374 97.3728 326.633 100.129 329.368C100.068 329.343 100.007 329.318 99.9461 329.292C101.924 331.102 104.444 332.691 107.87 331.945C110.067 331.391 110.948 330.913 112.628 329.87C114.813 328.422 116.727 326.413 117.568 323.888C118.833 319.109 114.317 315.067 110.268 313.459Z" fill="white"/>
<path d="M89.2641 314.058C87.9107 310.732 85.0342 308.094 81.7966 306.625C76.8195 304.144 72.8371 306.721 72.9803 310.095C73.059 311.615 73.7156 313.05 74.6931 314.204C75.171 314.672 75.0449 314.794 75.4273 315.037C75.4435 315.093 75.5931 315.252 75.907 315.54C76.9065 316.459 78.0585 317.211 79.2796 317.802C79.3918 317.865 79.5195 317.922 79.6516 317.96C79.7288 317.992 79.8203 318.03 79.9417 318.079C80.223 318.185 80.4939 318.27 80.7697 318.364C80.8 318.385 80.8331 318.41 80.8633 318.43C82.49 319.481 84.4233 320.356 86.3952 319.94C89.0859 319.546 90.2523 316.399 89.2641 314.058Z" fill="white"/>
<path d="M95.1445 299.089C92.7177 295.025 89.048 290.397 84.0085 289.923C81.9609 289.823 80.003 291.115 79.3854 293.087C78.5757 295.669 79.8862 298.327 81.4643 300.335C82.3936 301.563 83.3768 302.752 84.427 303.878C85.1411 304.737 85.8105 305.476 86.3013 305.993C92.5563 312.093 99.4637 306.683 95.1445 299.089Z" fill="white"/>
<path d="M97.4804 298.037C97.5329 298.163 97.5673 298.246 97.5799 298.276C97.6052 298.335 97.6127 298.35 97.6073 298.334C97.5593 298.22 97.5087 298.107 97.4619 297.992C97.4707 298.013 97.4726 298.018 97.4804 298.037Z" fill="white"/>
<path d="M107.868 294.956C105.842 292.609 102.801 290.383 99.5437 290.941C96.9981 291.567 96.2347 294.225 96.5117 295.004C96.6511 295.89 96.6931 295.877 97.2933 297.608C97.4037 297.861 97.6314 298.401 97.5803 298.277C97.56 298.229 97.5231 298.14 97.4808 298.037C97.4671 298.004 97.4591 297.985 97.4423 297.945C97.5403 298.166 97.5978 298.306 97.6077 298.335C97.6922 298.535 97.7751 298.736 97.8627 298.935C98.0277 299.291 98.2226 299.635 98.4034 299.986C98.5384 300.275 98.6861 300.56 98.8448 300.844C98.8635 300.877 98.8803 300.911 98.8992 300.943C99.2375 301.537 99.6197 302.11 100.032 302.652C100.061 302.692 100.084 302.737 100.114 302.777C100.156 302.828 100.199 302.879 100.241 302.932C100.278 302.978 100.313 303.023 100.35 303.068C100.755 303.587 101.176 304.156 101.699 304.529C102.41 305.195 103.124 305.712 103.763 306.004C107.171 307.784 110.794 306.174 110.973 302.161C111.007 299.451 109.58 296.966 107.868 294.956Z" fill="white"/>
<path d="M100.017 302.658C100.049 302.695 100.08 302.736 100.112 302.774C99.9608 302.564 99.7202 302.275 100.017 302.658Z" fill="white"/>
<path d="M273.496 269.046C271.543 267.188 271.096 267.32 268.888 266.169C266.704 265.122 264.046 263.49 263.201 263.236C262.403 262.917 261.474 262.564 260.59 262.617C260.429 262.629 260.303 262.646 260.179 262.674C260.019 262.698 259.861 262.729 259.702 262.765C257.943 262.77 256.336 263.647 256.163 266.317C256.149 266.402 256.145 266.443 256.145 266.466C256.131 266.562 256.111 266.657 256.101 266.755C256.074 267.103 255.899 269.193 256.053 269.034C255.955 269.852 256.113 270.733 256.088 271.543C256.08 271.794 256.088 272.062 256.144 272.326C256.384 274.681 256.318 274.026 256.615 276.031C257.369 281.074 259.805 282.972 263.322 282.39C263.886 282.265 263.952 282.275 263.336 282.35C264.313 282.273 265.219 281.863 266.085 281.425C268.239 280.266 270.076 278.623 272.072 277.225C275.572 274.985 275.448 271.066 273.496 269.046Z" fill="white"/>
<path d="M260.813 255.533C260.429 254.017 259.623 252.633 258.577 251.478C258.207 251.078 257.764 250.736 257.325 250.423C257.197 250.364 257.113 250.325 257.047 250.296C257.086 250.311 257.128 250.327 257.168 250.34C254.632 248.833 251.398 249.972 250.97 253.034C250.963 253.079 250.966 253.125 250.96 253.17C250.877 253.399 250.795 253.631 250.731 253.893C250.03 258.091 253.527 262.384 256.075 262.235C258.385 262.584 261.878 259.924 260.813 255.533Z" fill="white"/>
<path d="M273.874 257.769C273.094 255.6 271.495 253.575 269.232 252.871C269.007 252.824 268.792 252.795 268.579 252.773C266.944 252.068 264.911 252.347 263.935 254.015C262.056 257.545 265.854 262.836 269.229 264.031C273.111 265.361 275.367 261.011 273.874 257.769Z" fill="white"/>
<path d="M247.871 262.45C245.002 262.869 244.433 264.895 244.864 266.918C244.87 266.955 244.879 266.996 244.888 267.034C245.198 268.37 245.929 269.692 246.727 270.534C246.833 270.645 246.939 270.754 247.046 270.863C248.342 272.471 250.296 273.861 252.316 272.798C255.894 270.795 252.56 262.191 247.871 262.45Z" fill="white"/>
<path d="M695.47 713.829C694.757 714.173 694.031 714.481 693.292 714.764C693.034 713.89 692.8 713.005 692.431 712.18C689.884 705.315 683.511 699.975 675.649 697.97C674.813 697.773 674.653 696.543 675.416 696.137C675.883 695.829 676.412 696.112 676.892 696.26C678.615 696.813 680.337 697.392 681.998 698.142C688.359 701.218 693.637 706.988 695.47 713.829Z" fill="white"/>
<path d="M706.284 711.023C706.264 710.977 706.252 710.947 706.233 710.903C706.222 710.884 706.211 710.863 706.203 710.848C706.222 710.888 706.246 710.94 706.284 711.023Z" fill="white"/>
<path d="M706.203 710.847C706.153 710.742 706.159 710.762 706.203 710.847V710.847Z" fill="white"/>
<path d="M705.792 703.79C705.362 704.675 704.857 705.524 704.279 706.336C700.908 699.016 696.392 693.455 689.133 691.56C688.211 691.339 688.051 689.997 688.875 689.555C689.441 689.198 690.081 689.579 690.659 689.715C692.197 690.207 693.698 690.834 695.088 691.634C699.85 694.415 703.282 698.942 705.792 703.79Z" fill="white"/>
<path d="M789.27 678.691C789.233 678.703 789.209 678.715 789.172 678.728C788.335 679.035 787.486 679.306 786.625 679.515C786.6 679.134 786.563 678.765 786.49 678.395C786.293 676.648 785.235 672.859 783.66 670.681C782.516 668.897 780.658 667.101 778.382 665.329C777.779 664.776 777.988 663.656 778.763 663.385C779.711 662.942 780.424 663.988 781.138 664.456C783.131 666.067 784.964 667.913 786.317 670.103C787.831 672.256 788.839 675.75 789.27 678.691Z" fill="white"/>
<path d="M799.753 667.421C799.741 667.531 799.716 667.63 799.692 667.741C799.433 668.885 799.003 669.968 798.461 670.989C798.092 669.82 797.649 668.873 796.96 667.642C794.574 663.496 790.624 661.023 785.506 658.648C784.399 658.058 785.026 656.225 786.256 656.471C790.034 658.058 793.86 660.026 796.702 663.053C797.932 664.357 798.954 665.834 799.753 667.421Z" fill="white"/>
</g>
<defs>
<clipPath id="clip0_250_675">
<rect width="800" height="800" fill="white"/>
</clipPath>
</defs>
</svg>
