<svg width="800" height="800" viewBox="0 0 800 800" fill="none" xmlns="http://www.w3.org/2000/svg">
<g clip-path="url(#clip0_250_711)">
<path d="M738.001 706.623C737.114 708.616 734.525 709.081 732.342 709.227C711.22 710.667 689.822 708.165 669.601 701.88C669.601 701.88 668.976 702.113 668.889 701.997C651.301 718.697 630.63 732.124 608.213 741.376C601.216 744.27 593.927 746.787 587.207 747.733C585.679 763.356 582.086 778.776 576.558 793.468C575.584 796.058 574.318 798.894 570.958 800C553.952 793.919 542.999 777.889 531.113 764.287C523.244 755.282 514.53 747.02 506.529 738.99C486.28 729.563 470.438 712.383 458.917 693.239C447.381 674.11 446.45 648.726 430.681 631.065C412.206 610.394 387.156 596.895 366.063 578.885C349.756 564.949 335.907 548.366 322.829 531.36C292.543 491.981 265.922 449.795 243.417 405.514C228.608 376.391 215.342 345.406 214.396 312.748C213.785 291.887 218.236 271.245 222.804 250.865C229.336 221.669 236.144 192.531 243.795 164.848C230.136 151.683 212.214 142.984 193.419 140.395C174.61 137.805 155.03 141.34 140.512 150.243C117.964 166.361 103.809 193.637 103.592 221.363C103.519 231.212 104.566 242.529 97.4962 249.366C92.1428 254.545 83.342 255.083 76.7233 251.709C70.0897 248.333 65.5657 241.657 63.4708 234.528C61.3615 227.386 61.4489 219.793 62.1908 212.388C66.2929 171.176 91.5319 132.641 127.652 112.392C163.787 92.1424 209.828 90.7166 247.33 109.133C245.992 95.5752 245.745 81.9158 246.618 68.3288C247.505 54.4509 250.284 39.2638 261.063 30.492C262.387 29.4155 263.841 28.4555 265.383 27.7136C266.023 27.3936 266.663 27.1026 267.333 26.8698C269.544 26.0696 271.871 25.7205 274.199 26.0261C276.134 26.288 277.966 26.9862 279.61 28.019C280.774 28.7318 281.865 29.6047 282.84 30.594C284.033 31.8158 285.08 33.1833 285.938 34.638C288.484 38.973 289.604 43.9916 290.506 48.9376C295.83 78.2354 295.146 109.584 309.388 135.74C318.727 152.862 333.74 166.245 345.072 182.726C355.939 175.657 366.805 168.587 377.672 161.532C389.382 153.909 401.747 145.53 407.1 132.626C409.908 125.862 410.504 118.414 410.577 111.097C410.679 101.35 409.893 91.604 408.22 82.0175C406.286 70.8162 403.158 59.8479 401.514 48.6175C399.856 37.3872 399.754 25.6334 403.711 14.985C405.486 10.228 408.351 5.52949 412.41 2.69269C412.977 2.30005 413.574 1.93637 414.185 1.61621C415.043 1.17989 415.945 0.81621 416.89 0.53973C420.178 -0.40587 423.538 -0.0567504 426.666 1.17989C427.495 1.48533 428.295 1.87813 429.081 2.31461C432.921 4.45301 436.238 7.90037 438.333 11.7845C442.479 19.4653 443.104 28.4701 444.166 37.14C447.163 61.4334 454.625 85.9308 471.093 105.569C498.776 133.107 511.955 174.507 505.278 212.999C502.383 229.641 496.026 245.875 496.346 262.764C496.681 280.119 504.071 296.528 512.493 311.7C523.433 331.368 536.351 349.93 552.643 367.561C574.638 372.652 591.76 389.687 605.987 407.216C615.559 419.014 624.622 431.815 628.142 446.595C633.757 470.161 624.811 496.506 635.227 518.37C643.853 536.437 663.288 546.3 677.428 560.469C688.818 571.888 696.848 586.304 702.827 601.273C709.649 618.322 714.013 636.332 715.803 654.457C723.745 669.935 730.961 685.777 737.449 701.909C738.059 703.422 738.656 705.124 738.001 706.623Z" fill="#270F03"/>
<path d="M567.688 381.511C564.61 377.072 560.856 373.023 556.139 370.308C554.087 369.139 551.846 368.058 549.46 367.911C549.028 367.531 548.437 367.337 547.836 367.522C544.648 368.767 543.656 368.849 540.899 370.743C536.598 373.967 533.398 378.667 532.24 383.936C529.005 400.575 537.735 416.727 546.351 430.374C554.078 442.522 558.138 449.05 558.293 462.821C558.233 469.346 557.767 472.713 555.442 479.399C553.964 483.231 553.9 483.295 552.553 486.767C551.242 488.814 552.562 491.763 555.111 491.733C557.695 491.762 558.267 488.998 559.046 487.068C560.152 484.224 560.925 481.265 561.76 478.334C563.885 470.866 564.633 462.97 563.403 455.279C561.721 442.164 553.546 434.977 547.318 424.13C538.673 410.062 530.613 390.926 538.874 378.553C543.646 380.489 547.759 383.988 551.618 388.559C552.799 389.972 553.325 390.715 554.573 392.527C555.035 393.386 556.43 393.205 556.659 392.254C556.809 391.729 556.515 391.285 556.206 390.886C555.373 389.698 554.504 388.535 553.596 387.403C551.168 384.456 548.48 381.693 545.363 379.471C543.793 378.437 542.116 377.371 540.353 376.593C540.697 376.198 541.061 375.811 541.445 375.433C543.625 373.409 543.491 373.551 546.938 371.786C547.675 371.348 548.7 371.166 549.386 370.639C550.812 370.705 552.227 371.303 553.677 371.96C558.462 374.274 562.464 377.855 565.313 381.67C566.229 382.652 566.983 384.69 568.058 385.272C568.691 385.461 569.37 384.938 569.361 384.279C569.14 383.235 568.223 382.425 567.688 381.511Z" fill="white"/>
<path d="M501.524 504.496C500.203 494.504 496.324 484.992 491.686 476.106C486.476 466.586 480.088 457.784 473.681 449.048C467.099 440.151 459.893 431.687 451.624 424.308C445.171 418.342 437.9 413.195 429.693 409.949C422.318 406.777 413.976 404.378 406.045 406.863C382.002 414.482 388.823 443.465 396.089 461.264C404.542 481.663 418.781 490.136 417.219 510.488C416.992 516.333 415.393 522.781 412.695 530.454C411.427 533.96 411.56 533.64 410.24 536.974C409.947 537.607 409.872 538.325 410.056 539C410.674 541.568 414.602 541.938 415.587 539.423C418.623 533.354 419.65 530.993 421.728 525.481C426.326 513.194 426.342 499.065 420.179 487.312C415.628 478.33 409.025 470.561 404.54 461.536C398.657 449.5 394.123 433.717 397.353 423.265C404.034 425.592 410.95 430.283 415.536 436.259C416.188 436.946 416.529 438.031 417.358 438.492C418.023 438.697 418.644 437.9 418.27 437.305C415.104 432.656 411.125 428.51 406.419 425.406C403.783 423.839 401.049 422.182 398.113 421.222C399.436 418.249 401.525 415.832 404.579 414.243C405.471 413.768 406.367 413.394 407.27 413.072C407.193 413.623 407.421 414.208 408.115 414.391C411.486 414.927 413.106 416.033 416.257 417.651C421.055 420.464 423.436 422.402 427.358 427.245C427.392 427.293 427.436 427.353 427.482 427.42C427.961 428.012 428.256 428.873 429.061 429.08C430.321 429.472 431.489 427.961 430.783 426.839C427.85 422.935 424.478 419.292 420.27 416.744C417.13 414.984 413.864 413.119 410.33 412.302C414.679 411.6 419.488 412.508 425.823 415.111C448.427 423.947 465.935 448.957 480.517 471.772C487.455 483.692 491.494 491.832 494.245 505.4C494.597 507.545 494.326 506.019 494.906 509.223C494.916 509.295 494.925 509.365 494.936 509.44C494.949 509.519 494.963 509.612 494.975 509.716C494.988 509.803 495 509.889 495.013 509.964C495.001 509.905 494.995 509.873 494.985 509.821C495.001 509.972 495.013 510.133 495.014 510.293C495.593 518.053 495.427 525.854 495.181 533.625C495.179 537.171 500.649 537.292 500.698 533.625C501.292 524.006 502.371 510.939 501.524 504.496Z" fill="white"/>
<path d="M494.935 509.44C494.88 509.118 494.845 509.095 494.985 509.821C494.981 509.786 494.978 509.749 494.974 509.716C494.961 509.626 494.948 509.534 494.935 509.44Z" fill="white"/>
<path d="M581.646 747.555C581.15 747.048 580.218 747.281 580.043 747.978C577.77 757.021 576.233 766.681 573.863 774.886C572.813 778.48 571.489 781.652 570.509 784.723C569.667 787.488 569.466 789.275 568.244 790.906C568.208 790.93 568.163 790.986 568.161 790.998C568.127 791.032 568.089 791.071 568.051 791.111C567.904 791.08 567.607 791.015 567.368 790.908C566.593 790.562 565.88 790.093 565.208 789.578C555.133 781.721 545.135 767.049 537.442 758.015C536.808 756.869 534.985 757.961 535.746 759.066C541.021 766.994 546.856 774.329 553.687 781.842C556.037 784.443 558.648 786.783 561.283 789.088C563.058 790.46 567.086 794.493 569.29 792.547C569.417 792.403 569.515 792.242 569.587 792.07C569.613 792.063 569.806 791.552 569.891 791.273C570.362 790.291 570.559 789.763 570.793 789.339C573.554 784.528 574.967 778.13 576.739 771.927C578.513 766.013 581.101 757.75 581.596 751.585C581.722 750.216 581.789 749.724 581.927 748.233C581.93 747.978 581.822 747.735 581.646 747.555Z" fill="white"/>
<path d="M731.693 699.629C729.79 692.477 726.247 685.86 723.289 679.102C721.304 674.577 718.787 670.321 715.877 666.331C715.621 665.878 715.165 665.454 714.607 665.577C713.224 665.841 713.59 667.245 714.306 668.033C715.534 669.894 716.736 671.772 717.812 673.725C720.511 678.656 722.603 683.892 725.082 688.935C727.297 693.664 729.552 698.631 729.473 702.366C729.076 702.531 728.691 702.626 728.306 702.718C724.189 703.561 718.347 703.813 712.912 703.796C705.82 703.64 700.75 702.808 693.714 701.401C688.479 700.289 683.203 699.19 678.169 697.343C676.506 696.712 675.938 696.458 674.213 695.578C673.968 695.437 673.677 695.398 673.404 695.472C672.542 695.682 672.355 696.963 673.153 697.392C678.393 700.102 684.21 701.355 689.928 702.622C700.492 704.949 711.341 705.835 722.146 705.448C725.436 705.263 728.151 705.27 730.726 704.595C732.593 703.711 731.995 701.257 731.693 699.629Z" fill="white"/>
<path d="M573.168 748.218C572.425 747.85 571.475 748.495 571.502 749.317C571.394 757.499 569.089 765.973 565.753 774.319C565.701 774.457 565.647 774.595 565.594 774.733C565.626 774.663 565.639 774.632 565.656 774.592C565.225 775.423 566.226 776.4 567.053 775.888C570.266 771.264 571.891 765.536 573.117 760.065C573.712 757.206 573.93 754.799 573.995 751.198C573.869 750.216 574.281 748.703 573.168 748.218Z" fill="white"/>
<path d="M565.82 750.994C565.193 757.162 563.598 764.95 560.814 770.455C560.261 771.285 561.283 772.354 562.137 771.83C564.366 768.745 565.231 764.712 566.075 761.03C566.584 757.626 567.254 754.139 567.23 750.71C566.967 749.98 565.792 750.215 565.82 750.994Z" fill="white"/>
<path d="M560.616 750.12C559.837 749.731 558.838 750.412 558.867 751.274C558.761 754.08 558.516 755.495 557.822 758.49C557.701 759.454 556.997 760.504 557.445 761.443C558.037 762.486 559.635 762.068 559.772 760.912C560.585 758.238 561.089 755.465 561.324 752.68C561.347 751.8 561.678 750.512 560.616 750.12Z" fill="white"/>
<path d="M709.555 696.531C700.832 696.883 692.849 696.506 685.001 694.837C681.442 694.119 679.481 693.207 676.693 691.991C675.14 691.687 674.344 694.004 675.739 694.751C680.918 697.44 686.842 698.037 692.566 698.603C698.275 699.079 705.811 699.276 710.469 698.511C711.776 697.842 710.913 696.212 709.555 696.531Z" fill="white"/>
<path d="M706.333 690.39C705.567 690.112 705.795 690.327 704.934 690.398C699.076 691.539 693.622 691.783 687.139 691.17C685.754 691.101 683.438 690.55 681.321 690.291C680.262 690.372 680.151 692.013 681.187 692.257C689.416 694.127 698.316 694.423 706.43 691.972C706.977 691.607 706.902 690.7 706.333 690.39Z" fill="white"/>
<path d="M709.118 683.938C708.507 683.828 707.902 684.158 707.299 684.246C701.909 685.381 697.09 686.9 692.384 687.226C691.345 687.282 690.296 687.327 689.263 687.191C688.761 687.115 688.238 686.923 687.776 687.198C686.966 687.638 687.134 688.956 688.034 689.173C695.069 690.918 703.768 687.82 709.455 685.67C710.111 685.227 709.877 684.124 709.118 683.938Z" fill="white"/>
<path d="M590.02 587.877C586.891 590.892 583.186 593.307 579.164 594.953C578.719 595.135 578.093 595.251 577.856 594.833C577.752 594.65 577.771 594.425 577.796 594.217C578.132 591.469 579.046 588.792 580.463 586.414C580.716 585.989 580.995 585.562 581.402 585.281C582.027 584.848 582.842 584.829 583.602 584.855C585.528 584.923 587.446 585.183 589.32 585.63C589.71 585.723 590.124 585.84 590.382 586.146C590.641 586.452 590.786 587.139 590.02 587.877Z" fill="white"/>
<path d="M268.511 47.7886C268.351 48.6177 267.144 48.7925 266.751 48.0505C266.402 47.3814 266.926 46.6541 267.013 45.9702C268.308 40.1661 267.842 33.1398 265.384 27.7139C266.024 27.3939 266.664 27.1029 267.333 26.8701C268.308 29.0376 268.686 31.5104 269.079 33.7944C269.835 38.4494 269.486 43.2064 268.511 47.7886Z" fill="white"/>
<path d="M282.36 47.3079C282.156 48.1807 280.774 48.079 280.701 47.1914C280.934 45.475 281.341 44.282 281.429 42.3039C281.792 37.1978 281.502 31.917 279.61 28.0186C280.774 28.7314 281.865 29.6042 282.84 30.5935C284.018 36.1068 283.669 41.882 282.36 47.3079Z" fill="white"/>
<path d="M416.498 27.8155C416.527 28.4702 415.669 28.8193 415.232 28.3537C415.087 28.2083 414.999 28.0191 415.014 27.8155C415.13 26.6663 415.247 25.5171 415.32 24.3532C415.712 18.1999 415.32 12.9484 413.937 7.31861C413.399 5.39845 413.065 4.04565 412.41 2.69269C412.977 2.30005 413.574 1.93637 414.185 1.61621C415.189 3.68197 415.654 6.02405 416.163 8.22053C417.327 14.6796 417.356 21.3129 416.498 27.8155Z" fill="white"/>
<path d="M431.38 26.7678C431.191 27.5969 429.983 27.7571 429.59 27.0152C429.241 26.2296 429.78 25.3275 429.823 24.5129C430.696 20.207 430.536 15.1883 429.838 11.1587C429.169 7.63841 428.528 4.70001 426.696 2.06689C426.507 1.74689 426.521 1.42689 426.667 1.17969C427.496 1.48513 428.296 1.87793 429.081 2.31441C430.201 4.35089 430.74 6.67857 431.205 8.93313C432.238 14.8246 431.947 20.8472 431.38 26.7678Z" fill="white"/>
<path d="M560.794 658.789C574.007 645.576 574.007 624.153 560.794 610.939C547.58 597.726 526.157 597.726 512.944 610.939C499.73 624.153 499.73 645.576 512.944 658.789C526.157 672.003 547.581 672.003 560.794 658.789Z" fill="white"/>
<path d="M558.374 634.864C558.374 646.741 548.746 656.368 536.869 656.368C524.992 656.368 515.364 646.741 515.364 634.864C515.364 622.987 524.992 613.359 536.869 613.359C548.746 613.359 558.374 622.987 558.374 634.864Z" fill="#270F03"/>
<path d="M674.162 590.86C678.25 573.414 667.422 555.956 649.975 551.868C632.529 547.779 615.072 558.608 610.983 576.054C606.894 593.5 617.723 610.958 635.169 615.046C652.616 619.135 670.073 608.306 674.162 590.86Z" fill="white"/>
<path d="M642.572 604.078C653.961 604.078 663.193 594.846 663.193 583.457C663.193 572.068 653.961 562.836 642.572 562.836C631.184 562.836 621.951 572.068 621.951 583.457C621.951 594.846 631.184 604.078 642.572 604.078Z" fill="#270F03"/>
</g>
<defs>
<clipPath id="clip0_250_711">
<rect width="800" height="800" fill="white"/>
</clipPath>
</defs>
</svg>
