<svg width="142" height="49" viewBox="0 0 142 49" fill="none" xmlns="http://www.w3.org/2000/svg">
<path d="M33.0025 10.6604C32.0498 11.4119 30.8646 11.8086 29.6507 11.7823C30.2197 10.3642 30.4725 9.21481 30.4725 8.33059C30.4725 7.51024 30.1563 7.08488 29.5873 7.11485C29.1448 7.138 28.7021 7.66609 28.3864 8.75534C27.9771 10.3085 27.6605 11.8845 27.438 13.4751L30.9154 13.3562C31.0401 13.3367 31.1676 13.3461 31.2882 13.3835C31.4087 13.421 31.519 13.4855 31.6107 13.5722C31.6966 13.6497 31.764 13.7454 31.8078 13.8524C31.8516 13.9594 31.8707 14.0749 31.8637 14.1902C31.8752 14.45 31.7844 14.704 31.6107 14.8977C31.4311 15.0975 31.183 15.2229 30.9154 15.2491L27.1221 15.5738L26.7425 18.8752C25.9207 25.734 25.1621 30.5699 24.4666 33.3199C23.9607 35.1763 23.0124 36.5512 21.6847 37.4412C20.3114 38.2827 18.7439 38.7566 17.1336 38.8172C16.247 38.8801 15.3561 38.842 14.4781 38.7037C13.865 38.6108 13.2687 38.4294 12.708 38.1651C12.3284 37.9958 12.3918 37.8662 12.8345 37.843C14.2253 37.7703 15.4264 36.2559 16.3752 33.3033C17.3239 30.3508 18.3981 26.0661 19.5997 20.3867L20.548 16.1083L19.5997 16.1579C19.1572 16.181 18.7779 16.0752 18.5882 15.8324C18.4671 15.7521 18.3686 15.6421 18.3022 15.513C18.2358 15.3839 18.2037 15.2399 18.2089 15.0949C18.2326 14.7224 18.3948 14.3721 18.6639 14.1129C18.9329 13.8536 19.2892 13.7041 19.663 13.6935L21.1172 13.6175C21.6862 11.5051 22.192 9.83783 22.6347 8.61562C20.0307 9.63876 17.3711 10.5151 14.6686 11.2406C11.7603 12.087 9.16831 12.5379 6.95527 12.6537C4.42648 12.7862 2.71929 12.4336 1.83432 11.5332C0.632147 10.3975 0 9.04202 0 7.5274C0.0208033 6.31384 0.346905 5.12498 0.948324 4.07012C1.54847 3.00815 2.29316 2.03434 3.16115 1.17648C3.98296 0.440251 4.6795 0.0252207 5.12095 0.00103811C5.43713 -0.015497 5.56343 0.166389 5.56343 0.482829C5.56343 2.06048 6.32209 3.15676 7.83962 3.70862C9.35714 4.26048 11.4424 4.46675 14.1617 4.32435C16.6829 4.18255 19.1944 3.90373 21.6852 3.48912C22.3807 3.3897 23.329 3.27685 24.5935 3.14767C25.858 3.01849 26.8695 2.90253 27.6915 2.85954L29.7144 2.69068C31.0423 2.62123 32.1163 2.88042 33.0021 3.46535C33.8872 4.11297 34.3298 5.352 34.3298 7.18244C34.3298 8.76016 33.8872 9.91927 33.0021 10.6598" fill="white"/>
<path d="M39.4504 27.7405C40.3987 27.6909 42.8012 24.8516 42.8012 24.8516L43.5599 27.1469C43.5599 27.1469 40.9046 31.8927 35.3407 32.1837C27.5645 32.5905 36.7317 4.0908 35.2774 2.52596C35.2774 2.52596 42.1055 1.34783 42.1055 5.19782C42.1055 6.58615 36.0992 27.9156 39.45 27.7403" fill="white"/>
<path d="M57.5326 26.7951C57.5326 26.7951 53.3597 31.1149 47.6696 31.4131C34.8353 32.0845 40.8416 14.4155 49.5033 13.9624C54.2449 13.7144 55.5094 16.1095 55.5094 18.2551C55.5094 23.3037 50.0723 24.9136 46.8478 25.5239C47.2905 26.8261 48.0487 27.733 49.3134 27.6669C53.5496 27.4453 56.7737 24.1212 56.7737 24.1212L57.5326 26.7951ZM46.595 23.2653C50.9572 22.0272 52.7276 17.391 50.5146 17.5067C47.9858 17.639 46.6581 20.5483 46.595 23.2653Z" fill="white"/>
<path d="M72.8944 25.6119C72.8944 25.6119 69.7964 30.2547 64.9914 30.5061C63.664 30.5755 62.1465 28.8247 60.6292 26.443C58.2894 28.6477 56.5828 30.4412 57.0885 30.9197C57.0885 30.9197 50.766 31.5029 52.157 27.833C52.5997 26.5474 55.1287 24.2064 57.9105 21.789C56.2033 18.5336 54.686 15.4575 53.6745 14.564C53.6745 14.564 57.7208 11.0709 60.4393 14.5255C60.6923 14.891 61.5141 16.1733 62.4624 17.8276C64.6751 15.8188 66.4454 14.1485 66.4454 13.3912C66.4454 13.3912 70.4284 13.3086 70.4284 15.9595C70.4284 17.0325 67.9627 19.5596 65.1811 22.2294C66.4454 24.2459 67.6468 25.8878 68.1524 25.9238C70.1755 25.818 71.9459 23.2011 71.9459 23.2011L72.8944 25.6119Z" fill="white"/>
<path d="M71.1871 13.3328C71.1871 13.3328 77.5727 12.4308 77.5727 15.2075C77.5727 18.1737 74.9806 25.6298 77.3197 25.5074C78.7739 25.4314 80.7337 23.12 80.7337 23.12L81.8725 25.143C81.8725 25.143 78.6482 29.7925 73.9064 30.0415C66.2564 30.4417 72.7676 14.9549 71.1879 13.3337" fill="white"/>
<path d="M76.6255 5.34891C75.298 4.91342 73.7174 6.13205 73.1482 8.05509C72.516 9.98142 73.1481 11.8416 74.476 12.2769C75.8039 12.7122 77.3845 11.4936 77.9533 9.57073C78.5855 7.6444 77.9533 5.7842 76.6255 5.34891Z" fill="white"/>
<path d="M112.725 23.0872C112.725 23.0872 109.501 28.1783 105.202 28.4032C94.4539 28.9654 104.949 16.0472 100.966 16.2555C96.9194 16.4672 94.7066 27.9425 95.4654 28.6601C96.2874 29.3745 88.7638 31.6613 88.7638 26.9283C88.7638 25.4767 92.0514 16.9113 89.1433 17.0635C87.2467 17.1627 85.1602 22.4469 85.1602 22.4469C84.3383 25.7715 83.5797 28.651 83.8957 28.8871C84.5278 29.485 77.8262 31.0986 77.8262 27.8162C77.8262 25.8599 80.6711 13.1525 79.5334 12.0761C79.5334 12.0761 86.6147 11.1377 86.6147 14.0396C86.6218 14.4204 86.6006 14.8012 86.5514 15.1789C88.0689 13.1432 90.1542 11.4562 93.1267 11.3008C97.2362 11.0858 97.742 14.0255 97.5523 16.1811C99.5121 13.8067 102.484 10.8113 105.265 10.6658C112.726 10.2754 104.001 24.5528 108.047 24.341C109.881 24.2463 112.409 21.022 112.409 21.022L112.725 23.0872Z" fill="white"/>
<path d="M141.618 27.0035C141.897 27.8299 142.025 28.6995 141.997 29.5712C141.998 31.6501 141.334 33.675 140.1 35.3502C138.836 37.0572 136.749 37.9867 133.841 38.1388C131.501 38.2612 129.352 37.9942 127.456 37.2739C125.497 36.5779 123.646 35.6127 121.955 34.4061C120.438 36.9467 118.541 38.2449 116.202 38.3672C114.115 38.4764 112.599 38.0508 111.523 37.0973C111.009 36.6567 110.6 36.1066 110.326 35.4876C110.053 34.8685 109.922 34.1961 109.943 33.5198C109.943 32.0682 110.512 30.7131 111.586 29.521C112.661 28.2657 114.115 27.6217 115.949 27.5258C117.088 27.4663 118.604 27.7023 120.437 28.1744C120.864 26.4287 121.201 24.6627 121.449 22.8832C120.943 23.5406 120.058 24.2812 118.857 25.1013C117.571 25.929 116.087 26.3988 114.558 26.4622C113.293 26.5283 112.408 26.196 111.902 25.4021C111.397 24.6082 111.144 23.5485 111.144 22.1602C111.153 21.2703 111.216 20.3818 111.333 19.4997C111.46 18.5464 111.523 17.8488 111.586 17.5301C111.852 16.2553 112 14.9589 112.029 13.6572C112.029 12.7106 111.839 12.0264 111.46 11.6674C112.109 11.5581 112.763 11.4817 113.419 11.4386C114.374 11.3722 115.333 11.4496 116.264 11.6684C117.023 11.9442 117.403 12.3662 117.403 13.0603C117.403 14.0069 117.213 15.4052 116.897 17.3782C116.637 18.5899 116.489 19.8229 116.455 21.0616C116.455 22.3238 116.834 22.935 117.594 22.8954C118.163 22.8656 118.794 22.2015 119.364 20.9732C119.933 19.7448 120.375 18.2697 120.818 16.5426C121.155 15.1896 121.346 13.8044 121.387 12.4107C121.387 11.7164 121.261 11.2183 121.071 11.0389L122.462 10.9029C125.56 10.7408 127.077 11.3557 127.077 12.6804C127.077 14.0687 126.887 16.4768 126.445 19.8448C126.045 23.1211 125.325 26.3504 124.295 29.4867C127.204 30.4072 129.669 30.8463 131.692 30.7404C134.032 30.6181 135.865 30.2066 137.193 29.443C138.457 28.6826 139.342 28.0686 139.848 27.4739C140.291 26.8828 140.607 26.5506 140.733 26.4818C141.049 26.1497 141.302 26.3258 141.618 27.0035M118.668 31.9277C117.214 30.7415 116.013 30.1733 115.128 30.2196C114.998 30.2153 114.868 30.2389 114.748 30.2888C114.628 30.3388 114.52 30.4138 114.432 30.5089C114.344 30.5762 114.274 30.6649 114.23 30.7667C114.185 30.8684 114.168 30.9798 114.179 31.0901C114.179 31.5319 114.432 31.9604 114.938 32.3757C115.444 32.791 116.139 32.9439 116.961 32.9012C117.301 32.8798 117.632 32.7811 117.928 32.6124C118.223 32.4438 118.477 32.2098 118.668 31.9283" fill="white"/>
<path d="M107.051 32.5552C107.051 32.5552 58.3526 32.5552 25.4882 39.2439C25.4882 39.2439 23.4143 44.6178 24.9706 48.2018C66.6099 35.4218 107.052 34.5857 107.052 34.5857L107.051 32.5552Z" fill="white"/>
</svg>
