<svg width="56" height="56" viewBox="0 0 56 56" fill="none" xmlns="http://www.w3.org/2000/svg">
<g clip-path="url(#clip0_171_2051)">
<path d="M37.1097 37.667C37.5693 38.1173 37.5787 38.857 37.1283 39.3167L31.26 45.3133C30.371 46.2023 29.2067 46.6527 28.0447 46.6643C26.8803 46.655 25.632 46.207 24.7477 45.3227L18.87 39.3167C18.4197 38.857 18.429 38.1173 18.8887 37.667C19.353 37.2167 20.0927 37.2283 20.5383 37.6857L26.4067 43.6823C26.5373 43.813 26.6797 43.9227 26.8337 44.016V26.8357C26.8337 26.1917 27.3563 25.669 28.0003 25.669C28.6443 25.669 29.167 26.1917 29.167 26.8357V44.016C29.321 43.9227 29.468 43.8107 29.6033 43.6753L35.4623 37.688C35.9127 37.2307 36.6523 37.219 37.112 37.6693L37.1097 37.667ZM51.3337 23.3007V45.5023C51.3337 51.2913 46.6227 56.0023 40.8337 56.0023H15.167C9.37799 56.0023 4.66699 51.2913 4.66699 45.5023V10.5C4.66699 4.711 9.37799 0 15.167 0H28.0353C32.0837 0 35.894 1.57733 38.7617 4.44267L46.891 12.5743C49.7563 15.4373 51.3337 19.2453 51.3337 23.2983V23.3007ZM32.667 15.169C32.667 17.0987 34.2373 18.669 36.167 18.669H48.1417C47.5047 17.0217 46.5247 15.512 45.239 14.2263L37.1097 6.09467C35.8217 4.809 34.312 3.83133 32.667 3.19433V15.169ZM49.0003 23.3007C49.0003 22.5213 48.9303 21.7537 48.795 21.0023H36.167C32.9493 21.0023 30.3337 18.3843 30.3337 15.169V2.53867C29.5823 2.40333 28.8147 2.33333 28.0353 2.33333H15.167C10.6637 2.33333 7.00033 5.99667 7.00033 10.5V45.5C7.00033 50.0033 10.6637 53.6667 15.167 53.6667H40.8337C45.337 53.6667 49.0003 50.0033 49.0003 45.5V23.2983V23.3007ZM28.0447 46.6643C28.0587 46.6643 28.0283 46.6643 28.0447 46.6643Z" fill="#272727"/>
</g>
<defs>
<clipPath id="clip0_171_2051">
<rect width="56" height="56" fill="white"/>
</clipPath>
</defs>
</svg>
