<svg width="56" height="56" viewBox="0 0 56 56" fill="none" xmlns="http://www.w3.org/2000/svg">
<g clip-path="url(#clip0_171_2056)">
<path d="M33.8893 7H30.3893V18.6667H33.8893C35.8213 18.6667 37.3893 17.0987 37.3893 15.1667C37.3893 14.2287 37.0137 13.384 36.393 12.8893C36.9927 12.2617 37.3893 11.438 37.3893 10.5C37.3893 8.568 35.8213 7 33.8893 7ZM33.8893 16.3333H32.7227V14H33.8893C34.5333 14 35.056 14.5227 35.056 15.1667C35.056 15.8107 34.5333 16.3333 33.8893 16.3333ZM33.8893 11.6667H32.7227V9.33333H33.8893C34.5333 9.33333 35.056 9.856 35.056 10.5C35.056 11.144 34.5333 11.6667 33.8893 11.6667ZM44.24 15.2413C44.359 14.574 43.3673 14.154 43.0593 14.0397C41.6057 13.503 40.2943 12.9173 40.2943 12.9173C39.1347 12.18 38.6237 11.0437 38.7917 9.863C38.9737 8.60767 39.8907 7.58567 41.188 7.19367C43.736 6.426 45.7333 8.316 45.822 8.38833L44.38 10.087C44.331 10.0473 43.1573 9.13033 41.8857 9.50833C41.3187 9.67867 41.2067 10.0543 41.1857 10.206C41.1717 10.3203 41.1623 10.6027 41.4377 10.7893C41.468 10.7893 42.6253 11.298 43.8993 11.7693C46.263 12.642 46.8557 14.3523 46.6223 15.6637C46.312 17.402 44.653 18.6643 42.6767 18.6643C41.0783 18.6643 39.578 18.0203 38.5583 16.8957L40.348 15.2717C40.901 15.8807 41.7713 16.247 42.6767 16.247C43.5423 16.247 44.1537 15.7337 44.2423 15.239L44.24 15.2413ZM23.3333 7V15.1667C23.3333 15.8107 23.856 16.3333 24.5 16.3333C25.144 16.3333 25.6667 15.8107 25.6667 15.1667V7H28V15.1667C28 17.0963 26.4297 18.6667 24.5 18.6667C22.5703 18.6667 21 17.0963 21 15.1667V7H23.3333ZM16.24 15.2413C16.359 14.574 15.3673 14.154 15.0593 14.0397C13.6057 13.503 12.2943 12.9173 12.2943 12.9173C11.1347 12.18 10.6237 11.0437 10.7917 9.863C10.9737 8.60767 11.8907 7.58567 13.188 7.19367C15.736 6.426 17.7333 8.316 17.822 8.38833L16.38 10.087C16.331 10.0473 15.1573 9.13033 13.8857 9.50833C13.3187 9.67867 13.2067 10.0543 13.1857 10.206C13.1717 10.3203 13.1623 10.6027 13.4377 10.7893C13.468 10.7893 14.6253 11.298 15.8993 11.7693C18.263 12.642 18.8557 14.3523 18.6223 15.6637C18.312 17.402 16.653 18.6643 14.6767 18.6643C13.0783 18.6643 11.578 18.0203 10.5583 16.8957L12.348 15.2717C12.901 15.8807 13.7713 16.247 14.6767 16.247C15.5423 16.247 16.1537 15.7337 16.2423 15.239L16.24 15.2413ZM56 5.83333V25.6667H34.3373C34.0293 24.829 33.593 24.0613 33.1007 23.3333H53.6667V5.83333C53.6667 3.90367 52.0963 2.33333 50.1667 2.33333H5.83333C3.90367 2.33333 2.33333 3.90367 2.33333 5.83333V23.3333H15.8293C15.3393 24.0613 14.959 24.843 14.6673 25.6667H0V5.83333C0 2.618 2.618 0 5.83333 0H50.1667C53.3843 0 56 2.618 56 5.83333ZM30.338 40.0237L49.0047 47.0237V56.0887H46.6713V48.6407L28.0047 41.6407V29.414C28.0047 27.573 26.7563 25.9817 25.0997 25.7133C24.0543 25.5453 23.0323 25.8207 22.2367 26.4973C21.4527 27.1647 21.0023 28.1353 21.0023 29.1643V51.7393L12.9547 45.332C12.929 45.311 12.9057 45.29 12.8823 45.269C11.4683 43.9577 9.25633 44.0323 7.94733 45.437C6.629 46.8463 6.70133 49.07 8.09667 50.379L14.0117 55.9953H10.6517L6.49133 52.066C4.158 49.8797 4.046 46.1907 6.244 43.8433C8.42567 41.5053 12.096 41.3723 14.4457 43.533L18.6713 46.8977V29.162C18.6713 27.4493 19.4203 25.8277 20.727 24.717C22.0337 23.6063 23.7697 23.1373 25.4753 23.4057C28.2473 23.8583 30.338 26.439 30.338 29.4093V40.0167V40.0237Z" fill="#272727"/>
</g>
<defs>
<clipPath id="clip0_171_2056">
<rect width="56" height="56" fill="white"/>
</clipPath>
</defs>
</svg>
