<svg width="59" height="59" viewBox="0 0 59 59" fill="none" xmlns="http://www.w3.org/2000/svg">
<path d="M39.3333 36.8747C39.3333 37.5532 38.7827 38.1038 38.1042 38.1038H30.7292V45.4788C30.7292 46.1573 30.1785 46.708 29.5 46.708C28.8215 46.708 28.2708 46.1573 28.2708 45.4788V38.1038H20.8958C20.2173 38.1038 19.6667 37.5532 19.6667 36.8747C19.6667 36.1962 20.2173 35.6455 20.8958 35.6455H28.2708V28.2705C28.2708 27.592 28.8215 27.0413 29.5 27.0413C30.1785 27.0413 30.7292 27.592 30.7292 28.2705V35.6455H38.1042C38.7827 35.6455 39.3333 36.1962 39.3333 36.8747ZM59 18.4372V45.4788C59 51.578 54.0366 56.5413 47.9375 56.5413H11.0625C4.96337 56.5413 0 51.578 0 45.4788V11.0622C0 6.31759 3.85958 2.45801 8.60417 2.45801H17.346C18.2974 2.45801 19.2463 2.68172 20.0944 3.10701L27.8505 6.98626C28.3593 7.24192 28.9272 7.37467 29.5 7.37467H47.9375C54.0366 7.37467 59 12.338 59 18.4372ZM2.45833 11.0622V17.208H56.4163C55.814 13.0485 52.2592 9.83301 47.9375 9.83301H29.5C28.5486 9.83301 27.5997 9.6093 26.7516 9.18401L18.9955 5.30476C18.4867 5.04909 17.9188 4.91634 17.346 4.91634H8.60417C5.21412 4.91634 2.45833 7.67459 2.45833 11.0622ZM56.5417 45.4788V19.6663H2.45833V45.4788C2.45833 50.2234 6.31792 54.083 11.0625 54.083H47.9375C52.6821 54.083 56.5417 50.2234 56.5417 45.4788Z" fill="#272727"/>
</svg>
