<svg width="56" height="56" viewBox="0 0 56 56" fill="none" xmlns="http://www.w3.org/2000/svg">
<path d="M14 0C6.279 0 0 6.279 0 14C0 15.6287 0.294 17.1873 0.807333 18.641C0.301 19.39 0 20.1763 0 21V49C0 52.99 6.01767 56 14 56C21.9823 56 28 52.99 28 49V21C28 20.1693 27.7177 19.369 27.202 18.613C27.7083 17.1663 28 15.617 28 14C28 6.279 21.721 0 14 0ZM25.6667 39.6667C25.6667 41.8693 20.6757 44.3333 14 44.3333C7.32433 44.3333 2.33333 41.8693 2.33333 39.6667V34.307C4.79967 36.1597 9.016 37.3333 14 37.3333C18.984 37.3333 23.2003 36.1597 25.6667 34.307V39.6667ZM25.6667 30.3333C25.6667 32.536 20.6757 35 14 35C7.32433 35 2.33333 32.536 2.33333 30.3333V24.9737C4.79967 26.8263 9.016 28 14 28C18.984 28 23.2003 26.8263 25.6667 24.9737V30.3333ZM14 2.33333C20.433 2.33333 25.6667 7.567 25.6667 14C25.6667 20.433 20.433 25.6667 14 25.6667C7.567 25.6667 2.33333 20.433 2.33333 14C2.33333 7.567 7.567 2.33333 14 2.33333ZM14 53.6667C7.32433 53.6667 2.33333 51.2027 2.33333 49V43.6403C4.79967 45.493 9.016 46.6667 14 46.6667C18.984 46.6667 23.2003 45.493 25.6667 43.6403V49C25.6667 51.2027 20.6757 53.6667 14 53.6667ZM8.13633 10.752C8.13633 8.68233 9.77667 7 11.795 7H12.831V5.83333C12.831 5.18933 13.3537 4.66667 13.9977 4.66667C14.6417 4.66667 15.1643 5.18933 15.1643 5.83333V7H16.1723C18.2607 7 19.831 8.505 19.831 10.5C19.831 11.144 19.3083 11.6667 18.6643 11.6667C18.0203 11.6667 17.4977 11.144 17.4977 10.5C17.4977 9.639 16.7813 9.33333 16.1723 9.33333H11.795C11.0647 9.33333 10.4697 9.97033 10.4697 10.752C10.4697 11.3867 10.871 11.9513 11.445 12.1193L17.4207 13.6267C19.0237 14.1027 20.1087 15.5843 20.1087 17.2457C20.1087 19.3153 18.4683 20.9977 16.45 20.9977H15.1667V22.1643C15.1667 22.8083 14.644 23.331 14 23.331C13.356 23.331 12.8333 22.8083 12.8333 22.1643V20.9977H11.8253C9.737 20.9977 8.16667 19.4927 8.16667 17.4977C8.16667 16.8537 8.68933 16.331 9.33333 16.331C9.97733 16.331 10.5 16.8537 10.5 17.4977C10.5 18.3587 11.2163 18.6643 11.8253 18.6643H16.4477C17.178 18.6643 17.773 18.0273 17.773 17.2457C17.773 16.611 17.374 16.0463 16.8 15.8783L10.8243 14.371C9.219 13.895 8.13633 12.4133 8.13633 10.752ZM53.6713 47.453L46.4287 54.6443C45.5583 55.5077 44.4033 55.9907 43.1737 56C41.8787 55.9907 40.7143 55.5217 39.872 54.6863L32.6293 47.495C32.1743 47.04 32.1697 46.3027 32.6247 45.843C33.075 45.388 33.8147 45.3833 34.2743 45.8383L41.517 53.0297C41.6687 53.179 41.832 53.2887 41.9977 53.3773V1.16667C41.9977 0.522667 42.5203 0 43.1643 0C43.8083 0 44.331 0.522667 44.331 1.16667V53.291C44.485 53.1953 44.6507 53.1183 44.7813 52.9877L52.024 45.7963C52.4837 45.3413 53.2233 45.3483 53.6737 45.801C54.1287 46.2583 54.124 46.998 53.669 47.453H53.6713Z" fill="#353148"/>
</svg>
