<svg width="58" height="58" viewBox="0 0 58 58" fill="none" xmlns="http://www.w3.org/2000/svg">
<path d="M54.4523 41.001C49.6915 36.2426 40.8562 33.8332 28.9952 33.8332C20.6166 33.8718 9.40325 35.1454 3.54767 41.001C1.25908 43.292 0 46.2838 0 49.5053L0.205417 52.4415C0.205417 55.501 2.68733 57.9902 5.89908 57.9902H5.92083L11.9528 57.1878C14.9882 57.1878 17.4628 54.7398 17.5112 51.7165L18.0187 47.961C21.373 46.5642 24.9835 45.931 28.9903 45.9141C32.9609 45.9358 36.5617 46.6101 39.9789 47.9755L40.484 51.6295C40.484 54.689 42.9659 57.1782 45.8683 57.1782H45.8853L52.2338 57.9998C55.3006 57.9998 57.7922 55.5083 57.7898 52.5261L58 49.4231C58 46.2838 56.7409 43.292 54.4523 41.001ZM55.3755 52.4439C55.3755 54.1743 53.9666 55.5832 52.3933 55.5928L46.0448 54.7712C44.312 54.7712 42.9031 53.3623 42.891 51.4676L42.2796 46.9629C42.224 46.5424 41.9485 46.1823 41.557 46.0132C37.6517 44.3481 33.5482 43.524 29.0073 43.4998C24.4639 43.4998 20.2154 44.3263 16.4237 46.0228C16.0418 46.192 15.7736 46.5497 15.7204 46.9629L15.109 51.4676C15.1018 51.5208 15.0969 51.5763 15.0969 51.6295C15.0969 53.3623 13.688 54.7712 11.7982 54.7808L5.76617 55.5832C4.03342 55.5832 2.6245 54.1743 2.62208 52.3593L2.41667 49.4231C2.41667 46.9291 3.422 44.5438 5.25625 42.7096C10.5294 37.4364 21.083 36.2861 29.0048 36.2498C40.4888 36.2933 48.401 38.3693 52.7438 42.7096C54.578 44.5463 55.5858 46.9291 55.5858 49.3409L55.3755 52.4439ZM50.3948 5.186C49.9235 4.71475 49.1574 4.71475 48.6862 5.186L33.4322 20.44C32.5742 21.2979 31.4336 21.7716 30.218 21.7716C29 21.7716 27.8569 21.2955 26.999 20.4328L11.4453 4.83317H22.9583C23.6253 4.83317 24.1667 4.29184 24.1667 3.62484C24.1667 2.95784 23.6253 2.4165 22.9583 2.4165H10.875C8.87642 2.4165 7.25 4.04292 7.25 6.0415V18.1248C7.25 18.7918 7.79133 19.3332 8.45833 19.3332C9.12533 19.3332 9.66667 18.7918 9.66667 18.1248V6.47409L25.2832 22.1413C26.6003 23.4608 28.3499 24.1883 30.2132 24.1907H30.218C32.0788 24.1907 33.8261 23.4657 35.1408 22.151L50.3948 6.897C50.866 6.42575 50.866 5.65967 50.3948 5.18842V5.186Z" fill="#353148"/>
</svg>
